<svg width="18" height="15" viewBox="0 0 18 15" fill="none" xmlns="http://www.w3.org/2000/svg">
<path fill-rule="evenodd" clip-rule="evenodd" d="M15.647 0.128267C15.8456 0.00878538 16.0828 -0.0291095 16.3087 0.0225354C16.5347 0.0741804 16.7319 0.21135 16.8589 0.405254L17.7463 1.75882C17.862 1.93564 17.9115 2.14765 17.8861 2.35742C17.8607 2.56719 17.762 2.76124 17.6074 2.90531L17.6047 2.9089L17.5921 2.92055L17.541 2.96806L17.3394 3.16078C16.2234 4.24333 15.1412 5.36018 14.0944 6.50973C12.125 8.67543 9.78631 11.5098 8.21223 14.26C7.773 15.0273 6.70001 15.1922 6.06356 14.5298L0.25042 8.48987C0.167113 8.40329 0.102066 8.30083 0.0591432 8.1886C0.0162209 8.07637 -0.00369991 7.95666 0.00056483 7.83657C0.00482957 7.71649 0.0331928 7.59849 0.0839687 7.48959C0.134745 7.38069 0.206897 7.28311 0.296136 7.20265L2.05308 5.61781C2.20747 5.47861 2.40545 5.3974 2.61313 5.38808C2.8208 5.37876 3.02526 5.44191 3.1915 5.56672L6.15769 7.79068C10.7912 3.22174 13.4185 1.46838 15.647 0.128267Z" fill="white"/>
</svg>
