<svg width="140" height="40" viewBox="0 0 140 40" fill="none" xmlns="http://www.w3.org/2000/svg">
<rect x="0.5" y="0.5" width="139" height="39" rx="3.5" fill="white"/>
<rect x="0.5" y="0.5" width="139" height="39" rx="3.5" stroke="#CFD4DB"/>
<g clip-path="url(#clip0_373_4183)">
<path d="M25.3189 22.5035L24.4835 25.6222L21.4301 25.6868C20.5176 23.9943 20 22.0578 20 20C20 18.0101 20.4839 16.1336 21.3417 14.4813H21.3424L24.0608 14.9797L25.2516 17.6818C25.0024 18.4084 24.8665 19.1884 24.8665 20C24.8666 20.8809 25.0262 21.7249 25.3189 22.5035Z" fill="#FBBB00"/>
<path d="M43.7903 17.7582C43.9281 18.4841 44 19.2338 44 20C44 20.8591 43.9097 21.6971 43.7376 22.5055C43.1534 25.2563 41.627 27.6582 39.5125 29.358L39.5119 29.3574L36.088 29.1827L35.6034 26.1576C37.0064 25.3347 38.1029 24.047 38.6805 22.5055H32.2638V17.7582H38.7741H43.7903Z" fill="#518EF8"/>
<path d="M39.5118 29.3574L39.5125 29.358C37.456 31.011 34.8437 32 31.9999 32C27.4301 32 23.4569 29.4457 21.4301 25.6868L25.3189 22.5035C26.3322 25.2081 28.9413 27.1334 31.9999 27.1334C33.3146 27.1334 34.5463 26.778 35.6032 26.1576L39.5118 29.3574Z" fill="#28B446"/>
<path d="M39.6596 10.7626L35.7721 13.9452C34.6783 13.2615 33.3853 12.8666 32 12.8666C28.8721 12.8666 26.2143 14.8802 25.2517 17.6817L21.3425 14.4813H21.3418C23.339 10.6308 27.3622 8 32 8C34.9117 8 37.5814 9.03716 39.6596 10.7626Z" fill="#F14336"/>
</g>
<path d="M64.016 16.968C63.6533 16.3813 63.1573 15.9013 62.528 15.528C61.8987 15.144 61.1787 14.952 60.368 14.952C59.728 14.952 59.1413 15.0747 58.608 15.32C58.0853 15.5547 57.632 15.8747 57.248 16.28C56.8747 16.6853 56.5867 17.1547 56.384 17.688C56.1813 18.2107 56.08 18.7653 56.08 19.352C56.08 19.9707 56.1867 20.5573 56.4 21.112C56.6133 21.656 56.9067 22.1307 57.28 22.536C57.664 22.9413 58.1173 23.2613 58.64 23.496C59.1627 23.7307 59.7387 23.848 60.368 23.848C60.9013 23.848 61.4027 23.7627 61.872 23.592C62.3413 23.4107 62.7573 23.16 63.12 22.84C63.4933 22.52 63.7973 22.1413 64.032 21.704C64.2667 21.2667 64.4107 20.7867 64.464 20.264H58.848V18.936H65.984V20.264C65.888 20.9787 65.68 21.64 65.36 22.248C65.04 22.8453 64.6293 23.3627 64.128 23.8C63.6373 24.2373 63.072 24.5787 62.432 24.824C61.792 25.0693 61.104 25.192 60.368 25.192C59.5573 25.192 58.8 25.0427 58.096 24.744C57.4027 24.4453 56.8 24.04 56.288 23.528C55.776 23.0053 55.3707 22.392 55.072 21.688C54.784 20.9733 54.64 20.2 54.64 19.368C54.64 18.5467 54.784 17.7893 55.072 17.096C55.3707 16.392 55.776 15.784 56.288 15.272C56.8 14.7493 57.4027 14.344 58.096 14.056C58.8 13.7573 59.5573 13.608 60.368 13.608C61.4133 13.608 62.352 13.848 63.184 14.328C64.0267 14.7973 64.6987 15.432 65.2 16.232L64.016 16.968ZM71.3926 25.144C70.7953 25.144 70.2406 25.0373 69.7286 24.824C69.2273 24.6107 68.79 24.3227 68.4166 23.96C68.0433 23.5867 67.75 23.144 67.5366 22.632C67.3233 22.12 67.2166 21.5707 67.2166 20.984C67.2166 20.3867 67.3233 19.8373 67.5366 19.336C67.75 18.8347 68.0433 18.3973 68.4166 18.024C68.79 17.6507 69.2273 17.3627 69.7286 17.16C70.2406 16.9467 70.7953 16.84 71.3926 16.84C71.99 16.84 72.5393 16.9467 73.0406 17.16C73.542 17.3627 73.9793 17.6507 74.3526 18.024C74.726 18.3973 75.014 18.8347 75.2166 19.336C75.43 19.8373 75.5366 20.3867 75.5366 20.984C75.5366 21.5707 75.43 22.12 75.2166 22.632C75.014 23.144 74.726 23.5867 74.3526 23.96C73.9793 24.3227 73.542 24.6107 73.0406 24.824C72.5393 25.0373 71.99 25.144 71.3926 25.144ZM71.3766 23.896C71.782 23.896 72.1606 23.8213 72.5126 23.672C72.8646 23.5227 73.1686 23.32 73.4246 23.064C73.6806 22.7973 73.878 22.488 74.0166 22.136C74.166 21.784 74.2406 21.4053 74.2406 21C74.2406 20.584 74.166 20.2 74.0166 19.848C73.8673 19.496 73.6646 19.192 73.4086 18.936C73.1526 18.6693 72.8486 18.4613 72.4966 18.312C72.1553 18.1627 71.782 18.088 71.3766 18.088C70.9713 18.088 70.5926 18.1627 70.2406 18.312C69.8886 18.4613 69.5846 18.6693 69.3286 18.936C69.0726 19.192 68.87 19.496 68.7206 19.848C68.5713 20.2 68.4966 20.584 68.4966 21C68.4966 21.416 68.5713 21.8 68.7206 22.152C68.87 22.504 69.0726 22.808 69.3286 23.064C69.5846 23.32 69.8886 23.5227 70.2406 23.672C70.5926 23.8213 70.9713 23.896 71.3766 23.896ZM80.6895 25.144C80.0922 25.144 79.5375 25.0373 79.0255 24.824C78.5242 24.6107 78.0868 24.3227 77.7135 23.96C77.3402 23.5867 77.0468 23.144 76.8335 22.632C76.6202 22.12 76.5135 21.5707 76.5135 20.984C76.5135 20.3867 76.6202 19.8373 76.8335 19.336C77.0468 18.8347 77.3402 18.3973 77.7135 18.024C78.0868 17.6507 78.5242 17.3627 79.0255 17.16C79.5375 16.9467 80.0922 16.84 80.6895 16.84C81.2868 16.84 81.8362 16.9467 82.3375 17.16C82.8388 17.3627 83.2762 17.6507 83.6495 18.024C84.0228 18.3973 84.3108 18.8347 84.5135 19.336C84.7268 19.8373 84.8335 20.3867 84.8335 20.984C84.8335 21.5707 84.7268 22.12 84.5135 22.632C84.3108 23.144 84.0228 23.5867 83.6495 23.96C83.2762 24.3227 82.8388 24.6107 82.3375 24.824C81.8362 25.0373 81.2868 25.144 80.6895 25.144ZM80.6735 23.896C81.0788 23.896 81.4575 23.8213 81.8095 23.672C82.1615 23.5227 82.4655 23.32 82.7215 23.064C82.9775 22.7973 83.1748 22.488 83.3135 22.136C83.4628 21.784 83.5375 21.4053 83.5375 21C83.5375 20.584 83.4628 20.2 83.3135 19.848C83.1642 19.496 82.9615 19.192 82.7055 18.936C82.4495 18.6693 82.1455 18.4613 81.7935 18.312C81.4522 18.1627 81.0788 18.088 80.6735 18.088C80.2682 18.088 79.8895 18.1627 79.5375 18.312C79.1855 18.4613 78.8815 18.6693 78.6255 18.936C78.3695 19.192 78.1668 19.496 78.0175 19.848C77.8682 20.2 77.7935 20.584 77.7935 21C77.7935 21.416 77.8682 21.8 78.0175 22.152C78.1668 22.504 78.3695 22.808 78.6255 23.064C78.8815 23.32 79.1855 23.5227 79.5375 23.672C79.8895 23.8213 80.2682 23.896 80.6735 23.896ZM94.4184 24.552C94.4184 25.128 94.3064 25.6613 94.0824 26.152C93.869 26.6427 93.5704 27.064 93.1864 27.416C92.8024 27.7787 92.349 28.056 91.8264 28.248C91.3037 28.4507 90.733 28.552 90.1144 28.552C89.293 28.552 88.557 28.408 87.9064 28.12C87.2664 27.8427 86.7224 27.4267 86.2744 26.872L87.2024 25.88C87.9277 26.7653 88.9037 27.208 90.1304 27.208C90.557 27.208 90.9464 27.144 91.2984 27.016C91.661 26.888 91.9704 26.7067 92.2264 26.472C92.4824 26.2373 92.6797 25.9547 92.8184 25.624C92.9677 25.304 93.0477 24.9467 93.0584 24.552V23.528C92.749 24.072 92.3437 24.4827 91.8424 24.76C91.341 25.0267 90.7224 25.16 89.9864 25.16C89.4104 25.16 88.8717 25.0533 88.3704 24.84C87.869 24.6267 87.4317 24.3333 87.0584 23.96C86.6957 23.576 86.4077 23.1333 86.1944 22.632C85.981 22.12 85.8744 21.5707 85.8744 20.984C85.8744 20.3867 85.9757 19.832 86.1784 19.32C86.3917 18.808 86.6797 18.3653 87.0424 17.992C87.4157 17.6187 87.853 17.3253 88.3544 17.112C88.8557 16.8987 89.3997 16.792 89.9864 16.792C90.637 16.792 91.2397 16.9413 91.7944 17.24C92.349 17.528 92.7704 17.9227 93.0584 18.424V17H94.4184V24.552ZM90.1944 23.912C90.621 23.912 91.005 23.8427 91.3464 23.704C91.6984 23.5547 91.997 23.352 92.2424 23.096C92.4984 22.8293 92.6957 22.52 92.8344 22.168C92.973 21.816 93.0424 21.432 93.0424 21.016C93.0424 20.6 92.973 20.2107 92.8344 19.848C92.6957 19.4853 92.4984 19.1707 92.2424 18.904C91.997 18.6373 91.6984 18.4293 91.3464 18.28C91.005 18.1307 90.621 18.056 90.1944 18.056C89.7677 18.056 89.373 18.1307 89.0104 18.28C88.6584 18.4293 88.349 18.6373 88.0824 18.904C87.8157 19.16 87.6077 19.4693 87.4584 19.832C87.309 20.1947 87.2344 20.5893 87.2344 21.016C87.2344 21.432 87.309 21.816 87.4584 22.168C87.6077 22.52 87.8157 22.8293 88.0824 23.096C88.349 23.352 88.6637 23.5547 89.0264 23.704C89.389 23.8427 89.7784 23.912 90.1944 23.912ZM96.2725 13.784H97.6325V25H96.2725V13.784ZM105.569 20.552C105.473 19.816 105.207 19.224 104.769 18.776C104.343 18.3173 103.777 18.088 103.073 18.088C102.679 18.088 102.327 18.152 102.017 18.28C101.708 18.3973 101.447 18.568 101.233 18.792C101.02 19.016 100.849 19.2773 100.721 19.576C100.593 19.8747 100.508 20.2 100.465 20.552H105.569ZM106.849 20.408C106.903 20.8133 106.919 21.192 106.897 21.544H100.433C100.476 21.896 100.567 22.2213 100.705 22.52C100.855 22.8187 101.047 23.08 101.281 23.304C101.516 23.5173 101.788 23.6827 102.097 23.8C102.417 23.9173 102.764 23.976 103.137 23.976C103.649 23.976 104.119 23.88 104.545 23.688C104.972 23.4853 105.308 23.224 105.553 22.904L106.417 23.688C106.065 24.1467 105.601 24.5093 105.025 24.776C104.449 25.0427 103.836 25.176 103.185 25.176C102.599 25.176 102.06 25.0747 101.569 24.872C101.079 24.6693 100.657 24.3867 100.305 24.024C99.9534 23.6507 99.676 23.2133 99.4734 22.712C99.2814 22.2 99.1854 21.6453 99.1854 21.048C99.1854 20.4187 99.276 19.848 99.4574 19.336C99.6494 18.824 99.916 18.3867 100.257 18.024C100.599 17.6613 101.009 17.3787 101.489 17.176C101.969 16.9733 102.503 16.872 103.089 16.872C103.601 16.872 104.071 16.9573 104.497 17.128C104.924 17.2987 105.303 17.5387 105.633 17.848C105.964 18.1573 106.231 18.5307 106.433 18.968C106.647 19.3947 106.785 19.8747 106.849 20.408Z" fill="#465766"/>
<defs>
<clipPath id="clip0_373_4183">
<rect width="24" height="24" fill="white" transform="translate(20 8)"/>
</clipPath>
</defs>
</svg>
