<svg width="222" height="108" viewBox="0 0 222 108" fill="none" xmlns="http://www.w3.org/2000/svg">
<path d="M76.7912 46.7553C76.8606 46.5125 77.0063 46.2211 77.1971 46.006L78.1198 44.9515L79.0251 43.8415L79.2679 43.6161C79.3165 43.571 79.254 43.3559 79.261 43.2865C79.4448 43.0194 79.8299 42.5477 79.9235 42.2216C79.979 42.0204 80.0102 41.5209 80.2079 41.5209C80.4785 41.5209 80.7525 41.5556 80.8844 41.4758C81.0994 41.3406 81.259 41.181 81.2208 40.8029L80.7456 41.233L80.593 41.3891C80.5618 41.4203 80.4404 41.344 80.4473 41.3024C80.4542 41.2608 80.4924 41.1186 80.5201 41.0804L81.1827 40.0502L78.1857 42.6726C77.9775 42.8529 77.8284 43.0819 77.7729 43.4218C78.4666 43.1027 78.7025 42.239 79.4136 42.0586C79.313 42.5858 78.9245 42.846 78.536 42.9882L78.5984 43.3455C78.6193 43.4704 76.479 45.4094 75.5772 45.791L76.0732 45.0278L75.1713 45.5308L73.0797 47.0571L71.8101 47.7682L72.3235 47.0675C72.4137 46.9426 72.7328 46.7761 72.7189 46.6477L72.6773 46.2696C72.653 46.0581 73.208 46.0962 73.2739 45.4267C73.5029 45.0799 73.7283 44.7677 73.8081 44.3896L72.4969 45.2706C72.4518 45.3019 72.1431 45.2464 72.1743 45.2047L72.32 45.0036L73.548 43.401C73.5375 43.0541 73.8324 42.8182 74.1446 42.6379L73.9711 42.4644C73.9365 42.4297 74.1064 42.3257 74.1411 42.2702L74.6892 41.4516C73.9815 42.0759 73.4057 42.6205 72.5628 43.1443L73.104 42.0551C72.1847 42.5511 71.8517 43.4912 71.04 43.8589L71.2204 43.3386C71.2482 43.2553 70.9186 43.1963 70.8666 43.2796C70.6515 43.6299 70.2492 44.178 69.9127 44.4936L70.1763 44.6567L69.5346 45.2186L69.7184 45.5273C69.7635 45.6036 69.5762 45.7875 69.5138 45.8534L68.7784 46.6304C68.7333 46.679 68.5807 46.7865 68.5425 46.7483L68.3205 46.5159L67.9286 47.1611C67.8592 47.2756 67.7829 47.5878 67.6476 47.6571C67.3909 47.789 67.2799 48.0075 67.3319 48.2989L65.8785 49.4574L66.6972 49.5233L65.1224 50.0298L64.0505 50.5189C63.9915 50.5466 63.7557 50.3766 63.7453 50.3628L61.9866 51.3861L60.0927 52.2463L59.9331 52.0625C59.8915 52.0139 60.0476 51.8994 60.117 51.8682L62.4445 50.8137C62.4479 50.6125 62.6145 50.4426 62.8503 50.3801C63.1521 49.9916 63.5302 49.6621 63.9915 49.3915L64.4772 48.7776L63.2527 49.3915L62.3716 49.6933C61.9346 49.8425 61.5322 49.9847 61.161 50.2136L59.274 51.3722L58.4936 51.6844C57.3385 52.1457 56.3083 52.6938 55.0491 52.9886L56.7835 51.8751L58.6462 50.7374C59.3816 50.2865 59.9678 49.8425 60.7344 49.4401C61.3067 49.1383 61.8895 48.6596 62.389 48.2122L64.4945 46.3286C64.8899 45.9748 65.4415 45.8499 65.9549 45.7597L69.16 43.0125C69.3959 42.8078 69.9647 42.957 70.2353 42.8876C71.6401 42.5407 72.0737 41.9268 72.9999 41.0492L74.2799 39.8351L76.0697 38.1701L76.6421 37.5874C76.93 37.2925 77.2977 37.1468 77.5335 36.8485C77.9637 36.3005 78.3938 35.801 79.0182 35.4957C78.6956 35.9258 78.4736 36.3143 78.477 36.8416L79.7015 34.691C78.98 34.7881 78.3765 35.5061 78.3314 35.3951L78.2204 35.1246C77.7451 35.6518 77.2664 36.0889 76.4825 36.3802L77.759 34.7742L77.1416 34.9754C77.1312 34.8297 77.2977 34.5522 77.4329 34.521C77.8284 34.4308 77.8492 34.2678 78.0192 33.9729C78.1649 33.7267 78.3383 33.5463 78.373 33.2514L77.8596 33.8134C77.3879 34.1498 77.0618 34.4967 76.7565 35.0031L76.1807 35.4784C75.9449 35.8218 75.7194 36.0854 75.4107 36.3282C74.762 36.8416 74.2348 37.3931 73.3572 37.681L74.2937 36.6994C73.704 36.8208 73.4335 37.2821 72.9721 37.5735L71.3869 38.576L69.4201 39.7866C69.767 39.2593 70.2249 38.9783 70.6307 38.5656L71.491 37.6984C71.6852 37.5006 71.7095 37.2717 71.6748 37.0844L72.2333 36.4011C72.372 36.2346 72.4622 36.127 72.549 35.9085L70.6446 37.5145L69.6144 38.4962L69.5381 38.3886L70.2422 37.4556C70.492 37.126 70.7591 36.0438 71.7234 36.1131C72.0737 35.2321 72.7571 34.5834 73.6971 34.4031C74.0024 34.1013 74.2833 33.8134 74.6406 33.5914L73.8497 34.7048L75.6361 33.3694C75.6916 33.3277 75.872 33.1127 75.8443 33.0537L75.6951 32.7589L76.1183 32.0963L74.6545 32.967L73.1699 32.2039L72.3374 31.5622L72.6079 32.1102C72.5767 32.1761 72.4761 32.3253 72.5177 32.3946L72.7883 32.8386C72.5108 32.804 72.2437 32.5022 71.9905 32.3183L71.6401 32.0616C71.5673 32.0061 71.6193 31.8119 71.6471 31.687L71.4181 31.7252C71.3661 31.7321 71.2655 31.583 71.2586 31.524C71.2412 31.243 70.7729 31.2083 70.6273 31.0835L68.7299 29.4497L69.2294 30.9482C68.3032 30.4417 67.7968 29.5364 67.6372 28.5339C67.384 28.7663 67.3007 29.134 67.3424 29.4774C67.4083 30.0081 66.8845 30.2024 66.5896 30.4244L65.6878 31.1077L65.608 30.8511C65.5976 30.8164 65.5559 30.8025 65.5317 30.8268L65.3305 31.0176C64.668 31.6489 63.8563 32.2004 63.2596 32.9427L64.5674 32.1657L64.5119 32.5785L65.0426 32.138L66.2393 30.8511L66.4058 32.0929L66.4717 32.967L65.7467 33.7024L65.1085 34.4863C64.5153 34.5522 63.9707 34.802 63.5614 35.2807C63.1174 35.3049 62.7532 35.4992 62.5451 35.853L62.7185 36.519C62.9648 36.8346 63.0029 37.126 62.9093 37.5215L62.8815 38.2013L63.003 38.9957L62.9544 40.6121L61.383 41.9857C61.3969 41.5834 61.7056 41.2538 61.9034 40.9937L61.8028 40.463C61.5808 40.7925 61.4698 41.181 60.9148 41.1567L61.4212 40.0051L60.7448 40.5081C60.6754 40.8306 60.606 41.0977 60.4361 41.2955L59.8776 41.9545L59.229 42.7003C58.3444 43.5224 56.8806 44.4069 55.6527 44.7538L56.8945 43.8415C56.6794 43.8901 56.284 43.9976 56.121 44.1156C55.0942 44.8683 54.1403 45.51 52.8638 45.8846L53.8593 45.0001C54.2027 44.6948 54.3484 44.3653 54.7785 44.1537C54.7889 44.0601 54.7681 43.8762 54.834 43.8242L55.2746 43.4704C54.4837 43.5259 54.3172 44.4208 53.8663 44.119L54.8965 43.127L55.6145 42.1973C55.8157 41.9337 56.1348 41.6944 56.4019 41.4897L57.5362 40.626C57.5431 41.0214 57.4148 41.1012 57.2171 41.3336C57.5709 41.2087 57.7686 41.122 58.1363 41.0839L58.8439 40.2514L57.8519 40.7647L58.4138 39.7866L59.1284 39.0512L60.9529 37.1676L61.1541 37.4174C61.1923 37.466 61.4004 37.3064 61.3692 37.2544L61.2374 37.0462L61.8652 36.3525L60.9772 36.9352L61.1021 36.4149L60.2661 37.0566C59.8221 37.3966 59.4648 37.688 58.9341 37.9516L59.9088 36.4808C60.1586 36.1062 60.4118 35.794 60.5783 35.3951L59.9643 35.7385L60.887 34.24C60.3945 34.4169 60.221 34.8921 59.8845 35.1488C58.8786 35.9189 58.0843 36.7757 57.335 37.7886C56.9222 38.347 56.3534 38.7563 55.8088 39.1483C55.7012 39.568 55.5486 40.1022 55.1775 40.2479C55.2607 39.8316 55.2642 39.6027 55.0907 39.405L55.6319 38.3436L54.9381 38.7251C54.2444 39.5646 53.6096 40.4456 52.6314 40.9625C52.3019 41.1359 51.8683 41.2851 51.7122 41.6562L51.9654 42.2702L52.0278 43.2726C52.0348 43.3698 51.896 43.6056 51.8544 43.6958C51.8128 43.786 52.007 43.956 52.0937 44.0809C52.066 44.2994 51.9099 44.7469 51.792 44.9723C50.9976 45.4614 50.2761 46.1101 49.4505 46.4882C48.8955 46.7449 48.3648 46.8489 47.8896 47.2305C47.4144 47.6121 46.8282 47.782 46.3703 48.226L47.9798 47.6016L49.18 47.1368L48.4828 47.6953L49.18 47.5427L50.2206 47.1785L50.505 47.0675C50.5779 47.0397 50.6473 47.1958 50.7166 47.345L52.0799 46.783C52.2984 46.7553 52.7771 46.7587 52.9852 46.7969C53.4396 46.9079 53.8177 46.9183 54.3762 46.8732L52.6279 47.8479C51.9134 48.2468 51.2959 48.8296 50.3524 48.781L51.511 48.0318L52.2221 47.567L51.3237 47.8445L50.727 47.73L50.7062 48.004C50.7028 48.0665 50.4912 48.004 50.3975 47.9555C49.0516 48.6631 47.7509 49.5164 46.1414 49.8702L48.7325 48.2815L47.3242 48.6492L45.7251 49.2424L45.5378 49.3083C45.4962 49.3221 45.51 49.1799 45.5135 49.1175L44.1156 49.7072C43.5537 49.9431 43.0923 50.1269 42.4749 50.2518C41.9997 50.3489 41.4759 50.7201 41.0215 50.897L39.9288 51.3236C39.1102 51.6427 38.3471 51.9966 37.4417 52.2081L39.5993 51.001L40.8723 50.224L44.3584 47.9936L44.185 47.8618L45.0487 47.3866C44.2995 47.3762 43.5814 48.2468 42.6969 48.3023L43.8589 47.4386L42.3327 48.0318C41.5973 48.3162 40.9556 48.7047 40.1265 48.899C40.9035 48.337 41.632 47.9346 42.3465 47.3866L43.7653 46.3009C44.3862 45.8256 44.9655 45.347 45.85 45.2429L44.0809 46.6686V46.8004L45.4268 45.9124C45.628 45.7806 45.9575 45.673 46.3009 45.5586C45.9957 46.1621 45.3019 46.4119 45.2672 46.7483C45.798 46.4847 46.2177 46.1344 46.7415 45.9644C47.1091 45.843 47.3901 45.7285 47.6988 45.5065L48.5313 44.903L49.5615 44.0115C49.7731 43.8277 50.0125 43.8346 50.3628 43.8172L49.8668 43.5779L50.2761 42.9535L48.8713 43.8311C49.291 43.0368 50.2414 42.7281 50.4045 42.0516C49.6205 42.4714 49.1696 42.9917 48.2712 43.2033C48.514 42.8321 48.8158 42.5026 49.1349 42.1973L49.6344 41.7186L49.3742 41.7429C49.3395 41.7429 49.2216 41.7499 49.2424 41.7256L49.3569 41.566L49.7835 40.9694L50.505 40.0779L50.9317 40.0398C51.008 40.0328 50.9872 39.8421 50.9005 39.7553L51.563 38.9055C51.7503 38.6661 51.8752 38.4441 51.8717 38.1354L51.0809 39.0928L50.2102 39.9808L49.839 39.7484L49.2563 40.3832L48.0075 41.4758L48.4758 41.5071C48.0735 42.0274 47.5809 42.4332 47.0224 42.8078L47.064 42.3361C46.9635 42.4332 46.5784 42.7419 46.4015 42.6552L44.8579 41.899C44.962 42.3951 44.9759 42.7038 44.7608 43.016L44.8891 43.5467C44.4382 43.5606 44.5839 43.1096 44.1087 42.6795C44.1295 42.5997 44.296 42.3014 44.2023 42.2182L43.7583 41.8296C43.7514 41.7325 43.7826 41.4932 43.7445 41.3961C43.7063 41.2989 43.4774 41.1602 43.3837 41.1394L42.6102 42.5893C42.7801 43.0576 42.7905 43.2449 42.7905 43.7548L42.1558 44.3861C41.8401 44.7607 41.5591 45.014 41.0909 45.3366C41.1013 45.3608 41.2782 45.5308 41.2261 45.5863L40.9486 45.8742C40.2202 46.6373 39.3773 47.0883 38.3471 47.3658L38.5448 47.5531C38.5725 47.5774 38.0765 48.0838 37.4105 48.004L36.6509 48.3856L34.9893 49.2215C34.972 49.2875 34.913 49.5441 34.965 49.3221L37.518 48.6215L37.0636 49.0828L38.2881 48.788C38.9402 48.6319 39.4779 48.1116 40.293 48.285L37.8476 49.5684C37.1053 49.9569 36.2381 50.2587 35.4264 50.4668L33.6851 50.9178C34.3407 50.5501 34.9997 50.2414 35.7212 50.0298C36.3595 49.8425 36.9839 49.7904 37.5215 49.3221C36.6682 49.3776 35.9467 49.5684 35.1593 49.787L32.7069 50.4668C32.6514 50.4807 32.582 50.5015 32.5785 50.4738L32.5647 50.283L31.1078 50.7721L28.7976 51.445C29.2971 51.0808 29.7168 50.8796 30.199 50.6507L32.3531 49.6205L31.59 49.5927L32.7 49.1106L32.7069 49.0481L32.2768 49.0967L33.1266 48.4896C32.0235 48.7429 30.9621 49.7696 30.0533 49.7939L31.0211 49.2285L29.8278 49.4366C29.6752 49.4644 29.3804 49.7315 29.2728 49.8078L29.5607 49.8945C29.5989 49.9049 29.6093 49.9396 29.5815 49.9639L29.4254 50.0887C28.3155 50.5362 27.3303 50.9525 26.1301 51.3063L26.9245 50.6403L25.7763 51.0877C24.8328 51.4554 23.9622 51.8821 22.8938 51.9896L26.7927 50.0159C27.75 49.5303 28.6485 48.788 29.7238 48.5451L31.2431 48.507C31.7114 48.4966 32.0131 48.4584 32.4051 48.2226C32.9636 47.8861 33.522 47.5704 33.9973 47.116L35.7698 45.4233L37.3307 45.2984L40.0745 42.513C40.3659 42.1765 40.7752 42.0378 41.2123 42.0447L43.4635 40.4595C43.9803 40.6121 44.3168 41.0769 44.7643 41.2677L46.5992 42.0412L48.2191 41.0284C48.8574 40.6191 49.2598 39.7692 49.8286 39.2385L51.8509 37.355C51.9238 37.2856 52.1354 37.1503 52.229 37.1607C52.3435 37.1746 52.5377 37.2752 52.6834 37.3723L53.5818 37.962L54.8271 38.2638L55.6041 37.6533L56.7106 36.5918C57.276 36.4878 58.0288 36.5329 58.4138 36.0576L59.9609 34.1672C60.717 33.2445 61.1888 32.2247 62.1045 31.3922C62.4722 31.4026 62.892 31.4962 63.2839 31.5934L64.2205 31.2118C64.5569 30.8025 64.8171 30.3238 65.1779 29.9977L66.1977 29.082L67.5748 27.7222L68.8374 28.9606L70.4122 30.2856C70.9152 30.7088 71.4528 30.9412 72.1015 30.7435L73.2531 31.6593L74.7204 32.4536L76.5137 31.2673C77.707 30.4799 77.9082 28.8184 79.313 28.586L81.0023 27.0389L83.3437 28.5998L85.359 30.0394C86.0493 30.5319 86.5592 29.6092 87.3397 30.3203C87.6831 30.6325 88.0889 31.0037 88.5225 31.1528C89.3446 31.4407 90.0523 31.7946 90.7876 32.2802C91.2663 32.3565 91.6791 32.4918 92.2237 32.7727L93.462 31.4754L94.7351 31.413C96.3342 29.911 97.0626 28.024 98.6305 26.6226L99.7197 26.692C100.289 26.7302 101.347 26.0399 101.766 25.3982L103.317 23.0325L104.642 22.4393L105.662 20.8576C106.192 20.0355 106.685 19.2654 107.431 18.596L108.575 18.818C108.818 18.6931 109.356 18.4572 109.529 18.2664L111.101 16.48L111.961 16.1644L113.962 14.3884L115.655 15.9077C116.172 16.3725 116.56 16.7541 117.161 17.1287C117.462 17.316 117.716 17.9785 118.055 18.1138L119.075 18.5092L120.477 20.3754C120.99 20.4171 121.25 20.7778 121.517 21.149C121.864 21.2634 122.159 21.4195 122.44 21.6623L123.772 21.3675C124.213 21.2704 124.5 21.1351 124.792 21.5652L126.845 24.5865C127.213 25.1242 127.848 25.6583 128.372 26.0226C128.677 26.2341 129.138 26.033 129.312 26.581C129.381 26.7961 129.731 26.9626 130.012 27.025C130.578 27.1534 130.859 27.7673 131.244 28.1316L132.146 28.6345C132.943 28.6484 133.752 28.468 134.588 28.2842C135.319 28.7004 135.933 29.4358 136.374 30.1261C135.639 29.7653 135.205 29.3075 134.664 28.7941L134.092 29.0646C134.06 29.0785 134.05 29.2416 134.071 29.2728C134.092 29.304 134.185 29.356 134.216 29.3421L134.522 29.2207C134.608 29.1861 134.768 29.4636 134.747 29.5503L134.636 30.0636L134.716 30.7435C134.723 30.8129 134.73 30.9066 134.764 30.9204L134.941 30.9863C134.993 31.0037 134.9 30.8025 134.875 30.7435C134.855 30.695 134.879 30.4313 134.924 30.4626L135.215 30.6533C135.34 30.6915 135.489 30.7331 135.358 30.695C135.202 30.2024 135.125 30.1296 135.16 29.6786L135.913 30.6013L136.055 30.466C136.128 30.3966 136.454 30.6152 136.457 30.6221C136.464 30.6395 136.638 30.1365 136.773 30.2024C136.849 30.2406 137.005 30.3377 137.078 30.3932L138.5 31.5309L139.943 31.302L141.376 32.6826L142.479 33.4145L143.436 33.8168L145.025 33.3243C145.67 33.1231 146.256 32.3981 146.961 32.3669L149.462 32.9705C150.592 32.4848 150.905 31.5656 151.824 32.0096L153.718 31.1251C154.186 30.9066 154.578 30.3862 154.925 29.9943L156.552 28.1489C157.211 27.3996 158.185 26.921 159.06 26.4457C159.809 26.6192 160.433 26.5047 161.113 26.2446L163.257 25.1831L164.547 26.4353C164.96 26.8342 165.446 27.0493 165.709 27.5696L166.368 28.8669L167.117 29.3283C167.367 29.4809 168.012 29.3699 168.297 29.4427C169.004 29.6266 169.275 30.3862 169.494 31.0002C169.712 31.6142 170.024 32.0894 170.347 32.6236L171.592 34.7152L172.449 35.2876L173.094 35.5027L174.437 37.0636L175.446 37.7088L176.958 37.5874L178.228 37.466L180.573 39.6686L181.846 40.6607L183.164 40.7058C183.483 41.0769 183.771 41.4585 184.135 41.6874L185.065 42.2632C185.495 42.5303 185.901 42.7766 186.279 43.1166L188.065 44.7191C188.523 45.1284 189.387 45.4892 190.004 45.6106L191.243 45.8534C191.805 45.9644 192.203 45.9956 192.693 46.3078L197.112 49.1348L197.327 49.2597C197.368 49.284 197.459 49.4193 197.414 49.4089L197.091 49.3395L194.354 48.2191C193.917 48.0387 193.445 47.9902 193.053 47.6814L192.932 47.5878L192.158 47.0466L191.992 46.9322C191.968 46.9148 191.985 47.0397 192.006 47.0605L192.124 47.1819L192.238 47.2999L192.415 47.4351C192.422 47.4109 192.408 47.4698 192.373 47.5982L192.207 47.5149L190.355 46.5714L190.188 46.4327C190.16 46.4084 189.987 46.4119 190.015 46.4396L190.147 46.5784L190.285 46.6859L191.669 47.5462L191.309 47.6329C191.26 47.6017 191.541 47.782 191.659 47.8583L193.06 48.7567L193.331 49.0932L191.943 48.5694L189.047 47.0397L188.509 46.7553C188.433 46.7553 188.457 46.79 188.523 46.8281L188.835 47.0952L188.728 47.1542L187.864 46.7102C187.375 46.4604 186.782 46.2141 186.362 45.843L185.935 45.6626L185.197 45.1805L184.732 44.8787L184.506 44.7573C184.458 44.7295 184.316 44.7122 184.354 44.7573L184.59 45.0244L184.697 45.1423L184.822 45.229L184.95 45.3157L185.079 45.4025L185.207 45.4892L185.318 45.6002L185.426 45.7042L185.533 45.8118L185.651 45.9124L185.807 46.0442C185.838 46.0719 185.679 46.1378 185.641 46.1205L185.446 46.0234L184.274 45.4371L183.063 44.6532C182.741 44.2474 182.498 44.0046 182.134 43.6924L181.551 43.0368L181.395 42.9223L181.149 42.4506C181.138 42.4332 181.044 42.3777 181.006 42.3569L180.847 42.2598L180.899 41.7568L180.767 41.6319L180.653 41.5244L180.542 41.4203L180.431 41.3128L180.288 41.1775L180.379 40.9625L180.559 41.0804L180.694 41.1706L180.861 41.2816C180.892 41.3024 180.944 41.2538 180.923 41.2226L180.413 40.4664L179.851 39.7241C179.82 39.686 179.654 39.6062 179.671 39.6478L179.775 39.9184L179.837 40.0814C179.844 40.1022 179.827 40.1404 179.782 40.2861L179.314 39.6166L179.39 39.2489L179.102 38.9783L178.429 38.3401L178.301 38.2187C178.273 38.1944 178.2 38.2291 178.159 38.2395C178.124 38.2464 178.259 38.3678 178.297 38.3991L178.377 39.1622L178.641 39.6374C178.429 39.6686 178.335 39.6513 178.363 39.686L178.526 39.8871C178.675 40.0745 178.977 40.3624 179.099 40.5636L179.258 40.8307C179.286 40.8792 179.178 41.0284 179.126 41.011L178.89 40.9416L179.373 41.6042L179.83 42.239L179.414 42.2077L180.15 43.0853L180.868 43.845L180.739 43.8658L180.642 43.786L180.507 43.7097L180.368 43.6299L180.233 43.5501L180.115 43.4426L180.004 43.3386L179.876 43.238C179.293 42.7731 178.797 42.1835 178.308 41.6007L178.172 41.5001L178.051 41.4099L177.94 41.3267L177.767 41.403L177.909 41.5626L178.263 41.9372L178.374 42.1071L178.283 42.3083L177.85 41.8227C177.309 41.5695 176.962 41.2087 176.601 40.7543L174.957 38.6627C175.123 38.3921 175.484 38.7667 175.578 38.9922L175.72 39.1448C175.744 39.1726 175.821 39.1136 175.859 39.0824L175.297 38.3054C175.064 37.9828 174.665 37.7192 174.315 37.466C174.242 37.466 174.097 37.4694 174.152 37.4694L174.232 38.1562L174.86 39.3009C174.322 39.2732 174.374 38.7841 174.152 38.5066C173.798 38.0626 173.368 36.8971 172.536 36.1582L172.38 36.0195C172.348 35.9917 172.23 35.9362 172.244 35.9744L172.338 36.2346L172.418 36.6994C172.574 36.9352 172.657 37.3168 172.563 37.5111C172.411 37.5804 172.303 37.6255 172.338 37.6637L172.518 37.8857L173.261 39.2732L173.614 40.0294C173.216 39.9669 173.167 39.9114 172.997 39.7866L172.546 39.457C172.338 39.3044 172.099 39.1171 171.904 38.9228L171.766 38.7876C171.745 38.7667 171.7 38.7459 171.707 38.7806C171.714 38.8153 171.741 38.9679 171.755 38.9991L171.873 39.235C171.897 39.2836 171.887 39.4848 171.831 39.4709C171.759 39.4536 171.537 39.3807 171.485 39.3287L170.888 38.7667C170.853 38.7321 170.805 38.5309 170.784 38.4858C170.763 38.4407 170.697 38.4615 170.558 38.4823L170.173 38.1701C169.639 37.7331 169.209 37.2544 168.914 36.5571L169.154 36.4011L169.504 36.9526L169.643 36.9456L169.719 36.1097C169.556 35.905 169.487 35.8044 169.438 35.6206C168.946 35.298 168.616 34.7846 168.338 34.1811L168.21 33.914C168.179 33.8515 168.318 33.6607 168.38 33.6885L168.706 33.8342C168.81 33.8827 169.004 34.0978 169.05 34.2053L169.143 34.4239C169.157 34.4586 169.14 34.299 169.143 34.2608L169.192 33.9729L169.681 34.2921C169.709 34.2643 169.879 34.0909 169.851 34.1186L169.639 33.9105C169.598 33.8689 169.712 33.685 169.757 33.7266L169.986 33.9278L170.111 34.0388L170.5 34.3788L170.697 34.5869C170.683 34.6077 170.708 34.5696 170.78 34.4655L169.386 32.19L168.515 30.4591L168.425 30.2787C168.408 30.2406 168.286 30.1608 168.276 30.1989L168.196 30.4521C168.012 31.0349 168.71 31.2534 168.141 31.7807C168.092 31.8258 168.578 32.412 168.384 32.804L167.926 32.3287C167.894 32.3149 167.787 32.2871 167.78 32.3218L167.738 32.5854C167.7 32.8282 167.777 33.0502 167.797 33.3347L167.898 34.4898C167.898 34.5279 167.777 34.7742 167.742 34.7569C167.561 34.6875 167.142 34.4343 167.097 34.247L166.76 32.9219C166.743 32.8491 166.778 32.5889 166.843 32.5681L167.215 32.4501L166.667 31.25L166.58 31.9021L166.275 32.0027C166.223 32.02 166.393 32.1831 166.451 32.2524C166.549 32.3704 166.504 32.6617 166.451 32.8421C166.51 32.9601 166.646 33.1994 166.653 33.3139L166.698 33.8827L166.719 34.1464C166.722 34.1915 166.597 34.1741 166.545 34.1602L165.699 32.9184L165.22 32.1137C164.693 31.2257 164.256 30.525 164.391 29.467L165.029 30.3654C165.05 30.2891 165.099 30.0983 165.088 30.0741L164.734 29.2589C164.603 28.9537 164.502 28.6345 164.575 28.416L164.783 28.5825L165.033 28.8947C165.033 28.8947 165.258 28.8531 165.116 28.8773L165.404 28.3015L164.87 28.0761C164.932 27.6771 164.634 27.0424 164.287 27.0146C164.131 27.0007 163.916 27.1568 163.895 27.0458C163.888 27.0077 163.874 26.8134 163.853 26.7787L163.219 25.804C162.82 26.3035 162.795 26.7787 163.035 27.3441L162.338 28.4472C161.526 28.7941 161.179 29.6231 161.519 30.4626C161.567 30.584 161.377 30.8441 161.269 30.917L160.066 31.7321L160.346 32.6895C160.638 33.692 160.43 34.1186 160.641 34.5938L160.78 34.9026C160.808 34.9685 160.457 35.0413 160.405 34.9893C160.274 34.8644 160.152 34.5626 160.045 34.2921L159.802 35.2147C160.718 35.35 161.075 34.8609 161.429 34.8401C161.533 34.8332 161.744 35.0933 161.755 35.2078C161.783 35.5304 161.595 36.0472 161.512 36.3941C161.404 36.8381 161.28 36.9491 161.03 37.2821L160.131 38.4684L160.416 39.294C160.548 39.6686 160.742 39.9496 160.78 40.345C160.794 40.5081 160.822 40.737 160.87 40.8341C161.012 41.1012 161.689 40.7301 162.008 41.5695L162.355 41.9649C162.213 42.4956 162.667 42.8044 163.014 43.179C163.742 43.9595 163.912 44.733 163.732 44.6636L163.545 44.5908L163.246 44.3341C163.586 45.0244 163.704 45.8534 163.413 45.8291C163.021 45.7944 162.653 45.3678 162.334 44.8405L161.682 46.0927C161.64 46.0511 161.772 46.1795 161.817 46.2211L162.22 45.9228C162.147 45.8014 162.081 45.7146 162.119 45.6453C162.164 45.562 162.376 45.2776 162.438 45.3504L162.736 45.7008L162.83 45.8291L162.927 45.9679L163.069 46.1725C163.108 46.2246 163.326 46.3217 163.319 46.2558L163.281 45.9505L163.559 45.9783C163.579 45.9783 163.701 46.0164 163.718 46.0303L163.84 46.124C163.923 46.2037 164.009 46.2905 163.964 46.2454L164.107 45.8811L164.575 46.1552C164.623 46.1829 164.696 46.2176 164.689 46.2211C164.682 46.2211 164.776 46.1136 164.807 46.0789L165.276 46.6755L165.532 46.5576C165.602 46.5263 165.768 46.6165 165.862 46.6581L166.632 46.9877L166.774 46.9946L165.959 46.1136C166.528 46.2939 166.958 46.346 167.308 46.6373L169.362 48.3474L169.99 48.6943C170.378 48.9059 170.663 49.0134 171.113 49.1244C171.481 49.2146 171.852 49.6656 172.21 49.8112L172.91 50.0957L173.979 50.9143L174.187 51.008C174.551 51.1675 175.002 51.4658 175.331 51.7815L172.799 50.786L172.626 50.6992L172.466 50.6195L172.227 50.5015C172.185 50.4807 172.147 50.5432 172.137 50.5813L172.088 50.786C171.412 50.4564 170.947 50.1442 170.382 49.7315L170.354 49.9049L170.52 49.9986L170.687 50.0922L170.6 50.1997L170.42 50.1061L170.278 50.0298L170.135 49.9569L169.986 49.8771L169.868 49.8043L169.733 49.7106L169.608 49.6274L168.98 49.1938C168.817 49.1799 168.682 49.225 168.887 49.284L169.046 49.4227L169.164 49.5268L169.299 49.6101L169.445 49.7002L169.684 50.0436L169.379 50.009C169.331 50.002 169.299 50.0749 169.337 50.1026L170.402 50.8588L171.287 51.4866L171.512 51.6705C171.551 51.7017 171.433 51.7884 171.391 51.7711L171.155 51.6566L170.413 51.3028L169.691 50.9421L168.651 50.3801C168.058 50.061 167.558 49.7176 167.048 49.2701L166.781 49.0377C166.715 48.9822 166.615 49.0585 166.493 49.1452L166.358 49.1175L166.202 49.0481L166.056 48.951L165.55 48.5174L165.435 48.4168L165.269 48.3405L164.294 47.678C164.155 47.5843 164.127 47.5982 164.225 47.7369L165.22 48.6839L164.963 48.6596L164.818 48.5833L164.745 48.6041L164.804 48.7949C164.87 48.8122 165.012 48.8435 165.026 48.8573L166.053 49.5962L166.271 49.7974C166.306 49.8321 166.191 49.9292 166.143 49.9084L165.893 49.7974L165.324 49.6829L166.448 50.5223L167.097 50.9455C167.454 51.1779 167.773 51.4485 167.988 51.7711L166.604 51.2577C166.164 51.0947 165.838 50.9282 165.397 50.7166L164.204 50.1477L164.023 50.3975L162.997 49.7627L162.684 49.5754L162.469 49.4678L162.317 49.5684L162.65 50.0367C162.147 50.1408 161.502 50.0332 161.089 49.5476C160.322 49.4921 159.951 50.1928 159.24 49.7315C159.205 49.7072 159.073 49.6031 159.098 49.5684L159.271 49.3291L159.341 49.1695L159.441 48.899C159.462 48.8469 159.23 48.8539 159.178 48.8816L156.604 50.0991L155.567 51.1155L154.106 51.8335C154.106 51.8335 153.94 51.837 153.922 51.8335L153.749 51.7746C153.714 51.7641 153.6 51.6497 153.628 51.6254C153.666 51.5872 153.787 51.4728 153.787 51.4173V51.0808C153.787 50.9837 153.999 50.8588 154.085 50.8137L154.266 50.7201C154.318 50.6958 154.189 50.5362 154.148 50.4981C153.766 50.8484 153.364 50.9039 152.826 50.9767L152.039 51.0843L151.824 50.897L153.187 49.6656L153.846 49.2944C154.009 48.9961 154.287 48.5937 154.522 48.4931C155.005 48.396 155.24 48.2954 155.567 47.9659L156.094 47.4351L156.229 47.2791C156.25 47.2582 156.198 47.2825 156.024 47.3588L155.712 47.2478C156.465 46.7483 156.652 46.1136 156.663 45.3366L156.808 45.2186L156.93 45.125L157.034 45.014C157.062 44.9827 157.152 44.7954 157.11 44.7989L156.729 44.8128L156.566 44.6601L156.704 44.4624L157.093 43.9074C157.114 43.8797 157.159 43.7097 157.169 43.675C157.183 43.6299 157.096 43.5744 157.062 43.6091L156.885 43.793C156.34 44.3618 155.906 45.0972 155.081 45.451L156.475 42.9466L156.971 42.2008C157.245 42.0447 157.235 41.906 157.343 41.6597L157.956 40.2652C158.178 39.9808 158.619 39.6651 158.959 39.4848L158.532 40.1057L158.668 40.2306C158.709 40.2687 158.886 40.1508 158.921 40.0987L159.254 39.6096L159.358 39.457L159.733 38.909L159.819 38.6731C159.833 38.6349 159.677 38.6557 159.642 38.6766L158.81 39.242L157.45 40.2756L156.194 41.2747L154.474 42.676L153.596 43.5259C153.53 43.5883 153.284 43.512 153.322 43.4461L153.503 43.1027L154.852 41.3683C155.15 40.9867 155.275 40.9382 155.4 40.5254C155.653 39.679 156.33 39.0477 156.361 38.2013C156.378 37.7712 156.701 37.407 157.027 37.1642C157.086 37.1226 157.037 36.8797 156.985 36.9352L156.742 37.1746L156.243 37.6671L155.376 38.5309C155.053 38.8535 154.817 39.1032 154.481 39.3807L152.743 40.8098C152.701 41.4134 153.052 40.6225 153.759 40.3416L154.137 39.9704C154.835 40.1542 154.744 39.0963 155.542 38.8881C155.483 39.7415 154.505 40.9659 153.926 41.3718L152.944 42.0586L152.687 42.0447L152.968 41.2885L151.893 42.1765L150.818 43.3247L149.999 42.3153C150.28 41.2573 149.475 42.0239 149.007 41.2018L148.834 40.8931C148.799 40.8306 148.893 40.7127 148.959 40.6329L149.174 40.3728C149.215 40.3207 149.063 40.2306 148.868 40.1057L149.253 39.3183L149.441 38.9367L149.562 38.6835C149.645 38.6904 149.621 38.6904 149.403 38.6661L149.042 39.1795L148.643 39.5784C148.591 39.6305 148.414 39.679 148.393 39.6131L148.279 39.2281L148.563 38.7529L148.334 38.7702L147.588 39.242L147.006 39.1206L147.283 39.5923L147.207 39.8039L145.955 38.7529L144.862 37.57C144.744 37.4451 144.605 37.0879 144.508 36.8693C145.053 36.9248 145.247 37.1746 145.545 37.6082L145.781 37.4798L145.237 36.7098C144.817 36.8277 144.258 36.2346 144.269 35.801C143.398 35.5824 143.672 34.7638 142.236 33.8272L141.459 33.3208L140.29 32.2455L140.131 32.0755C140.099 32.0408 140.082 32.1588 140.092 32.2108L140.183 32.7554C140.19 32.7866 140.061 32.9323 140.092 32.9462L140.349 33.0537C140.595 33.1543 140.464 33.5428 140.928 34.1533L141.803 35.298C141.945 35.4818 141.799 35.9536 142.319 36.0993L142.205 36.3837L141.379 35.5512L140.849 35.0136L139.732 33.8619L139.635 33.7371L139.544 33.6226L139.444 33.4942C139.423 33.4665 139.374 33.2688 139.413 33.2722C139.461 33.2722 139.652 33.248 139.621 33.2029L139.482 32.9947L138.878 32.1345C138.854 32.0998 138.715 32.0859 138.674 32.1033L138.452 32.2039L137.293 31.1147L137.668 32.1137L137.987 32.5369L137.855 32.7762C137.824 32.8352 137.883 32.9982 137.924 33.0676L138.407 33.8758L139.18 35.0621C138.83 34.9927 138.733 34.9026 138.563 34.6736C138.469 34.5487 138.24 34.4794 138.098 34.3996L137.491 34.0596C137.408 34.0146 137.286 33.8619 137.238 33.7891L136.828 33.1439C136.794 33.2931 136.78 33.3347 136.787 33.3659L136.825 33.5844L136.502 33.7024C137.047 34.0007 137.696 34.3267 138.081 34.8817L138.688 35.7593C138.868 36.023 138.941 36.1548 139.229 36.2866L139.374 36.3802L139.482 36.4947L140.519 37.6047L141.518 38.7563C141.397 38.7563 141.348 38.7633 141.334 38.7529L141.199 38.6592L140.488 38.1736L140.363 38.0869L140.134 37.9932C140.096 37.91 140.144 38.0175 140.197 38.132C140.377 38.3991 140.547 38.6731 140.745 38.8604L142.375 40.3901L143.627 41.5417L141.917 40.5358C141.903 40.4976 141.841 40.3554 141.823 40.345L140.963 39.8421C140.644 39.6547 140.127 39.3772 139.898 39.1552L139.832 38.8881C139.6 38.6072 139.107 38.073 138.757 37.8926L138.566 37.7955L138.122 37.3584L138.188 37.6741C138.192 37.6914 138.247 37.7643 138.275 37.8059L138.365 37.9308L138.507 38.1354C138.601 38.1389 138.393 38.132 138.289 38.1285C137.56 37.6325 136.884 37.0775 136.308 36.4149L136.069 35.9501C135.972 35.7628 135.593 35.4055 135.67 35.1905C135.888 34.6112 135.562 34.2088 135.222 33.7197C135 33.4006 134.657 32.8109 134.383 32.5924C134.348 32.5646 134.137 32.5716 134.147 32.6062L134.237 32.908C134.081 32.8872 133.859 32.5958 133.783 32.3773C133.689 32.1137 133.828 31.8639 133.998 31.6836L132.919 30.6291L132.787 30.5007L132.659 30.4071C132.61 30.3724 132.666 30.6013 132.694 30.6568L132.766 30.806L132.839 30.9551L132.926 31.1355C132.94 31.1632 132.805 31.1875 132.777 31.1702C132.735 31.1424 132.569 31.021 132.544 30.9794L131.826 29.8937C131.677 29.6682 131.608 29.2554 131.563 29.0057L130.449 28.0552L129.749 27.3997L129.506 27.58C129.45 27.6216 129.291 27.4968 129.235 27.4482L128.496 26.7545L128.299 26.5706C128.247 26.5221 128.198 26.6782 128.125 26.8689L127.463 26.2237L127.383 26.0017L126.641 25.4155L124.806 22.4671L124.709 22.3214C124.691 22.2937 124.629 22.259 124.587 22.2243C124.546 22.1931 124.57 22.4532 124.594 22.5052L124.872 23.2337L125.208 24.1286C125.087 24.2466 124.931 24.4061 124.979 24.4928L125.208 24.8883C125.468 25.3357 125.701 25.6861 125.898 26.1891L125.704 26.2827L125.555 26.1544L124.629 25.1623L123.782 24.028L123.252 23.1296C123.252 23.1296 123.373 23.088 123.401 23.0776L123.616 23.1955C123.64 23.2094 123.605 23.1088 123.595 23.0776L122.919 22.4116L122.416 22.0543L121.913 21.8982C121.507 21.7733 121.195 21.0831 120.664 20.9478C120.83 21.4299 121.039 21.9676 121.285 22.3283C121.555 22.7238 121.68 23.0151 121.843 23.4453L122.339 24.7287L123.026 26.5116C123.005 26.5671 122.946 26.581 122.835 26.5567L121.868 25.0721C121.635 24.7148 121.524 24.3853 121.465 23.9413C120.858 23.2857 121.368 22.9978 121.039 22.6162L120.695 22.2208C120.57 22.0786 120.491 21.7144 120.428 21.5271L119.877 20.8506L120.171 20.8576C120.192 20.8576 120.171 20.6807 120.074 20.6009L119.377 20.0355C119.006 19.5499 118.874 18.9151 118.17 18.8735L118.413 19.3695L118.503 19.588C118.517 19.6227 118.382 19.6192 118.357 19.595L118.225 19.4701L118.111 19.3556L117.844 18.9949L117.324 18.2109C117.036 17.7739 116.675 17.4305 116.227 17.2605L116.321 17.5484C116.335 17.5935 116.245 17.701 116.221 17.6594L116.075 17.4166L115.457 16.5182C115.28 16.258 115.02 16.1019 114.746 15.9216L114.063 15.155C113.779 15.6753 113.768 16.1297 113.924 16.6639C113.883 16.9587 113.824 17.5761 113.661 17.8259L112.821 19.1059C112.911 20.0355 112.037 20.039 111.864 20.4066C111.812 20.5142 111.853 20.8125 111.923 20.9339C112.884 22.585 112.669 24.5414 112.852 24.4894L113.147 24.4061C113.213 24.3888 113.383 24.3992 113.411 24.4616C113.439 24.5241 113.466 24.7565 113.452 24.8258L113.144 26.3313L112.405 27.2227L111.857 28.0379L112.578 29.2207L112.717 29.9353C112.28 30.3897 112.88 31.1875 112.627 31.0071L112.45 30.8788L112.353 30.7505L112.186 31.5413L112.138 31.7737C112.131 31.8119 112.183 31.8084 112.2 31.7737L112.325 31.524C112.377 31.4234 112.644 31.5344 112.838 31.6419L113.362 31.1182L113.511 30.6707C113.543 30.5805 113.775 30.7678 113.855 30.8441L114.521 31.4754C114.597 31.5483 114.736 31.7668 114.684 31.8466L114.455 32.2212C114.275 32.5195 114.153 33.0433 113.817 33.2861C113.543 33.4838 113.449 33.7648 113.255 34.0388L112.641 34.8991L112.381 35.4194C112.28 35.6206 112.141 35.8391 112.211 36.0542C112.301 36.3386 112.193 36.5745 111.95 36.7028C111.562 36.9075 111.361 37.2821 111.069 37.5631C110.546 38.073 109.966 38.4615 109.283 38.909C109.55 38.4303 109.769 38.1007 110.07 37.7365L110.587 37.1017C110.618 37.0636 110.494 36.8797 110.452 36.9075L110.24 37.0462L108.79 38.0071C108.832 37.8475 108.863 37.7227 108.877 37.7088L109.432 37.1017L110.303 36.0923C110.362 36.023 110.358 35.7108 110.338 35.7212C110.299 35.7489 110.154 35.8495 110.122 35.8877L109.508 36.6543C108.971 37.3237 108.409 37.8718 107.812 38.5135L107.243 39.124C107.073 39.3079 106.883 39.5229 106.685 39.6374L105.991 40.0363L105.516 40.293L105.273 40.3589C105.232 40.3693 105.29 40.2757 105.322 40.2444L105.738 39.7449L106.345 39.1934L106.473 39.0859C106.498 39.0651 106.508 38.9575 106.48 38.9714L106.317 39.0581L105.506 39.4813L104.829 39.9253L103.424 40.6191L103.664 40.7127C103.73 40.7405 103.556 40.9347 103.497 40.9729L103.355 41.0631L101.246 42.232C101.142 42.1384 101.027 42.0308 101.027 42.0274L101.072 41.8747L101.18 41.4793C101.204 41.3891 100.993 41.2504 100.906 41.1775L100.899 40.9937C101.19 40.7543 101.329 40.4872 101.426 40.1334L101.565 40.019L101.68 39.9218L101.756 39.79L101.836 39.6547L101.947 39.464C102.106 39.3807 102.078 39.3911 101.919 39.4744L100.719 40.1993L100.552 39.6964L100.365 39.8074L99.7127 40.1785L98.6582 40.6121C98.5229 40.6954 98.3669 40.678 98.5299 40.515L99.9105 39.2628C100.289 38.9194 100.549 38.6419 100.882 38.2499L101.957 36.9838C102.321 36.5537 102.855 36.3698 103.442 36.1062V36.4392L103.227 36.6022C103.206 36.6196 103.181 36.5953 103.393 36.6855C103.622 36.5329 103.82 36.349 104.024 36.134L104.871 35.2529L106.508 33.5463L107.077 32.9531L106.723 33.1335L105.412 33.9278C105.374 33.9521 105.169 33.9833 105.19 33.9556L105.388 33.7128C105.627 33.4179 106.057 32.9427 106.092 32.6201C106.126 32.2975 106.137 32.1206 106.373 31.8847C106.543 31.7148 106.616 31.5136 106.72 31.3402L107.351 30.2995L107.649 30.4071C107.701 30.4279 107.726 30.3238 107.774 30.0636C107.913 30.0255 107.66 30.0879 107.524 30.1226C107.354 30.1885 107.035 30.2995 106.928 30.4001L105.388 31.7911C105.252 31.9125 104.864 32.1033 104.683 32.1796C104.611 32.2108 104.583 31.9194 104.642 31.8466L105.544 30.7817L105.655 30.6325L105.8 30.4348C105.832 30.3932 105.814 30.3065 105.807 30.2163C105.804 30.1642 105.62 30.3446 105.582 30.3793C105.124 30.8233 104.885 30.6325 104.34 31.2465L104.156 31.4581L104.458 31.5171L104.052 32.0547C103.9 32.3391 103.709 32.471 103.476 32.6895L101.773 34.3025L100.85 35.024L100.257 35.4888C100.23 35.5096 100.008 35.4818 100.035 35.4541L100.216 35.2564L100.687 34.7361L101.083 34.2678L101.541 33.7717L102.006 33.2584C102.349 32.8768 102.793 32.575 102.901 31.8639C102.918 31.7495 102.561 31.6836 102.45 31.7217L102.266 31.7842C102.238 31.7946 102.078 31.805 102.103 31.7842L102.29 31.6003L102.97 30.9863L103.678 30.2718L104.208 29.4462C104.42 29.1167 104.826 29.3317 104.864 29.0265C104.874 28.9363 104.892 28.7212 104.954 28.7421L105.256 28.8496L106.352 27.587L106.65 27.1568L107.001 26.529C107.011 26.4145 107.001 26.1301 107.08 26.0399L108.537 24.3576C108.7 24.1598 108.822 24.3437 108.752 24.5241C108.763 24.7461 108.735 25.0686 108.638 25.2074L107.302 27.0805C107.271 27.2227 107.302 27.3268 107.393 27.2401L107.961 26.5949C107.906 26.3521 108.124 26.2341 108.301 26.1231L108.79 25.3808C108.891 25.419 109.03 25.4745 109.026 25.4745C108.943 25.3912 109.446 23.48 110.147 22.9701L109.9 23.9552C109.89 23.9899 109.952 24.1529 109.994 24.2708L110.501 23.2476C110.525 23.2025 110.497 22.9909 110.535 22.9701C110.594 22.9423 110.716 22.8833 110.667 22.9076C110.83 23.1123 110.809 23.1088 110.816 23.0741L110.854 22.8174L111.059 21.9294L110.497 22.4567C110.49 22.0612 110.636 21.9329 110.854 21.7282C111.073 21.5236 111.201 21.2045 111.347 20.9374L111.923 19.8794V19.6956L110.66 21.1143L109.796 21.8809C109.609 21.697 109.97 21.4265 110.025 21.26C110.164 20.8506 110.31 20.4483 110.573 20.0771L110.684 19.921C110.705 19.8898 110.712 19.7962 110.674 19.8066L110.41 19.869L111.017 18.5162L110.521 18.9845C110.428 19.0746 110.369 19.3001 110.372 19.4909L109.72 20.5974L109.734 20.8402C109.737 20.9096 109.508 20.979 109.46 21.0484L108.707 22.1584L108.232 22.8695L108.197 23.3863C107.774 24.3714 107.261 25.2802 106.56 26.0815L105.322 27.4968C105.27 27.5557 105.11 27.6321 105.048 27.6494C104.93 27.6772 104.722 27.3129 105.065 26.6573L105.589 25.6549L106.144 24.6767C106.414 24.198 106.945 23.5424 107.292 23.2302C107.327 23.199 107.358 22.9701 107.32 22.9943L107.143 23.1123L106.98 23.2198C106.945 23.2441 106.824 23.1851 106.838 23.147L106.931 22.9146C106.903 22.8382 106.931 22.7481 107.008 22.6926C107.105 22.6648 107.146 22.703 107.247 22.8695L107.316 22.5226C107.309 22.4706 107.295 22.4046 107.299 22.4012C107.306 22.3977 107.112 22.4185 107.091 22.4359L106.633 22.8417C106.529 22.9354 106.269 23.0533 106.071 23.1261L105.027 24.7773L104.125 25.9566L103.407 26.5776C102.97 26.9522 102.904 27.4829 102.557 27.913L101.794 28.8531C101.569 29.1306 101.298 29.3456 100.986 29.4948C101.242 29.1375 101.409 28.9502 101.551 28.6276L101.718 28.2564C101.735 28.2217 101.745 28.0518 101.714 28.0691L101.544 28.1697L101.437 28.2842L100.733 29.0057L99.9035 29.9388C99.9035 30.081 99.8549 30.3897 99.7578 30.4764L99.0086 31.1251L97.1563 32.9635C97.1077 32.9566 97.3297 32.9878 97.3574 32.9913C97.7633 32.4779 98.1379 32.2386 98.7241 32.0374L99.3208 31.3124L99.4803 31.413C99.0294 32.2906 98.1206 32.6271 97.6662 33.3798L98.5507 32.8248C98.7241 32.7138 99.0467 32.4952 99.0953 32.3183L99.182 32.0061C99.2028 31.9264 99.4075 32.0686 99.4665 32.1241L99.6503 31.9784L99.5324 31.7564C99.6572 31.4997 100.084 31.3055 100.344 31.0869L101.239 30.3377L102.113 29.6023L102.831 29.0404C103.331 28.6484 103.847 28.1246 103.879 27.5661C103.906 27.0944 104.593 26.5914 104.635 26.7545C104.805 27.4413 104.337 28.024 103.913 28.5929L102.519 30.4626L101.218 31.9992C101.333 32.0721 101.555 32.0166 101.721 31.9576L101.94 31.8813C101.967 31.8709 101.957 31.9333 101.94 31.9541L101.804 32.0929L100.462 33.4596C99.9972 33.9348 99.4699 34.2955 98.8594 34.5175L98.7172 34.6875C98.6964 34.7152 98.7068 34.7222 98.7137 34.7326L98.9739 34.8505C98.5646 35.1315 98.516 35.572 98.2663 35.8946C97.8778 36.3906 97.2638 36.7202 96.7331 37.0636C96.8441 36.6057 97.0279 36.297 97.3019 36.0264L97.9229 35.4194L98.0859 35.2598C98.1171 35.2286 98.2003 35.076 98.1587 35.0968L97.8396 35.2529L97.7113 35.357L96.4833 36.1652L96.355 36.2484C96.355 36.2484 96.2925 36.408 96.2787 36.4392C96.2683 36.467 96.3619 36.408 96.3931 36.4115L96.688 36.4392C96.5458 36.6751 96.3307 36.8797 96.0497 37.0324C95.7514 37.1954 95.6023 37.4105 95.3282 37.6255L94.0032 38.6696C93.8332 38.6245 93.573 38.4858 93.5696 38.347L93.5488 37.7226L93.1915 37.8614C93.1117 37.8926 92.9417 37.7018 92.8793 37.6394L92.6018 37.3654C92.5255 37.2891 92.5983 36.9977 92.685 36.9318L92.8724 36.7896C92.9591 36.7236 92.2896 36.5988 92.4388 36.46L92.7232 36.1964C93.417 35.7385 92.7024 35.7316 93.1082 35.4263L93.247 35.3153L93.4204 35.1766C93.4586 35.1454 93.299 35.128 93.2608 35.1558L92.0468 36.0368L91.3461 36.2692C91.2074 36.3143 90.9541 36.1236 90.8085 36.0472L89.2753 35.2147C89.2579 35.2529 89.3446 35.076 89.3759 35.0205C89.799 34.7222 90.0627 34.4343 90.3194 33.9521L91.2212 33.796L91.967 33.1023L90.0627 32.2837L89.2163 32.0443L88.4566 31.6697L87.9155 31.2916L87.7525 31.1736C87.6207 31.1355 87.475 31.1216 87.7109 31.2742L87.5964 31.7425C87.5756 31.7391 87.6692 31.7564 87.7594 31.7737L87.9571 31.8119C87.9918 31.8188 88.089 31.8813 88.0612 31.9056L87.8704 32.0963C88.0161 32.2628 88.1514 32.4397 88.1895 32.6617L86.6217 31.4616C86.3303 31.2396 85.9661 30.7713 85.6261 30.7054C85.1579 30.6152 85.0746 30.3793 84.7173 30.1504L82.7575 28.912C82.7193 28.8912 82.5216 28.86 82.5424 28.8912L82.7054 29.1479L82.9934 29.6058C83.0142 29.637 82.9899 29.8382 82.9621 29.8139L82.7471 29.6266L82.0776 29.0438L81.148 27.7188C80.9503 28.246 81.0404 28.6345 81.5538 29.0126L80.6311 30.6013L81.1653 31.6523L81.4845 32.3287L80.7942 33.2202L80.0865 34.1082L79.9964 34.2747C79.979 34.3059 79.92 34.4135 79.92 34.41C79.9166 34.41 79.9998 34.4308 80.1039 34.4586L80.8497 35.3466L80.9225 36.1686L80.482 37.8683L80.0727 38.2221L79.3685 38.9749C79.3408 39.0026 79.1084 38.9749 79.1257 38.9402L79.2228 38.7529L79.4032 38.4095C79.4205 38.3782 79.4275 38.2187 79.424 38.184C79.424 38.1528 79.3755 38.1701 79.3338 38.184L78.255 40.2132C78.8725 39.9426 79.2679 39.6547 79.6425 39.3009C79.9582 38.9922 80.2808 38.7043 80.5791 38.4754L81.6336 37.6776C81.6544 37.6533 81.6822 37.6047 81.6544 37.5943L81.4775 37.518L81.2729 37.4278C81.1272 37.3619 81.8174 36.9214 81.3284 36.2103C81.6093 36.1478 81.7828 36.4392 81.9076 36.7306C82.0811 37.1399 82.3967 37.3168 82.7401 37.5249C83.0211 37.6984 83.2084 37.9134 83.5692 37.6914C83.8363 37.5284 84.2317 37.5804 84.4953 37.8024L86.0216 39.0963L86.1256 39.2662C86.1465 39.3009 85.9661 39.3183 85.9244 39.3079C85.9036 39.3044 85.751 39.2281 85.7337 39.2142L84.4225 38.1077C84.3462 38.0418 84.2941 38.0106 84.2976 38.0487L84.315 38.3713C84.4641 38.7667 84.8699 39.4293 85.1232 39.849L85.6053 40.6537L85.8273 41.2816C85.8481 41.3406 85.9418 41.4828 85.9002 41.4932L85.7233 41.5279C85.5984 41.514 85.4354 41.4724 85.4007 41.5383C85.3556 41.6215 85.3001 41.9094 85.2238 41.9649L84.5994 42.3985C84.5543 42.4297 84.4537 42.572 84.4259 42.6171C84.4051 42.6517 85.4839 43.8589 86.1152 44.2508L87.1871 44.9203L88.5642 45.7979C88.5711 45.68 88.4774 45.4476 88.3942 45.3712L87.9814 45.0001L87.8114 44.8475C87.7733 44.8128 87.8635 44.6636 87.912 44.674C88.1791 44.7399 88.2901 44.9723 89.2614 45.3539C90.5032 45.843 91.3218 46.9322 92.1647 47.893C91.9948 47.9173 91.967 47.9242 91.9427 47.9138L91.7658 47.8271C91.7311 47.8098 91.8456 48.0075 91.8838 48.0318L92.6087 48.455C93.0527 48.7116 93.4586 49.0377 93.8124 49.4436C93.9199 49.565 94.3084 49.5372 94.4576 49.6343L96.1503 50.727L96.3446 50.8519C96.3897 50.8796 96.2197 50.9386 96.1711 50.9178L95.245 50.5119C94.9918 50.4009 94.7524 50.3628 94.5131 50.231C93.3753 49.5996 92.3833 48.951 91.3496 48.1393C91.3877 48.3509 91.5195 48.6284 91.641 48.7255L92.6226 49.5025L92.796 49.6551C92.8377 49.6898 92.7128 49.7453 92.5047 49.8251L93.795 51.0288L95.2623 52.1943L93.5245 51.4311L92.4804 50.9733C91.9497 50.7409 91.5959 50.4113 91.3634 49.9153L90.4997 49.3568L89.7886 48.9441L90.1771 49.5615L90.3228 49.7176C90.3506 49.7453 90.309 49.9014 90.2743 49.8806L90.021 49.7419C89.6429 49.5372 89.2926 49.2458 89.0255 48.9198L88.2312 47.9416L88.0716 48.0318L88.4046 48.618C87.8045 48.4099 87.5999 47.9208 87.3328 47.4456L86.5419 46.6165C86.358 46.4257 86.2228 46.0234 86.136 45.8014C85.8516 45.5759 85.6886 45.3331 85.647 44.844C85.9349 44.7816 86.1395 44.9446 86.2401 45.2568L86.7847 45.6245C86.1915 44.4728 85.2827 44.3445 85.2064 44.1329L85.1266 43.9144L84.6167 43.2414C84.5612 43.0645 84.5265 43.1061 84.5196 43.2484L84.4051 44.0774L84.7485 44.5596C84.8353 44.6844 84.6479 45.0278 84.5439 45.1562C84.0721 45.7528 84.6133 46.2801 84.4572 46.3356L83.9924 46.509L82.7505 47.2582L81.866 47.8687L80.423 48.9614L80.6797 48.9822C80.7352 48.9857 80.8323 49.1348 80.7629 49.1834L78.6193 50.5882L78.4389 50.4634L79.9929 49.0238L80.1559 48.8296C80.201 48.7776 79.9339 48.6978 79.8645 48.6804L79.6113 48.6111L80.4091 48.0214C80.5375 47.9277 80.7144 47.6641 80.8427 47.4629L79.9235 48.0318L78.1614 49.0793C78.1198 49.1036 77.9116 49.1418 77.87 49.1487C77.8284 49.1556 77.8423 49.0447 77.8769 49.0204L78.0469 48.892L78.3522 48.5833L77.648 48.9337L76.2466 49.7696L76.2328 49.5372L76.5241 49.395L76.4652 49.3187L72.9583 51.1467C72.5281 51.5005 72.046 51.7399 71.5049 51.7468C70.5336 52.2532 69.6179 52.6834 68.5252 52.9817L69.7809 52.1561C70.9325 51.3999 72.2853 51.1849 72.1396 50.8102L73.6659 49.5095L75.0222 48.4688L75.9379 47.6676L76.812 46.8732L76.7704 46.7553H76.7912ZM112.568 16.6396L113.563 15.5226C113.255 15.6198 112.97 15.8279 112.752 16.0811L111.898 17.0593C112.127 16.9414 112.433 16.7957 112.568 16.6396ZM108.086 20.424C108.319 20.2297 108.662 19.9973 108.794 19.8066L109.422 18.8977L108.485 19.3834L107.778 19.2585L107.698 20.2332L108.003 20.0182C108.041 19.9904 108.118 20.1222 108.114 20.1708L108.093 20.424H108.086ZM104.777 23.2129L104.621 23.9032L105.124 23.2857L105.45 22.7099L104.385 23.2649C104.18 23.3724 103.976 23.6465 103.893 23.8789L104.777 23.2129ZM99.515 27.8367C99.6052 27.7257 99.907 27.6459 100.011 27.6771L99.5289 28.2807C100.237 27.9651 101.145 26.9244 101.194 27.0389L101.315 27.3199L101.877 26.7059L101.51 26.9071L101.395 26.8446L102.245 25.9809L101.267 26.4215C101.031 26.529 100.746 26.8238 100.5 27.0666L99.4456 27.3303C99.3485 27.3546 99.0467 27.2158 98.9878 27.2956L98.7415 27.6425L98.3322 28.3432L98.8455 28.0656C98.9184 28.0275 99.012 28.2703 99.0502 28.4021L99.515 27.8332V27.8367ZM160.898 27.3199C161.266 27.476 161.526 27.2817 161.783 27.0389C162.185 26.7128 162.521 26.418 162.827 26.0226L161.401 26.6747C160.714 26.9903 160.104 27.5662 159.663 28.1697L160.898 27.3164V27.3199ZM158.786 27.9442L159.892 27.3441C159.732 27.2366 159.445 27.1152 159.334 27.1742L158.681 27.5315C158.48 27.6425 158.258 28.0622 158.109 28.3154L158.789 27.9442H158.786ZM80.1802 29.1132C80.1698 29.0196 80.1074 28.7629 80.1663 28.7663L80.4508 28.7733L80.808 27.9165L79.2991 29.2624L79.7501 29.1097C79.8403 29.0785 80.0137 29.1097 80.1802 29.1167V29.1132ZM110.112 30.8857C110.143 30.7262 110.181 30.3724 110.324 30.2822L110.917 29.9006C110.938 29.3283 111.683 29.3283 111.683 28.4021L110.632 29.4982L110.063 30.3065C109.741 30.9343 109.429 31.361 108.901 31.9576C109.158 31.9194 109.283 31.7009 109.512 31.4754L110.109 30.8857H110.112ZM79.2436 31.8119C79.3338 31.8362 79.7882 31.7841 79.8715 31.6454L80.5132 30.5631L79.816 31.1112C79.8437 31.2361 79.8992 31.3991 79.8437 31.4442L79.6044 31.6558C79.5732 31.524 79.5489 31.354 79.5038 31.3852L79.3269 31.4997C79.2991 31.5205 79.3026 31.5587 79.2436 31.8154V31.8119ZM94.9675 32.2281L94.7004 33.1092C95.3525 32.0998 96.0463 31.9784 96.6672 31.3679L95.4774 31.8154L96.3168 30.6464L94.9744 31.5448L93.8436 32.1345L93.2955 32.7381L92.692 33.5914L93.3649 33.1404L93.8263 33.0953C94.2148 32.7623 94.5061 32.4814 94.964 32.2316L94.9675 32.2281ZM148.199 35.4471C147.928 36.186 147.158 36.1617 147.04 36.7687C147.436 36.6404 147.606 36.5363 147.904 36.3351L148.587 36.1964L148.424 35.7524L149.836 34.6042C150.374 34.1706 151.14 33.8515 151.793 33.5775C151.612 34.3649 150.96 34.4863 150.54 34.9823L151.144 34.7326L150.981 35.3223L151.775 34.4169C152.06 34.0943 152.174 33.9001 152.608 33.7856L153.353 33.2029L153.291 33.8272C153.52 33.8481 153.78 33.4734 153.745 33.1508C153.322 33.0502 152.951 33.1647 152.41 33.2653L154.189 31.4616L152.715 32.2281L150.995 33.1127L150.339 33.4596C149.965 33.3867 149.6 33.4214 149.257 33.5289L148.355 33.2202L147.099 32.9288L147.429 33.4596L146.909 33.4179C146.7 33.4006 146.367 33.4283 146.184 33.574C146.062 33.6711 146.076 33.9486 146.062 34.1602L145.25 34.632L147.408 34.2053C147.314 34.3614 147.183 34.521 147.085 34.5661L145.837 35.1211C146.44 35.2737 146.766 35.0205 147.307 34.8401L146.947 35.3431L147.852 34.9754C148.178 34.8436 148.397 34.7465 148.775 34.8158L148.189 35.4471H148.199ZM62.9266 32.9046L63.6343 32.0096L62.382 32.0408L62.0595 32.7554C62.0352 32.8074 62.0976 32.9705 62.1462 32.9427L62.3196 32.8352C62.3959 32.7901 62.5902 32.6687 62.6595 32.7172L62.9266 32.9046ZM97.0383 34.2123L97.6245 33.1404L96.6915 33.6885L96.5388 33.7579C96.5076 33.7717 96.5111 33.8931 96.5388 33.8827L96.7608 33.8134C96.8371 33.7891 97.0002 33.8342 97.0071 33.9036L97.0349 34.2088L97.0383 34.2123ZM105.225 36.8555C105.62 36.6161 105.492 36.1791 106.04 35.8287C106.029 35.7663 105.967 35.5547 106.026 35.5096L106.321 35.2945L106.536 34.795C107.039 34.3337 107.472 33.9036 107.722 33.2722C107.014 33.8376 106.463 34.4308 105.943 35.1592L105.037 35.9813L103.348 37.9689C104.444 37.7192 104.67 36.8104 105.124 36.4115C105.166 36.3733 105.259 36.4912 105.252 36.5502L105.221 36.8555H105.225ZM82.5736 38.2534C82.7193 38.3366 82.806 38.3921 82.865 38.3505L83.1078 38.1701L82.0464 37.5006V38.6523L82.5771 38.2534H82.5736ZM53.0893 39.3113C53.058 39.1691 52.9921 38.85 53.0997 38.7876L53.4882 38.5621L53.783 38.3921C53.9599 38.2881 52.8985 38.1458 52.229 37.6221L52.2082 38.5101C52.2498 38.5794 52.3678 38.7182 52.3331 38.7771L52.1978 39.0234C52.1458 39.1206 52.1596 39.4397 52.2672 39.4674C52.3539 39.4882 52.5343 39.4709 52.621 39.4466L53.0927 39.3113H53.0893ZM184.635 42.9743L185.311 43.1443L182.977 41.2642L182.342 41.4099C182.175 41.4481 181.887 41.1775 181.62 41.0388C181.78 41.3926 182.033 41.7221 182.335 42.0239L183.199 42.8841C183.403 43.0888 183.556 43.1859 183.813 43.3386L185.772 44.5006L184.877 43.6889C184.728 43.5536 184.624 43.0784 184.631 42.9709L184.635 42.9743ZM35.1524 47.2929L36.5607 46.6339L35.9745 47.3241L37.7192 46.2141L40.3451 44.6151L39.1449 44.9134L41.9338 42.5442L42.468 42.1002C42.6726 41.9302 42.8565 41.7186 42.9952 41.4654L41.9338 42.2251L39.9045 43.8658L39.8976 43.4634C38.9645 44.2821 38.1563 45.0209 37.1122 45.6002L36.2797 45.9505C35.9953 46.0719 35.8357 46.1899 35.6276 46.3841L34.4829 47.3207L35.1524 47.2895V47.2929ZM159.764 45.2117C160.034 45.0209 160.346 44.5665 160.544 44.3376L160.846 44.5318C160.898 44.5665 160.96 44.2925 161.012 44.2543L161.578 43.845C161.415 43.4114 162.011 43.0541 162.161 42.2598L161.103 43.0506C160.929 43.179 160.79 43.6507 160.603 43.7444C160.291 43.904 159.864 44.1537 159.635 44.341C159.85 44.9862 158.668 45.4267 158.22 46.2939L159.767 45.2047L159.764 45.2117ZM76.9196 46.9287C76.8329 47.3068 76.6733 47.6121 76.4201 48.0699L78.4389 47.3311C78.6886 47.2374 78.9869 46.8767 79.202 46.8524L79.1396 47.1334C79.1326 47.1611 79.2298 47.0883 79.2436 47.064C79.5177 46.5506 80.0831 46.1309 80.5132 46.2454L81.3249 45.1492L80.5028 45.621C80.0172 45.8985 79.7258 46.3633 79.0598 46.3911L80.8011 44.8787L79.8958 44.8995L80.9572 43.7166C80.808 43.5744 80.7283 43.512 80.7595 43.4704L80.9399 43.2414L81.3804 42.8599C81.148 42.8495 80.9711 43.016 80.7803 43.2067L80.0033 43.9664L79.3061 44.5283C78.876 44.8752 78.536 45.1631 78.1718 45.562L76.9612 46.8836L76.923 46.9252L76.9196 46.9287ZM66.1769 46.79L66.3295 46.8351L67.7933 45.7216L67.0579 45.9505V45.8048L67.8488 45.4025C67.0579 45.3331 66.1907 45.6869 65.9687 46.5576C66.1977 46.4847 66.3989 46.3356 66.5862 46.176L66.7978 45.9991C66.8325 45.9713 66.9365 46.124 66.9192 46.1656C66.9018 46.2072 66.8082 46.3425 66.77 46.3702L66.1803 46.7934L66.1769 46.79Z" fill="#446B4B"/>
<path d="M120.931 41.6979L120.334 42.2182C119.963 42.5408 119.651 42.9119 119.398 43.3698L118.954 43.4253C118.326 43.7999 117.719 44.1433 116.942 44.2994C117.618 43.7063 118.167 43.2206 118.513 42.4402L117.206 43.238C117.095 42.6587 117.57 42.5963 117.83 42.3049C118.056 42.0517 118.434 41.8123 118.624 41.5903L118.985 41.1706L119.901 40.4248L119.53 40.1959L119.273 40.5774C119.204 40.678 118.902 40.5566 118.746 40.515L118.291 41.5418L117.487 42.1557L116.571 42.8634L116.776 43.1235L116.123 43.6091C115.777 43.8693 115.496 44.1017 115.079 44.3064C114.878 44.4035 114.687 44.6636 114.521 44.7954C113.747 45.4059 112.873 45.7944 111.878 46.1101L113.067 45.1631L111.035 45.954L111.701 45.3851L110.299 45.7563L109.307 45.9297L107.649 46.1032L108.86 45.1944L109.682 44.622C109.939 44.4451 110.168 44.2613 110.403 44.0358L111.722 43.2796L111.659 43.2102L111.083 43.4149V43.2519L112.981 42.1315L111.548 42.4436L112.353 41.8817L112.561 41.4689L113.699 40.6503C113.518 40.6468 113.31 40.6711 113.23 40.7162L111.427 41.7083L111.583 41.07L111 41.3059L109.456 42.0274L108.232 42.676C108.138 42.7246 108.09 43.1062 107.989 43.1131L107.486 43.1443L104.885 44.23L105.474 43.7548L104.108 44.0809L105.103 43.1478L105.825 42.6067L107.139 41.8227C107.785 41.9372 108.267 41.8297 108.839 41.5036L110.965 40.2791C111.35 40.0571 111.77 39.9878 112.349 39.8629C112.082 40.1577 111.846 40.3173 111.5 40.5705C112.152 40.6642 112.533 40.13 112.998 39.7345L114.396 38.5517C114.972 38.0661 115.381 37.414 116.165 37.1885L117.365 36.8451L116.776 37.5666C116.703 37.6568 116.675 38.0036 116.678 38.125L117.428 37.4764C117.91 37.0601 118.479 36.3664 118.454 35.9293L119.474 34.9928L120.404 34.4135L121.986 35.853L123.175 37.2925C122.617 37.0359 122.308 36.6994 121.781 36.2346L122.09 37.1573C121.458 36.904 121.25 36.4115 121.039 35.8391C120.907 36.5676 121.316 37.0775 121.784 37.5562L122.218 37.9967L121.632 37.9551L122.551 38.9541C122.711 39.1275 123.155 39.3946 123.363 39.5021C124.296 39.6825 124.31 40.4387 124.747 40.2514L123.571 38.8223L125.43 39.9392L126.384 40.5601L126.19 40.1889C126.152 40.1161 126.2 39.8872 126.283 39.8768C126.644 39.8351 127.383 40.241 128.777 39.9565C129.367 40.2722 129.943 40.7821 130.491 41.3024C130.269 41.4134 129.957 41.3718 129.78 41.233L129.086 40.678L129.658 41.854C129.946 42.0621 130.071 42.2771 130.203 42.6275C130.297 42.8772 130.876 43.0056 130.689 43.4947L127.796 41.4759C127.928 41.9199 128.174 42.2771 128.545 42.5442L129.676 43.3629L130.446 43.7722C130.848 43.9872 131.108 44.341 131.434 44.6047L133.127 45.9505L134.31 47.0848L132.354 46.2072C132.704 46.96 133.367 47.0155 133.929 47.3068L134.775 47.7474C135.045 47.8861 135.254 48.011 135.521 48.2781C134.869 48.6111 134.414 47.9139 133.488 47.8341L135.84 49.5199L133.876 48.6735L132.496 47.9832C131.802 47.6364 131.226 47.1924 130.647 46.6547C131.244 46.7067 131.598 47.0744 132.073 47.3172L131.792 46.7518C131.483 46.4327 130.98 45.9679 130.546 45.7945C129.638 45.4302 128.94 44.8787 128.167 44.3549C127.754 44.0774 127.397 43.786 127.033 43.3316C127.577 43.0333 127.771 43.7514 128.437 44.0393L128.195 43.6993C128.153 43.6438 128.181 43.5051 128.195 43.3663L127.647 42.9293L126.304 42.0725L125.694 41.5244L124.684 41.0006L124.986 41.7672L125.291 42.5373L123.692 41.1637C123.664 40.8376 123.543 40.6121 123.373 40.4005L122.79 39.6756L122.176 38.9818C122.187 38.9263 121.941 39.1691 121.899 39.2767C121.85 39.4015 122.062 39.634 122.117 39.7623L122.405 40.8099L122.041 40.7544C121.965 40.744 121.861 40.8792 121.784 40.9417L121.337 41.3128L121.514 40.7197L120.293 41.1116L120.938 41.6944L120.931 41.6979Z" fill="#446B4B"/>
<path d="M149.378 51.6393L148.085 51.0461L147.824 50.9282C147.765 50.9004 147.793 51.1814 147.769 51.2022L145.826 50.2587C145.407 50.0541 145.088 49.8182 144.574 49.7939L145.427 50.3246C145.368 50.394 145.264 50.5189 145.296 50.4772C145.722 50.7374 145.976 50.8449 146.281 51.1467C143.919 50.3697 141.83 49.2077 139.649 48.011L141.06 49.0447L140.981 49.1314L138.778 47.9312C138.278 47.6606 137.987 47.1542 137.37 47.0883L138.358 47.9208L139.055 48.455L138.32 48.3266C138.216 48.4307 137.914 48.507 137.782 48.4133L136.624 47.6051C135.528 46.842 134.553 46.0546 133.596 45.1319L132.718 44.289C132.482 44.0601 132.319 43.9109 132.17 43.5814L133.831 44.6879C133.734 44.3896 133.596 43.9942 133.453 43.8797L132.565 43.1721L131.823 42.5997C131.532 42.3742 131.289 42.2355 131.122 41.8401L132.357 42.572C133.152 42.5373 134.126 43.0264 133.991 43.4808L135.299 44.8787C135.611 45.2152 135.836 45.5898 136.308 45.7875L135.812 45.1874C136.246 44.9203 136.499 45.6938 137.352 45.9922L136.773 45.3574L137.429 45.5967C137.05 45.2325 136.61 44.9446 136.142 44.6359L135.413 44.1537C135.774 44.1294 136.329 44.0913 136.586 44.2786L138.976 46.0026L141.74 47.6745C143.162 48.5347 143.669 48.0283 143.724 48.6596C144.422 49.0065 145.292 49.4366 146.104 49.4817C146.773 49.5164 147.231 49.5823 147.804 49.9188L149.76 51.0704L150.749 51.5907L153.052 52.7631C152.42 52.6868 151.897 52.5377 151.324 52.333L149.378 51.6323V51.6393Z" fill="#446B4B"/>
<path d="M125.035 49.3152L125.211 49.8147L123.262 48.559L124.036 49.3083L123.585 49.2597L124.733 50.2483C123.841 50.2275 123.172 49.7453 122.353 49.7453C121.94 49.7453 121.444 49.3742 121.122 49.1661C120.81 49.3742 120.438 49.1869 120.071 49.2077C119.564 49.232 118.982 49.5927 118.479 49.7592C118.44 49.6794 118.378 49.4401 118.305 49.4574L117.858 49.5754C117.566 49.6517 117.199 49.6205 116.803 49.5754C117.254 49.284 117.594 49.1938 118.021 49.0342L118.843 48.7255L118.305 48.5486L119.519 48.2295C120.112 47.5496 120.785 47.0675 121.621 46.9183L121.424 46.6686C121.385 46.62 121.42 46.4257 121.479 46.4361L121.784 46.4916C121.836 46.5021 121.996 46.4986 122.048 46.4916C122.325 46.45 121.604 46.1309 121.93 45.1215L123.418 46.8455L122.808 46.8108L123.345 47.2131C123.512 47.338 123.755 47.4317 123.942 47.4733L125.437 48.1497C125.128 47.5912 124.559 47.73 124.4 47.0709L125.905 47.789C126.505 48.0769 127.175 48.5382 127.685 48.9996C128.021 49.3048 128.24 49.4782 128.642 49.6864L129.686 50.231C130.175 50.4876 130.609 50.7096 131.042 51.0843L127.74 49.7141L129.218 50.5986L128.833 50.7096L130.626 51.9029L129.468 51.5248L128.361 51.0808L126.887 50.2483L126.505 50.2899L125.035 49.3221V49.3152Z" fill="#446B4B"/>
<path d="M175.939 42.7662L176.067 42.5546C176.57 42.6483 176.802 42.7628 177.111 43.0437C177.794 43.6646 178.582 44.1676 178.821 45.1493L178.231 44.7226C178.488 45.1354 178.863 45.5655 179.275 45.8048L180.111 46.2905L181.065 46.9495L181.266 47.1056C181.315 47.1438 181.405 47.0501 181.527 46.953L182.397 47.6676L184.205 49.0377L181.485 47.5011L179.525 46.4431C179.723 46.6894 179.948 46.8767 180.136 46.9946L181.423 47.7959L180.934 47.9034L182.789 49.3846C181.398 49.0481 180.326 48.233 179.213 47.4248C178.811 47.1334 178.495 46.8663 178.013 46.6443C178.197 46.8628 178.374 46.9877 178.592 47.1681L179.504 48.0803C178.106 47.5739 177.281 46.4639 176.237 45.569L176.31 46.0373L175.401 45.0556L174.711 44.348L173.614 42.7905C173.58 42.7385 173.542 42.4957 173.59 42.4818L173.774 42.4367C173.823 42.4263 173.847 42.5685 173.868 42.6864L174.256 42.5685C174.513 42.787 174.551 42.8564 174.672 43.1235L175.182 43.3733C174.672 42.6205 174.142 41.9927 173.497 41.3475L172.595 40.4422C172.359 40.2063 171.936 40.0606 172.14 39.5195C172.574 39.8768 172.907 40.2444 173.229 40.6746L173.604 40.9451L175.144 42.1106L175.918 42.8703L175.939 42.7628V42.7662ZM176.06 42.8564L176.025 42.9466C176.247 43.2276 176.66 43.7583 177.003 43.9317L176.809 43.6299C176.774 43.5779 176.851 43.512 176.955 43.3871L176.06 42.8564Z" fill="#446B4B"/>
<path d="M113.636 48.8712L112.114 48.8539L113.397 48.0283C114.302 47.4455 115.034 46.5541 116.255 46.4292L116.047 46.731L117.018 46.346C117.407 46.1933 117.664 45.9366 117.983 45.8673L117.816 46.2141C117.795 46.2592 117.823 46.3633 117.854 46.4015C118.194 45.9817 118.475 45.732 118.961 45.5377C119.145 45.4267 119.457 45.1319 119.599 44.9827L119.079 45.0833C119.061 44.9064 119.242 44.6983 119.405 44.6393C120.005 44.4243 120.057 43.8797 120.078 43.8866L119.8 43.7652C119.89 43.6611 120.255 43.4495 120.425 43.512C120.928 43.6958 121.337 44.2682 121.438 44.7295L121.139 44.8925C121.028 44.955 121.358 45.4406 121.299 45.4926L121.056 45.7146L121.084 46.0407C121.091 46.1378 120.903 46.2905 120.841 46.3772C120.55 46.8004 120.282 46.9911 119.734 47.1438C119.727 47.2062 119.717 47.2825 119.752 47.279L120.164 47.2235C120.158 47.6988 119.679 47.4768 119.512 47.567L117.577 48.6145C117.147 48.8469 116.585 48.8851 116.182 48.7429C116.689 48.5243 117.032 48.3925 117.31 48.0769L116.026 48.4792L115.124 48.7498C114.566 48.9198 114.261 48.9753 113.629 48.8643L113.636 48.8712Z" fill="#446B4B"/>
<path d="M131.174 35.964L132.388 37.2821C131.584 36.9387 131.091 36.356 130.446 35.8981L129.676 35.3535L129.537 35.6518L128.274 34.2643L128.517 34.0076C127.64 32.8317 126.974 33.0815 126.734 32.8456C126.356 32.4745 126.148 32.2178 125.881 31.7911L125.211 31.1216L124.438 29.866C124.76 30.0637 125.055 30.244 125.222 30.4071L126.065 31.2292L125.499 30.2059L125.843 30.0741L125.246 29.2901C125.146 29.1583 125.149 28.9502 125.243 28.7664L124.813 28.2842L124.351 27.3407L123.644 26.1128C124.358 26.2584 124.493 27.0077 124.93 27.3823L125.86 28.1871L126.554 28.86C126.183 29.3769 127.085 29.5121 127.001 30.244C127.036 30.4418 127.223 30.8372 127.317 31.021C127.574 31.1355 127.612 31.0696 127.501 30.7921L128.177 31.2084L127.289 29.9839C128.007 30.0359 128.177 30.6984 128.593 31.0488L129.537 31.8397C130.106 32.5091 130.532 33.2306 130.997 34.0909C130.581 33.9903 130.342 33.6157 130.127 33.2827L129.873 33.4665C129.547 33.0364 129.214 32.6583 128.802 32.4085L128.784 33.3382L129.086 33.2619C129.308 33.6053 129.391 33.6191 129.568 33.8585L130.654 35.2911L131.178 35.9605L131.174 35.964Z" fill="#446B4B"/>
<path d="M173.243 44.6948L173.725 45.3608L174.537 46.2523L175.8 47.5253L173.743 46.2246C173.368 45.9852 172.99 45.8777 172.778 45.4233C172.612 45.0729 172.345 45.0209 171.995 44.903C171.644 44.785 171.117 44.2682 171.079 43.9352C171.051 43.6889 171.096 43.4045 171.002 43.2831C170.878 43.1235 170.659 43.0021 170.451 42.9084C169.976 42.6899 169.674 42.2459 169.355 41.8435C169.063 41.4724 168.755 41.2157 168.574 40.7821L169.403 41.3891L168.665 40.1681L168.044 39.1553C167.738 38.6558 167.773 38.2256 167.523 37.7886L167.374 37.5284C167.333 37.459 167.624 37.3515 167.655 37.4105C167.898 37.8094 168.432 38.2326 168.862 38.4407L169.924 38.9575L169.657 39.5993C169.965 39.8351 170.007 39.9461 170.076 40.3867L170.34 40.0294L170.031 39.2142C170.68 39.2593 171.061 39.8906 171.096 40.5185C171.748 40.7717 171.44 41.3926 171.589 41.462L171.922 41.6181L172.449 42.624C172.622 42.957 172.772 43.2414 172.9 43.7271L171.502 42.5858C172.147 43.7756 173.805 44.2855 174.652 45.569L173.725 45.0244L173.233 44.7018L173.243 44.6948ZM169.358 39.6929C169.344 39.2003 169.001 38.8569 168.567 38.6731C168.755 39.0685 168.97 39.3981 169.358 39.6929Z" fill="#446B4B"/>
<path d="M104.344 50.5293L107.06 52.0972L107.001 52.1804L103.743 50.7686C103.945 51.1537 104.24 51.1086 104.531 51.4901L103.102 50.8519C102.436 50.5536 101.718 50.283 101.419 49.5754L101.714 49.6101C101.756 49.617 101.749 49.3673 101.714 49.343L100.75 48.6354C100.143 48.1914 99.6469 47.6676 99.1196 47.0571C99.5012 46.7761 99.6746 46.9599 99.9729 47.4144L100.153 47.2132L99.2306 46.4188C99.7232 46.0477 99.9938 46.3598 100.42 46.4951C100.802 46.6165 101.315 46.62 101.763 46.6478L103.775 48.3024L104.649 49.2008L103.906 48.8435C103.331 48.6041 102.966 48.2989 102.457 47.7786L102.835 48.4931L103.185 49.1279L102.373 48.8053L103.41 49.6517C103.719 49.9049 104.17 50.0541 104.347 50.5189L104.344 50.5293Z" fill="#446B4B"/>
<path d="M93.3892 45.3782L94.2668 46.457C93.6563 46.2003 93.2261 45.7944 92.8238 45.3435L91.9115 44.3167C91.9254 44.6636 92.13 44.8717 92.4457 45.2152C91.8768 45.2429 91.5299 44.6671 91.0859 44.2855L90.2118 43.5432L88.8521 42.0933L89.0255 41.9684L90.1181 42.8425L89.4695 41.9962L89.9516 42.0551L89.1261 41.3891L88.585 40.9312L89.4938 41.0665C89.9586 41.1359 90.3922 41.2504 90.8951 41.122C91.2177 41.0388 91.575 41.0527 91.8282 41.2747L93.5973 42.8148L93.2019 43.3975L92.8342 42.8737L92.0017 41.9996C92.137 42.4332 92.2063 42.6622 92.2133 42.8564L92.7371 43.7166L93.4412 44.7712L92.7891 44.6324L93.3961 45.3817L93.3892 45.3782Z" fill="#446B4B"/>
<path d="M99.2444 49.1418L97.8742 48.2677L97.0209 47.6502L96.3133 46.9357L95.5224 46.1136L94.7766 45.2637L94.9188 45.118L96.1433 46.1032L95.6993 45.4996L95.7617 45.3331L96.1364 45.673L96.289 45.621L94.9362 44.3098C95.3282 44.1156 95.7132 44.2266 96.1919 44.2404C96.6151 44.2508 97.2915 44.2127 97.4163 44.7053C97.4059 44.8683 97.3539 45.2325 97.4614 45.3435C97.9644 45.8673 97.5135 46.176 97.9817 46.5437C98.3737 46.8524 98.5714 47.2236 98.7032 47.6919C98.9391 48.0422 99.2131 48.3024 99.3901 48.7602L98.0511 47.8445L98.0234 48.0179L99.2756 48.9857L99.2513 49.1418H99.2444Z" fill="#446B4B"/>
<path d="M117.445 21.7213C117.271 23.0152 118.142 23.1955 118.149 23.6465L118.163 24.3576C117.16 23.532 117.33 23.0394 116.98 22.5157L116.789 22.2312C116.751 22.1757 116.595 22.2208 116.46 22.2451C116.002 21.6277 115.499 20.9859 115.43 20.0702L116.21 21.0276L115.797 19.9939L115.273 18.8943C115.447 18.9879 115.582 19.092 115.71 19.2204L115.863 19.3764C115.887 19.4007 115.919 19.3626 115.936 19.3244L116.078 19.0504L116.567 20.365C116.654 20.6009 116.879 20.927 117.081 21.1837C117.008 20.8194 116.81 20.5107 116.64 20.1812L116.786 20.0841L117.764 21.2877C118.028 21.6103 118.128 22.1063 118.142 22.5573L117.445 21.7213Z" fill="#446B4B"/>
<path d="M112.991 52.9713L110.854 52.451L109.405 51.948L107.819 51.3514L108.159 51.7538C106.987 51.3757 106.064 50.779 105.055 50.1651C104.798 50.009 104.677 49.9327 104.437 49.617L105.419 49.7835L106.484 50.172C107.483 50.3489 108.222 50.6854 109.092 51.1918L110.338 51.7642L112.988 52.9748L112.991 52.9713Z" fill="#446B4B"/>
<path d="M57.8797 46.6928L59.0972 45.7979C59.5273 45.34 60.013 44.9862 60.561 44.681C61.0744 43.9109 61.8063 43.4565 62.6319 43.068L63.7245 42.5546L65.0184 41.8678L63.9118 42.9639C63.2181 43.6507 62.4099 44.3167 61.5531 44.7954L58.0531 46.7553L57.8762 46.6928H57.8797Z" fill="#446B4B"/>
<path d="M81.9284 50.1997L82.4868 49.5025L80.6519 50.3905L81.2381 49.5823C81.4046 49.3499 81.6092 48.8851 81.8243 48.7047C82.1573 48.4272 82.5389 48.226 82.5978 47.8236C82.6395 47.5392 82.8198 47.3554 83.08 47.2374L83.4234 47.952L83.2777 48.2989L83.5066 48.7047L83.3575 49.0759C83.3263 49.1556 83.6315 49.2632 83.6662 49.3499L84.0131 50.2101L83.0418 49.8355L81.9284 50.2032V50.1997Z" fill="#446B4B"/>
<path d="M138.396 41.4724L140.176 42.7107L140.085 42.8356L136.52 40.678L136.506 40.8341C136.502 40.8792 136.495 41.011 136.471 40.9833C136.197 40.5878 135.288 40.3346 134.369 39.3322L133.051 37.8892C133.62 38.0661 134.046 38.3054 134.515 38.6211C135.09 38.7494 135.573 39.1032 135.892 39.6235C136.568 39.908 137.133 40.3554 137.605 40.8966L138.393 41.4724H138.396Z" fill="#446B4B"/>
<path d="M88.2138 36.408C87.1801 35.7663 86.7916 34.8124 86.1777 34.4482L86.3268 35.0656L85.248 34.1082C85.1752 34.0423 85.026 33.7024 85.1128 33.6885L85.5359 33.6295L85.3209 32.9393C85.2793 32.9115 85.6331 32.856 85.699 32.9115L87.0379 34.0839C87.1212 34.1568 87.253 34.3302 87.2148 34.3961L87.0691 34.6493C87.2946 34.6944 87.8184 34.7985 87.9502 35.0032L88.4913 35.8565L87.5443 35.4402C87.808 35.8183 88.3699 35.7698 88.2138 36.4115V36.408Z" fill="#446B4B"/>
<path d="M65.3374 40.2028C65.275 39.7415 65.7502 39.0824 65.8681 39.0373C65.9549 39.0026 66.1144 39.0304 66.2705 39.0443L66.6105 38.3887C66.5376 38.3991 66.3399 38.4268 66.3607 38.3679C66.3815 38.3054 66.4544 38.125 66.4925 38.0765L66.9192 37.5631L67.3874 37.0116C67.5748 37.2162 67.658 37.3238 67.7551 37.3307C68.1055 37.348 68.2304 36.8485 68.6986 36.7965L68.272 37.407C68.0396 37.7435 67.6927 37.9481 67.2903 38.1805C67.2764 38.1632 67.5193 38.3297 67.4776 38.3852L67.2279 38.7009C66.6972 39.3703 66.104 39.7796 65.3444 40.2028H65.3374Z" fill="#446B4B"/>
<path d="M66.4093 41.6632C66.2254 41.7984 66.1491 41.7568 66.2532 41.5244H65.719L67.2695 40.1681C67.9321 39.5854 68.5044 38.9645 69.3959 38.5274C69.212 39.2662 68.6432 39.7345 68.1159 40.2548C67.5887 40.7752 67.103 41.2192 66.4093 41.6666V41.6632Z" fill="#446B4B"/>
<path d="M70.218 33.5324L70.5233 34.5314C70.0376 34.1186 69.8261 33.6746 69.5832 33.137C69.0733 32.8387 68.6259 32.3357 68.723 31.7078L69.1982 32.2975C69.1462 31.8154 68.9068 31.4963 68.6501 31.0141L68.997 31.2708C69.0699 31.3228 69.3196 31.2465 69.4029 31.2812C69.5936 31.3991 69.6561 31.8639 69.663 32.2178C70.1313 32.1414 70.5302 32.3843 70.6412 32.8074L70.2909 32.9184C70.218 32.9427 70.4261 33.1474 70.447 33.2202L70.5371 33.5324C70.5545 33.5948 70.3394 33.5532 70.2145 33.5324H70.218Z" fill="#446B4B"/>
<path d="M120.806 29.918C120.622 29.7896 120.3 29.6752 120.085 29.6266C119.516 29.1826 119.034 28.5652 118.645 27.9616L117.927 26.8447L118.021 26.7371L118.767 27.5072C119.311 28.0691 119.079 28.246 119.315 28.4299C119.377 28.4784 119.502 28.1246 119.44 28.0761C119.249 27.9304 119.016 27.3823 119.294 27.1881L120.074 28.3744L120.144 29.023C120.456 29.3109 120.685 29.5572 120.896 29.8486L120.928 29.9145L121.15 29.7272C121.205 29.6821 121.368 29.8763 121.413 29.9561L121.989 30.9621L120.883 29.9769L120.803 29.9214L120.806 29.918Z" fill="#446B4B"/>
<path d="M139.968 50.0992L140.866 50.8762L138.438 49.78C138.167 49.6586 138.001 49.5025 137.755 49.2701C137.553 49.0793 136.95 49.0343 136.974 48.5452C137.2 48.4134 137.723 48.5278 137.973 48.7117L139.173 49.6066L139.964 50.0992H139.968Z" fill="#446B4B"/>
<path d="M68.0119 49.5927L66.94 49.891L66.8325 49.3117C67.169 49.1695 67.554 49.0342 67.8246 48.9891C67.6754 49.3152 67.7483 49.2909 67.9182 49.2875L70.2076 48.2503L69.1497 49.1661C68.5218 49.7106 67.8662 50.1651 67.0268 50.4321L68.0119 49.5927Z" fill="#446B4B"/>
<path d="M85.019 33.5775C84.3773 33.2688 83.7425 32.6618 83.4026 31.8293L84.0963 32.3322L83.9506 31.9923C83.9194 31.9194 83.9992 31.7946 84.0443 31.694L83.4928 30.7886C83.9333 31.0002 84.2663 31.354 84.4571 31.7252L84.9635 32.7138C84.9392 32.908 84.9288 33.0954 85.0225 33.574L85.019 33.5775Z" fill="#446B4B"/>
<path d="M115.794 18.8318C115.291 18.4329 114.954 17.8918 114.625 17.3091C114.372 16.8616 114.125 16.4558 114.233 15.8591L115.083 17.2987C115.385 17.7531 115.745 18.1312 115.797 18.8318H115.794Z" fill="#446B4B"/>
<path d="M186.185 47.5635L185.519 47.0397L184.805 46.9114C184.923 46.8385 185.113 46.8142 185.11 46.7587L185.093 46.3494L186.109 46.9807L187.951 48.3509C187.257 48.1011 186.733 47.8306 186.185 47.5635Z" fill="#446B4B"/>
<path d="M64.9038 51.3167C64.8969 51.4138 63.6169 52.0521 62.8538 52.1076L64.9385 50.8588L64.9038 51.3202V51.3167Z" fill="#446B4B"/>
<path d="M58.1431 37.2266C58.157 36.9699 58.3651 36.8069 58.5351 36.6126C58.9236 36.1721 59.2913 35.7767 59.8775 35.468C59.5549 36.3178 58.9479 36.7861 58.1396 37.2231L58.1431 37.2266Z" fill="#446B4B"/>
<path d="M184.694 46.6998C183.92 46.7067 183.511 46.2593 183.081 45.7979C182.751 45.6592 182.345 45.5829 182.13 45.1909C182.727 45.3435 183.199 45.6245 183.67 45.9644L184.69 46.6998H184.694Z" fill="#446B4B"/>
<path d="M90.1286 37.8128L89.0498 37.0462L88.3665 36.3907C88.7307 36.4045 88.9006 36.5572 89.1157 36.7653C89.5077 37.1017 89.8233 37.3827 90.132 37.8128H90.1286Z" fill="#446B4B"/>
<path d="M49.0619 66.6814C48.7844 67.3613 48.4167 67.9857 47.9588 68.5546C47.5148 69.1234 46.9945 69.6091 46.3979 70.0114C45.8013 70.4138 45.1492 70.726 44.4415 70.948C43.7339 71.17 42.9847 71.281 42.1938 71.281C41.1393 71.281 40.1542 71.0867 39.2384 70.6982C38.3365 70.3097 37.5526 69.7825 36.8866 69.1165C36.2206 68.4366 35.6933 67.6388 35.3048 66.7231C34.9302 65.7934 34.7429 64.7875 34.7429 63.7052C34.7429 62.6369 34.9302 61.6517 35.3048 60.7499C35.6933 59.8341 36.2206 59.0432 36.8866 58.3772C37.5526 57.6974 38.3365 57.1701 39.2384 56.7955C40.1542 56.407 41.1393 56.2127 42.1938 56.2127C42.9153 56.2127 43.6021 56.3029 44.2542 56.4833C44.9063 56.6637 45.5099 56.9204 46.0649 57.2534C46.6199 57.5864 47.1194 57.9887 47.5634 58.4605C48.0213 58.9322 48.4028 59.4595 48.7081 60.0423L46.5644 61.291C46.3563 60.9025 46.1065 60.5417 45.8152 60.2087C45.5238 59.8757 45.1908 59.5844 44.8162 59.3346C44.4415 59.0849 44.0322 58.8906 43.5882 58.7519C43.1442 58.6131 42.6725 58.5437 42.173 58.5437C41.4376 58.5437 40.7577 58.6894 40.1333 58.9808C39.509 59.2583 38.9678 59.6399 38.51 60.1255C38.066 60.5972 37.7122 61.1453 37.4485 61.7697C37.1988 62.3802 37.0739 63.0254 37.0739 63.7052C37.0739 64.399 37.1988 65.065 37.4485 65.7032C37.7122 66.3415 38.066 66.9034 38.51 67.3891C38.9678 67.8608 39.509 68.2424 40.1333 68.5337C40.7577 68.8112 41.4376 68.95 42.173 68.95C42.7141 68.95 43.2136 68.8737 43.6715 68.7211C44.1432 68.5546 44.5733 68.3326 44.9618 68.0551C45.3503 67.7637 45.6903 67.4307 45.9817 67.0561C46.273 66.6814 46.5089 66.2791 46.6893 65.8489L49.0619 66.6814ZM58.4731 71.281C57.4186 71.281 56.4334 71.0867 55.5177 70.6982C54.6158 70.3097 53.8319 69.7825 53.1659 69.1165C52.4999 68.4366 51.9726 67.6388 51.5841 66.7231C51.2095 65.7934 51.0222 64.7875 51.0222 63.7052C51.0222 62.6369 51.2095 61.6517 51.5841 60.7499C51.9726 59.8341 52.4999 59.0432 53.1659 58.3772C53.8319 57.6974 54.6158 57.1701 55.5177 56.7955C56.4334 56.407 57.4186 56.2127 58.4731 56.2127C59.5276 56.2127 60.5057 56.407 61.4076 56.7955C62.3234 57.1701 63.1142 57.6974 63.7802 58.3772C64.4462 59.0432 64.9666 59.8341 65.3412 60.7499C65.7158 61.6517 65.9031 62.6369 65.9031 63.7052C65.9031 64.7875 65.7158 65.7934 65.3412 66.7231C64.9666 67.6388 64.4462 68.4366 63.7802 69.1165C63.1142 69.7825 62.3234 70.3097 61.4076 70.6982C60.5057 71.0867 59.5276 71.281 58.4731 71.281ZM58.4522 68.8043C59.1876 68.8043 59.8606 68.6725 60.4711 68.4089C61.0816 68.1314 61.6019 67.7637 62.032 67.3058C62.4621 66.8341 62.7951 66.2929 63.031 65.6824C63.2669 65.0581 63.3848 64.399 63.3848 63.7052C63.3848 63.0254 63.2669 62.3871 63.031 61.7905C62.7951 61.18 62.4621 60.6458 62.032 60.1879C61.6019 59.7301 61.0816 59.3693 60.4711 59.1057C59.8606 58.8282 59.1876 58.6894 58.4522 58.6894C57.7169 58.6894 57.0439 58.8282 56.4334 59.1057C55.8229 59.3693 55.3026 59.7301 54.8725 60.1879C54.4424 60.6458 54.1094 61.18 53.8735 61.7905C53.6376 62.3871 53.5197 63.0254 53.5197 63.7052C53.5197 64.399 53.6376 65.0581 53.8735 65.6824C54.1094 66.2929 54.4424 66.8341 54.8725 67.3058C55.3026 67.7637 55.8229 68.1314 56.4334 68.4089C57.0439 68.6725 57.7169 68.8043 58.4522 68.8043ZM75.3344 68.8876L71.3592 60.958V71.0521H68.8617V56.4417H71.5674L76.0629 65.287L80.5584 56.4417H83.2848V71.0521H80.7873V60.958L76.7913 68.8876H75.3344ZM85.7636 56.4417H88.2611L92.3195 67.5347L96.3364 56.4417H98.8339L93.5475 71.0521H91.05L85.7636 56.4417ZM107.993 63.7677C108.84 63.7677 109.45 63.5526 109.825 63.1225C110.213 62.6924 110.407 62.1096 110.407 61.3742C110.407 60.6527 110.206 60.0422 109.804 59.5427C109.415 59.0432 108.812 58.7935 107.993 58.7935H104.08V63.7677H107.993ZM101.583 71.0312V56.4625H107.993C109.644 56.4625 110.872 56.8857 111.677 57.7321C112.496 58.5646 112.905 59.7786 112.905 61.3742C112.905 62.5952 112.662 63.5665 112.176 64.288C111.705 65.0095 110.983 65.5367 110.012 65.8697L112.676 71.0312H109.825L107.306 66.0987H104.08V71.0312H101.583ZM124.987 60.3752C124.585 59.7647 124.03 59.293 123.322 58.96C122.615 58.627 121.824 58.4605 120.95 58.4605C120.672 58.4605 120.374 58.4952 120.055 58.5646C119.749 58.6201 119.465 58.7172 119.201 58.8559C118.938 58.9808 118.716 59.1612 118.535 59.3971C118.369 59.6191 118.279 59.8966 118.265 60.2296C118.251 60.5209 118.341 60.7776 118.535 60.9996C118.73 61.2216 119 61.4228 119.347 61.6032C119.694 61.7836 120.11 61.9639 120.596 62.1443C121.095 62.3108 121.643 62.4912 122.24 62.6854C123.308 63.0462 124.148 63.4416 124.758 63.8717C125.369 64.288 125.827 64.7806 126.132 65.3494C126.423 65.8073 126.59 66.2929 126.631 66.8063C126.687 67.3197 126.631 67.8192 126.465 68.3048C126.298 68.7766 126.035 69.2206 125.674 69.6368C125.313 70.0531 124.862 70.3999 124.321 70.6774C123.405 71.1769 122.254 71.4267 120.866 71.4267C119.659 71.4267 118.535 71.1769 117.495 70.6774C116.454 70.1779 115.629 69.505 115.018 68.6586L116.745 67.0561C117.148 67.7221 117.738 68.2493 118.515 68.6378C119.292 69.0263 120.131 69.2206 121.033 69.2206C121.56 69.2206 122.046 69.1512 122.49 69.0124C122.948 68.8737 123.315 68.6864 123.593 68.4505C123.87 68.2007 124.03 67.9024 124.071 67.5556C124.113 67.2087 123.988 66.8271 123.697 66.4109C123.53 66.1611 123.281 65.9252 122.948 65.7032C122.615 65.4812 122.247 65.2801 121.845 65.0997C121.442 64.9193 121.026 64.7597 120.596 64.621C120.18 64.4684 119.791 64.3366 119.43 64.2256C118.917 64.0452 118.438 63.8579 117.994 63.6636C117.55 63.4694 117.155 63.2404 116.808 62.9768C116.475 62.7132 116.211 62.3941 116.017 62.0194C115.823 61.6448 115.719 61.1869 115.705 60.6458C115.691 60.0214 115.816 59.4456 116.079 58.9184C116.343 58.3772 116.711 57.9124 117.183 57.5239C117.668 57.1216 118.244 56.8094 118.91 56.5874C119.576 56.3654 120.304 56.2544 121.095 56.2544C121.623 56.2544 122.15 56.3029 122.677 56.4001C123.204 56.4972 123.711 56.6498 124.196 56.8579C124.682 57.0522 125.14 57.3089 125.57 57.628C126 57.9332 126.375 58.294 126.694 58.7102L124.987 60.3752ZM128.92 69.4287H131.335V71.8429H128.92V69.4287ZM147.855 66.6814C147.577 67.3613 147.209 67.9857 146.752 68.5546C146.308 69.1234 145.787 69.6091 145.191 70.0114C144.594 70.4138 143.942 70.726 143.234 70.948C142.527 71.17 141.777 71.281 140.986 71.281C139.932 71.281 138.947 71.0867 138.031 70.6982C137.129 70.3097 136.345 69.7825 135.679 69.1165C135.013 68.4366 134.486 67.6388 134.098 66.7231C133.723 65.7934 133.536 64.7875 133.536 63.7052C133.536 62.6369 133.723 61.6517 134.098 60.7499C134.486 59.8341 135.013 59.0432 135.679 58.3772C136.345 57.6974 137.129 57.1701 138.031 56.7955C138.947 56.407 139.932 56.2127 140.986 56.2127C141.708 56.2127 142.395 56.3029 143.047 56.4833C143.699 56.6637 144.303 56.9204 144.858 57.2534C145.413 57.5864 145.912 57.9887 146.356 58.4605C146.814 58.9322 147.196 59.4595 147.501 60.0423L145.357 61.291C145.149 60.9025 144.899 60.5417 144.608 60.2087C144.316 59.8757 143.983 59.5844 143.609 59.3346C143.234 59.0849 142.825 58.8906 142.381 58.7519C141.937 58.6131 141.465 58.5437 140.966 58.5437C140.23 58.5437 139.55 58.6894 138.926 58.9808C138.302 59.2583 137.761 59.6399 137.303 60.1255C136.859 60.5972 136.505 61.1453 136.241 61.7697C135.991 62.3802 135.867 63.0254 135.867 63.7052C135.867 64.399 135.991 65.065 136.241 65.7032C136.505 66.3415 136.859 66.9034 137.303 67.3891C137.761 67.8608 138.302 68.2424 138.926 68.5337C139.55 68.8112 140.23 68.95 140.966 68.95C141.507 68.95 142.006 68.8737 142.464 68.7211C142.936 68.5546 143.366 68.3326 143.755 68.0551C144.143 67.7637 144.483 67.4307 144.774 67.0561C145.066 66.6814 145.302 66.2791 145.482 65.8489L147.855 66.6814ZM157.266 71.281C156.211 71.281 155.226 71.0867 154.31 70.6982C153.409 70.3097 152.625 69.7825 151.959 69.1165C151.293 68.4366 150.765 67.6388 150.377 66.7231C150.002 65.7934 149.815 64.7875 149.815 63.7052C149.815 62.6369 150.002 61.6517 150.377 60.7499C150.765 59.8341 151.293 59.0432 151.959 58.3772C152.625 57.6974 153.409 57.1701 154.31 56.7955C155.226 56.407 156.211 56.2127 157.266 56.2127C158.32 56.2127 159.298 56.407 160.2 56.7955C161.116 57.1701 161.907 57.6974 162.573 58.3772C163.239 59.0432 163.759 59.8341 164.134 60.7499C164.509 61.6517 164.696 62.6369 164.696 63.7052C164.696 64.7875 164.509 65.7934 164.134 66.7231C163.759 67.6388 163.239 68.4366 162.573 69.1165C161.907 69.7825 161.116 70.3097 160.2 70.6982C159.298 71.0867 158.32 71.281 157.266 71.281ZM157.245 68.8043C157.98 68.8043 158.653 68.6725 159.264 68.4089C159.874 68.1314 160.395 67.7637 160.825 67.3058C161.255 66.8341 161.588 66.2929 161.824 65.6824C162.06 65.0581 162.178 64.399 162.178 63.7052C162.178 63.0254 162.06 62.3871 161.824 61.7905C161.588 61.18 161.255 60.6458 160.825 60.1879C160.395 59.7301 159.874 59.3693 159.264 59.1057C158.653 58.8282 157.98 58.6894 157.245 58.6894C156.51 58.6894 155.837 58.8282 155.226 59.1057C154.616 59.3693 154.095 59.7301 153.665 60.1879C153.235 60.6458 152.902 61.18 152.666 61.7905C152.43 62.3871 152.312 63.0254 152.312 63.7052C152.312 64.399 152.43 65.0581 152.666 65.6824C152.902 66.2929 153.235 66.8341 153.665 67.3058C154.095 67.7637 154.616 68.1314 155.226 68.4089C155.837 68.6725 156.51 68.8043 157.245 68.8043ZM174.127 68.8876L170.152 60.958V71.0521H167.654V56.4417H170.36L174.856 65.287L179.351 56.4417H182.078V71.0521H179.58V60.958L175.584 68.8876H174.127Z" fill="#231F20"/>
<path d="M80.5597 85.037C80.3932 85.4532 80.1726 85.832 79.8978 86.1734C79.6314 86.5147 79.3193 86.8061 78.9613 87.0475C78.6033 87.2889 78.2079 87.4762 77.775 87.6094C77.3504 87.7426 76.9008 87.8092 76.4263 87.8092C75.7936 87.8092 75.2025 87.6927 74.6531 87.4596C74.112 87.2265 73.6416 86.9101 73.242 86.5105C72.8424 86.1026 72.5261 85.6239 72.293 85.0745C72.0682 84.5167 71.9558 83.9131 71.9558 83.2638C71.9558 82.6227 72.0682 82.0317 72.293 81.4905C72.5261 80.9411 72.8424 80.4666 73.242 80.067C73.6416 79.659 74.112 79.3427 74.6531 79.1179C75.2025 78.8848 75.7936 78.7683 76.4263 78.7683C76.8592 78.7683 77.2713 78.8224 77.6626 78.9306C78.0622 79.0388 78.4285 79.197 78.7615 79.4051C79.0945 79.6049 79.3942 79.8463 79.6606 80.1294C79.9353 80.4124 80.1642 80.7288 80.3474 81.0785L79.3859 81.6404C79.2527 81.3823 79.0862 81.1409 78.8864 80.9161C78.6866 80.6913 78.4618 80.4999 78.212 80.3417C77.9623 80.1752 77.6876 80.0461 77.3879 79.9546C77.0882 79.863 76.7676 79.8172 76.4263 79.8172C75.9268 79.8172 75.4648 79.9129 75.0402 80.1044C74.624 80.2876 74.266 80.5373 73.9663 80.8537C73.6666 81.17 73.4335 81.5363 73.267 81.9526C73.1005 82.3605 73.0172 82.7934 73.0172 83.2513C73.0172 83.7258 73.1005 84.1754 73.267 84.5999C73.4335 85.0245 73.6666 85.3991 73.9663 85.7238C74.266 86.0402 74.624 86.2941 75.0402 86.4855C75.4648 86.6687 75.9268 86.7603 76.4263 86.7603C76.7926 86.7603 77.1339 86.7062 77.4503 86.5979C77.7666 86.4897 78.0539 86.344 78.3119 86.1609C78.5783 85.9694 78.8073 85.7488 78.9987 85.499C79.1985 85.241 79.3609 84.9621 79.4858 84.6624L80.5597 85.037ZM86.3524 87.8092C85.7197 87.8092 85.1286 87.6927 84.5792 87.4596C84.0381 87.2265 83.5677 86.9101 83.1681 86.5105C82.7685 86.1026 82.4522 85.6239 82.2191 85.0745C81.9943 84.5167 81.8819 83.9131 81.8819 83.2638C81.8819 82.6227 81.9943 82.0317 82.2191 81.4905C82.4522 80.9411 82.7685 80.4666 83.1681 80.067C83.5677 79.659 84.0381 79.3427 84.5792 79.1179C85.1286 78.8848 85.7197 78.7683 86.3524 78.7683C86.9851 78.7683 87.572 78.8848 88.1132 79.1179C88.6626 79.3427 89.1371 79.659 89.5367 80.067C89.9363 80.4666 90.2485 80.9411 90.4733 81.4905C90.6981 82.0317 90.8105 82.6227 90.8105 83.2638C90.8105 83.9131 90.6981 84.5167 90.4733 85.0745C90.2485 85.6239 89.9363 86.1026 89.5367 86.5105C89.1371 86.9101 88.6626 87.2265 88.1132 87.4596C87.572 87.6927 86.9851 87.8092 86.3524 87.8092ZM86.3524 86.7103C86.8519 86.7103 87.3056 86.6187 87.7136 86.4356C88.1215 86.2524 88.4711 86.0069 88.7625 85.6988C89.0622 85.3825 89.2911 85.0162 89.4493 84.5999C89.6075 84.1754 89.6866 83.7258 89.6866 83.2513C89.6866 82.7934 89.6075 82.3605 89.4493 81.9526C89.2911 81.5446 89.0622 81.1867 88.7625 80.8786C88.4711 80.5706 88.1215 80.325 87.7136 80.1419C87.3056 79.9587 86.8519 79.8672 86.3524 79.8672C85.8529 79.8672 85.395 79.9587 84.9788 80.1419C84.5709 80.325 84.2171 80.5706 83.9174 80.8786C83.626 81.1867 83.4012 81.5446 83.243 81.9526C83.0849 82.3605 83.0058 82.7934 83.0058 83.2513C83.0058 83.7258 83.0849 84.1754 83.243 84.5999C83.4012 85.0162 83.626 85.3825 83.9174 85.6988C84.2171 86.0069 84.5709 86.2524 84.9788 86.4356C85.395 86.6187 85.8529 86.7103 86.3524 86.7103ZM92.7575 78.9181H93.8814V86.5979H98.0522V87.6594H92.7575V78.9181ZM104.217 87.8092C103.584 87.8092 102.993 87.6927 102.444 87.4596C101.903 87.2265 101.432 86.9101 101.033 86.5105C100.633 86.1026 100.317 85.6239 100.084 85.0745C99.8587 84.5167 99.7463 83.9131 99.7463 83.2638C99.7463 82.6227 99.8587 82.0317 100.084 81.4905C100.317 80.9411 100.633 80.4666 101.033 80.067C101.432 79.659 101.903 79.3427 102.444 79.1179C102.993 78.8848 103.584 78.7683 104.217 78.7683C104.85 78.7683 105.436 78.8848 105.978 79.1179C106.527 79.3427 107.002 79.659 107.401 80.067C107.801 80.4666 108.113 80.9411 108.338 81.4905C108.563 82.0317 108.675 82.6227 108.675 83.2638C108.675 83.9131 108.563 84.5167 108.338 85.0745C108.113 85.6239 107.801 86.1026 107.401 86.5105C107.002 86.9101 106.527 87.2265 105.978 87.4596C105.436 87.6927 104.85 87.8092 104.217 87.8092ZM104.217 86.7103C104.716 86.7103 105.17 86.6187 105.578 86.4356C105.986 86.2524 106.336 86.0069 106.627 85.6988C106.927 85.3825 107.156 85.0162 107.314 84.5999C107.472 84.1754 107.551 83.7258 107.551 83.2513C107.551 82.7934 107.472 82.3605 107.314 81.9526C107.156 81.5446 106.927 81.1867 106.627 80.8786C106.336 80.5706 105.986 80.325 105.578 80.1419C105.17 79.9587 104.716 79.8672 104.217 79.8672C103.717 79.8672 103.259 79.9587 102.843 80.1419C102.435 80.325 102.082 80.5706 101.782 80.8786C101.49 81.1867 101.266 81.5446 101.107 81.9526C100.949 82.3605 100.87 82.7934 100.87 83.2513C100.87 83.7258 100.949 84.1754 101.107 84.5999C101.266 85.0162 101.49 85.3825 101.782 85.6988C102.082 86.0069 102.435 86.2524 102.843 86.4356C103.259 86.6187 103.717 86.7103 104.217 86.7103ZM114.268 83.4761C114.918 83.4761 115.388 83.3304 115.679 83.039C115.979 82.7476 116.129 82.323 116.129 81.7653C116.129 81.2158 115.975 80.7829 115.667 80.4666C115.367 80.1419 114.901 79.9796 114.268 79.9796H111.733V83.4761H114.268ZM110.609 87.6594V78.9181H114.268C115.267 78.9181 116.012 79.1595 116.504 79.6424C117.003 80.1252 117.253 80.8329 117.253 81.7653C117.253 82.4812 117.111 83.0515 116.828 83.4761C116.545 83.9006 116.116 84.2087 115.542 84.4001L117.14 87.6594H115.867L114.331 84.5375H111.733V87.6594H110.609ZM120.732 84.4626H124.066L122.405 80.1419L120.732 84.4626ZM118.347 87.6594L121.781 78.7932H123.03L126.451 87.6594H125.327L124.491 85.524H120.32L119.483 87.6594H118.347ZM131.219 78.9181C131.868 78.9181 132.459 79.0305 132.992 79.2553C133.525 79.4717 133.979 79.7756 134.353 80.1669C134.736 80.5581 135.032 81.0202 135.24 81.553C135.448 82.0858 135.552 82.6644 135.552 83.2887C135.552 83.9131 135.448 84.4917 135.24 85.0245C135.032 85.5573 134.736 86.0193 134.353 86.4106C133.97 86.8019 133.512 87.1099 132.98 87.3347C132.455 87.5511 131.868 87.6594 131.219 87.6594H128.06V78.9181H131.219ZM131.181 79.9546H129.183V86.6229H131.181C131.731 86.6229 132.21 86.5272 132.618 86.3357C133.025 86.1442 133.363 85.8945 133.629 85.5864C133.895 85.2701 134.095 84.9121 134.228 84.5125C134.362 84.1046 134.428 83.6842 134.428 83.2513C134.428 82.8184 134.357 82.4063 134.216 82.015C134.074 81.6154 133.866 81.2658 133.592 80.9661C133.317 80.658 132.976 80.4124 132.568 80.2293C132.168 80.0461 131.706 79.9546 131.181 79.9546ZM141.519 87.8092C140.886 87.8092 140.295 87.6927 139.746 87.4596C139.205 87.2265 138.734 86.9101 138.335 86.5105C137.935 86.1026 137.619 85.6239 137.386 85.0745C137.161 84.5167 137.048 83.9131 137.048 83.2638C137.048 82.6227 137.161 82.0317 137.386 81.4905C137.619 80.9411 137.935 80.4666 138.335 80.067C138.734 79.659 139.205 79.3427 139.746 79.1179C140.295 78.8848 140.886 78.7683 141.519 78.7683C142.152 78.7683 142.738 78.8848 143.28 79.1179C143.829 79.3427 144.304 79.659 144.703 80.067C145.103 80.4666 145.415 80.9411 145.64 81.4905C145.865 82.0317 145.977 82.6227 145.977 83.2638C145.977 83.9131 145.865 84.5167 145.64 85.0745C145.415 85.6239 145.103 86.1026 144.703 86.5105C144.304 86.9101 143.829 87.2265 143.28 87.4596C142.738 87.6927 142.152 87.8092 141.519 87.8092ZM141.519 86.7103C142.018 86.7103 142.472 86.6187 142.88 86.4356C143.288 86.2524 143.638 86.0069 143.929 85.6988C144.229 85.3825 144.458 85.0162 144.616 84.5999C144.774 84.1754 144.853 83.7258 144.853 83.2513C144.853 82.7934 144.774 82.3605 144.616 81.9526C144.458 81.5446 144.229 81.1867 143.929 80.8786C143.638 80.5706 143.288 80.325 142.88 80.1419C142.472 79.9587 142.018 79.8672 141.519 79.8672C141.019 79.8672 140.562 79.9587 140.145 80.1419C139.737 80.325 139.384 80.5706 139.084 80.8786C138.792 81.1867 138.568 81.5446 138.409 81.9526C138.251 82.3605 138.172 82.7934 138.172 83.2513C138.172 83.7258 138.251 84.1754 138.409 84.5999C138.568 85.0162 138.792 85.3825 139.084 85.6988C139.384 86.0069 139.737 86.2524 140.145 86.4356C140.562 86.6187 141.019 86.7103 141.519 86.7103Z" fill="#808285"/>
</svg>
