<svg width="188" height="85" viewBox="0 0 188 85" fill="none" xmlns="http://www.w3.org/2000/svg">
<g clip-path="url(#clip0_55_6640)">
<path d="M58.1513 33.4114C58.2263 33.1489 58.3838 32.8339 58.59 32.6014L59.5875 31.4614L60.5663 30.2614L60.8288 30.0177C60.8813 29.9689 60.8138 29.7364 60.8213 29.6614C61.02 29.3727 61.4363 28.8627 61.5375 28.5102C61.5975 28.2927 61.6313 27.7527 61.845 27.7527C62.1375 27.7527 62.4338 27.7902 62.5763 27.7039C62.8088 27.5577 62.9813 27.3852 62.94 26.9764L62.4263 27.4414L62.2613 27.6102C62.2275 27.6439 62.0963 27.5614 62.1038 27.5164C62.1113 27.4714 62.1525 27.3177 62.1825 27.2764L62.8988 26.1627L59.6588 28.9977C59.4338 29.1927 59.2725 29.4402 59.2125 29.8077C59.9625 29.4627 60.2175 28.5289 60.9863 28.3339C60.8775 28.9039 60.4575 29.1852 60.0375 29.3389L60.105 29.7252C60.1275 29.8602 57.8138 31.9564 56.8388 32.3689L57.375 31.5439L56.4 32.0877L54.1388 33.7377L52.7663 34.5064L53.3213 33.7489C53.4188 33.6139 53.7638 33.4339 53.7488 33.2952L53.7038 32.8864C53.6775 32.6577 54.2775 32.6989 54.3488 31.9752C54.5963 31.6002 54.84 31.2627 54.9263 30.8539L53.5088 31.8064C53.46 31.8402 53.1263 31.7802 53.16 31.7352L53.3175 31.5177L54.645 29.7852C54.6338 29.4102 54.9525 29.1552 55.29 28.9602L55.1025 28.7727C55.065 28.7352 55.2488 28.6227 55.2863 28.5627L55.8788 27.6777C55.1138 28.3527 54.4913 28.9414 53.58 29.5077L54.165 28.3302C53.1713 28.8664 52.8113 29.8827 51.9338 30.2802L52.1288 29.7177C52.1588 29.6277 51.8025 29.5639 51.7463 29.6539C51.5138 30.0327 51.0788 30.6252 50.715 30.9664L51 31.1427L50.3063 31.7502L50.505 32.0839C50.5538 32.1664 50.3513 32.3652 50.2838 32.4364L49.4888 33.2764C49.44 33.3289 49.275 33.4452 49.2338 33.4039L48.9938 33.1527L48.57 33.8502C48.495 33.9739 48.4125 34.3114 48.2663 34.3864C47.9888 34.5289 47.8688 34.7652 47.925 35.0802L46.3538 36.3327L47.2388 36.4039L45.5363 36.9514L44.3775 37.4802C44.3138 37.5102 44.0588 37.3264 44.0475 37.3114L42.1463 38.4177L40.0988 39.3477L39.9263 39.1489C39.8813 39.0964 40.05 38.9727 40.125 38.9389L42.6413 37.7989C42.645 37.5814 42.825 37.3977 43.08 37.3302C43.4063 36.9102 43.815 36.5539 44.3138 36.2614L44.8388 35.5977L43.515 36.2614L42.5625 36.5877C42.09 36.7489 41.655 36.9027 41.2538 37.1502L39.2138 38.4027L38.37 38.7402C37.1213 39.2389 36.0075 39.8314 34.6463 40.1502L36.5213 38.9464L38.535 37.7164C39.33 37.2289 39.9638 36.7489 40.7925 36.3139C41.4113 35.9877 42.0413 35.4702 42.5813 34.9864L44.8575 32.9502C45.285 32.5677 45.8813 32.4327 46.4363 32.3352L49.9013 29.3652C50.1563 29.1439 50.7713 29.3052 51.0638 29.2302C52.5825 28.8552 53.0513 28.1914 54.0525 27.2427L55.4363 25.9302L57.3713 24.1302L57.99 23.5002C58.3013 23.1814 58.6988 23.0239 58.9538 22.7014C59.4188 22.1089 59.8838 21.5689 60.5588 21.2389C60.21 21.7039 59.97 22.1239 59.9738 22.6939L61.2975 20.3689C60.5175 20.4739 59.865 21.2502 59.8163 21.1302L59.6963 20.8377C59.1825 21.4077 58.665 21.8802 57.8175 22.1952L59.1975 20.4589L58.53 20.6764C58.5188 20.5189 58.6988 20.2189 58.845 20.1852C59.2725 20.0877 59.295 19.9114 59.4788 19.5927C59.6363 19.3264 59.8238 19.1314 59.8613 18.8127L59.3063 19.4202C58.7963 19.7839 58.4438 20.1589 58.1138 20.7064L57.4913 21.2202C57.2363 21.5914 56.9925 21.8764 56.6588 22.1389C55.9575 22.6939 55.3875 23.2902 54.4388 23.6014L55.4513 22.5402C54.8138 22.6714 54.5213 23.1702 54.0225 23.4852L52.3088 24.5689L50.1825 25.8777C50.5575 25.3077 51.0525 25.0039 51.4913 24.5577L52.4213 23.6202C52.6313 23.4064 52.6575 23.1589 52.62 22.9564L53.2238 22.2177C53.3738 22.0377 53.4713 21.9214 53.565 21.6852L51.5063 23.4214L50.3925 24.4827L50.31 24.3664L51.0713 23.3577C51.3413 23.0014 51.63 21.8314 52.6725 21.9064C53.0513 20.9539 53.79 20.2527 54.8063 20.0577C55.1363 19.7314 55.44 19.4202 55.8263 19.1802L54.9713 20.3839L56.9025 18.9402C56.9625 18.8952 57.1575 18.6627 57.1275 18.5989L56.9663 18.2802L57.4238 17.5639L55.8413 18.5052L54.2363 17.6802L53.3363 16.9864L53.6288 17.5789C53.595 17.6502 53.4863 17.8114 53.5313 17.8864L53.8238 18.3664C53.5238 18.3289 53.235 18.0027 52.9613 17.8039L52.5825 17.5264C52.5038 17.4664 52.56 17.2564 52.59 17.1214L52.3425 17.1627C52.2863 17.1702 52.1775 17.0089 52.17 16.9452C52.1513 16.6414 51.645 16.6039 51.4875 16.4689L49.4363 14.7027L49.9763 16.3227C48.975 15.7752 48.4275 14.7964 48.255 13.7127C47.9813 13.9639 47.8913 14.3614 47.9363 14.7327C48.0075 15.3064 47.4413 15.5164 47.1225 15.7564L46.1475 16.4952L46.0613 16.2177C46.05 16.1802 46.005 16.1652 45.9788 16.1914L45.7613 16.3977C45.045 17.0802 44.1675 17.6764 43.5225 18.4789L44.9363 17.6389L44.8763 18.0852L45.45 17.6089L46.7438 16.2177L46.9238 17.5602L46.995 18.5052L46.2113 19.3002L45.5213 20.1477C44.88 20.2189 44.2913 20.4889 43.8488 21.0064C43.3688 21.0327 42.975 21.2427 42.75 21.6252L42.9375 22.3452C43.2038 22.6864 43.245 23.0014 43.1438 23.4289L43.1138 24.1639L43.245 25.0227L43.1925 26.7702L41.4938 28.2552C41.5088 27.8202 41.8425 27.4639 42.0563 27.1827L41.9475 26.6089C41.7075 26.9652 41.5875 27.3852 40.9875 27.3589L41.535 26.1139L40.8038 26.6577C40.7288 27.0064 40.6538 27.2952 40.47 27.5089L39.8663 28.2214L39.165 29.0277C38.2088 29.9164 36.6263 30.8727 35.2988 31.2477L36.6413 30.2614C36.4088 30.3139 35.9813 30.4302 35.805 30.5577C34.695 31.3714 33.6638 32.0652 32.2838 32.4702L33.36 31.5139C33.7313 31.1839 33.8888 30.8277 34.3538 30.5989C34.365 30.4977 34.3425 30.2989 34.4138 30.2427L34.89 29.8602C34.035 29.9202 33.855 30.8877 33.3675 30.5614L34.4813 29.4889L35.2575 28.4839C35.475 28.1989 35.82 27.9402 36.1088 27.7189L37.335 26.7852C37.3425 27.2127 37.2038 27.2989 36.99 27.5502C37.3725 27.4152 37.5863 27.3214 37.9838 27.2802L38.7488 26.3802L37.6763 26.9352L38.2838 25.8777L39.0563 25.0827L41.0288 23.0464L41.2463 23.3164C41.2875 23.3689 41.5125 23.1964 41.4788 23.1402L41.3363 22.9152L42.015 22.1652L41.055 22.7952L41.19 22.2327L40.2863 22.9264C39.8063 23.2939 39.42 23.6089 38.8463 23.8939L39.9 22.3039C40.17 21.8989 40.4438 21.5614 40.6238 21.1302L39.96 21.5014L40.9575 19.8814C40.425 20.0727 40.2375 20.5864 39.8738 20.8639C38.7863 21.6964 37.9275 22.6227 37.1175 23.7177C36.6713 24.3214 36.0563 24.7639 35.4675 25.1877C35.3513 25.6414 35.1863 26.2189 34.785 26.3764C34.875 25.9264 34.8788 25.6789 34.6913 25.4652L35.2763 24.3177L34.5263 24.7302C33.7763 25.6377 33.09 26.5902 32.0325 27.1489C31.6763 27.3364 31.2075 27.4977 31.0388 27.8989L31.3125 28.5627L31.38 29.6464C31.3875 29.7514 31.2375 30.0064 31.1925 30.1039C31.1475 30.2014 31.3575 30.3852 31.4513 30.5202C31.4213 30.7564 31.2525 31.2402 31.125 31.4839C30.2663 32.0127 29.4863 32.7139 28.5938 33.1227C27.9938 33.4002 27.42 33.5127 26.9063 33.9252C26.3925 34.3377 25.7588 34.5214 25.2638 35.0014L27.0038 34.3264L28.3013 33.8239L27.5475 34.4277L28.3013 34.2627L29.4263 33.8689L29.7338 33.7489C29.8125 33.7189 29.8875 33.8877 29.9625 34.0489L31.4363 33.4414C31.6725 33.4114 32.19 33.4152 32.415 33.4564C32.9063 33.5764 33.315 33.5877 33.9188 33.5389L32.0288 34.5927C31.2563 35.0239 30.5888 35.6539 29.5688 35.6014L30.8213 34.7914L31.59 34.2889L30.6188 34.5889L29.9738 34.4652L29.9513 34.7614C29.9475 34.8289 29.7188 34.7614 29.6175 34.7089C28.1625 35.4739 26.7563 36.3964 25.0163 36.7789L27.8175 35.0614L26.295 35.4589L24.5663 36.1002L24.3638 36.1714C24.3188 36.1864 24.3338 36.0327 24.3375 35.9652L22.8263 36.6027C22.2188 36.8577 21.72 37.0564 21.0525 37.1914C20.5388 37.2964 19.9725 37.6977 19.4813 37.8889L18.3 38.3502C17.415 38.6952 16.59 39.0777 15.6113 39.3064L17.9438 38.0014L19.32 37.1614L23.0888 34.7502L22.9013 34.6077L23.835 34.0939C23.025 34.0827 22.2488 35.0239 21.2925 35.0839L22.5488 34.1502L20.8988 34.7914C20.1038 35.0989 19.41 35.5189 18.5138 35.7289C19.3538 35.1214 20.1413 34.6864 20.9138 34.0939L22.4475 32.9202C23.1188 32.4064 23.745 31.8889 24.7013 31.7764L22.7888 33.3177V33.4602L24.2438 32.5002C24.4613 32.3577 24.8175 32.2414 25.1888 32.1177C24.8588 32.7702 24.1088 33.0402 24.0713 33.4039C24.645 33.1189 25.0988 32.7402 25.665 32.5564C26.0625 32.4252 26.3663 32.3014 26.7 32.0614L27.6 31.4089L28.7138 30.4452C28.9425 30.2464 29.2013 30.2539 29.58 30.2352L29.0438 29.9764L29.4863 29.3014L27.9675 30.2502C28.4213 29.3914 29.4488 29.0577 29.625 28.3264C28.7775 28.7802 28.29 29.3427 27.3188 29.5714C27.5813 29.1702 27.9075 28.8139 28.2525 28.4839L28.7925 27.9664L28.5113 27.9927C28.4738 27.9927 28.3463 28.0002 28.3688 27.9739L28.4925 27.8014L28.9538 27.1564L29.7338 26.1927L30.195 26.1514C30.2775 26.1439 30.255 25.9377 30.1613 25.8439L30.8775 24.9252C31.08 24.6664 31.215 24.4264 31.2113 24.0927L30.3563 25.1277L29.415 26.0877L29.0138 25.8364L28.3838 26.5227L27.0338 27.7039L27.54 27.7377C27.105 28.3002 26.5725 28.7389 25.9688 29.1439L26.0138 28.6339C25.905 28.7389 25.4888 29.0727 25.2975 28.9789L23.6288 28.1614C23.7413 28.6977 23.7563 29.0314 23.5238 29.3689L23.6625 29.9427C23.175 29.9577 23.3325 29.4702 22.8188 29.0052C22.8413 28.9189 23.0213 28.5964 22.92 28.5064L22.44 28.0864C22.4325 27.9814 22.4663 27.7227 22.425 27.6177C22.3838 27.5127 22.1363 27.3627 22.035 27.3402L21.1988 28.9077C21.3825 29.4139 21.3938 29.6164 21.3938 30.1677L20.7075 30.8502C20.3663 31.2552 20.0625 31.5289 19.5563 31.8777C19.5675 31.9039 19.7588 32.0877 19.7025 32.1477L19.4025 32.4589C18.615 33.2839 17.7038 33.7714 16.59 34.0714L16.8038 34.2739C16.8338 34.3002 16.2975 34.8477 15.5775 34.7614L14.7563 35.1739L12.96 36.0777C12.9413 36.1489 12.8775 36.4264 12.9338 36.1864L15.6938 35.4289L15.2025 35.9277L16.5263 35.6089C17.2313 35.4402 17.8125 34.8777 18.6938 35.0652L16.05 36.4527C15.2475 36.8727 14.31 37.1989 13.4325 37.4239L11.55 37.9114C12.2588 37.5139 12.9713 37.1802 13.7513 36.9514C14.4413 36.7489 15.1163 36.6927 15.6975 36.1864C14.775 36.2464 13.995 36.4527 13.1438 36.6889L10.4925 37.4239C10.4325 37.4389 10.3575 37.4614 10.3538 37.4314L10.3388 37.2252L8.76379 37.7539L6.26628 38.4814C6.80628 38.0877 7.26004 37.8702 7.78129 37.6227L10.11 36.5089L9.28504 36.4789L10.485 35.9577L10.4925 35.8902L10.0275 35.9427L10.9463 35.2864C9.75379 35.5602 8.60629 36.6702 7.62379 36.6964L8.67004 36.0852L7.38003 36.3102C7.21503 36.3402 6.89629 36.6289 6.78004 36.7114L7.09129 36.8052C7.13254 36.8164 7.14379 36.8539 7.11379 36.8802L6.94503 37.0152C5.74503 37.4989 4.68003 37.9489 3.38253 38.3314L4.24129 37.6114L3.00004 38.0952C1.98004 38.4927 1.03879 38.9539 -0.116211 39.0702L4.09878 36.9364C5.13378 36.4114 6.10503 35.6089 7.26753 35.3464L8.91004 35.3052C9.41629 35.2939 9.74254 35.2527 10.1663 34.9977C10.77 34.6339 11.3738 34.2927 11.8875 33.8014L13.8038 31.9714L15.4913 31.8364L18.4575 28.8252C18.7725 28.4614 19.215 28.3114 19.6875 28.3189L22.1213 26.6052C22.68 26.7702 23.0438 27.2727 23.5275 27.4789L25.5113 28.3152L27.2625 27.2202C27.9525 26.7777 28.3875 25.8589 29.0025 25.2852L31.1888 23.2489C31.2675 23.1739 31.4963 23.0277 31.5975 23.0389C31.7213 23.0539 31.9313 23.1627 32.0888 23.2677L33.06 23.9052L34.4063 24.2314L35.2463 23.5714L36.4425 22.4239C37.0538 22.3114 37.8675 22.3602 38.2838 21.8464L39.9563 19.8027C40.7738 18.8052 41.2838 17.7027 42.2738 16.8027C42.6713 16.8139 43.125 16.9152 43.5488 17.0202L44.5613 16.6077C44.925 16.1652 45.2063 15.6477 45.5963 15.2952L46.6988 14.3052L48.1875 12.8352L49.5525 14.1739L51.255 15.6064C51.7988 16.0639 52.38 16.3152 53.0813 16.1014L54.3263 17.0914L55.9125 17.9502L57.8513 16.6677C59.1413 15.8164 59.3588 14.0202 60.8775 13.7689L62.7038 12.0964L65.235 13.7839L67.4138 15.3402C68.16 15.8727 68.7113 14.8752 69.555 15.6439C69.9263 15.9814 70.365 16.3827 70.8338 16.5439C71.7225 16.8552 72.4875 17.2377 73.2825 17.7627C73.8 17.8452 74.2463 17.9914 74.835 18.2952L76.1738 16.8927L77.55 16.8252C79.2788 15.2014 80.0663 13.1614 81.7613 11.6464L82.9388 11.7214C83.5538 11.7627 84.6975 11.0164 85.1513 10.3227L86.8275 7.76516L88.26 7.12392L89.3625 5.41392C89.9363 4.52517 90.4688 3.69267 91.275 2.96892L92.5125 3.20892C92.775 3.07392 93.3563 2.81892 93.5438 2.61267L95.2425 0.681415L96.1725 0.34017L98.3363 -1.57983L100.166 0.0626677C100.725 0.565168 101.145 0.977669 101.794 1.38267C102.12 1.58517 102.394 2.30142 102.761 2.44767L103.864 2.87517L105.379 4.89267C105.934 4.93767 106.215 5.32767 106.504 5.72892C106.879 5.85267 107.198 6.02142 107.501 6.28392L108.941 5.96517C109.418 5.86017 109.729 5.71392 110.044 6.17892L112.264 9.44517C112.661 10.0264 113.348 10.6039 113.914 10.9977C114.244 11.2264 114.743 11.0089 114.93 11.6014C115.005 11.8339 115.384 12.0139 115.688 12.0814C116.299 12.2202 116.603 12.8839 117.019 13.2777L117.994 13.8214C118.856 13.8364 119.73 13.6414 120.634 13.4427C121.425 13.8927 122.089 14.6877 122.565 15.4339C121.77 15.0439 121.301 14.5489 120.716 13.9939L120.098 14.2864C120.064 14.3014 120.053 14.4777 120.075 14.5114C120.098 14.5452 120.199 14.6014 120.233 14.5864L120.563 14.4552C120.656 14.4177 120.829 14.7177 120.806 14.8114L120.686 15.3664L120.773 16.1014C120.78 16.1764 120.788 16.2777 120.825 16.2927L121.016 16.3639C121.073 16.3827 120.971 16.1652 120.945 16.1014C120.923 16.0489 120.949 15.7639 120.998 15.7977L121.313 16.0039C121.448 16.0452 121.609 16.0902 121.466 16.0489C121.298 15.5164 121.215 15.4377 121.253 14.9502L122.066 15.9477L122.22 15.8014C122.299 15.7264 122.651 15.9627 122.655 15.9702C122.663 15.9889 122.85 15.4452 122.996 15.5164C123.079 15.5577 123.248 15.6627 123.326 15.7227L124.864 16.9527L126.424 16.7052L127.973 18.1977L129.165 18.9889L130.2 19.4239L131.918 18.8914C132.615 18.6739 133.249 17.8902 134.01 17.8564L136.714 18.5089C137.936 17.9839 138.274 16.9902 139.268 17.4702L141.315 16.5139C141.821 16.2777 142.245 15.7152 142.62 15.2914L144.379 13.2964C145.091 12.4864 146.145 11.9689 147.09 11.4552C147.9 11.6427 148.575 11.5189 149.31 11.2377L151.628 10.0902L153.023 11.4439C153.469 11.8752 153.994 12.1077 154.279 12.6702L154.991 14.0727L155.801 14.5714C156.071 14.7364 156.769 14.6164 157.076 14.6952C157.841 14.8939 158.134 15.7152 158.37 16.3789C158.606 17.0427 158.944 17.5564 159.293 18.1339L160.639 20.3952L161.565 21.0139L162.263 21.2464L163.714 22.9339L164.805 23.6314L166.44 23.5002L167.813 23.3689L170.348 25.7502L171.724 26.8227L173.149 26.8714C173.494 27.2727 173.805 27.6852 174.199 27.9327L175.204 28.5552C175.669 28.8439 176.108 29.1102 176.516 29.4777L178.448 31.2102C178.943 31.6527 179.876 32.0427 180.544 32.1739L181.883 32.4364C182.49 32.5564 182.921 32.5902 183.45 32.9277L188.228 35.9839L188.46 36.1189C188.505 36.1452 188.603 36.2914 188.554 36.2802L188.205 36.2052L185.246 34.9939C184.774 34.7989 184.264 34.7464 183.84 34.4127L183.709 34.3114L182.873 33.7264L182.693 33.6027C182.666 33.5839 182.685 33.7189 182.708 33.7414L182.835 33.8727L182.959 34.0002L183.15 34.1464C183.158 34.1202 183.143 34.1839 183.105 34.3227L182.925 34.2327L180.923 33.2127L180.743 33.0627C180.713 33.0364 180.525 33.0402 180.555 33.0702L180.698 33.2202L180.848 33.3364L182.344 34.2664L181.954 34.3602C181.901 34.3264 182.205 34.5214 182.333 34.6039L183.848 35.5752L184.14 35.9389L182.64 35.3727L179.509 33.7189L178.928 33.4114C178.845 33.4114 178.871 33.4489 178.943 33.4902L179.28 33.7789L179.164 33.8427L178.23 33.3627C177.701 33.0927 177.06 32.8264 176.606 32.4252L176.145 32.2302L175.346 31.7089L174.844 31.3827L174.6 31.2514C174.548 31.2214 174.394 31.2027 174.435 31.2514L174.69 31.5402L174.806 31.6677L174.941 31.7614L175.08 31.8552L175.219 31.9489L175.358 32.0427L175.478 32.1627L175.594 32.2752L175.71 32.3914L175.838 32.5002L176.006 32.6427C176.04 32.6727 175.868 32.7439 175.826 32.7252L175.616 32.6202L174.349 31.9864L173.04 31.1389C172.691 30.7002 172.429 30.4377 172.035 30.1002L171.405 29.3914L171.236 29.2677L170.97 28.7577C170.959 28.7389 170.858 28.6789 170.816 28.6564L170.644 28.5514L170.7 28.0077L170.558 27.8727L170.434 27.7564L170.314 27.6439L170.194 27.5277L170.04 27.3814L170.138 27.1489L170.333 27.2764L170.479 27.3739L170.659 27.4939C170.693 27.5164 170.749 27.4639 170.726 27.4302L170.175 26.6127L169.568 25.8102C169.534 25.7689 169.354 25.6827 169.373 25.7277L169.485 26.0202L169.553 26.1964C169.56 26.2189 169.541 26.2602 169.493 26.4177L168.986 25.6939L169.069 25.2964L168.758 25.0039L168.03 24.3139L167.891 24.1827C167.861 24.1564 167.783 24.1939 167.738 24.2052C167.7 24.2127 167.846 24.3439 167.888 24.3777L167.974 25.2027L168.259 25.7164C168.03 25.7502 167.929 25.7314 167.959 25.7689L168.135 25.9864C168.296 26.1889 168.623 26.5002 168.754 26.7177L168.926 27.0064C168.956 27.0589 168.84 27.2202 168.784 27.2014L168.529 27.1264L169.05 27.8427L169.545 28.5289L169.095 28.4952L169.89 29.4439L170.666 30.2652L170.528 30.2877L170.423 30.2014L170.276 30.1189L170.126 30.0327L169.98 29.9464L169.853 29.8302L169.733 29.7177L169.594 29.6089C168.964 29.1064 168.428 28.4689 167.899 27.8389L167.753 27.7302L167.621 27.6327L167.501 27.5427L167.314 27.6252L167.468 27.7977L167.85 28.2027L167.97 28.3864L167.873 28.6039L167.404 28.0789C166.819 27.8052 166.444 27.4152 166.054 26.9239L164.276 24.6627C164.456 24.3702 164.846 24.7752 164.948 25.0189L165.101 25.1839C165.128 25.2139 165.21 25.1502 165.251 25.1164L164.644 24.2764C164.393 23.9277 163.961 23.6427 163.583 23.3689C163.504 23.3689 163.346 23.3727 163.406 23.3727L163.493 24.1152L164.171 25.3527C163.59 25.3227 163.646 24.7939 163.406 24.4939C163.024 24.0139 162.559 22.7539 161.659 21.9552L161.49 21.8052C161.456 21.7752 161.329 21.7152 161.344 21.7564L161.445 22.0377L161.531 22.5402C161.7 22.7952 161.79 23.2077 161.689 23.4177C161.524 23.4927 161.408 23.5414 161.445 23.5827L161.64 23.8227L162.443 25.3227L162.825 26.1402C162.394 26.0727 162.341 26.0127 162.158 25.8777L161.67 25.5214C161.445 25.3564 161.186 25.1539 160.976 24.9439L160.826 24.7977C160.804 24.7752 160.755 24.7527 160.763 24.7902C160.77 24.8277 160.8 24.9927 160.815 25.0264L160.943 25.2814C160.969 25.3339 160.958 25.5514 160.898 25.5364C160.819 25.5177 160.579 25.4389 160.523 25.3827L159.878 24.7752C159.84 24.7377 159.788 24.5202 159.765 24.4714C159.743 24.4227 159.671 24.4452 159.521 24.4677L159.105 24.1302C158.528 23.6577 158.063 23.1402 157.744 22.3864L158.003 22.2177L158.381 22.8139L158.531 22.8064L158.614 21.9027C158.438 21.6814 158.363 21.5727 158.31 21.3739C157.778 21.0252 157.421 20.4702 157.121 19.8177L156.983 19.5289C156.949 19.4614 157.099 19.2552 157.166 19.2852L157.519 19.4427C157.631 19.4952 157.841 19.7277 157.89 19.8439L157.991 20.0802C158.006 20.1177 157.988 19.9452 157.991 19.9039L158.044 19.5927L158.573 19.9377C158.603 19.9077 158.786 19.7202 158.756 19.7502L158.528 19.5252C158.483 19.4802 158.606 19.2814 158.655 19.3264L158.903 19.5439L159.038 19.6639L159.458 20.0314L159.671 20.2564C159.656 20.2789 159.683 20.2377 159.761 20.1252L158.254 17.6652L157.313 15.7939L157.215 15.5989C157.196 15.5577 157.065 15.4714 157.054 15.5127L156.968 15.7864C156.769 16.4164 157.523 16.6527 156.908 17.2227C156.855 17.2714 157.38 17.9052 157.17 18.3289L156.675 17.8152C156.641 17.8002 156.525 17.7702 156.518 17.8077L156.473 18.0927C156.431 18.3552 156.514 18.5952 156.536 18.9027L156.645 20.1514C156.645 20.1927 156.514 20.4589 156.476 20.4402C156.281 20.3652 155.828 20.0914 155.779 19.8889L155.415 18.4564C155.396 18.3777 155.434 18.0964 155.505 18.0739L155.906 17.9464L155.314 16.6489L155.22 17.3539L154.89 17.4627C154.834 17.4814 155.018 17.6577 155.081 17.7327C155.186 17.8602 155.138 18.1752 155.081 18.3702C155.145 18.4977 155.291 18.7564 155.299 18.8802L155.348 19.4952L155.37 19.7802C155.374 19.8289 155.239 19.8102 155.183 19.7952L154.268 18.4527L153.75 17.5827C153.18 16.6227 152.708 15.8652 152.854 14.7214L153.544 15.6927C153.566 15.6102 153.619 15.4039 153.608 15.3777L153.225 14.4964C153.083 14.1664 152.974 13.8214 153.053 13.5852L153.278 13.7652L153.548 14.1027C153.548 14.1027 153.791 14.0577 153.638 14.0839L153.949 13.4614L153.371 13.2177C153.439 12.7864 153.116 12.1002 152.741 12.0702C152.573 12.0552 152.34 12.2239 152.318 12.1039C152.31 12.0627 152.295 11.8527 152.273 11.8152L151.586 10.7614C151.155 11.3014 151.129 11.8152 151.388 12.4264L150.634 13.6189C149.756 13.9939 149.381 14.8902 149.749 15.7977C149.801 15.9289 149.595 16.2102 149.479 16.2889L148.178 17.1702L148.481 18.2052C148.796 19.2889 148.571 19.7502 148.8 20.2639L148.95 20.5977C148.98 20.6689 148.601 20.7477 148.545 20.6914C148.403 20.5564 148.271 20.2302 148.155 19.9377L147.893 20.9352C148.883 21.0814 149.269 20.5527 149.651 20.5302C149.764 20.5227 149.993 20.8039 150.004 20.9277C150.034 21.2764 149.831 21.8352 149.741 22.2102C149.625 22.6902 149.49 22.8102 149.22 23.1702L148.249 24.4527L148.556 25.3452C148.699 25.7502 148.909 26.0539 148.95 26.4814C148.965 26.6577 148.995 26.9052 149.048 27.0102C149.201 27.2989 149.933 26.8977 150.278 27.8052L150.653 28.2327C150.499 28.8064 150.99 29.1402 151.365 29.5452C152.153 30.3889 152.336 31.2252 152.141 31.1502L151.939 31.0714L151.616 30.7939C151.984 31.5402 152.111 32.4364 151.796 32.4102C151.373 32.3727 150.975 31.9114 150.63 31.3414L149.925 32.6952C149.88 32.6502 150.023 32.7889 150.071 32.8339L150.506 32.5114C150.428 32.3802 150.356 32.2864 150.398 32.2114C150.446 32.1214 150.675 31.8139 150.743 31.8927L151.065 32.2714L151.166 32.4102L151.271 32.5602L151.425 32.7814C151.466 32.8377 151.703 32.9427 151.695 32.8714L151.654 32.5414L151.954 32.5714C151.976 32.5714 152.108 32.6127 152.126 32.6277L152.258 32.7289C152.348 32.8152 152.441 32.9089 152.393 32.8602L152.546 32.4664L153.053 32.7627C153.105 32.7927 153.184 32.8302 153.176 32.8339C153.169 32.8339 153.27 32.7177 153.304 32.6802L153.81 33.3252L154.088 33.1977C154.163 33.1639 154.343 33.2614 154.444 33.3064L155.276 33.6627L155.43 33.6702L154.549 32.7177C155.164 32.9127 155.629 32.9689 156.008 33.2839L158.228 35.1327L158.906 35.5077C159.326 35.7364 159.634 35.8527 160.121 35.9727C160.519 36.0702 160.92 36.5577 161.306 36.7152L162.064 37.0227L163.219 37.9077L163.444 38.0089C163.838 38.1814 164.325 38.5039 164.681 38.8452L161.944 37.7689L161.756 37.6752L161.584 37.5889L161.325 37.4614C161.28 37.4389 161.239 37.5064 161.228 37.5477L161.175 37.7689C160.444 37.4127 159.941 37.0752 159.33 36.6289L159.3 36.8164L159.48 36.9177L159.66 37.0189L159.566 37.1352L159.371 37.0339L159.218 36.9514L159.064 36.8727L158.903 36.7864L158.775 36.7077L158.629 36.6064L158.494 36.5164L157.815 36.0477C157.639 36.0327 157.493 36.0814 157.714 36.1452L157.886 36.2952L158.014 36.4077L158.16 36.4977L158.318 36.5952L158.576 36.9664L158.246 36.9289C158.194 36.9214 158.16 37.0002 158.201 37.0302L159.353 37.8477L160.309 38.5264L160.553 38.7252C160.594 38.7589 160.466 38.8527 160.421 38.8339L160.166 38.7102L159.364 38.3277L158.584 37.9377L157.459 37.3302C156.818 36.9852 156.278 36.6139 155.726 36.1302L155.438 35.8789C155.366 35.8189 155.258 35.9014 155.126 35.9952L154.98 35.9652L154.811 35.8902L154.654 35.7852L154.106 35.3164L153.983 35.2077L153.803 35.1252L152.749 34.4089C152.599 34.3077 152.569 34.3227 152.674 34.4727L153.75 35.4964L153.473 35.4702L153.315 35.3877L153.236 35.4102L153.3 35.6164C153.371 35.6352 153.525 35.6689 153.54 35.6839L154.65 36.4827L154.886 36.7002C154.924 36.7377 154.8 36.8427 154.748 36.8202L154.478 36.7002L153.863 36.5764L155.078 37.4839L155.779 37.9414C156.165 38.1927 156.51 38.4852 156.743 38.8339L155.246 38.2789C154.77 38.1027 154.418 37.9227 153.941 37.6939L152.651 37.0789L152.456 37.3489L151.346 36.6627L151.009 36.4602L150.776 36.3439L150.611 36.4527L150.971 36.9589C150.428 37.0714 149.73 36.9552 149.284 36.4302C148.455 36.3702 148.054 37.1277 147.285 36.6289C147.248 36.6027 147.105 36.4902 147.131 36.4527L147.319 36.1939L147.394 36.0214L147.503 35.7289C147.525 35.6727 147.274 35.6802 147.218 35.7102L144.435 37.0264L143.314 38.1252L141.735 38.9014C141.735 38.9014 141.555 38.9052 141.536 38.9014L141.349 38.8377C141.311 38.8264 141.188 38.7027 141.218 38.6764C141.259 38.6352 141.39 38.5114 141.39 38.4514V38.0877C141.39 37.9827 141.619 37.8477 141.713 37.7989L141.908 37.6977C141.964 37.6714 141.825 37.4989 141.78 37.4577C141.368 37.8364 140.933 37.8964 140.351 37.9752L139.5 38.0914L139.268 37.8889L140.741 36.5577L141.454 36.1564C141.63 35.8339 141.93 35.3989 142.185 35.2902C142.706 35.1852 142.961 35.0764 143.314 34.7202L143.884 34.1464L144.03 33.9777C144.053 33.9552 143.996 33.9814 143.809 34.0639L143.471 33.9439C144.285 33.4039 144.488 32.7177 144.499 31.8777L144.656 31.7502L144.788 31.6489L144.9 31.5289C144.93 31.4952 145.028 31.2927 144.983 31.2964L144.57 31.3114L144.394 31.1464L144.544 30.9327L144.964 30.3327C144.986 30.3027 145.035 30.1189 145.046 30.0814C145.061 30.0327 144.968 29.9727 144.93 30.0102L144.739 30.2089C144.15 30.8239 143.681 31.6189 142.789 32.0014L144.296 29.2939L144.833 28.4877C145.129 28.3189 145.118 28.1689 145.234 27.9027L145.898 26.3952C146.138 26.0877 146.614 25.7464 146.981 25.5514L146.52 26.2227L146.666 26.3577C146.711 26.3989 146.903 26.2714 146.94 26.2152L147.3 25.6864L147.413 25.5214L147.818 24.9289L147.911 24.6739C147.926 24.6327 147.758 24.6552 147.72 24.6777L146.82 25.2889L145.35 26.4064L143.993 27.4864L142.133 29.0014L141.184 29.9202C141.113 29.9877 140.846 29.9052 140.888 29.8339L141.083 29.4627L142.541 27.5877C142.864 27.1752 142.999 27.1227 143.134 26.6764C143.408 25.7614 144.139 25.0789 144.173 24.1639C144.191 23.6989 144.54 23.3052 144.893 23.0427C144.956 22.9977 144.904 22.7352 144.848 22.7952L144.585 23.0539L144.045 23.5864L143.108 24.5202C142.759 24.8689 142.504 25.1389 142.14 25.4389L140.261 26.9839C140.216 27.6364 140.595 26.7814 141.36 26.4777L141.769 26.0764C142.523 26.2752 142.425 25.1314 143.288 24.9064C143.224 25.8289 142.166 27.1527 141.54 27.5914L140.479 28.3339L140.201 28.3189L140.505 27.5014L139.343 28.4614L138.18 29.7027L137.295 28.6114C137.599 27.4677 136.729 28.2964 136.223 27.4077L136.035 27.0739C135.998 27.0064 136.099 26.8789 136.17 26.7927L136.403 26.5114C136.448 26.4552 136.283 26.3577 136.073 26.2227L136.489 25.3714L136.691 24.9589L136.823 24.6852C136.913 24.6927 136.886 24.6927 136.65 24.6664L136.26 25.2214L135.829 25.6527C135.773 25.7089 135.581 25.7614 135.559 25.6902L135.435 25.2739L135.743 24.7602L135.495 24.7789L134.689 25.2889L134.059 25.1577L134.359 25.6677L134.276 25.8964L132.923 24.7602L131.741 23.4814C131.614 23.3464 131.464 22.9602 131.359 22.7239C131.948 22.7839 132.158 23.0539 132.48 23.5227L132.735 23.3839L132.146 22.5514C131.693 22.6789 131.089 22.0377 131.1 21.5689C130.159 21.3327 130.455 20.4477 128.903 19.4352L128.063 18.8877L126.799 17.7252L126.626 17.5414C126.593 17.5039 126.574 17.6314 126.585 17.6877L126.683 18.2764C126.69 18.3102 126.551 18.4677 126.585 18.4827L126.863 18.5989C127.129 18.7077 126.986 19.1277 127.489 19.7877L128.434 21.0252C128.588 21.2239 128.43 21.7339 128.993 21.8914L128.869 22.1989L127.976 21.2989L127.403 20.7177L126.195 19.4727L126.09 19.3377L125.993 19.2139L125.884 19.0752C125.861 19.0452 125.809 18.8314 125.85 18.8352C125.903 18.8352 126.109 18.8089 126.075 18.7602L125.925 18.5352L125.273 17.6052C125.246 17.5677 125.096 17.5527 125.051 17.5714L124.811 17.6802L123.559 16.5027L123.964 17.5827L124.309 18.0402L124.166 18.2989C124.133 18.3627 124.196 18.5389 124.241 18.6139L124.763 19.4877L125.599 20.7702C125.22 20.6952 125.115 20.5977 124.931 20.3502C124.83 20.2152 124.583 20.1402 124.429 20.0539L123.773 19.6864C123.683 19.6377 123.551 19.4727 123.499 19.3939L123.056 18.6964C123.019 18.8577 123.004 18.9027 123.011 18.9364L123.053 19.1727L122.704 19.3002C123.293 19.6227 123.994 19.9752 124.41 20.5752L125.066 21.5239C125.261 21.8089 125.34 21.9514 125.651 22.0939L125.809 22.1952L125.925 22.3189L127.046 23.5189L128.126 24.7639C127.995 24.7639 127.943 24.7714 127.928 24.7602L127.781 24.6589L127.013 24.1339L126.878 24.0402L126.63 23.9389C126.589 23.8489 126.641 23.9652 126.698 24.0889C126.893 24.3777 127.076 24.6739 127.29 24.8764L129.053 26.5302L130.406 27.7752L128.558 26.6877C128.543 26.6464 128.475 26.4927 128.456 26.4814L127.526 25.9377C127.181 25.7352 126.623 25.4352 126.375 25.1952L126.304 24.9064C126.053 24.6027 125.52 24.0252 125.141 23.8302L124.935 23.7252L124.455 23.2527L124.526 23.5939C124.53 23.6127 124.59 23.6914 124.62 23.7364L124.718 23.8714L124.871 24.0927C124.973 24.0964 124.748 24.0889 124.635 24.0852C123.848 23.5489 123.116 22.9489 122.494 22.2327L122.235 21.7302C122.13 21.5277 121.721 21.1414 121.804 20.9089C122.04 20.2827 121.688 19.8477 121.32 19.3189C121.08 18.9739 120.709 18.3364 120.413 18.1002C120.375 18.0702 120.146 18.0777 120.158 18.1152L120.255 18.4414C120.086 18.4189 119.846 18.1039 119.764 17.8677C119.663 17.5827 119.813 17.3127 119.996 17.1177L118.83 15.9777L118.688 15.8389L118.549 15.7377C118.496 15.7002 118.556 15.9477 118.586 16.0077L118.665 16.1689L118.744 16.3302L118.838 16.5252C118.853 16.5552 118.706 16.5814 118.676 16.5627C118.631 16.5327 118.451 16.4014 118.425 16.3564L117.649 15.1827C117.488 14.9389 117.413 14.4927 117.364 14.2227L116.16 13.1952L115.403 12.4864L115.14 12.6814C115.08 12.7264 114.908 12.5914 114.848 12.5389L114.049 11.7889L113.835 11.5902C113.779 11.5377 113.726 11.7064 113.648 11.9127L112.931 11.2152L112.845 10.9752L112.043 10.3414L110.059 7.15392L109.954 6.99642C109.935 6.96642 109.868 6.92892 109.823 6.89142C109.778 6.85767 109.804 7.13892 109.83 7.19517L110.13 7.98267L110.494 8.95017C110.363 9.07767 110.194 9.25017 110.246 9.34392L110.494 9.77142C110.775 10.2552 111.026 10.6339 111.24 11.1777L111.03 11.2789L110.869 11.1402L109.868 10.0677L108.953 8.84142L108.379 7.87016C108.379 7.87016 108.51 7.82517 108.54 7.81392L108.773 7.94141C108.799 7.95641 108.761 7.84767 108.75 7.81392L108.019 7.09392L107.475 6.70767L106.931 6.53892C106.493 6.40392 106.155 5.65767 105.581 5.51142C105.761 6.03267 105.986 6.61391 106.253 7.00391C106.545 7.43141 106.68 7.74642 106.856 8.21142L107.393 9.59891L108.135 11.5264C108.113 11.5864 108.049 11.6014 107.929 11.5752L106.883 9.97017C106.631 9.58392 106.511 9.22767 106.448 8.74767C105.791 8.03892 106.343 7.72767 105.986 7.31517L105.615 6.88767C105.48 6.73392 105.394 6.34017 105.326 6.13767L104.73 5.40642L105.049 5.41392C105.071 5.41392 105.049 5.22267 104.944 5.13642L104.19 4.52517C103.789 4.00017 103.646 3.31392 102.885 3.26892L103.148 3.80517L103.245 4.04142C103.26 4.07892 103.114 4.07517 103.088 4.04892L102.945 3.91392L102.821 3.79017L102.533 3.40017L101.97 2.55267C101.659 2.08017 101.269 1.70892 100.785 1.52517L100.886 1.83642C100.901 1.88517 100.804 2.00142 100.778 1.95642L100.62 1.69392L99.9525 0.722666C99.7613 0.441416 99.48 0.272665 99.1838 0.0776652L98.445 -0.751082C98.1375 -0.188582 98.1263 0.302665 98.295 0.880165C98.25 1.19891 98.1863 1.86642 98.01 2.13642L97.1025 3.52017C97.2 4.52517 96.255 4.52892 96.0675 4.92642C96.0113 5.04267 96.0563 5.36517 96.1313 5.49642C97.17 7.28142 96.9375 9.39642 97.1363 9.34017L97.455 9.25017C97.5263 9.23142 97.71 9.24267 97.74 9.31017C97.77 9.37767 97.8 9.62892 97.785 9.70392L97.4513 11.3314L96.6525 12.2952L96.06 13.1764L96.84 14.4552L96.99 15.2277C96.5175 15.7189 97.1663 16.5814 96.8925 16.3864L96.7013 16.2477L96.5963 16.1089L96.4163 16.9639L96.3638 17.2152C96.3563 17.2564 96.4125 17.2527 96.4313 17.2152L96.5663 16.9452C96.6225 16.8364 96.9113 16.9564 97.1213 17.0727L97.6875 16.5064L97.8488 16.0227C97.8825 15.9252 98.1338 16.1277 98.22 16.2102L98.94 16.8927C99.0225 16.9714 99.1725 17.2077 99.1163 17.2939L98.8688 17.6989C98.6738 18.0214 98.5425 18.5877 98.1788 18.8502C97.8825 19.0639 97.7813 19.3677 97.5713 19.6639L96.9075 20.5939L96.6263 21.1564C96.5175 21.3739 96.3675 21.6102 96.4425 21.8427C96.54 22.1502 96.4238 22.4052 96.1613 22.5439C95.7413 22.7652 95.5238 23.1702 95.2088 23.4739C94.6425 24.0252 94.0163 24.4452 93.2775 24.9289C93.5663 24.4114 93.8025 24.0552 94.1288 23.6614L94.6875 22.9752C94.7213 22.9339 94.5863 22.7352 94.5413 22.7652L94.3125 22.9152L92.745 23.9539C92.79 23.7814 92.8238 23.6464 92.8388 23.6314L93.4388 22.9752L94.38 21.8839C94.4438 21.8089 94.44 21.4714 94.4175 21.4827C94.3763 21.5127 94.2188 21.6214 94.185 21.6627L93.5213 22.4914C92.94 23.2152 92.3325 23.8077 91.6875 24.5014L91.0725 25.1614C90.8888 25.3602 90.6825 25.5927 90.4688 25.7164L89.7188 26.1477L89.205 26.4252L88.9425 26.4964C88.8975 26.5077 88.9613 26.4064 88.995 26.3727L89.445 25.8327L90.1013 25.2364L90.24 25.1202C90.2663 25.0977 90.2775 24.9814 90.2475 24.9964L90.0713 25.0902L89.1938 25.5477L88.4625 26.0277L86.9438 26.7777L87.2025 26.8789C87.2738 26.9089 87.0863 27.1189 87.0225 27.1602L86.8688 27.2577L84.5888 28.5214C84.4763 28.4202 84.3525 28.3039 84.3525 28.3002L84.4013 28.1352L84.5175 27.7077C84.5438 27.6102 84.315 27.4602 84.2213 27.3814L84.2138 27.1827C84.5288 26.9239 84.6788 26.6352 84.7838 26.2527L84.9338 26.1289L85.0575 26.0239L85.14 25.8814L85.2263 25.7352L85.3463 25.5289C85.5188 25.4389 85.4888 25.4502 85.3163 25.5402L84.0188 26.3239L83.8388 25.7802L83.6363 25.9002L82.9313 26.3014L81.7913 26.7702C81.645 26.8602 81.4763 26.8414 81.6525 26.6652L83.145 25.3114C83.5538 24.9402 83.835 24.6402 84.195 24.2164L85.3575 22.8477C85.7513 22.3827 86.3288 22.1839 86.9625 21.8989V22.2589L86.73 22.4352C86.7075 22.4539 86.6813 22.4277 86.91 22.5252C87.1575 22.3602 87.3713 22.1614 87.5925 21.9289L88.5075 20.9764L90.2775 19.1314L90.8925 18.4902L90.51 18.6852L89.0925 19.5439C89.0513 19.5702 88.83 19.6039 88.8525 19.5739L89.0663 19.3114C89.325 18.9927 89.79 18.4789 89.8275 18.1302C89.865 17.7814 89.8763 17.5902 90.1313 17.3352C90.315 17.1514 90.3938 16.9339 90.5063 16.7464L91.1888 15.6214L91.5113 15.7377C91.5675 15.7602 91.5938 15.6477 91.6463 15.3664C91.7963 15.3252 91.5225 15.3927 91.3763 15.4302C91.1925 15.5014 90.8475 15.6214 90.7313 15.7302L89.0663 17.2339C88.92 17.3652 88.5 17.5714 88.305 17.6539C88.2263 17.6877 88.1963 17.3727 88.26 17.2939L89.235 16.1427L89.355 15.9814L89.5125 15.7677C89.5463 15.7227 89.5275 15.6289 89.52 15.5314C89.5163 15.4752 89.3175 15.6702 89.2763 15.7077C88.7813 16.1877 88.5225 15.9814 87.9338 16.6452L87.735 16.8739L88.0613 16.9377L87.6225 17.5189C87.4575 17.8264 87.2513 17.9689 87 18.2052L85.1588 19.9489L84.1613 20.7289L83.52 21.2314C83.49 21.2539 83.25 21.2239 83.28 21.1939L83.475 20.9802L83.985 20.4177L84.4125 19.9114L84.9075 19.3752L85.41 18.8202C85.7813 18.4077 86.2613 18.0814 86.3775 17.3127C86.3963 17.1889 86.01 17.1177 85.89 17.1589L85.6913 17.2264C85.6613 17.2377 85.4888 17.2489 85.515 17.2264L85.7175 17.0277L86.4525 16.3639L87.2175 15.5914L87.7913 14.6989C88.02 14.3427 88.4588 14.5752 88.5 14.2452C88.5113 14.1477 88.53 13.9152 88.5975 13.9377L88.9238 14.0539L90.1088 12.6889L90.4313 12.2239L90.81 11.5452C90.8213 11.4214 90.81 11.1139 90.8963 11.0164L92.4713 9.19767C92.6475 8.98392 92.7788 9.18267 92.7038 9.37767C92.715 9.61767 92.685 9.96642 92.58 10.1164L91.1363 12.1414C91.1025 12.2952 91.1363 12.4077 91.2338 12.3139L91.8488 11.6164C91.7888 11.3539 92.025 11.2264 92.2163 11.1064L92.745 10.3039C92.8538 10.3452 93.0038 10.4052 93 10.4052C92.91 10.3152 93.4538 8.24892 94.2113 7.69767L93.945 8.76267C93.9338 8.80017 94.0013 8.97642 94.0463 9.10392L94.5938 7.99767C94.62 7.94892 94.59 7.72017 94.6313 7.69767C94.695 7.66767 94.8263 7.60391 94.7738 7.63016C94.95 7.85141 94.9275 7.84767 94.935 7.81017L94.9763 7.53267L95.1975 6.57267L94.59 7.14267C94.5825 6.71517 94.74 6.57642 94.9763 6.35517C95.2125 6.13392 95.3513 5.78892 95.5088 5.50017L96.1313 4.35642V4.15767L94.7663 5.69142L93.8325 6.52017C93.63 6.32142 94.02 6.02891 94.08 5.84891C94.23 5.40641 94.3875 4.97142 94.6725 4.57017L94.7925 4.40141C94.815 4.36766 94.8225 4.26642 94.7813 4.27767L94.4963 4.34517L95.1525 2.88267L94.6163 3.38892C94.515 3.48642 94.4513 3.73017 94.455 3.93642L93.75 5.13267L93.765 5.39517C93.7688 5.47017 93.5213 5.54516 93.4688 5.62016L92.655 6.82017L92.1413 7.58891L92.1038 8.14767C91.6463 9.21267 91.0913 10.1952 90.3338 11.0614L88.995 12.5914C88.9388 12.6552 88.7663 12.7377 88.6988 12.7564C88.5713 12.7864 88.3463 12.3927 88.7175 11.6839L89.2838 10.6002L89.8838 9.54267C90.1763 9.02517 90.75 8.31642 91.125 7.97892C91.1625 7.94517 91.1963 7.69766 91.155 7.72391L90.9638 7.85142L90.7875 7.96767C90.75 7.99392 90.6188 7.93017 90.6338 7.88892L90.735 7.63767C90.705 7.55517 90.735 7.45767 90.8175 7.39767C90.9225 7.36767 90.9675 7.40891 91.0763 7.58891L91.1513 7.21391C91.1438 7.15766 91.1288 7.08642 91.1325 7.08267C91.14 7.07892 90.93 7.10141 90.9075 7.12016L90.4125 7.55892C90.3 7.66017 90.0188 7.78767 89.805 7.86642L88.6763 9.65141L87.7013 10.9264L86.925 11.5977C86.4525 12.0027 86.3813 12.5764 86.0063 13.0414L85.1813 14.0577C84.9375 14.3577 84.645 14.5902 84.3075 14.7514C84.585 14.3652 84.765 14.1627 84.9188 13.8139L85.0988 13.4127C85.1175 13.3752 85.1288 13.1914 85.095 13.2102L84.9113 13.3189L84.795 13.4427L84.0338 14.2227L83.1375 15.2314C83.1375 15.3852 83.085 15.7189 82.98 15.8127L82.17 16.5139L80.1675 18.5014C80.115 18.4939 80.355 18.5277 80.385 18.5314C80.8238 17.9764 81.2288 17.7177 81.8625 17.5002L82.5075 16.7164L82.68 16.8252C82.1925 17.7739 81.21 18.1377 80.7188 18.9514L81.675 18.3514C81.8625 18.2314 82.2113 17.9952 82.2638 17.8039L82.3575 17.4664C82.38 17.3802 82.6013 17.5339 82.665 17.5939L82.8638 17.4364L82.7363 17.1964C82.8713 16.9189 83.3325 16.7089 83.6138 16.4727L84.5813 15.6627L85.5263 14.8677L86.3025 14.2602C86.8425 13.8364 87.4013 13.2702 87.435 12.6664C87.465 12.1564 88.2075 11.6127 88.2525 11.7889C88.4363 12.5314 87.93 13.1614 87.4725 13.7764L85.965 15.7977L84.5588 17.4589C84.6825 17.5377 84.9225 17.4777 85.1025 17.4139L85.3388 17.3314C85.3688 17.3202 85.3575 17.3877 85.3388 17.4102L85.1925 17.5602L83.7413 19.0377C83.2388 19.5514 82.6688 19.9414 82.0088 20.1814L81.855 20.3652C81.8325 20.3952 81.8438 20.4027 81.8513 20.4139L82.1325 20.5414C81.69 20.8452 81.6375 21.3214 81.3675 21.6702C80.9475 22.2064 80.2838 22.5627 79.71 22.9339C79.83 22.4389 80.0288 22.1052 80.325 21.8127L80.9963 21.1564L81.1725 20.9839C81.2063 20.9502 81.2963 20.7852 81.2513 20.8077L80.9063 20.9764L80.7675 21.0889L79.44 21.9627L79.3013 22.0527C79.3013 22.0527 79.2338 22.2252 79.2188 22.2589C79.2075 22.2889 79.3088 22.2252 79.3425 22.2289L79.6613 22.2589C79.5075 22.5139 79.275 22.7352 78.9713 22.9002C78.6488 23.0764 78.4875 23.3089 78.1913 23.5414L76.7588 24.6702C76.575 24.6214 76.2938 24.4714 76.29 24.3214L76.2675 23.6464L75.8813 23.7964C75.795 23.8302 75.6113 23.6239 75.5438 23.5564L75.2438 23.2602C75.1613 23.1777 75.24 22.8627 75.3338 22.7914L75.5363 22.6377C75.63 22.5664 74.9063 22.4314 75.0675 22.2814L75.375 21.9964C76.125 21.5014 75.3525 21.4939 75.7913 21.1639L75.9413 21.0439L76.1288 20.8939C76.17 20.8602 75.9975 20.8414 75.9563 20.8714L74.6438 21.8239L73.8863 22.0752C73.7363 22.1239 73.4625 21.9177 73.305 21.8352L71.6475 20.9352C71.6288 20.9764 71.7225 20.7852 71.7563 20.7252C72.2138 20.4027 72.4988 20.0914 72.7763 19.5702L73.7513 19.4014L74.5575 18.6514L72.4988 17.7664L71.5838 17.5077L70.7625 17.1027L70.1775 16.6939L70.0013 16.5664C69.8588 16.5252 69.7013 16.5102 69.9563 16.6752L69.8325 17.1814C69.81 17.1777 69.9113 17.1964 70.0088 17.2152L70.2225 17.2564C70.26 17.2639 70.365 17.3314 70.335 17.3577L70.1288 17.5639C70.2863 17.7439 70.4325 17.9352 70.4738 18.1752L68.7788 16.8777C68.4638 16.6377 68.07 16.1314 67.7025 16.0602C67.1963 15.9627 67.1063 15.7077 66.72 15.4602L64.6013 14.1214C64.56 14.0989 64.3463 14.0652 64.3688 14.0989L64.545 14.3764L64.8563 14.8714C64.8788 14.9052 64.8525 15.1227 64.8225 15.0964L64.59 14.8939L63.8663 14.2639L62.8613 12.8314C62.6475 13.4014 62.745 13.8214 63.3 14.2302L62.3025 15.9477L62.88 17.0839L63.225 17.8152L62.4788 18.7789L61.7138 19.7389L61.6163 19.9189C61.5975 19.9527 61.5338 20.0689 61.5338 20.0652C61.53 20.0652 61.62 20.0877 61.7325 20.1177L62.5388 21.0777L62.6175 21.9664L62.1413 23.8039L61.6988 24.1864L60.9375 25.0002C60.9075 25.0302 60.6563 25.0002 60.675 24.9627L60.78 24.7602L60.975 24.3889C60.9938 24.3552 61.0013 24.1827 60.9975 24.1452C60.9975 24.1114 60.945 24.1302 60.9 24.1452L59.7338 26.3389C60.4013 26.0464 60.8288 25.7352 61.2338 25.3527C61.575 25.0189 61.9238 24.7077 62.2463 24.4602L63.3863 23.5977C63.4088 23.5714 63.4388 23.5189 63.4088 23.5077L63.2175 23.4252L62.9963 23.3277C62.8388 23.2564 63.585 22.7802 63.0563 22.0114C63.36 21.9439 63.5475 22.2589 63.6825 22.5739C63.87 23.0164 64.2113 23.2077 64.5825 23.4327C64.8863 23.6202 65.0888 23.8527 65.4788 23.6127C65.7675 23.4364 66.195 23.4927 66.48 23.7327L68.13 25.1314L68.2425 25.3152C68.265 25.3527 68.07 25.3714 68.025 25.3602C68.0025 25.3564 67.8375 25.2739 67.8188 25.2589L66.4013 24.0627C66.3188 23.9914 66.2625 23.9577 66.2663 23.9989L66.285 24.3477C66.4463 24.7752 66.885 25.4914 67.1588 25.9452L67.68 26.8152L67.92 27.4939C67.9425 27.5577 68.0438 27.7114 67.9988 27.7227L67.8075 27.7602C67.6725 27.7452 67.4963 27.7002 67.4588 27.7714C67.41 27.8614 67.35 28.1727 67.2675 28.2327L66.5925 28.7014C66.5438 28.7352 66.435 28.8889 66.405 28.9377C66.3825 28.9752 67.5488 30.2802 68.2313 30.7039L69.39 31.4277L70.8788 32.3764C70.8863 32.2489 70.785 31.9977 70.695 31.9152L70.2488 31.5139L70.065 31.3489C70.0238 31.3114 70.1213 31.1502 70.1738 31.1614C70.4625 31.2327 70.5825 31.4839 71.6325 31.8964C72.975 32.4252 73.86 33.6027 74.7713 34.6414C74.5875 34.6677 74.5575 34.6752 74.5313 34.6639L74.34 34.5702C74.3025 34.5514 74.4263 34.7652 74.4675 34.7914L75.2513 35.2489C75.7313 35.5264 76.17 35.8789 76.5525 36.3177C76.6688 36.4489 77.0888 36.4189 77.25 36.5239L79.08 37.7052L79.29 37.8402C79.3388 37.8702 79.155 37.9339 79.1025 37.9114L78.1013 37.4727C77.8275 37.3527 77.5688 37.3114 77.31 37.1689C76.08 36.4864 75.0075 35.7852 73.89 34.9077C73.9313 35.1364 74.0738 35.4364 74.205 35.5414L75.2663 36.3814L75.4538 36.5464C75.4988 36.5839 75.3638 36.6439 75.1388 36.7302L76.5338 38.0314L78.12 39.2914L76.2413 38.4664L75.1125 37.9714C74.5388 37.7202 74.1563 37.3639 73.905 36.8277L72.9713 36.2239L72.2025 35.7777L72.6225 36.4452L72.78 36.6139C72.81 36.6439 72.765 36.8127 72.7275 36.7902L72.4538 36.6402C72.045 36.4189 71.6663 36.1039 71.3775 35.7514L70.5188 34.6939L70.3463 34.7914L70.7063 35.4252C70.0575 35.2002 69.8363 34.6714 69.5475 34.1577L68.6925 33.2614C68.4938 33.0552 68.3475 32.6202 68.2538 32.3802C67.9463 32.1364 67.77 31.8739 67.725 31.3452C68.0363 31.2777 68.2575 31.4539 68.3663 31.7914L68.955 32.1889C68.3138 30.9439 67.3313 30.8052 67.2488 30.5764L67.1625 30.3402L66.6113 29.6127C66.5513 29.4214 66.5138 29.4664 66.5063 29.6202L66.3825 30.5164L66.7538 31.0377C66.8475 31.1727 66.645 31.5439 66.5325 31.6827C66.0225 32.3277 66.6075 32.8977 66.4388 32.9577L65.9363 33.1452L64.5938 33.9552L63.6375 34.6152L62.0775 35.7964L62.355 35.8189C62.415 35.8227 62.52 35.9839 62.445 36.0364L60.1275 37.5552L59.9325 37.4202L61.6125 35.8639L61.7888 35.6539C61.8375 35.5977 61.5488 35.5114 61.4738 35.4927L61.2 35.4177L62.0625 34.7802C62.2013 34.6789 62.3925 34.3939 62.5313 34.1764L61.5375 34.7914L59.6325 35.9239C59.5875 35.9502 59.3625 35.9914 59.3175 35.9989C59.2725 36.0064 59.2875 35.8864 59.325 35.8602L59.5088 35.7214L59.8388 35.3877L59.0775 35.7664L57.5625 36.6702L57.5475 36.4189L57.8625 36.2652L57.7988 36.1827L54.0075 38.1589C53.5425 38.5414 53.0213 38.8002 52.4363 38.8077C51.3863 39.3552 50.3963 39.8202 49.215 40.1427L50.5725 39.2502C51.8175 38.4327 53.28 38.2002 53.1225 37.7952L54.7725 36.3889L56.2388 35.2639L57.2288 34.3977L58.1738 33.5389L58.1288 33.4114H58.1513ZM96.8288 0.853918L97.905 -0.353583C97.5713 -0.248583 97.2638 -0.0235822 97.0275 0.250168L96.105 1.30766C96.3525 1.18016 96.6825 1.02267 96.8288 0.853918ZM91.9838 4.94517C92.235 4.73517 92.6063 4.48392 92.7488 4.27767L93.4275 3.29517L92.415 3.82017L91.65 3.68517L91.5638 4.73892L91.8938 4.50642C91.935 4.47642 92.0175 4.61891 92.0138 4.67141L91.9913 4.94517H91.9838ZM88.4063 7.96017L88.2375 8.70642L88.7813 8.03892L89.1338 7.41642L87.9825 8.01642C87.7613 8.13267 87.54 8.42892 87.45 8.68017L88.4063 7.96017ZM82.7175 12.9589C82.815 12.8389 83.1413 12.7527 83.2538 12.7864L82.7325 13.4389C83.4975 13.0977 84.48 11.9727 84.5325 12.0964L84.6638 12.4002L85.2713 11.7364L84.8738 11.9539L84.75 11.8864L85.6688 10.9527L84.6113 11.4289C84.3563 11.5452 84.0488 11.8639 83.7825 12.1264L82.6425 12.4114C82.5375 12.4377 82.2113 12.2877 82.1475 12.3739L81.8813 12.7489L81.4388 13.5064L81.9938 13.2064C82.0725 13.1652 82.1738 13.4277 82.215 13.5702L82.7175 12.9552V12.9589ZM149.078 12.4002C149.475 12.5689 149.756 12.3589 150.034 12.0964C150.469 11.7439 150.833 11.4252 151.163 10.9977L149.621 11.7027C148.879 12.0439 148.219 12.6664 147.743 13.3189L149.078 12.3964V12.4002ZM146.794 13.0752L147.99 12.4264C147.818 12.3102 147.506 12.1789 147.386 12.2427L146.681 12.6289C146.464 12.7489 146.224 13.2027 146.063 13.4764L146.798 13.0752H146.794ZM61.815 14.3389C61.8038 14.2377 61.7363 13.9602 61.8 13.9639L62.1075 13.9714L62.4938 13.0452L60.8625 14.5002L61.35 14.3352C61.4475 14.3014 61.635 14.3352 61.815 14.3427V14.3389ZM94.1738 16.2552C94.2075 16.0827 94.2488 15.7002 94.4025 15.6027L95.0438 15.1902C95.0663 14.5714 95.8725 14.5714 95.8725 13.5702L94.7363 14.7552L94.1213 15.6289C93.7725 16.3077 93.435 16.7689 92.865 17.4139C93.1425 17.3727 93.2775 17.1364 93.525 16.8927L94.17 16.2552H94.1738ZM60.8025 17.2564C60.9 17.2827 61.3913 17.2264 61.4813 17.0764L62.175 15.9064L61.4213 16.4989C61.4513 16.6339 61.5113 16.8102 61.4513 16.8589L61.1925 17.0877C61.1588 16.9452 61.1325 16.7614 61.0838 16.7952L60.8925 16.9189C60.8625 16.9414 60.8663 16.9827 60.8025 17.2602V17.2564ZM77.8013 17.7064L77.5125 18.6589C78.2175 17.5677 78.9675 17.4364 79.6388 16.7764L78.3525 17.2602L79.26 15.9964L77.8088 16.9677L76.5863 17.6052L75.9938 18.2577L75.3413 19.1802L76.0688 18.6927L76.5675 18.6439C76.9875 18.2839 77.3025 17.9802 77.7975 17.7102L77.8013 17.7064ZM135.349 21.1864C135.056 21.9852 134.224 21.9589 134.096 22.6152C134.524 22.4764 134.708 22.3639 135.03 22.1464L135.769 21.9964L135.593 21.5164L137.119 20.2752C137.7 19.8064 138.529 19.4614 139.234 19.1652C139.039 20.0164 138.334 20.1477 137.88 20.6839L138.533 20.4139L138.356 21.0514L139.215 20.0727C139.523 19.7239 139.646 19.5139 140.115 19.3902L140.921 18.7602L140.854 19.4352C141.101 19.4577 141.383 19.0527 141.345 18.7039C140.888 18.5952 140.486 18.7189 139.901 18.8277L141.825 16.8777L140.231 17.7064L138.371 18.6627L137.663 19.0377C137.258 18.9589 136.864 18.9964 136.493 19.1127L135.518 18.7789L134.16 18.4639L134.516 19.0377L133.954 18.9927C133.729 18.9739 133.369 19.0039 133.17 19.1614C133.039 19.2664 133.054 19.5664 133.039 19.7952L132.161 20.3052L134.494 19.8439C134.393 20.0127 134.25 20.1852 134.145 20.2339L132.795 20.8339C133.448 20.9989 133.8 20.7252 134.385 20.5302L133.995 21.0739L134.974 20.6764C135.326 20.5339 135.563 20.4289 135.971 20.5039L135.338 21.1864H135.349ZM43.1625 18.4377L43.9275 17.4702L42.5738 17.5039L42.225 18.2764C42.1988 18.3327 42.2663 18.5089 42.3188 18.4789L42.5063 18.3627C42.5888 18.3139 42.7988 18.1827 42.8738 18.2352L43.1625 18.4377ZM80.04 19.8514L80.6738 18.6927L79.665 19.2852L79.5 19.3602C79.4663 19.3752 79.47 19.5064 79.5 19.4952L79.74 19.4202C79.8225 19.3939 79.9988 19.4427 80.0063 19.5177L80.0363 19.8477L80.04 19.8514ZM88.89 22.7089C89.3175 22.4502 89.1788 21.9777 89.7713 21.5989C89.76 21.5314 89.6925 21.3027 89.7563 21.2539L90.075 21.0214L90.3075 20.4814C90.8513 19.9827 91.32 19.5177 91.59 18.8352C90.825 19.4464 90.2288 20.0877 89.6663 20.8752L88.6875 21.7639L86.8613 23.9127C88.0463 23.6427 88.29 22.6602 88.7813 22.2289C88.8263 22.1877 88.9275 22.3152 88.92 22.3789L88.8863 22.7089H88.89ZM64.4025 24.2202C64.56 24.3102 64.6538 24.3702 64.7175 24.3252L64.98 24.1302L63.8325 23.4064V24.6514L64.4063 24.2202H64.4025ZM32.5275 25.3639C32.4938 25.2102 32.4225 24.8652 32.5388 24.7977L32.9588 24.5539L33.2775 24.3702C33.4688 24.2577 32.3213 24.1039 31.5975 23.5377L31.575 24.4977C31.62 24.5727 31.7475 24.7227 31.71 24.7864L31.5638 25.0527C31.5075 25.1577 31.5225 25.5027 31.6388 25.5327C31.7325 25.5552 31.9275 25.5364 32.0213 25.5102L32.5313 25.3639H32.5275ZM174.739 29.3239L175.47 29.5077L172.946 27.4752L172.26 27.6327C172.08 27.6739 171.769 27.3814 171.48 27.2314C171.653 27.6139 171.926 27.9702 172.253 28.2964L173.186 29.2264C173.408 29.4477 173.573 29.5527 173.85 29.7177L175.969 30.9739L175.001 30.0964C174.84 29.9502 174.728 29.4364 174.735 29.3202L174.739 29.3239ZM13.1363 33.9927L14.6588 33.2802L14.025 34.0264L15.9113 32.8264L18.75 31.0977L17.4525 31.4202L20.4675 28.8589L21.045 28.3789C21.2663 28.1952 21.465 27.9664 21.615 27.6927L20.4675 28.5139L18.2738 30.2877L18.2663 29.8527C17.2575 30.7377 16.3838 31.5364 15.255 32.1627L14.355 32.5414C14.0475 32.6727 13.875 32.8002 13.65 33.0102L12.4125 34.0227L13.1363 33.9889V33.9927ZM147.851 31.7427C148.144 31.5364 148.481 31.0452 148.695 30.7977L149.021 31.0077C149.078 31.0452 149.145 30.7489 149.201 30.7077L149.813 30.2652C149.636 29.7964 150.281 29.4102 150.443 28.5514L149.299 29.4064C149.111 29.5452 148.961 30.0552 148.759 30.1564C148.421 30.3289 147.96 30.5989 147.713 30.8014C147.945 31.4989 146.666 31.9752 146.183 32.9127L147.855 31.7352L147.851 31.7427ZM58.29 33.5989C58.1963 34.0077 58.0238 34.3377 57.75 34.8327L59.9325 34.0339C60.2025 33.9327 60.525 33.5427 60.7575 33.5164L60.69 33.8202C60.6825 33.8502 60.7875 33.7714 60.8025 33.7452C61.0988 33.1902 61.71 32.7364 62.175 32.8602L63.0525 31.6752L62.1638 32.1852C61.6388 32.4852 61.3238 32.9877 60.6038 33.0177L62.4863 31.3827L61.5075 31.4052L62.655 30.1264C62.4938 29.9727 62.4075 29.9052 62.4413 29.8602L62.6363 29.6127L63.1125 29.2002C62.8613 29.1889 62.67 29.3689 62.4638 29.5752L61.6238 30.3964L60.87 31.0039C60.405 31.3789 60.0375 31.6902 59.6438 32.1214L58.335 33.5502L58.2938 33.5952L58.29 33.5989ZM46.6763 33.4489L46.8413 33.4977L48.4238 32.2939L47.6288 32.5414V32.3839L48.4838 31.9489C47.6288 31.8739 46.6913 32.2564 46.4513 33.1977C46.6988 33.1189 46.9163 32.9577 47.1188 32.7852L47.3475 32.5939C47.385 32.5639 47.4975 32.7289 47.4788 32.7739C47.46 32.8189 47.3588 32.9652 47.3175 32.9952L46.68 33.4527L46.6763 33.4489Z" fill="url(#paint0_linear_55_6640)"/>
<path d="M105.871 27.9441L105.226 28.5066C104.824 28.8553 104.487 29.2566 104.213 29.7516L103.733 29.8116C103.054 30.2166 102.398 30.5878 101.558 30.7566C102.289 30.1153 102.882 29.5903 103.257 28.7466L101.843 29.6091C101.723 28.9828 102.237 28.9153 102.518 28.6003C102.762 28.3266 103.171 28.0678 103.377 27.8278L103.767 27.3741L104.757 26.5678L104.356 26.3203L104.078 26.7328C104.003 26.8416 103.677 26.7103 103.508 26.6653L103.017 27.7753L102.147 28.4391L101.157 29.2041L101.378 29.4853L100.673 30.0103C100.298 30.2916 99.9943 30.5428 99.5443 30.7641C99.3268 30.8691 99.1206 31.1503 98.9406 31.2928C98.1044 31.9528 97.1594 32.3728 96.0831 32.7141L97.3694 31.6903L95.1719 32.5453L95.8918 31.9303L94.3768 32.3316L93.3044 32.5191L91.5119 32.7066L92.8206 31.7241L93.7093 31.1053C93.9868 30.9141 94.2344 30.7153 94.4894 30.4716L95.9143 29.6541L95.8469 29.5791L95.2243 29.8003V29.6241L97.2756 28.4128L95.7268 28.7503L96.5969 28.1428L96.8219 27.6966L98.0519 26.8116C97.8569 26.8078 97.6319 26.8341 97.5456 26.8828L95.5956 27.9553L95.7644 27.2653L95.1344 27.5203L93.4656 28.3003L92.1418 29.0016C92.0406 29.0541 91.9881 29.4666 91.8794 29.4741L91.3356 29.5078L88.5231 30.6816L89.1606 30.1678L87.6831 30.5203L88.7594 29.5116L89.5393 28.9266L90.9606 28.0791C91.6581 28.2028 92.1793 28.0866 92.7981 27.7341L95.0969 26.4103C95.5131 26.1703 95.9668 26.0953 96.5931 25.9603C96.3043 26.2791 96.0494 26.4516 95.6744 26.7253C96.3794 26.8266 96.7918 26.2491 97.2943 25.8216L98.8056 24.5428C99.4281 24.0178 99.8706 23.3128 100.718 23.0691L102.016 22.6978L101.378 23.4778C101.299 23.5753 101.269 23.9503 101.273 24.0816L102.083 23.3803C102.604 22.9303 103.219 22.1803 103.193 21.7078L104.296 20.6953L105.301 20.0691L107.011 21.6253L108.297 23.1816C107.693 22.9041 107.359 22.5403 106.789 22.0378L107.123 23.0353C106.441 22.7616 106.216 22.2291 105.987 21.6103C105.844 22.3978 106.287 22.9491 106.793 23.4666L107.262 23.9428L106.628 23.8978L107.622 24.9778C107.794 25.1653 108.274 25.4541 108.499 25.5703C109.508 25.7653 109.523 26.5828 109.996 26.3803L108.724 24.8353L110.734 26.0428L111.766 26.7141L111.556 26.3128C111.514 26.2341 111.567 25.9866 111.657 25.9753C112.047 25.9303 112.846 26.3691 114.353 26.0616C114.991 26.4028 115.613 26.9541 116.206 27.5166C115.966 27.6366 115.628 27.5916 115.437 27.4416L114.687 26.8416L115.306 28.1128C115.617 28.3378 115.752 28.5703 115.894 28.9491C115.996 29.2191 116.622 29.3578 116.419 29.8866L113.292 27.7041C113.434 28.1841 113.701 28.5703 114.102 28.8591L115.324 29.7441L116.157 30.1866C116.592 30.4191 116.873 30.8016 117.226 31.0866L119.056 32.5416L120.334 33.7678L118.219 32.8191C118.598 33.6328 119.314 33.6928 119.922 34.0078L120.837 34.4841C121.129 34.6341 121.354 34.7691 121.643 35.0578C120.938 35.4178 120.447 34.6641 119.446 34.5778L121.988 36.4003L119.866 35.4853L118.373 34.7391C117.623 34.3641 117.001 33.8841 116.374 33.3028C117.019 33.3591 117.402 33.7566 117.916 34.0191L117.612 33.4078C117.278 33.0628 116.734 32.5603 116.266 32.3728C115.283 31.9791 114.529 31.3828 113.693 30.8166C113.247 30.5166 112.861 30.2016 112.467 29.7103C113.056 29.3878 113.266 30.1641 113.986 30.4753L113.723 30.1078C113.678 30.0478 113.708 29.8978 113.723 29.7478L113.131 29.2753L111.679 28.3491L111.019 27.7566L109.928 27.1903L110.254 28.0191L110.584 28.8516L108.856 27.3666C108.826 27.0141 108.694 26.7703 108.511 26.5416L107.881 25.7578L107.217 25.0078C107.228 24.9478 106.962 25.2103 106.917 25.3266C106.864 25.4616 107.093 25.7128 107.153 25.8516L107.464 26.9841L107.071 26.9241C106.988 26.9128 106.876 27.0591 106.793 27.1266L106.309 27.5278L106.501 26.8866L105.181 27.3103L105.878 27.9403L105.871 27.9441Z" fill="white"/>
<path d="M136.624 38.6914L135.225 38.0502L134.944 37.9227C134.88 37.8927 134.91 38.1964 134.884 38.2189L132.784 37.1989C132.33 36.9777 131.985 36.7227 131.43 36.6964L132.353 37.2702C132.289 37.3452 132.176 37.4802 132.21 37.4352C132.671 37.7164 132.945 37.8327 133.275 38.1589C130.721 37.3189 128.464 36.0627 126.105 34.7689L127.631 35.8864L127.545 35.9802L125.164 34.6827C124.624 34.3902 124.309 33.8427 123.641 33.7714L124.71 34.6714L125.464 35.2489L124.669 35.1102C124.556 35.2227 124.23 35.3052 124.088 35.2039L122.835 34.3302C121.65 33.5052 120.596 32.6539 119.561 31.6564L118.613 30.7452C118.358 30.4977 118.181 30.3364 118.02 29.9802L119.816 31.1764C119.711 30.8539 119.561 30.4264 119.408 30.3027L118.448 29.5377L117.645 28.9189C117.33 28.6752 117.068 28.5252 116.888 28.0977L118.223 28.8889C119.081 28.8514 120.135 29.3802 119.989 29.8714L121.403 31.3827C121.74 31.7464 121.984 32.1514 122.494 32.3652L121.958 31.7164C122.426 31.4277 122.7 32.2639 123.623 32.5864L122.996 31.9002L123.705 32.1589C123.296 31.7652 122.82 31.4539 122.314 31.1202L121.526 30.5989C121.916 30.5727 122.516 30.5314 122.794 30.7339L125.378 32.5977L128.366 34.4052C129.904 35.3352 130.451 34.7877 130.511 35.4702C131.265 35.8452 132.206 36.3102 133.084 36.3589C133.808 36.3964 134.303 36.4677 134.921 36.8314L137.036 38.0764L138.105 38.6389L140.595 39.9064C139.913 39.8239 139.346 39.6627 138.728 39.4414L136.624 38.6839V38.6914Z" fill="#4B7652"/>
<path d="M110.306 36.179L110.497 36.719L108.39 35.3615L109.226 36.1715L108.738 36.119L109.98 37.1878C109.016 37.1653 108.292 36.644 107.407 36.644C106.961 36.644 106.425 36.2428 106.076 36.0178C105.738 36.2428 105.337 36.0403 104.94 36.0628C104.392 36.089 103.762 36.479 103.218 36.659C103.177 36.5728 103.11 36.314 103.031 36.3328L102.547 36.4603C102.232 36.5428 101.835 36.509 101.407 36.4603C101.895 36.1453 102.262 36.0478 102.723 35.8753L103.612 35.5415L103.031 35.3503L104.343 35.0053C104.985 34.2703 105.712 33.749 106.616 33.5878L106.402 33.3178C106.361 33.2653 106.398 33.0553 106.462 33.0665L106.792 33.1265C106.848 33.1378 107.021 33.134 107.077 33.1265C107.377 33.0815 106.597 32.7365 106.95 31.6453L108.558 33.509L107.898 33.4715L108.48 33.9065C108.66 34.0415 108.922 34.1428 109.125 34.1878L110.741 34.919C110.407 34.3153 109.792 34.4653 109.62 33.7528L111.247 34.529C111.896 34.8403 112.62 35.339 113.171 35.8378C113.535 36.1678 113.771 36.3553 114.206 36.5803L115.335 37.169C115.863 37.4465 116.332 37.6865 116.801 38.0915L113.231 36.6103L114.828 37.5665L114.412 37.6865L116.351 38.9765L115.098 38.5678L113.902 38.0878L112.308 37.1878L111.896 37.2328L110.306 36.1865V36.179Z" fill="white"/>
<path d="M165.338 29.0989L165.477 28.8701C166.021 28.9714 166.272 29.0951 166.606 29.3989C167.345 30.0701 168.196 30.6139 168.455 31.6751L167.817 31.2139C168.095 31.6601 168.5 32.1251 168.946 32.3839L169.85 32.9089L170.881 33.6214L171.098 33.7901C171.151 33.8314 171.248 33.7301 171.38 33.6251L172.321 34.3976L174.275 35.8789L171.335 34.2176L169.216 33.0739C169.43 33.3401 169.673 33.5426 169.876 33.6701L171.267 34.5364L170.738 34.6526L172.745 36.2539C171.241 35.8901 170.082 35.0089 168.878 34.1351C168.443 33.8201 168.102 33.5314 167.581 33.2914C167.78 33.5276 167.971 33.6626 168.207 33.8576L169.193 34.8439C167.682 34.2964 166.79 33.0964 165.661 32.1289L165.74 32.6351L164.757 31.5739L164.011 30.8089L162.826 29.1251C162.788 29.0689 162.747 28.8064 162.8 28.7914L162.998 28.7426C163.051 28.7314 163.077 28.8851 163.1 29.0126L163.52 28.8851C163.797 29.1214 163.838 29.1964 163.97 29.4851L164.521 29.7551C163.97 28.9414 163.396 28.2626 162.698 27.5651L161.723 26.5864C161.468 26.3314 161.011 26.1739 161.232 25.5889C161.701 25.9751 162.061 26.3726 162.41 26.8376L162.815 27.1301L164.48 28.3901L165.316 29.2114L165.338 29.0951V29.0989ZM165.47 29.1964L165.432 29.2939C165.672 29.5976 166.118 30.1714 166.49 30.3589L166.28 30.0326C166.242 29.9764 166.325 29.9051 166.437 29.7701L165.47 29.1964Z" fill="#4B7652"/>
<path d="M97.9841 35.6988L96.3379 35.6801L97.7254 34.7876C98.7041 34.1576 99.4954 33.1938 100.815 33.0588L100.59 33.3851L101.64 32.9688C102.06 32.8038 102.338 32.5263 102.683 32.4513L102.503 32.8263C102.48 32.8751 102.51 32.9876 102.544 33.0288C102.912 32.5751 103.215 32.3051 103.74 32.0951C103.939 31.9751 104.277 31.6563 104.43 31.4951L103.868 31.6038C103.849 31.4126 104.044 31.1876 104.22 31.1238C104.869 30.8913 104.925 30.3026 104.948 30.3101L104.648 30.1788C104.745 30.0663 105.139 29.8376 105.323 29.9051C105.867 30.1038 106.309 30.7226 106.418 31.2213L106.095 31.3976C105.975 31.4651 106.332 31.9901 106.268 32.0463L106.005 32.2863L106.035 32.6388C106.043 32.7438 105.84 32.9088 105.773 33.0026C105.458 33.4601 105.169 33.6663 104.577 33.8313C104.569 33.8988 104.558 33.9813 104.595 33.9776L105.042 33.9176C105.034 34.4313 104.517 34.1913 104.337 34.2888L102.244 35.4213C101.779 35.6726 101.172 35.7138 100.737 35.5601C101.284 35.3238 101.655 35.1813 101.955 34.8401L100.568 35.2751L99.5929 35.5676C98.9891 35.7513 98.6591 35.8113 97.9766 35.6913L97.9841 35.6988Z" fill="white"/>
<path d="M116.944 21.745L118.257 23.17C117.387 22.7987 116.854 22.1687 116.157 21.6737L115.324 21.085L115.174 21.4075L113.809 19.9075L114.072 19.63C113.123 18.3587 112.403 18.6287 112.144 18.3737C111.736 17.9725 111.511 17.695 111.222 17.2337L110.498 16.51L109.662 15.1525C110.011 15.3662 110.329 15.5612 110.509 15.7375L111.421 16.6262L110.809 15.52L111.181 15.3775L110.536 14.53C110.427 14.3875 110.431 14.1625 110.532 13.9637L110.067 13.4425L109.568 12.4225L108.803 11.095C109.576 11.2525 109.722 12.0625 110.194 12.4675L111.199 13.3375L111.949 14.065C111.548 14.6237 112.523 14.77 112.433 15.5612C112.471 15.775 112.673 16.2025 112.774 16.4012C113.052 16.525 113.093 16.4537 112.973 16.1537L113.704 16.6037L112.744 15.28C113.521 15.3362 113.704 16.0525 114.154 16.4312L115.174 17.2862C115.789 18.01 116.251 18.79 116.753 19.72C116.303 19.6112 116.044 19.2062 115.812 18.8462L115.538 19.045C115.186 18.58 114.826 18.1712 114.379 17.9012L114.361 18.9062L114.687 18.8237C114.927 19.195 115.017 19.21 115.208 19.4687L116.382 21.0175L116.948 21.7412L116.944 21.745Z" fill="white"/>
<path d="M162.425 31.1837L162.946 31.9037L163.823 32.8675L165.188 34.2437L162.965 32.8375C162.56 32.5787 162.151 32.4625 161.922 31.9712C161.742 31.5925 161.453 31.5362 161.075 31.4087C160.696 31.2812 160.126 30.7225 160.085 30.3625C160.055 30.0962 160.103 29.7887 160.002 29.6575C159.867 29.485 159.631 29.3537 159.406 29.2525C158.892 29.0162 158.566 28.5362 158.221 28.1012C157.906 27.7 157.572 27.4225 157.377 26.9537L158.273 27.61L157.475 26.29L156.803 25.195C156.473 24.655 156.511 24.19 156.241 23.7175L156.08 23.4362C156.035 23.3612 156.35 23.245 156.383 23.3087C156.646 23.74 157.223 24.1975 157.688 24.4225L158.836 24.9812L158.547 25.675C158.881 25.93 158.926 26.05 159.001 26.5262L159.286 26.14L158.952 25.2587C159.653 25.3075 160.066 25.99 160.103 26.6687C160.808 26.9425 160.475 27.6137 160.636 27.6887L160.996 27.8575L161.566 28.945C161.753 29.305 161.915 29.6125 162.053 30.1375L160.542 28.9037C161.24 30.19 163.032 30.7412 163.947 32.1287L162.946 31.54L162.413 31.1912L162.425 31.1837ZM158.225 25.7762C158.21 25.2437 157.838 24.8725 157.37 24.6737C157.572 25.1012 157.805 25.4575 158.225 25.7762Z" fill="#4B7652"/>
<path d="M87.938 37.4914L90.8743 39.1864L90.8105 39.2764L87.2893 37.7501C87.5068 38.1664 87.8255 38.1176 88.1405 38.5301L86.5955 37.8401C85.8755 37.5176 85.0993 37.2251 84.7768 36.4601L85.0955 36.4976C85.1405 36.5051 85.133 36.2351 85.0955 36.2089L84.053 35.4439C83.3968 34.9639 82.8605 34.3976 82.2905 33.7376C82.703 33.4339 82.8905 33.6326 83.213 34.1239L83.408 33.9064L82.4105 33.0476C82.943 32.6464 83.2355 32.9839 83.6968 33.1301C84.1093 33.2614 84.6643 33.2651 85.148 33.2951L87.323 35.0839L88.268 36.0551L87.4655 35.6689C86.843 35.4101 86.4493 35.0801 85.898 34.5176L86.3068 35.2901L86.6855 35.9764L85.808 35.6276L86.9293 36.5426C87.263 36.8164 87.7505 36.9776 87.9418 37.4801L87.938 37.4914Z" fill="#4B7652"/>
<path d="M76.0956 31.9227L77.0443 33.089C76.3843 32.8115 75.9194 32.3727 75.4844 31.8852L74.4981 30.7752C74.5131 31.1502 74.7343 31.3752 75.0756 31.7465C74.4606 31.7765 74.0856 31.154 73.6056 30.7415L72.6606 29.939L71.1906 28.3715L71.3781 28.2365L72.5593 29.1815L71.8581 28.2665L72.3794 28.3302L71.4869 27.6102L70.9019 27.1152L71.8844 27.2615C72.3869 27.3365 72.8556 27.4602 73.3994 27.3215C73.7481 27.2315 74.1343 27.2465 74.4081 27.4865L76.3206 29.1515L75.8931 29.7815L75.4956 29.2152L74.5956 28.2702C74.7418 28.739 74.8169 28.9865 74.8244 29.1965L75.3906 30.1265L76.1519 31.2665L75.4469 31.1165L76.1031 31.9265L76.0956 31.9227Z" fill="#4B7652"/>
<path d="M82.4257 35.9912L80.9445 35.0462L80.022 34.3787L79.257 33.6062L78.402 32.7174L77.5957 31.7987L77.7495 31.6412L79.0732 32.7062L78.5932 32.0537L78.6607 31.8737L79.0657 32.2412L79.2307 32.1849L77.7682 30.7674C78.192 30.5574 78.6082 30.6774 79.1257 30.6924C79.5832 30.7037 80.3145 30.6624 80.4495 31.1949C80.4382 31.3712 80.382 31.7649 80.4982 31.8849C81.042 32.4512 80.5545 32.7849 81.0607 33.1824C81.4845 33.5162 81.6982 33.9174 81.8407 34.4237C82.0957 34.8024 82.392 35.0837 82.5832 35.5787L81.1357 34.5887L81.1057 34.7762L82.4595 35.8224L82.4332 35.9912H82.4257Z" fill="#4B7652"/>
<path d="M102.102 6.34751C101.914 7.74626 102.856 7.94126 102.863 8.42876L102.878 9.19751C101.794 8.30501 101.978 7.77251 101.599 7.20626L101.393 6.89876C101.352 6.83876 101.183 6.88751 101.037 6.91376C100.542 6.24626 99.9981 5.55251 99.9231 4.56251L100.767 5.59751L100.321 4.48001L99.7544 3.29126C99.9419 3.39251 100.088 3.50501 100.227 3.64376L100.392 3.81251C100.418 3.83876 100.452 3.79751 100.471 3.75626L100.624 3.46001L101.153 4.88126C101.247 5.13626 101.491 5.48876 101.708 5.76626C101.629 5.37251 101.416 5.03876 101.232 4.68251L101.389 4.57751L102.447 5.87876C102.732 6.22751 102.841 6.76376 102.856 7.25126L102.102 6.34751Z" fill="white"/>
<path d="M97.2866 40.1316L94.9766 39.5691L93.4091 39.0254L91.6953 38.3804L92.0628 38.8154C90.7953 38.4066 89.7978 37.7616 88.7066 37.0979C88.4291 36.9291 88.2978 36.8466 88.0391 36.5054L89.1003 36.6854L90.2516 37.1054C91.3316 37.2966 92.1303 37.6604 93.0716 38.2079L94.4178 38.8266L97.2828 40.1354L97.2866 40.1316Z" fill="#4B7652"/>
<path d="M37.7069 33.3439L39.0231 32.3764C39.4881 31.8814 40.0131 31.4989 40.6056 31.1689C41.1606 30.3364 41.9519 29.8452 42.8444 29.4252L44.0256 28.8702L45.4244 28.1277L44.2281 29.3127C43.4781 30.0552 42.6044 30.7752 41.6781 31.2927L37.8944 33.4114L37.7031 33.3439H37.7069Z" fill="#4B7652"/>
<path d="M63.7052 37.1354L64.3089 36.3816L62.3252 37.3416L62.9589 36.4679C63.1389 36.2166 63.3602 35.7141 63.5927 35.5191C63.9527 35.2191 64.3652 35.0016 64.429 34.5666C64.474 34.2591 64.6689 34.0604 64.9502 33.9329L65.3215 34.7054L65.1639 35.0804L65.4114 35.5191L65.2502 35.9204C65.2165 36.0066 65.5464 36.1229 65.5839 36.2166L65.9589 37.1466L64.909 36.7416L63.7052 37.1391V37.1354Z" fill="white"/>
<path d="M124.751 27.6999L126.675 29.0387L126.578 29.1737L122.723 26.8412L122.708 27.0099C122.704 27.0587 122.696 27.2012 122.67 27.1712C122.374 26.7437 121.391 26.4699 120.398 25.3862L118.973 23.8262C119.588 24.0174 120.049 24.2762 120.555 24.6174C121.178 24.7562 121.699 25.1387 122.044 25.7012C122.775 26.0087 123.386 26.4924 123.896 27.0774L124.748 27.6999H124.751Z" fill="white"/>
<path d="M70.5001 22.2251C69.3826 21.5314 68.9626 20.5001 68.2989 20.1064L68.4601 20.7739L67.2938 19.7389C67.2151 19.6676 67.0539 19.3001 67.1476 19.2851L67.6051 19.2214L67.3726 18.4751C67.3276 18.4451 67.7101 18.3851 67.7814 18.4451L69.2288 19.7126C69.3188 19.7914 69.4614 19.9789 69.4201 20.0501L69.2626 20.3239C69.5063 20.3726 70.0726 20.4851 70.2151 20.7064L70.8001 21.6289L69.7764 21.1789C70.0614 21.5876 70.6689 21.5351 70.5001 22.2289V22.2251Z" fill="white"/>
<path d="M45.7698 26.3278C45.7023 25.829 46.216 25.1165 46.3435 25.0678C46.4373 25.0303 46.6098 25.0603 46.7785 25.0753L47.146 24.3665C47.0673 24.3778 46.8535 24.4078 46.876 24.344C46.8985 24.2765 46.9773 24.0815 47.0185 24.029L47.4798 23.474L47.986 22.8778C48.1885 23.099 48.2785 23.2153 48.3835 23.2228C48.7623 23.2415 48.8973 22.7015 49.4035 22.6453L48.9423 23.3053C48.691 23.669 48.316 23.8903 47.881 24.1415C47.866 24.1228 48.1285 24.3028 48.0835 24.3628L47.8135 24.704C47.2398 25.4278 46.5985 25.8703 45.7773 26.3278H45.7698Z" fill="white"/>
<path d="M46.9279 27.9064C46.7291 28.0526 46.6466 28.0076 46.7591 27.7564H46.1816L47.8579 26.2901C48.5741 25.6601 49.1929 24.9889 50.1566 24.5164C49.9579 25.3151 49.3429 25.8214 48.7729 26.3839C48.2029 26.9464 47.6779 27.4264 46.9279 27.9101V27.9064Z" fill="white"/>
<path d="M51.0451 19.1165L51.3751 20.1965C50.8501 19.7503 50.6213 19.2703 50.3588 18.689C49.8076 18.3665 49.3238 17.8228 49.4288 17.144L49.9426 17.7815C49.8863 17.2603 49.6276 16.9153 49.3501 16.394L49.7251 16.6715C49.8038 16.7278 50.0738 16.6453 50.1638 16.6828C50.3701 16.8103 50.4376 17.3128 50.4451 17.6953C50.9513 17.6128 51.3826 17.8753 51.5026 18.3328L51.1238 18.4528C51.0451 18.479 51.2701 18.7003 51.2926 18.779L51.3901 19.1165C51.4088 19.184 51.1763 19.139 51.0413 19.1165H51.0451Z" fill="white"/>
<path d="M105.736 15.2088C105.537 15.07 105.188 14.9463 104.956 14.8938C104.341 14.4138 103.819 13.7463 103.399 13.0938L102.623 11.8863L102.724 11.77L103.531 12.6025C104.119 13.21 103.868 13.4013 104.123 13.6C104.191 13.6525 104.326 13.27 104.258 13.2175C104.052 13.06 103.801 12.4675 104.101 12.2575L104.944 13.54L105.019 14.2413C105.357 14.5525 105.604 14.8188 105.833 15.1338L105.867 15.205L106.107 15.0025C106.167 14.9538 106.343 15.1638 106.392 15.25L107.014 16.3375L105.818 15.2725L105.732 15.2125L105.736 15.2088Z" fill="white"/>
<path d="M126.45 37.0264L127.421 37.8664L124.796 36.6814C124.504 36.5502 124.324 36.3814 124.057 36.1302C123.84 35.9239 123.187 35.8752 123.214 35.3464C123.457 35.2039 124.024 35.3277 124.294 35.5264L125.591 36.4939L126.446 37.0264H126.45Z" fill="white"/>
<path d="M48.6603 36.4791L47.5015 36.8016L47.3853 36.1753C47.749 36.0216 48.1653 35.8753 48.4578 35.8266C48.2965 36.1791 48.3753 36.1528 48.559 36.1491L51.034 35.0278L49.8903 36.0178C49.2115 36.6066 48.5028 37.0978 47.5953 37.3866L48.6603 36.4791Z" fill="white"/>
<path d="M67.0463 19.1651C66.3526 18.8314 65.6663 18.1751 65.2988 17.2751L66.0488 17.8189L65.8913 17.4514C65.8576 17.3726 65.9438 17.2376 65.9926 17.1289L65.3963 16.1501C65.8726 16.3789 66.2326 16.7614 66.4388 17.1627L66.9863 18.2314C66.9601 18.4414 66.9488 18.6439 67.0501 19.1614L67.0463 19.1651Z" fill="white"/>
<path d="M100.317 3.224C99.7733 2.79275 99.4095 2.20775 99.0533 1.57775C98.7795 1.094 98.5133 0.655254 98.6296 0.0102539L99.5483 1.5665C99.8745 2.05775 100.265 2.4665 100.321 3.224H100.317Z" fill="white"/>
<path d="M176.415 34.2849L175.695 33.7187L174.923 33.5799C175.05 33.5012 175.257 33.4749 175.253 33.4149L175.234 32.9724L176.333 33.6549L178.324 35.1362C177.574 34.8662 177.008 34.5737 176.415 34.2849Z" fill="white"/>
<path d="M45.3007 38.3429C45.2932 38.4479 43.9095 39.1379 43.0845 39.1979L45.3382 37.8479L45.3007 38.3467V38.3429Z" fill="white"/>
<path d="M37.9915 23.11C38.0065 22.8325 38.2315 22.6562 38.4153 22.4462C38.8353 21.97 39.2328 21.5425 39.8665 21.2087C39.5178 22.1275 38.8615 22.6337 37.9878 23.1062L37.9915 23.11Z" fill="white"/>
<path d="M174.803 33.3515C173.967 33.359 173.524 32.8752 173.059 32.3765C172.703 32.2265 172.264 32.144 172.032 31.7202C172.677 31.8852 173.187 32.189 173.697 32.5565L174.799 33.3515H174.803Z" fill="white"/>
<path d="M72.5705 23.744L71.4043 22.9153L70.6655 22.2065C71.0593 22.2215 71.243 22.3865 71.4755 22.6115C71.8993 22.9753 72.2405 23.279 72.5743 23.744H72.5705Z" fill="white"/>
<path d="M28.1762 58.4125C27.8762 59.1475 27.4787 59.8225 26.9837 60.4375C26.5037 61.0525 25.9412 61.5775 25.2962 62.0125C24.6512 62.4475 23.9462 62.785 23.1812 63.025C22.4162 63.265 21.6062 63.385 20.7512 63.385C19.6112 63.385 18.5462 63.175 17.5562 62.755C16.5812 62.335 15.7337 61.765 15.0137 61.045C14.2937 60.31 13.7237 59.4475 13.3037 58.4575C12.8987 57.4525 12.6962 56.365 12.6962 55.195C12.6962 54.04 12.8987 52.975 13.3037 52C13.7237 51.01 14.2937 50.155 15.0137 49.435C15.7337 48.7 16.5812 48.13 17.5562 47.725C18.5462 47.305 19.6112 47.095 20.7512 47.095C21.5312 47.095 22.2737 47.1925 22.9787 47.3875C23.6837 47.5825 24.3362 47.86 24.9362 48.22C25.5362 48.58 26.0762 49.015 26.5562 49.525C27.0512 50.035 27.4637 50.605 27.7937 51.235L25.4762 52.585C25.2512 52.165 24.9812 51.775 24.6662 51.415C24.3512 51.055 23.9912 50.74 23.5862 50.47C23.1812 50.2 22.7387 49.99 22.2587 49.84C21.7787 49.69 21.2687 49.615 20.7287 49.615C19.9337 49.615 19.1987 49.7725 18.5237 50.0875C17.8487 50.3875 17.2637 50.8 16.7687 51.325C16.2887 51.835 15.9062 52.4275 15.6212 53.1025C15.3512 53.7625 15.2162 54.46 15.2162 55.195C15.2162 55.945 15.3512 56.665 15.6212 57.355C15.9062 58.045 16.2887 58.6525 16.7687 59.1775C17.2637 59.6875 17.8487 60.1 18.5237 60.415C19.1987 60.715 19.9337 60.865 20.7287 60.865C21.3137 60.865 21.8537 60.7825 22.3487 60.6175C22.8587 60.4375 23.3237 60.1975 23.7437 59.8975C24.1637 59.5825 24.5312 59.2225 24.8462 58.8175C25.1612 58.4125 25.4162 57.9775 25.6112 57.5125L28.1762 58.4125ZM38.3504 63.385C37.2104 63.385 36.1454 63.175 35.1554 62.755C34.1804 62.335 33.3329 61.765 32.6129 61.045C31.8929 60.31 31.3229 59.4475 30.9029 58.4575C30.4979 57.4525 30.2954 56.365 30.2954 55.195C30.2954 54.04 30.4979 52.975 30.9029 52C31.3229 51.01 31.8929 50.155 32.6129 49.435C33.3329 48.7 34.1804 48.13 35.1554 47.725C36.1454 47.305 37.2104 47.095 38.3504 47.095C39.4904 47.095 40.5479 47.305 41.5229 47.725C42.5129 48.13 43.3679 48.7 44.0879 49.435C44.8079 50.155 45.3704 51.01 45.7754 52C46.1804 52.975 46.3829 54.04 46.3829 55.195C46.3829 56.365 46.1804 57.4525 45.7754 58.4575C45.3704 59.4475 44.8079 60.31 44.0879 61.045C43.3679 61.765 42.5129 62.335 41.5229 62.755C40.5479 63.175 39.4904 63.385 38.3504 63.385ZM38.3279 60.7075C39.1229 60.7075 39.8504 60.565 40.5104 60.28C41.1704 59.98 41.7329 59.5825 42.1979 59.0875C42.6629 58.5775 43.0229 57.9925 43.2779 57.3325C43.5329 56.6575 43.6605 55.945 43.6605 55.195C43.6605 54.46 43.5329 53.77 43.2779 53.125C43.0229 52.465 42.6629 51.8875 42.1979 51.3925C41.7329 50.8975 41.1704 50.5075 40.5104 50.2225C39.8504 49.9225 39.1229 49.7725 38.3279 49.7725C37.5329 49.7725 36.8054 49.9225 36.1454 50.2225C35.4854 50.5075 34.9229 50.8975 34.4579 51.3925C33.9929 51.8875 33.6329 52.465 33.3779 53.125C33.1229 53.77 32.9954 54.46 32.9954 55.195C32.9954 55.945 33.1229 56.6575 33.3779 57.3325C33.6329 57.9925 33.9929 58.5775 34.4579 59.0875C34.9229 59.5825 35.4854 59.98 36.1454 60.28C36.8054 60.565 37.5329 60.7075 38.3279 60.7075ZM56.579 60.7975L52.2815 52.225V63.1375H49.5815V47.3425H52.5065L57.3665 56.905L62.2265 47.3425H65.174V63.1375H62.474V52.225L58.154 60.7975H56.579ZM67.8538 47.3425H70.5538L74.9413 59.335L79.2838 47.3425H81.9838L76.2688 63.1375H73.5688L67.8538 47.3425ZM91.8857 55.2625C92.8007 55.2625 93.4607 55.03 93.8657 54.565C94.2857 54.1 94.4957 53.47 94.4957 52.675C94.4957 51.895 94.2782 51.235 93.8432 50.695C93.4232 50.155 92.7707 49.885 91.8857 49.885H87.6557V55.2625H91.8857ZM84.9557 63.115V47.365H91.8857C93.6707 47.365 94.9982 47.8225 95.8682 48.7375C96.7532 49.6375 97.1957 50.95 97.1957 52.675C97.1957 53.995 96.9332 55.045 96.4082 55.825C95.8982 56.605 95.1182 57.175 94.0682 57.535L96.9482 63.115H93.8657L91.1432 57.7825H87.6557V63.115H84.9557ZM110.258 51.595C109.823 50.935 109.223 50.425 108.458 50.065C107.693 49.705 106.838 49.525 105.893 49.525C105.593 49.525 105.27 49.5625 104.925 49.6375C104.595 49.6975 104.288 49.8025 104.003 49.9525C103.718 50.0875 103.478 50.2825 103.283 50.5375C103.103 50.7775 103.005 51.0775 102.99 51.4375C102.975 51.7525 103.073 52.03 103.283 52.27C103.493 52.51 103.785 52.7275 104.16 52.9225C104.535 53.1175 104.985 53.3125 105.51 53.5075C106.05 53.6875 106.643 53.8825 107.288 54.0925C108.443 54.4825 109.35 54.91 110.01 55.375C110.67 55.825 111.165 56.3575 111.495 56.9725C111.81 57.4675 111.99 57.9925 112.035 58.5475C112.095 59.1025 112.035 59.6425 111.855 60.1675C111.675 60.6775 111.39 61.1575 111 61.6075C110.61 62.0575 110.123 62.4325 109.538 62.7325C108.548 63.2725 107.303 63.5425 105.803 63.5425C104.498 63.5425 103.283 63.2725 102.158 62.7325C101.033 62.1925 100.14 61.465 99.4801 60.55L101.348 58.8175C101.783 59.5375 102.42 60.1075 103.26 60.5275C104.1 60.9475 105.008 61.1575 105.983 61.1575C106.553 61.1575 107.078 61.0825 107.558 60.9325C108.053 60.7825 108.45 60.58 108.75 60.325C109.05 60.055 109.223 59.7325 109.268 59.3575C109.313 58.9825 109.178 58.57 108.863 58.12C108.683 57.85 108.413 57.595 108.053 57.355C107.693 57.115 107.295 56.8975 106.86 56.7025C106.425 56.5075 105.975 56.335 105.51 56.185C105.06 56.02 104.64 55.8775 104.25 55.7575C103.695 55.5625 103.178 55.36 102.698 55.15C102.218 54.94 101.79 54.6925 101.415 54.4075C101.055 54.1225 100.77 53.7775 100.56 53.3725C100.35 52.9675 100.238 52.4725 100.223 51.8875C100.208 51.2125 100.343 50.59 100.628 50.02C100.913 49.435 101.31 48.9325 101.82 48.5125C102.345 48.0775 102.968 47.74 103.688 47.5C104.408 47.26 105.195 47.14 106.05 47.14C106.62 47.14 107.19 47.1925 107.76 47.2975C108.33 47.4025 108.878 47.5675 109.403 47.7925C109.928 48.0025 110.423 48.28 110.888 48.625C111.353 48.955 111.758 49.345 112.103 49.795L110.258 51.595ZM114.51 61.3825H117.12V63.9925H114.51V61.3825ZM134.979 58.4125C134.679 59.1475 134.282 59.8225 133.787 60.4375C133.307 61.0525 132.744 61.5775 132.099 62.0125C131.454 62.4475 130.749 62.785 129.984 63.025C129.219 63.265 128.409 63.385 127.554 63.385C126.414 63.385 125.349 63.175 124.359 62.755C123.384 62.335 122.537 61.765 121.817 61.045C121.097 60.31 120.527 59.4475 120.107 58.4575C119.702 57.4525 119.499 56.365 119.499 55.195C119.499 54.04 119.702 52.975 120.107 52C120.527 51.01 121.097 50.155 121.817 49.435C122.537 48.7 123.384 48.13 124.359 47.725C125.349 47.305 126.414 47.095 127.554 47.095C128.334 47.095 129.077 47.1925 129.782 47.3875C130.487 47.5825 131.139 47.86 131.739 48.22C132.339 48.58 132.879 49.015 133.359 49.525C133.854 50.035 134.267 50.605 134.597 51.235L132.279 52.585C132.054 52.165 131.784 51.775 131.469 51.415C131.154 51.055 130.794 50.74 130.389 50.47C129.984 50.2 129.542 49.99 129.062 49.84C128.582 49.69 128.072 49.615 127.532 49.615C126.737 49.615 126.002 49.7725 125.327 50.0875C124.652 50.3875 124.067 50.8 123.572 51.325C123.092 51.835 122.709 52.4275 122.424 53.1025C122.154 53.7625 122.019 54.46 122.019 55.195C122.019 55.945 122.154 56.665 122.424 57.355C122.709 58.045 123.092 58.6525 123.572 59.1775C124.067 59.6875 124.652 60.1 125.327 60.415C126.002 60.715 126.737 60.865 127.532 60.865C128.117 60.865 128.657 60.7825 129.152 60.6175C129.662 60.4375 130.127 60.1975 130.547 59.8975C130.967 59.5825 131.334 59.2225 131.649 58.8175C131.964 58.4125 132.219 57.9775 132.414 57.5125L134.979 58.4125ZM145.153 63.385C144.013 63.385 142.948 63.175 141.958 62.755C140.983 62.335 140.136 61.765 139.416 61.045C138.696 60.31 138.126 59.4475 137.706 58.4575C137.301 57.4525 137.098 56.365 137.098 55.195C137.098 54.04 137.301 52.975 137.706 52C138.126 51.01 138.696 50.155 139.416 49.435C140.136 48.7 140.983 48.13 141.958 47.725C142.948 47.305 144.013 47.095 145.153 47.095C146.293 47.095 147.351 47.305 148.326 47.725C149.316 48.13 150.171 48.7 150.891 49.435C151.611 50.155 152.173 51.01 152.578 52C152.983 52.975 153.186 54.04 153.186 55.195C153.186 56.365 152.983 57.4525 152.578 58.4575C152.173 59.4475 151.611 60.31 150.891 61.045C150.171 61.765 149.316 62.335 148.326 62.755C147.351 63.175 146.293 63.385 145.153 63.385ZM145.131 60.7075C145.926 60.7075 146.653 60.565 147.313 60.28C147.973 59.98 148.536 59.5825 149.001 59.0875C149.466 58.5775 149.826 57.9925 150.081 57.3325C150.336 56.6575 150.463 55.945 150.463 55.195C150.463 54.46 150.336 53.77 150.081 53.125C149.826 52.465 149.466 51.8875 149.001 51.3925C148.536 50.8975 147.973 50.5075 147.313 50.2225C146.653 49.9225 145.926 49.7725 145.131 49.7725C144.336 49.7725 143.608 49.9225 142.948 50.2225C142.288 50.5075 141.726 50.8975 141.261 51.3925C140.796 51.8875 140.436 52.465 140.181 53.125C139.926 53.77 139.798 54.46 139.798 55.195C139.798 55.945 139.926 56.6575 140.181 57.3325C140.436 57.9925 140.796 58.5775 141.261 59.0875C141.726 59.5825 142.288 59.98 142.948 60.28C143.608 60.565 144.336 60.7075 145.131 60.7075ZM163.382 60.7975L159.084 52.225V63.1375H156.384V47.3425H159.309L164.169 56.905L169.029 47.3425H171.977V63.1375H169.277V52.225L164.957 60.7975H163.382Z" fill="white"/>
<path d="M62.2263 77.905C62.0463 78.355 61.8078 78.7645 61.5108 79.1335C61.2228 79.5025 60.8853 79.8175 60.4983 80.0785C60.1113 80.3395 59.6838 80.542 59.2158 80.686C58.7568 80.83 58.2708 80.902 57.7578 80.902C57.0738 80.902 56.4348 80.776 55.8408 80.524C55.2558 80.272 54.7473 79.93 54.3153 79.498C53.8833 79.057 53.5413 78.5395 53.2893 77.9455C53.0463 77.3425 52.9248 76.69 52.9248 75.988C52.9248 75.295 53.0463 74.656 53.2893 74.071C53.5413 73.477 53.8833 72.964 54.3153 72.532C54.7473 72.091 55.2558 71.749 55.8408 71.506C56.4348 71.254 57.0738 71.128 57.7578 71.128C58.2258 71.128 58.6713 71.1865 59.0943 71.3035C59.5263 71.4205 59.9223 71.5915 60.2823 71.8165C60.6423 72.0325 60.9663 72.2935 61.2543 72.5995C61.5513 72.9055 61.7988 73.2475 61.9968 73.6255L60.9573 74.233C60.8133 73.954 60.6333 73.693 60.4173 73.45C60.2013 73.207 59.9583 73 59.6883 72.829C59.4183 72.649 59.1213 72.5095 58.7973 72.4105C58.4733 72.3115 58.1268 72.262 57.7578 72.262C57.2178 72.262 56.7183 72.3655 56.2593 72.5725C55.8093 72.7705 55.4223 73.0405 55.0983 73.3825C54.7743 73.7245 54.5223 74.1205 54.3423 74.5705C54.1623 75.0115 54.0723 75.4795 54.0723 75.9745C54.0723 76.4875 54.1623 76.9735 54.3423 77.4325C54.5223 77.8915 54.7743 78.2965 55.0983 78.6475C55.4223 78.9895 55.8093 79.264 56.2593 79.471C56.7183 79.669 57.2178 79.768 57.7578 79.768C58.1538 79.768 58.5228 79.7095 58.8648 79.5925C59.2068 79.4755 59.5173 79.318 59.7963 79.12C60.0843 78.913 60.3318 78.6745 60.5388 78.4045C60.7548 78.1255 60.9303 77.824 61.0653 77.5L62.2263 77.905ZM68.4887 80.902C67.8047 80.902 67.1657 80.776 66.5717 80.524C65.9867 80.272 65.4782 79.93 65.0462 79.498C64.6142 79.057 64.2722 78.5395 64.0202 77.9455C63.7772 77.3425 63.6557 76.69 63.6557 75.988C63.6557 75.295 63.7772 74.656 64.0202 74.071C64.2722 73.477 64.6142 72.964 65.0462 72.532C65.4782 72.091 65.9867 71.749 66.5717 71.506C67.1657 71.254 67.8047 71.128 68.4887 71.128C69.1727 71.128 69.8072 71.254 70.3922 71.506C70.9862 71.749 71.4992 72.091 71.9312 72.532C72.3632 72.964 72.7007 73.477 72.9437 74.071C73.1867 74.656 73.3082 75.295 73.3082 75.988C73.3082 76.69 73.1867 77.3425 72.9437 77.9455C72.7007 78.5395 72.3632 79.057 71.9312 79.498C71.4992 79.93 70.9862 80.272 70.3922 80.524C69.8072 80.776 69.1727 80.902 68.4887 80.902ZM68.4887 79.714C69.0287 79.714 69.5192 79.615 69.9602 79.417C70.4012 79.219 70.7792 78.9535 71.0942 78.6205C71.4182 78.2785 71.6657 77.8825 71.8367 77.4325C72.0077 76.9735 72.0932 76.4875 72.0932 75.9745C72.0932 75.4795 72.0077 75.0115 71.8367 74.5705C71.6657 74.1295 71.4182 73.7425 71.0942 73.4095C70.7792 73.0765 70.4012 72.811 69.9602 72.613C69.5192 72.415 69.0287 72.316 68.4887 72.316C67.9487 72.316 67.4537 72.415 67.0037 72.613C66.5627 72.811 66.1802 73.0765 65.8562 73.4095C65.5412 73.7425 65.2982 74.1295 65.1272 74.5705C64.9562 75.0115 64.8707 75.4795 64.8707 75.9745C64.8707 76.4875 64.9562 76.9735 65.1272 77.4325C65.2982 77.8825 65.5412 78.2785 65.8562 78.6205C66.1802 78.9535 66.5627 79.219 67.0037 79.417C67.4537 79.615 67.9487 79.714 68.4887 79.714ZM75.4131 71.29H76.6281V79.5925H81.1371V80.74H75.4131V71.29ZM87.8016 80.902C87.1176 80.902 86.4786 80.776 85.8846 80.524C85.2996 80.272 84.7911 79.93 84.3591 79.498C83.9271 79.057 83.5851 78.5395 83.3331 77.9455C83.0901 77.3425 82.9686 76.69 82.9686 75.988C82.9686 75.295 83.0901 74.656 83.3331 74.071C83.5851 73.477 83.9271 72.964 84.3591 72.532C84.7911 72.091 85.2996 71.749 85.8846 71.506C86.4786 71.254 87.1176 71.128 87.8016 71.128C88.4856 71.128 89.1201 71.254 89.7051 71.506C90.2991 71.749 90.8121 72.091 91.2441 72.532C91.6761 72.964 92.0136 73.477 92.2566 74.071C92.4996 74.656 92.6211 75.295 92.6211 75.988C92.6211 76.69 92.4996 77.3425 92.2566 77.9455C92.0136 78.5395 91.6761 79.057 91.2441 79.498C90.8121 79.93 90.2991 80.272 89.7051 80.524C89.1201 80.776 88.4856 80.902 87.8016 80.902ZM87.8016 79.714C88.3416 79.714 88.8321 79.615 89.2731 79.417C89.7141 79.219 90.0921 78.9535 90.4071 78.6205C90.7311 78.2785 90.9786 77.8825 91.1496 77.4325C91.3206 76.9735 91.4061 76.4875 91.4061 75.9745C91.4061 75.4795 91.3206 75.0115 91.1496 74.5705C90.9786 74.1295 90.7311 73.7425 90.4071 73.4095C90.0921 73.0765 89.7141 72.811 89.2731 72.613C88.8321 72.415 88.3416 72.316 87.8016 72.316C87.2616 72.316 86.7666 72.415 86.3166 72.613C85.8756 72.811 85.4931 73.0765 85.1691 73.4095C84.8541 73.7425 84.6111 74.1295 84.4401 74.5705C84.2691 75.0115 84.1836 75.4795 84.1836 75.9745C84.1836 76.4875 84.2691 76.9735 84.4401 77.4325C84.6111 77.8825 84.8541 78.2785 85.1691 78.6205C85.4931 78.9535 85.8756 79.219 86.3166 79.417C86.7666 79.615 87.2616 79.714 87.8016 79.714ZM98.668 76.2175C99.37 76.2175 99.8785 76.06 100.194 75.745C100.518 75.43 100.68 74.971 100.68 74.368C100.68 73.774 100.513 73.306 100.18 72.964C99.856 72.613 99.352 72.4375 98.668 72.4375H95.9275V76.2175H98.668ZM94.7125 80.74V71.29H98.668C99.748 71.29 100.554 71.551 101.085 72.073C101.625 72.595 101.895 73.36 101.895 74.368C101.895 75.142 101.742 75.7585 101.436 76.2175C101.13 76.6765 100.666 77.0095 100.045 77.2165L101.773 80.74H100.396L98.7355 77.365H95.9275V80.74H94.7125ZM105.656 77.284H109.26L107.465 72.613L105.656 77.284ZM103.077 80.74L106.79 71.155H108.14L111.839 80.74H110.624L109.719 78.4315H105.21L104.306 80.74H103.077ZM116.993 71.29C117.695 71.29 118.334 71.4115 118.91 71.6545C119.486 71.8885 119.977 72.217 120.382 72.64C120.796 73.063 121.115 73.5625 121.34 74.1385C121.565 74.7145 121.678 75.34 121.678 76.015C121.678 76.69 121.565 77.3155 121.34 77.8915C121.115 78.4675 120.796 78.967 120.382 79.39C119.968 79.813 119.473 80.146 118.897 80.389C118.33 80.623 117.695 80.74 116.993 80.74H113.578V71.29H116.993ZM116.953 72.4105H114.793V79.6195H116.953C117.547 79.6195 118.064 79.516 118.505 79.309C118.946 79.102 119.311 78.832 119.599 78.499C119.887 78.157 120.103 77.77 120.247 77.338C120.391 76.897 120.463 76.4425 120.463 75.9745C120.463 75.5065 120.386 75.061 120.233 74.638C120.08 74.206 119.855 73.828 119.558 73.504C119.261 73.171 118.892 72.9055 118.451 72.7075C118.019 72.5095 117.52 72.4105 116.953 72.4105ZM128.128 80.902C127.444 80.902 126.805 80.776 126.211 80.524C125.626 80.272 125.118 79.93 124.686 79.498C124.254 79.057 123.912 78.5395 123.66 77.9455C123.417 77.3425 123.295 76.69 123.295 75.988C123.295 75.295 123.417 74.656 123.66 74.071C123.912 73.477 124.254 72.964 124.686 72.532C125.118 72.091 125.626 71.749 126.211 71.506C126.805 71.254 127.444 71.128 128.128 71.128C128.812 71.128 129.447 71.254 130.032 71.506C130.626 71.749 131.139 72.091 131.571 72.532C132.003 72.964 132.34 73.477 132.583 74.071C132.826 74.656 132.948 75.295 132.948 75.988C132.948 76.69 132.826 77.3425 132.583 77.9455C132.34 78.5395 132.003 79.057 131.571 79.498C131.139 79.93 130.626 80.272 130.032 80.524C129.447 80.776 128.812 80.902 128.128 80.902ZM128.128 79.714C128.668 79.714 129.159 79.615 129.6 79.417C130.041 79.219 130.419 78.9535 130.734 78.6205C131.058 78.2785 131.305 77.8825 131.476 77.4325C131.647 76.9735 131.733 76.4875 131.733 75.9745C131.733 75.4795 131.647 75.0115 131.476 74.5705C131.305 74.1295 131.058 73.7425 130.734 73.4095C130.419 73.0765 130.041 72.811 129.6 72.613C129.159 72.415 128.668 72.316 128.128 72.316C127.588 72.316 127.093 72.415 126.643 72.613C126.202 72.811 125.82 73.0765 125.496 73.4095C125.181 73.7425 124.938 74.1295 124.767 74.5705C124.596 75.0115 124.51 75.4795 124.51 75.9745C124.51 76.4875 124.596 76.9735 124.767 77.4325C124.938 77.8825 125.181 78.2785 125.496 78.6205C125.82 78.9535 126.202 79.219 126.643 79.417C127.093 79.615 127.588 79.714 128.128 79.714Z" fill="#4B7652"/>
<circle cx="47.5" cy="77.5" r="1.5" fill="#4B7652"/>
<circle cx="138.5" cy="77.5" r="1.5" fill="#4B7652"/>
</g>
<line x1="138" y1="77.5" x2="188" y2="77.5" stroke="#4B7652"/>
<line y1="77.5" x2="47" y2="77.5" stroke="#4B7652"/>
<defs>
<linearGradient id="paint0_linear_55_6640" x1="92.4995" y1="44.0001" x2="75.4995" y2="5.50009" gradientUnits="userSpaceOnUse">
<stop stop-color="#FFEAC4"/>
<stop offset="1" stop-color="white"/>
</linearGradient>
<clipPath id="clip0_55_6640">
<rect width="188" height="85" rx="12.973" fill="white"/>
</clipPath>
</defs>
</svg>
