<svg width="140" height="40" viewBox="0 0 140 40" fill="none" xmlns="http://www.w3.org/2000/svg">
<rect x="0.5" y="0.5" width="139" height="39" rx="3.5" fill="white"/>
<rect x="0.5" y="0.5" width="139" height="39" rx="3.5" stroke="#CFD4DB"/>
<g clip-path="url(#clip0_373_4190)">
<path d="M20.75 19.25H32V8.75C32 8.336 31.664 8 31.25 8H20.75V19.25Z" fill="#4CAF50"/>
<path d="M19.25 19.25V8H8.75C8.336 8 8 8.336 8 8.75V19.25H19.25Z" fill="#F44336"/>
<path d="M19.25 20.75H8V31.25C8 31.664 8.336 32 8.75 32H19.25V20.75Z" fill="#2196F3"/>
<path d="M20.75 20.75V32H31.25C31.664 32 32 31.664 32 31.25V20.75H20.75Z" fill="#FFC107"/>
</g>
<path d="M47.952 23.352L44.64 16.344V25.016H43.2V13.784H44.832L48.416 21.304L52 13.784H53.616V25.016H52.176V16.344L48.88 23.352H47.952ZM55.7881 17.016H57.1481V25.016H55.7881V17.016ZM55.7881 13.8H57.1481V15.048H55.7881V13.8ZM66.653 22.728C66.3223 23.4747 65.8157 24.0667 65.133 24.504C64.461 24.9307 63.709 25.144 62.877 25.144C62.2797 25.144 61.725 25.0373 61.213 24.824C60.7117 24.6107 60.2743 24.3227 59.901 23.96C59.5277 23.5867 59.2343 23.144 59.021 22.632C58.8077 22.12 58.701 21.5707 58.701 20.984C58.701 20.3867 58.8077 19.8373 59.021 19.336C59.2343 18.8347 59.5277 18.3973 59.901 18.024C60.2743 17.6507 60.7117 17.3627 61.213 17.16C61.725 16.9467 62.2797 16.84 62.877 16.84C63.645 16.84 64.3383 17.016 64.957 17.368C65.5757 17.72 66.0663 18.1947 66.429 18.792L65.325 19.48C65.0797 19.0533 64.7383 18.7173 64.301 18.472C63.8637 18.2267 63.373 18.104 62.829 18.104C62.4237 18.104 62.045 18.1787 61.693 18.328C61.3517 18.4773 61.053 18.6853 60.797 18.952C60.541 19.208 60.3383 19.512 60.189 19.864C60.0503 20.216 59.981 20.5947 59.981 21C59.981 21.4053 60.0503 21.784 60.189 22.136C60.3383 22.488 60.541 22.792 60.797 23.048C61.053 23.304 61.357 23.5067 61.709 23.656C62.061 23.8053 62.445 23.88 62.861 23.88C63.4583 23.88 63.997 23.7253 64.477 23.416C64.957 23.096 65.3037 22.6693 65.517 22.136L66.653 22.728ZM74.1788 20.552C74.0828 19.816 73.8161 19.224 73.3788 18.776C72.9521 18.3173 72.3868 18.088 71.6828 18.088C71.2881 18.088 70.9361 18.152 70.6268 18.28C70.3174 18.3973 70.0561 18.568 69.8428 18.792C69.6294 19.016 69.4588 19.2773 69.3307 19.576C69.2028 19.8747 69.1174 20.2 69.0748 20.552H74.1788ZM75.4588 20.408C75.5121 20.8133 75.5281 21.192 75.5068 21.544H69.0428C69.0854 21.896 69.1761 22.2213 69.3148 22.52C69.4641 22.8187 69.6561 23.08 69.8908 23.304C70.1254 23.5173 70.3974 23.6827 70.7068 23.8C71.0268 23.9173 71.3734 23.976 71.7468 23.976C72.2588 23.976 72.7281 23.88 73.1548 23.688C73.5814 23.4853 73.9174 23.224 74.1628 22.904L75.0268 23.688C74.6748 24.1467 74.2108 24.5093 73.6348 24.776C73.0588 25.0427 72.4454 25.176 71.7948 25.176C71.2081 25.176 70.6694 25.0747 70.1788 24.872C69.6881 24.6693 69.2668 24.3867 68.9148 24.024C68.5628 23.6507 68.2854 23.2133 68.0828 22.712C67.8908 22.2 67.7948 21.6453 67.7948 21.048C67.7948 20.4187 67.8854 19.848 68.0668 19.336C68.2588 18.824 68.5254 18.3867 68.8668 18.024C69.2081 17.6613 69.6188 17.3787 70.0988 17.176C70.5788 16.9733 71.1121 16.872 71.6988 16.872C72.2108 16.872 72.6801 16.9573 73.1068 17.128C73.5334 17.2987 73.9121 17.5387 74.2428 17.848C74.5734 18.1573 74.8401 18.5307 75.0428 18.968C75.2561 19.3947 75.3948 19.8747 75.4588 20.408ZM81.4285 18.248C81.2045 18.216 80.9912 18.2 80.7885 18.2C80.3938 18.2 80.0312 18.2533 79.7005 18.36C79.3805 18.4667 79.1032 18.6213 78.8685 18.824C78.6338 19.016 78.4525 19.2507 78.3245 19.528C78.1965 19.7947 78.1325 20.088 78.1325 20.408V25H76.7725V17H78.1325V18.232C78.3672 17.752 78.7405 17.4 79.2525 17.176C79.7645 16.952 80.2978 16.84 80.8525 16.84C81.0445 16.84 81.2365 16.856 81.4285 16.888V18.248ZM86.1583 25.144C85.5609 25.144 85.0063 25.0373 84.4943 24.824C83.9929 24.6107 83.5556 24.3227 83.1823 23.96C82.8089 23.5867 82.5156 23.144 82.3023 22.632C82.0889 22.12 81.9823 21.5707 81.9823 20.984C81.9823 20.3867 82.0889 19.8373 82.3023 19.336C82.5156 18.8347 82.8089 18.3973 83.1823 18.024C83.5556 17.6507 83.9929 17.3627 84.4943 17.16C85.0063 16.9467 85.5609 16.84 86.1583 16.84C86.7556 16.84 87.3049 16.9467 87.8063 17.16C88.3076 17.3627 88.7449 17.6507 89.1183 18.024C89.4916 18.3973 89.7796 18.8347 89.9823 19.336C90.1956 19.8373 90.3023 20.3867 90.3023 20.984C90.3023 21.5707 90.1956 22.12 89.9823 22.632C89.7796 23.144 89.4916 23.5867 89.1183 23.96C88.7449 24.3227 88.3076 24.6107 87.8063 24.824C87.3049 25.0373 86.7556 25.144 86.1583 25.144ZM86.1423 23.896C86.5476 23.896 86.9263 23.8213 87.2783 23.672C87.6303 23.5227 87.9343 23.32 88.1903 23.064C88.4463 22.7973 88.6436 22.488 88.7823 22.136C88.9316 21.784 89.0063 21.4053 89.0063 21C89.0063 20.584 88.9316 20.2 88.7823 19.848C88.6329 19.496 88.4303 19.192 88.1743 18.936C87.9183 18.6693 87.6143 18.4613 87.2623 18.312C86.9209 18.1627 86.5476 18.088 86.1423 18.088C85.7369 18.088 85.3583 18.1627 85.0063 18.312C84.6543 18.4613 84.3503 18.6693 84.0943 18.936C83.8383 19.192 83.6356 19.496 83.4863 19.848C83.3369 20.2 83.2623 20.584 83.2623 21C83.2623 21.416 83.3369 21.8 83.4863 22.152C83.6356 22.504 83.8383 22.808 84.0943 23.064C84.3503 23.32 84.6543 23.5227 85.0063 23.672C85.3583 23.8213 85.7369 23.896 86.1423 23.896ZM94.7798 25.208C93.9798 25.208 93.2758 25.048 92.6678 24.728C92.0704 24.3973 91.6491 23.9547 91.4038 23.4L92.3318 22.728C92.5238 23.1333 92.8491 23.4587 93.3078 23.704C93.7664 23.9493 94.2678 24.072 94.8118 24.072C95.9958 24.072 96.5931 23.656 96.6038 22.824C96.6038 22.6213 96.5398 22.4507 96.4118 22.312C96.2944 22.1627 96.1398 22.0347 95.9478 21.928C95.7558 21.8213 95.5424 21.7307 95.3078 21.656C95.0731 21.5707 94.8491 21.496 94.6358 21.432C94.3584 21.3467 94.0438 21.2507 93.6918 21.144C93.3504 21.0373 93.0304 20.8987 92.7318 20.728C92.4438 20.5467 92.1984 20.3173 91.9958 20.04C91.8038 19.7627 91.7238 19.4 91.7558 18.952C91.7984 18.28 92.0758 17.7573 92.5878 17.384C93.1104 17.0107 93.8251 16.824 94.7318 16.824C95.4678 16.824 96.1078 16.968 96.6518 17.256C97.1958 17.5333 97.5744 17.9227 97.7878 18.424L96.8598 18.984C96.6784 18.6427 96.3958 18.3813 96.0118 18.2C95.6278 18.008 95.1904 17.912 94.6998 17.912C94.1238 17.912 93.7078 18.008 93.4518 18.2C93.2064 18.3813 93.0838 18.664 93.0838 19.048C93.0838 19.24 93.1318 19.4 93.2278 19.528C93.3344 19.656 93.4624 19.7627 93.6118 19.848C93.7718 19.9333 93.9478 20.008 94.1398 20.072C94.3318 20.1253 94.5184 20.1787 94.6998 20.232C95.1158 20.3387 95.5211 20.4667 95.9158 20.616C96.3104 20.7547 96.6624 20.9253 96.9718 21.128C97.2811 21.32 97.5264 21.5547 97.7078 21.832C97.8891 22.1093 97.9744 22.44 97.9638 22.824C97.9424 23.6027 97.6544 24.1947 97.0998 24.6C96.5451 25.0053 95.7718 25.208 94.7798 25.208ZM103.299 25.144C102.702 25.144 102.147 25.0373 101.635 24.824C101.134 24.6107 100.696 24.3227 100.323 23.96C99.9495 23.5867 99.6562 23.144 99.4429 22.632C99.2295 22.12 99.1229 21.5707 99.1229 20.984C99.1229 20.3867 99.2295 19.8373 99.4429 19.336C99.6562 18.8347 99.9495 18.3973 100.323 18.024C100.696 17.6507 101.134 17.3627 101.635 17.16C102.147 16.9467 102.702 16.84 103.299 16.84C103.896 16.84 104.446 16.9467 104.947 17.16C105.448 17.3627 105.886 17.6507 106.259 18.024C106.632 18.3973 106.92 18.8347 107.123 19.336C107.336 19.8373 107.443 20.3867 107.443 20.984C107.443 21.5707 107.336 22.12 107.123 22.632C106.92 23.144 106.632 23.5867 106.259 23.96C105.886 24.3227 105.448 24.6107 104.947 24.824C104.446 25.0373 103.896 25.144 103.299 25.144ZM103.283 23.896C103.688 23.896 104.067 23.8213 104.419 23.672C104.771 23.5227 105.075 23.32 105.331 23.064C105.587 22.7973 105.784 22.488 105.923 22.136C106.072 21.784 106.147 21.4053 106.147 21C106.147 20.584 106.072 20.2 105.923 19.848C105.774 19.496 105.571 19.192 105.315 18.936C105.059 18.6693 104.755 18.4613 104.403 18.312C104.062 18.1627 103.688 18.088 103.283 18.088C102.878 18.088 102.499 18.1627 102.147 18.312C101.795 18.4613 101.491 18.6693 101.235 18.936C100.979 19.192 100.776 19.496 100.627 19.848C100.478 20.2 100.403 20.584 100.403 21C100.403 21.416 100.478 21.8 100.627 22.152C100.776 22.504 100.979 22.808 101.235 23.064C101.491 23.32 101.795 23.5227 102.147 23.672C102.499 23.8213 102.878 23.896 103.283 23.896ZM109.52 17V16.568C109.542 15.6613 109.803 14.968 110.304 14.488C110.806 13.9973 111.515 13.7573 112.432 13.768C112.56 13.768 112.694 13.7733 112.832 13.784C112.982 13.784 113.131 13.7893 113.28 13.8V15.096H112.464C111.494 15.096 110.992 15.5867 110.96 16.568V17H113.264V18.28H110.96V25H109.52V18.28H108.24V17H109.52ZM118.558 25.144C118.036 25.1333 117.577 25.0747 117.182 24.968C116.798 24.8613 116.478 24.6907 116.222 24.456C115.966 24.2213 115.774 23.9173 115.646 23.544C115.518 23.1707 115.454 22.7067 115.454 22.152V18.28H114.11L114.094 17H115.454L115.47 14.456H116.814V17H118.446V18.28H116.814V22.28C116.814 22.8773 116.958 23.288 117.246 23.512C117.545 23.736 117.982 23.8533 118.558 23.864V25.144Z" fill="#465766"/>
<defs>
<clipPath id="clip0_373_4190">
<rect width="24" height="24" fill="white" transform="translate(8 8)"/>
</clipPath>
</defs>
</svg>
