<?xml version="1.0" standalone="no"?>
<!DOCTYPE svg PUBLIC "-//W3C//DTD SVG 1.1//EN" "http://www.w3.org/Graphics/SVG/1.1/DTD/svg11.dtd" >
<svg xmlns="http://www.w3.org/2000/svg" xmlns:xlink="http://www.w3.org/1999/xlink" version="1.1">
<metadata>
Created by FontForge 20201107 at Fri May 16 08:29:05 2025
 By www-data
Bilmond (c) Luminatype Studio  2025. All Rights Reserved
</metadata>
<defs>
<font id="Bilmond-Thin" horiz-adv-x="635" >
  <font-face 
    font-family="Bilmond Thin"
    font-weight="100"
    font-stretch="normal"
    units-per-em="1000"
    panose-1="0 0 0 0 0 0 0 0 0 0"
    ascent="800"
    descent="-200"
    x-height="495"
    cap-height="700"
    bbox="-40 -242 1254 942"
    underline-thickness="50"
    underline-position="-100"
    unicode-range="U+000D-FB04"
  />
<missing-glyph horiz-adv-x="500" 
 />
    <glyph glyph-name=".notdef" horiz-adv-x="500" 
 />
    <glyph glyph-name=".null" horiz-adv-x="0" 
 />
    <glyph glyph-name=".null" horiz-adv-x="0" 
 />
    <glyph glyph-name="uni000D" unicode="&#xd;" horiz-adv-x="250" 
 />
    <glyph glyph-name="space" unicode=" " horiz-adv-x="260" 
 />
    <glyph glyph-name="exclam" unicode="!" horiz-adv-x="269" 
d="M90 200h-30l-3 510h36zM97 0h-43v44h43v-44z" />
    <glyph glyph-name="quotedbl" unicode="&#x22;" horiz-adv-x="194" 
d="M40 700h44l-7 -120h-30zM109 700h44l-7 -120h-30z" />
    <glyph glyph-name="numbersign" unicode="#" horiz-adv-x="708" 
d="M433 228l53 242h-251l-52 -242h250zM633 470h-116l-53 -242h132l-1 -29h-137l-45 -202h-30l44 202h-251l-44 -202h-30l44 202h-115l1 29h121l52 242h-136l2 30h141l44 200h30l-44 -200h251l43 200h31l-43 -200h111z" />
    <glyph glyph-name="dollar" unicode="$" horiz-adv-x="656" 
d="M313 -109v90q-42 1 -84 12t-78 29t-65 41.5t-46 50.5l23 22q14 -24 41 -47t62.5 -40t77.5 -27.5t85 -10.5q120 0 183 43t60 124q-1 37 -23.5 62.5t-58 43.5t-80 30.5t-91 24t-91 25t-79 32t-55.5 45t-21 65.5q0 43 17.5 79.5t49.5 63t76 42.5t97 18v91h30v-90
q80 -2 145.5 -30.5t116.5 -91.5l-21 -22q-18 29 -48.5 50.5t-66 35.5t-73 21t-70.5 7q-47 0 -88 -13t-71 -36.5t-47 -55t-17 -69.5q0 -26 18 -46t48 -35.5t69 -29t81 -25.5q35 -10 81 -21.5t88 -30.5t74 -47.5t39 -73.5q10 -61 -11 -101.5t-60 -65.5t-89 -36t-98 -13v-90
h-30z" />
    <glyph glyph-name="percent" unicode="%" horiz-adv-x="831" 
d="M220 326q-36 0 -66.5 14.5t-52.5 40t-34 61t-12 77.5t12 77.5t34 61t52.5 40t66.5 14.5q37 0 67.5 -14.5t53 -40t35 -61t12.5 -77.5t-12.5 -77.5t-35 -61t-53 -40t-67.5 -14.5zM599 710h35l-391 -710h-35zM219 356q63 0 100.5 45t37.5 119q0 36 -10 66t-28 51t-43.5 33
t-56.5 12q-60 0 -96.5 -44.5t-36.5 -117.5q0 -75 36 -119.5t97 -44.5zM634 0q-36 0 -66.5 14.5t-52.5 40t-34 61t-12 77.5t12 77.5t34 61t52.5 40t66.5 14.5q37 0 67.5 -14.5t53 -40t35 -61t12.5 -77.5t-12.5 -77.5t-35 -61t-53 -40t-67.5 -14.5zM633 30q63 0 100.5 45
t37.5 119q0 36 -10 66t-28 51t-43.5 33t-56.5 12q-60 0 -96.5 -44.5t-36.5 -117.5q0 -75 36 -119.5t97 -44.5z" />
    <glyph glyph-name="ampersand" unicode="&#x26;" horiz-adv-x="684" 
d="M80 177q0 -36 15.5 -65.5t43 -50.5t66.5 -32.5t86 -11.5q66 0 120.5 23t88.5 66l-235 274q-52 -30 -87.5 -55t-57 -48.5t-31 -47.5t-9.5 -52zM172 584q0 -33 29.5 -73.5t68.5 -90.5q66 38 102 82t36 88q0 47 -31 74t-85 27q-55 0 -87 -28.5t-33 -78.5zM593 0l-72 83
q-42 -47 -100 -71.5t-129 -24.5q-54 0 -98.5 14t-76.5 39t-49.5 60t-17.5 77q0 32 10 59.5t33 54t60.5 54t91.5 58.5q-28 33 -48 59.5t-32 47.5t-17.5 39t-5.5 35q0 62 41 99.5t110 37.5q66 0 105.5 -35.5t39.5 -95.5q0 -51 -35 -97t-112 -97l229 -266q28 50 40 94.5
t11 93.5h30q0 -124 -61 -211l77 -88z" />
    <glyph glyph-name="quotesingle" unicode="'" horiz-adv-x="144" 
d="M50 700h44l-7 -120h-30z" />
    <glyph glyph-name="parenleft" unicode="(" horiz-adv-x="207" 
d="M141 -100q-37 45 -61.5 116.5t-37 156.5t-12.5 176.5t12.5 177t37 157.5t61.5 117h35q-39 -42 -64.5 -114t-38.5 -158t-13 -179t13 -179t39 -157.5t65 -113.5h-36z" />
    <glyph glyph-name="parenright" unicode=")" horiz-adv-x="207" 
d="M30 -100q39 42 65 113.5t39 157.5t13 179t-13 179t-38.5 158t-64.5 114h35q37 -45 61.5 -117t37 -157.5t12.5 -177t-12.5 -176.5t-37 -156.5t-61.5 -116.5h-36z" />
    <glyph glyph-name="asterisk" unicode="*" horiz-adv-x="551" 
d="M284 702l-20 -132l107 82l35 -57l-124 -54l126 -47l-35 -58l-107 79l19 -132h-69l20 132l-107 -83l-35 63l124 50l-122 52l33 57l105 -84l-20 132h70z" />
    <glyph glyph-name="plus" unicode="+" horiz-adv-x="572" 
d="M442 333h-150v-150h-30v150h-150v30h150v150h30v-150h150v-30z" />
    <glyph glyph-name="comma" unicode="," horiz-adv-x="123" 
d="M62 22h46l-42 -117h-28z" />
    <glyph glyph-name="hyphen" unicode="-" horiz-adv-x="380" 
d="M40 303h300v-30h-300v30z" />
    <glyph glyph-name="period" unicode="." horiz-adv-x="106" 
d="M31 22h45v-45h-45v45z" />
    <glyph glyph-name="slash" unicode="/" horiz-adv-x="405" 
d="M354 800h30l-333 -900h-30z" />
    <glyph glyph-name="zero" unicode="0" horiz-adv-x="655" 
d="M327 -8q-65 0 -116.5 27.5t-87 75.5t-54.5 113.5t-19 142.5q0 78 18.5 144t53.5 114t87 75t118 27t118 -27t87.5 -75t54 -114t18.5 -144q0 -77 -19 -142.5t-55 -113.5t-87.5 -75.5t-116.5 -27.5zM327 22q58 0 104 24.5t78 68.5t49 104.5t17 131.5q0 72 -16.5 133
t-48 104.5t-77.5 68t-106 24.5q-59 0 -105 -24.5t-77.5 -68t-48 -104.5t-16.5 -133q0 -71 17 -131.5t49 -104.5t77.5 -68.5t103.5 -24.5z" />
    <glyph glyph-name="one" unicode="1" horiz-adv-x="249" 
d="M169 665l-99 -64l-20 24l119 75h30v-700h-30v665z" />
    <glyph glyph-name="two" unicode="2" horiz-adv-x="569" 
d="M51 30q19 18 58.5 50.5t88 73.5t100 88.5t94 95.5t70 94t27.5 84q0 77 -55 120t-152 43q-37 0 -70.5 -8.5t-60.5 -23.5t-46 -36t-27 -46l-28 10q9 29 31 53.5t52.5 42.5t68.5 28t80 10q54 0 98 -13.5t75 -38t47.5 -60t16.5 -79.5q0 -43 -26 -91t-67 -96t-90 -94.5
t-96 -86.5t-86 -71t-58 -49h421l-1 -30h-465v30z" />
    <glyph glyph-name="three" unicode="3" horiz-adv-x="564" 
d="M483 218q0 84 -56 131.5t-149 47.5q-13 0 -26 -1t-27 -3v28q10 10 29 29.5t42.5 43.5t49.5 50.5t50 51t43.5 44t29.5 30.5h-384v30h416v-39l-227 -234q54 0 98.5 -14.5t75.5 -42t48 -66.5t17 -88q0 -51 -17 -93t-48.5 -72t-75.5 -46.5t-97 -16.5q-52 0 -93.5 15.5
t-70.5 44.5t-45 69.5t-16 91.5h30q0 -90 51.5 -140t143.5 -50q97 0 152.5 53.5t55.5 145.5z" />
    <glyph glyph-name="four" unicode="4" horiz-adv-x="569" 
d="M87 198h320v454zM519 168h-82v-168h-30v168h-357v30l354 502h33v-502h82v-30z" />
    <glyph glyph-name="five" unicode="5" horiz-adv-x="564" 
d="M275 -12q-52 0 -93.5 15.5t-70.5 44.5t-45 69.5t-16 91.5h30q0 -90 52 -140.5t143 -50.5q47 0 85 14.5t65.5 41.5t42.5 65t15 84t-15 83.5t-43 64.5t-66 42t-85 15q-52 0 -101 -21.5t-89 -61.5l-18 9l75 346h334v-30h-309l-56 -264q32 26 78.5 39t88.5 13q52 0 95 -17.5
t74.5 -49t49 -74.5t17.5 -95q0 -51 -17 -94t-48.5 -74t-75.5 -48.5t-97 -17.5z" />
    <glyph glyph-name="six" unicode="6" horiz-adv-x="571" 
d="M286 447q-45 0 -83 -15.5t-65 -44t-42.5 -67.5t-15.5 -86q0 -48 16 -87t43.5 -66.5t65.5 -43t82 -15.5t81 15.5t64.5 43t43 66.5t15.5 87q0 44 -16 83t-44 68t-65.5 45.5t-79.5 16.5zM362 700l-163 -237q41 16 85 16q47 0 89.5 -18.5t75 -51t52 -77.5t19.5 -98t-18 -97.5
t-49.5 -76.5t-74 -50t-92.5 -18t-93.5 18t-75 50t-49.5 76.5t-18 97.5q0 32 7 60t20.5 55t34 55.5t47.5 61.5q42 51 81.5 109.5t84.5 124.5h37z" />
    <glyph glyph-name="seven" unicode="7" horiz-adv-x="498" 
d="M412 670h-372v30h407v-25l-307 -675h-33z" />
    <glyph glyph-name="eight" unicode="8" horiz-adv-x="583" 
d="M80 187q2 -78 58.5 -123t154.5 -45q48 0 86.5 12.5t65.5 35t42 54t15 70.5q0 77 -56.5 121t-154.5 44q-48 0 -87.5 -12t-67.5 -34.5t-42.5 -53.5t-13.5 -69zM105 536q0 -69 50 -109.5t137 -40.5t135.5 39.5t48.5 108.5q0 68 -49.5 107.5t-134.5 39.5q-42 0 -76.5 -10.5
t-59 -29.5t-38 -45.5t-13.5 -59.5zM50 187q0 66 36.5 114t103.5 71q-56 22 -85.5 64t-29.5 98q0 40 16 72.5t44.5 56t68.5 36.5t88 13t87.5 -13t68 -36.5t44 -56t15.5 -72.5q0 -57 -30 -99.5t-85 -62.5q66 -20 103 -68.5t37 -117.5q0 -43 -17.5 -79.5t-49.5 -63t-76 -41
t-97 -14.5q-55 0 -99.5 14t-76 40.5t-49 63t-17.5 81.5z" />
    <glyph glyph-name="nine" unicode="9" horiz-adv-x="551" 
d="M274 253q45 0 83 15.5t65 44t42.5 67.5t15.5 86q0 46 -15.5 84.5t-43 67t-65 44.5t-82.5 16q-44 0 -81.5 -16t-64.5 -44t-42.5 -67t-15.5 -85t15.5 -85t42.5 -67.5t64.5 -44.5t81.5 -16zM198 0l163 238q-22 -9 -44 -12t-44 -3q-47 0 -89 17.5t-74 50t-51 77t-19 98.5
q0 53 18 97.5t49.5 76.5t74.5 50t93 18q51 0 94 -18t74.5 -50.5t49 -76.5t17.5 -97q0 -43 -8.5 -73.5t-23 -55.5t-34.5 -49t-43 -54q-38 -51 -79.5 -109.5t-86.5 -124.5h-37z" />
    <glyph glyph-name="colon" unicode=":" horiz-adv-x="128" 
d="M41 32h45v-45h-45v45zM42 455h45v-45h-45v45z" />
    <glyph glyph-name="semicolon" unicode=";" horiz-adv-x="268" 
d="M81 455h45v-45h-45v45zM79 22h46l-42 -117h-28z" />
    <glyph glyph-name="less" unicode="&#x3c;" horiz-adv-x="560" 
d="M30 418l500 200v-32l-440 -176l440 -176v-32l-500 200v16z" />
    <glyph glyph-name="equal" unicode="=" horiz-adv-x="572" 
d="M78 485h400v-30h-400v30zM78 355h400v-30h-400v30z" />
    <glyph glyph-name="greater" unicode="&#x3e;" horiz-adv-x="560" 
d="M530 418v-16l-500 -200v32l440 176l-440 176v32z" />
    <glyph glyph-name="question" unicode="?" horiz-adv-x="434" 
d="M184 134q0 35 3.5 60t12.5 46t25 41t41 44q27 26 52 47.5t43.5 43t30 45.5t11.5 55q0 35 -13 65t-36.5 52t-56.5 34.5t-74 12.5q-25 0 -50.5 -6t-48 -17t-40.5 -28t-28 -38l-27 14q13 24 34 43.5t47 33t55.5 21t57.5 7.5q44 0 82 -14t66.5 -39.5t45 -61t16.5 -79.5
q0 -37 -13 -65.5t-34 -53t-47.5 -47t-53.5 -48.5q-23 -22 -36.5 -38.5t-21 -34.5t-10 -40t-2.5 -55h-31zM221 0h-43v44h43v-44z" />
    <glyph glyph-name="at" unicode="@" horiz-adv-x="899" 
d="M405 190q30 0 56.5 11t45.5 30t30 45t11 56q0 29 -11.5 54.5t-31 45t-45.5 30.5t-55 11q-32 0 -57.5 -11t-43 -30.5t-27 -45t-9.5 -54.5q0 -31 10 -57.5t28.5 -45t43.5 -29t55 -10.5zM405 160q-36 0 -67 13t-53 35.5t-34.5 54.5t-12.5 69t12 68.5t34 54t53 35.5t68 13
q48 0 85 -21.5t58 -57.5v74h30v-239q0 -33 19.5 -56t47.5 -23q32 0 50 19.5t26.5 47.5t10 58t1.5 52q-1 69 -25.5 127t-67.5 99.5t-101.5 64.5t-127.5 23q-71 0 -130.5 -25t-103 -69t-68 -104t-26.5 -130q-1 -69 21.5 -130.5t64.5 -108t100.5 -74.5t128.5 -30h12q20 0 40 2
t40 6l1 -30q-39 -9 -82 -9q-75 0 -139.5 28t-112.5 76.5t-75.5 115t-28.5 142.5q-1 77 25.5 144.5t74 117.5t113 79t143.5 29q77 0 142.5 -26t112.5 -73t73.5 -112t26.5 -143q-1 -97 -30.5 -147t-87.5 -50q-18 0 -34.5 7t-29.5 19t-22 28.5t-11 34.5q-22 -38 -59 -58.5
t-85 -20.5z" />
    <glyph glyph-name="A" unicode="A" horiz-adv-x="615" 
d="M128 208h359l-179 457zM16 0l274 710h35l275 -710h-31l-70 178h-383l-69 -178h-31z" />
    <glyph glyph-name="B" unicode="B" horiz-adv-x="655" 
d="M416 26q45 0 75.5 14t49 36.5t26 50t7.5 55.5q0 29 -11 55.5t-31.5 47.5t-49.5 33.5t-66 12.5h-296v-305h296zM395 361q37 0 66.5 13t50 34.5t31.5 49t11 56.5t-8 56.5t-26.5 49.5t-49 35.5t-75.5 13.5h-275v-308h275zM90 -4v703h308q47 0 82 -14.5t58 -39.5t34.5 -59
t11.5 -72q0 -52 -27 -96t-69 -69q52 -20 84.5 -64.5t32.5 -102.5q0 -39 -11.5 -72.5t-34.5 -59t-57.5 -40t-81.5 -14.5h-330z" />
    <glyph glyph-name="C" unicode="C" horiz-adv-x="780" 
d="M739 212q-19 -50 -51.5 -91.5t-75.5 -71t-94.5 -45.5t-109.5 -16q-76 0 -141.5 28t-113.5 76.5t-75.5 115t-27.5 144.5q0 77 27.5 142.5t75.5 114t113.5 76t141.5 27.5q106 0 188 -51t127 -136l-25 -15q-19 39 -48 71t-66 55t-81.5 36t-94.5 13q-74 0 -134.5 -26.5
t-103 -72t-66 -106t-23.5 -127.5q0 -69 23.5 -130.5t66 -107.5t103 -73t134.5 -27q55 0 102.5 15.5t86.5 43t68 65.5t46 83z" />
    <glyph glyph-name="D" unicode="D" horiz-adv-x="716" 
d="M319 700q78 0 141.5 -27t109.5 -74.5t71 -111t25 -137.5q0 -73 -25 -137t-71 -111.5t-109.5 -74.5t-141.5 -27h-228v700h228zM316 670h-195v-639h195q82 0 142.5 28.5t100 74.5t58.5 103.5t19 115.5t-21.5 114.5t-62 101.5t-100 73t-136.5 28z" />
    <glyph glyph-name="E" unicode="E" horiz-adv-x="603" 
d="M91 700h446v-30h-416v-305h401v-30h-401v-305h416v-30h-446v700z" />
    <glyph glyph-name="F" unicode="F" horiz-adv-x="565" 
d="M91 700h423v-30h-393v-285h378v-30h-378v-355h-30v700z" />
    <glyph glyph-name="G" unicode="G" horiz-adv-x="815" 
d="M690 524q-41 72 -113 116.5t-169 44.5q-74 0 -134.5 -26.5t-103 -72t-66 -106t-23.5 -127.5q0 -69 23.5 -130.5t66 -107.5t103 -73t134.5 -27q65 0 123 24t102 66.5t71 101t30 128.5h-430v30h460v-30q-3 -75 -31.5 -138.5t-76 -110t-111 -72.5t-137.5 -26
q-76 0 -141.5 28t-113.5 76.5t-75.5 115t-27.5 144.5q0 77 27.5 142.5t75.5 114t113.5 76t141.5 27.5q101 0 181 -47t126 -125z" />
    <glyph glyph-name="H" unicode="H" horiz-adv-x="688" 
d="M567 700h30v-700h-30v335h-446v-335h-30v700h30v-335h446v335z" />
    <glyph glyph-name="I" unicode="I" horiz-adv-x="211" 
d="M91 700h30v-700h-30v700z" />
    <glyph glyph-name="J" unicode="J" horiz-adv-x="464" 
d="M25 217h30v-22q0 -82 43.5 -128.5t119.5 -46.5q146 0 146 175v515h30v-515q0 -100 -45.5 -152.5t-131.5 -52.5q-44 0 -79.5 14.5t-60.5 41t-38.5 64.5t-13.5 85v22z" />
    <glyph glyph-name="K" unicode="K" horiz-adv-x="527" 
d="M120 701v-324l286 322h40l-303 -342l354 -357h-43l-334 337v-338h-30v702h30z" />
    <glyph glyph-name="L" unicode="L" horiz-adv-x="572" 
d="M91 700h30v-670h370v-30h-400v700z" />
    <glyph glyph-name="M" unicode="M" horiz-adv-x="747" 
d="M357 103l-237 551v-655h-30v702h43l241 -560l240 560h43v-702h-30v655l-237 -551h-33z" />
    <glyph glyph-name="N" unicode="N" horiz-adv-x="694" 
d="M90 701h24l459 -634v634h30v-702h-18l-465 642v-642h-30v702z" />
    <glyph glyph-name="O" unicode="O" horiz-adv-x="815" 
d="M408 -12q-76 0 -141.5 28t-113.5 76.5t-75.5 115t-27.5 144.5q0 77 27.5 142.5t75.5 114t113.5 76t141.5 27.5t141.5 -27.5t113.5 -76t75 -114t27 -142.5q0 -78 -27 -144.5t-75 -115t-113.5 -76.5t-141.5 -28zM408 15q74 0 134 27t102.5 73t66 107.5t23.5 130.5
q0 67 -23.5 127.5t-66 106t-102.5 72t-134 26.5t-134.5 -26.5t-103 -72t-66 -106t-23.5 -127.5q0 -69 23.5 -130.5t66 -107.5t103 -73t134.5 -27z" />
    <glyph glyph-name="P" unicode="P" horiz-adv-x="584" 
d="M319 263q91 0 142.5 54.5t51.5 149.5q0 94 -51.5 148.5t-142.5 54.5h-199v-407h199zM90 0v700h219q116 0 175 -63t59 -170q0 -56 -16 -99.5t-47 -73.5t-74 -45.5t-97 -15.5h-189v-233h-30z" />
    <glyph glyph-name="Q" unicode="Q" horiz-adv-x="820" 
d="M585 65q71 45 110 121t39 167q0 67 -23.5 127.5t-66 106t-102.5 72t-134 26.5t-134.5 -26.5t-103 -72t-66 -106t-23.5 -127.5q0 -69 23.5 -130.5t66 -107.5t103 -73t134.5 -27q42 0 80 9t71 26l-113 178l27 14zM659 -107l-85 134q-37 -19 -79 -29t-87 -10
q-76 0 -141.5 28t-113.5 76.5t-75.5 115t-27.5 144.5q0 77 27.5 142.5t75.5 114t113.5 76t141.5 27.5t141.5 -27.5t113.5 -76t75 -114t27 -142.5q0 -101 -45 -181.5t-120 -128.5l84 -132z" />
    <glyph glyph-name="R" unicode="R" 
d="M351 307q113 0 163.5 42t50.5 137t-51.5 139.5t-162.5 44.5h-231v-363h231zM90 0v700h261q244 0 244 -214q0 -159 -133 -199l129 -287h-33l-124 277h-314v-277h-30z" />
    <glyph glyph-name="S" unicode="S" horiz-adv-x="626" 
d="M552 587q-22 26 -49.5 43.5t-59 28.5t-65 16t-66.5 5q-44 0 -82.5 -11.5t-68.5 -31.5t-48.5 -48.5t-23.5 -62.5q-4 -29 4.5 -51t34.5 -40t72 -34.5t116 -34.5q68 -17 115.5 -35.5t78.5 -38.5t46 -43.5t19 -51.5q4 -25 1 -50.5t-12 -48t-23.5 -41t-32.5 -30.5
q-68 -46 -201 -46q-43 0 -86.5 10.5t-81 28.5t-67.5 42.5t-47 51.5l27 18q15 -27 42.5 -49t62 -38t75 -25t82.5 -9q122 0 178 40.5t53 126.5q-1 54 -54.5 90.5t-175.5 67.5q-46 12 -91 24.5t-81 30t-59 43t-26 62.5q-4 45 14.5 84t54 68t85 45.5t107.5 16.5q31 0 68 -6
t72.5 -18.5t66 -32t48.5 -47.5z" />
    <glyph glyph-name="T" unicode="T" horiz-adv-x="521" 
d="M245 670h-235v30h500v-30h-235v-670h-30v670z" />
    <glyph glyph-name="U" unicode="U" horiz-adv-x="692" 
d="M622 700v-405q0 -141 -72 -218t-204 -77t-204 77t-72 218v405h30v-405q0 -129 63.5 -197t182.5 -68t182.5 68t63.5 197v405h30z" />
    <glyph glyph-name="V" unicode="V" horiz-adv-x="553" 
d="M-5 700h31l256 -650l226 650h30l-241 -700h-30z" />
    <glyph glyph-name="W" unicode="W" horiz-adv-x="836" 
d="M424 700l240 -648l126 648h31l-136 -700h-33l-234 628l-234 -628h-33l-136 700h31l126 -648l241 648h11z" />
    <glyph glyph-name="X" unicode="X" horiz-adv-x="610" 
d="M280 361l-258 339h40l237 -312l229 312h40l-248 -339l275 -361h-40l-255 335l-245 -335h-40z" />
    <glyph glyph-name="Y" unicode="Y" horiz-adv-x="504" 
d="M239 285l-224 415h34l203 -375l203 375h34l-220 -407v-293h-30v285z" />
    <glyph glyph-name="Z" unicode="Z" horiz-adv-x="551" 
d="M510 701v-24l-429 -647h422l-1 -30h-461v24l429 647h-411v30h451z" />
    <glyph glyph-name="bracketleft" unicode="[" horiz-adv-x="314" 
d="M111 770v-840h143v-30h-173v900h173v-30h-143z" />
    <glyph glyph-name="backslash" unicode="\" horiz-adv-x="405" 
d="M51 800l333 -900h-30l-333 900h30z" />
    <glyph glyph-name="bracketright" unicode="]" horiz-adv-x="314" 
d="M81 800h173v-900h-173v30h143v840h-143v30z" />
    <glyph glyph-name="asciicircum" unicode="^" horiz-adv-x="364" 
d="M197 650l137 -302h-33l-119 258l-119 -258h-33l137 302h30z" />
    <glyph glyph-name="underscore" unicode="_" horiz-adv-x="580" 
d="M40 -30h500v-30h-500v30z" />
    <glyph glyph-name="grave" unicode="`" horiz-adv-x="161" 
d="M41 709h40l40 -88h-35z" />
    <glyph glyph-name="a" unicode="a" 
d="M303 16q49 0 91 18t73.5 49.5t49.5 74.5t18 92t-18 92t-49.5 74.5t-73.5 49.5t-91 18t-91.5 -18t-74 -49.5t-49.5 -74.5t-18 -92t18 -92t49.5 -74.5t74 -49.5t91.5 -18zM535 123q-36 -64 -95.5 -99t-140.5 -35q-53 0 -100 20t-82.5 55t-56 83t-20.5 103t20 102.5t55.5 83
t82.5 55.5t101 20q81 0 142.5 -35.5t93.5 -101.5v126h30v-500h-30v123z" />
    <glyph glyph-name="b" unicode="b" 
d="M332 16q49 0 91.5 18t74 49.5t49.5 74.5t18 92t-18 92t-49.5 74.5t-74 49.5t-91.5 18t-91.5 -18t-73.5 -49.5t-49 -74.5t-18 -92t18 -92t49.5 -74.5t73.5 -49.5t91 -18zM100 0h-30v700h30v-326q32 66 93.5 101.5t142.5 35.5q54 0 101 -20t82.5 -55.5t55.5 -83t20 -102.5
t-20.5 -103t-55.5 -83t-82.5 -55t-100.5 -20q-81 0 -140.5 35t-95.5 99v-123z" />
    <glyph glyph-name="c" unicode="c" horiz-adv-x="579" 
d="M539 144q-31 -71 -94.5 -112t-143.5 -41q-56 0 -103.5 20t-82.5 54.5t-55 82.5t-20 103q0 56 20 103t55 82t82.5 54.5t103.5 19.5q74 0 132 -33.5t92 -90.5l-26 -16q-30 53 -83 81.5t-120 28.5q-48 0 -89 -17.5t-71.5 -48.5t-48 -73t-17.5 -91t17.5 -90.5t48 -72t73 -48
t92.5 -18.5q35 0 67.5 9.5t60 27t49 42.5t33.5 55z" />
    <glyph glyph-name="d" unicode="d" 
d="M303 16q49 0 91 18t73.5 49.5t49.5 74.5t18 92t-18 92t-49 74.5t-73.5 49.5t-91.5 18t-91.5 -18t-74 -49.5t-49.5 -74.5t-18 -92t18 -92t49.5 -74.5t74 -49.5t91.5 -18zM535 123q-36 -64 -95.5 -99t-140.5 -35q-53 0 -100 20t-82.5 55t-56 83t-20.5 103t20 102.5t55.5 83
t82.5 55.5t101 20q81 0 142.5 -35.5t93.5 -101.5v326h30v-700h-30v123z" />
    <glyph glyph-name="e" unicode="e" horiz-adv-x="555" 
d="M484 263q-3 49 -19 89t-43 68.5t-63 44t-78 15.5q-92 0 -148.5 -58t-62.5 -159h414zM281 510q59 0 103 -23.5t73 -62t43.5 -88.5t14.5 -103h-445q2 -46 18.5 -85t45 -67t67.5 -43.5t86 -15.5q60 0 106 24.5t74 67.5l25 -16q-32 -49 -84.5 -77.5t-120.5 -28.5
q-55 0 -100.5 19t-78 53t-50.5 81t-18 102q0 59 17 107.5t48.5 83t76 53.5t99.5 19z" />
    <glyph glyph-name="f" unicode="f" horiz-adv-x="317" 
d="M112 500v38q0 34 11 64t29.5 51.5t44 34t55.5 12.5h59v-30h-59q-24 0 -44 -10t-34.5 -28t-23 -42t-8.5 -52v-38h168v-30h-168v-470h-30v470h-91v30h91z" />
    <glyph glyph-name="g" unicode="g" horiz-adv-x="645" 
d="M575 20q0 -51 -19 -93.5t-54 -73t-83.5 -47t-107.5 -16.5q-141 0 -216 102l23 19q32 -45 81.5 -68.5t110.5 -23.5q53 0 96 14.5t74 41t48 63.5t17 82v103q-37 -66 -97 -100t-139 -34q-53 0 -100 20.5t-82.5 56t-56 83t-20.5 101.5q0 55 20 102.5t55.5 83t82.5 55.5
t101 20q81 0 142.5 -35.5t93.5 -101.5v126h30v-480zM313 19q49 0 91 17.5t73.5 48.5t49.5 73.5t18 91.5t-18 91.5t-49 73.5t-73.5 48.5t-91.5 17.5t-91.5 -18t-74 -49t-49.5 -73t-18 -91q0 -48 18 -90.5t49.5 -73.5t74 -49t91.5 -18z" />
    <glyph glyph-name="h" unicode="h" horiz-adv-x="559" 
d="M285 507q102 0 153 -57.5t51 -157.5v-292h-30v287q0 88 -40.5 138t-129.5 52q-39 0 -73.5 -12.5t-60 -34.5t-40 -52t-14.5 -65v-313h-30v700h30v-291q26 46 74.5 72t109.5 26z" />
    <glyph glyph-name="i" unicode="i" horiz-adv-x="171" 
d="M70 499h30v-500h-30v500zM70 700h30v-30h-30v30z" />
    <glyph glyph-name="j" unicode="j" horiz-adv-x="218" 
d="M0 -102q118 3 118 101v501h30v-500q0 -128 -148 -132v30zM118 700h30v-30h-30v30z" />
    <glyph glyph-name="k" unicode="k" horiz-adv-x="433" 
d="M70 700h30v-437l242 237h42l-249 -245l253 -255h-42l-246 243v-244h-30v701z" />
    <glyph glyph-name="l" unicode="l" horiz-adv-x="171" 
d="M71 700h30v-700h-30v700z" />
    <glyph glyph-name="m" unicode="m" horiz-adv-x="947" 
d="M284 507q66 0 118 -29.5t73 -95.5q21 60 72.5 92.5t125.5 32.5q101 0 152 -58t51 -157v-292h-30v287q0 44 -10 79.5t-31 60t-53 37.5t-76 13q-91 -1 -139.5 -50t-48.5 -140v-287h-30v287q0 94 -43.5 142.5t-126.5 47.5q-88 -1 -138 -51.5t-50 -138.5v-287h-30v500h30v-91
q26 46 74.5 72t109.5 26z" />
    <glyph glyph-name="n" unicode="n" horiz-adv-x="559" 
d="M285 507q102 0 153 -57.5t51 -157.5v-292h-30v287q0 88 -40.5 138t-129.5 52q-39 0 -73.5 -12.5t-60 -34.5t-40 -52t-14.5 -65v-313h-30v500h30v-91q26 46 74.5 72t109.5 26z" />
    <glyph glyph-name="o" unicode="o" horiz-adv-x="600" 
d="M301 -9q-56 0 -103.5 20t-82.5 54.5t-55 82.5t-20 103q0 56 20 103t55 82t82.5 54.5t103.5 19.5t103 -19.5t82 -54.5t54.5 -82t19.5 -103q0 -55 -19.5 -103t-54.5 -82.5t-82 -54.5t-103 -20zM301 18q49 0 91 18t72.5 49t48 73.5t17.5 91.5q0 50 -17.5 92.5t-48.5 73.5
t-73 49t-90 18q-49 0 -91.5 -18t-73.5 -49t-48.5 -73.5t-17.5 -92.5q0 -49 17.5 -91.5t48.5 -74t73.5 -49t91.5 -17.5z" />
    <glyph glyph-name="p" unicode="p" 
d="M332 16q49 0 91.5 18t74 49.5t49.5 74.5t18 92t-18 92t-49.5 74.5t-74 49.5t-91.5 18t-91.5 -18t-73.5 -49.5t-49 -74.5t-18 -92t18 -92t49.5 -74.5t73.5 -49.5t91 -18zM100 -200h-30v700h30v-126q32 66 93.5 101.5t142.5 35.5q54 0 101 -20t82.5 -55.5t55.5 -83
t20 -102.5t-20.5 -103t-55.5 -83t-82.5 -55t-100.5 -20q-81 0 -140.5 35t-95.5 99v-323z" />
    <glyph glyph-name="q" unicode="q" 
d="M303 16q49 0 91 18t73.5 49.5t49.5 74.5t18 92t-18 92t-49 74.5t-73.5 49.5t-91.5 18t-91.5 -18t-74 -49.5t-49.5 -74.5t-18 -92t18 -92t49.5 -74.5t74 -49.5t91.5 -18zM535 123q-36 -64 -95.5 -99t-140.5 -35q-53 0 -100 20t-82.5 55t-56 83t-20.5 103t20 102.5t55.5 83
t82.5 55.5t101 20q81 0 142.5 -35.5t93.5 -101.5v126h30v-700h-30v323z" />
    <glyph glyph-name="r" unicode="r" horiz-adv-x="347" 
d="M317 475q-9 2 -18 2h-17q-41 0 -74.5 -13t-57 -36.5t-36.5 -55.5t-13 -71v-301h-30v500h30v-93q25 50 73.5 75.5t106.5 25.5h17.5t17.5 -2z" />
    <glyph glyph-name="s" unicode="s" horiz-adv-x="472" 
d="M243 -11q-78 0 -130.5 30t-72.5 84l27 12q17 -46 64.5 -72.5t112.5 -26.5q76 0 117 31t41 89q0 30 -19 49.5t-46 31.5t-55.5 19t-48.5 12q-19 5 -48 11.5t-55 20.5t-45 37t-19 61q0 65 44.5 99.5t128.5 34.5q66 0 111.5 -25t62.5 -70l-27 -14q-18 41 -53.5 60t-94.5 19
q-75 0 -108.5 -26t-33.5 -77q0 -27 16 -44.5t39 -29t48.5 -18t45.5 -11.5q19 -5 50.5 -12t62 -22t52.5 -40t22 -65q0 -72 -48 -110t-141 -38z" />
    <glyph glyph-name="t" unicode="t" horiz-adv-x="363" 
d="M303 -8q-158 6 -158 143v335h-84v30h84l1 159h29v-159h102v-30h-102v-332q0 -57 33.5 -86.5t94.5 -29.5v-30z" />
    <glyph glyph-name="u" unicode="u" horiz-adv-x="539" 
d="M265 -7q-51 0 -88 15.5t-60.5 43.5t-34.5 68t-11 88v292h30v-287q0 -97 39 -142.5t121 -47.5q38 0 70.5 12t56.5 34t37.5 52t13.5 66v313h30v-500h-30v91q-25 -45 -69.5 -71.5t-104.5 -26.5z" />
    <glyph glyph-name="v" unicode="v" horiz-adv-x="512" 
d="M59 500l196 -466l197 466h30l-207 -500h-38l-207 500h29z" />
    <glyph glyph-name="w" unicode="w" horiz-adv-x="736" 
d="M706 495l-168 -495h-31l-137 415l-138 -415h-32l-170 495h30l156 -447l150 447h10l147 -445l152 445h31z" />
    <glyph glyph-name="x" unicode="x" horiz-adv-x="457" 
d="M210 250l-179 250h36l162 -224l160 224h37l-179 -250l179 -250h-36l-161 224l-162 -224h-36z" />
    <glyph glyph-name="y" unicode="y" horiz-adv-x="513" 
d="M185 -200l75 200l-230 500h33l213 -462l175 462h32l-265 -700h-33z" />
    <glyph glyph-name="z" unicode="z" horiz-adv-x="560" 
d="M470 500v-29l-358 -441h378v-30h-417v30l357 440h-360v30h400z" />
    <glyph glyph-name="braceleft" unicode="{" horiz-adv-x="380" 
d="M99 333v36q36 2 49.5 25t13.5 81v187q0 164 146 148v-29q-61 7 -88.5 -20.5t-27.5 -98.5v-187q0 -32 -2.5 -53.5t-9.5 -36t-18.5 -22.5t-28.5 -12q17 -4 28.5 -12t18.5 -22t9.5 -36t2.5 -54v-187q0 -72 26.5 -99.5t89.5 -19.5v-29q-75 -8 -110.5 27.5t-35.5 120.5v187
q0 57 -14 80.5t-49 25.5z" />
    <glyph glyph-name="bar" unicode="|" horiz-adv-x="311" 
d="M141 761h30v-1002h-30v1002z" />
    <glyph glyph-name="braceright" unicode="}" horiz-adv-x="319" 
d="M259 333q-18 -1 -30 -7t-19.5 -18t-10.5 -32t-3 -49v-187q0 -85 -35.5 -120.5t-110.5 -27.5v29q63 -8 89.5 19.5t26.5 99.5v187q0 32 3 54t9.5 36t18 22t28.5 12q-17 4 -28.5 12t-18 22.5t-9.5 36t-3 53.5v187q0 70 -27.5 98t-88.5 21v29q75 8 110.5 -27.5t35.5 -120.5
v-187q0 -59 13 -81.5t50 -24.5v-36z" />
    <glyph glyph-name="asciitilde" unicode="~" horiz-adv-x="292" 
d="M20 329q2 33 21.5 54.5t48.5 21.5q24 0 38 -9t24.5 -20.5t21 -20.5t27.5 -9q39 0 41 47h29q-3 -77 -70 -77q-22 0 -36 9t-25 20.5t-22 20.5t-27 9q-17 0 -28.5 -12.5t-12.5 -33.5h-30z" />
    <glyph glyph-name="exclamdown" unicode="&#xa1;" horiz-adv-x="269" 
d="M57 -88l3 510h30l3 -510h-36zM54 579v43h43v-43h-43z" />
    <glyph glyph-name="cent" unicode="&#xa2;" horiz-adv-x="599" 
d="M549 144q-30 -70 -93 -111t-141 -42v-100h-30v101q-51 5 -94 26.5t-74.5 56t-49 79.5t-17.5 97t17.5 97t49 79t74.5 55.5t94 26.5v101h30v-100q72 -1 129.5 -34t90.5 -90l-26 -16q-14 25 -36 45.5t-48.5 34.5t-56.5 22t-62 8q-48 0 -89.5 -18t-71.5 -49t-47.5 -73
t-17.5 -90t18 -89.5t49.5 -72.5t73.5 -48.5t90 -18.5q35 0 67.5 9.5t60.5 27.5t49 42.5t33 54.5z" />
    <glyph glyph-name="sterling" unicode="&#xa3;" horiz-adv-x="439" 
d="M383 610q-34 70 -126 70q-72 0 -109 -44.5t-37 -130.5v-154h187v-30h-187v-195q0 -35 -7 -61t-21 -35h326v-30h-378v30q16 0 25.5 11t15 26t7.5 31.5t2 27.5v195h-50v30h50v154q0 99 45.5 152t131.5 53q106 0 151 -84z" />
    <glyph glyph-name="currency" unicode="&#xa4;" horiz-adv-x="603" 
d="M299 531q-37 0 -70.5 -14.5t-58.5 -39t-39.5 -57.5t-14.5 -70t14.5 -70t39.5 -57.5t58.5 -39t70.5 -14.5q38 0 71 14.5t58 39t39.5 57.5t14.5 70t-14.5 70t-39.5 57.5t-58 39t-71 14.5zM299 139q-40 0 -75 13.5t-63 37.5l-69 -69l-21 21l68 69q-25 28 -39 63.5t-14 75.5
q0 41 14.5 77t40.5 64l-70 71l21 21l71 -71q28 23 63 36t73 13q39 0 74.5 -14t64.5 -38l73 74l22 -21l-74 -74q25 -28 39 -63t14 -75q0 -39 -13.5 -73.5t-37.5 -62.5l72 -72l-22 -21l-71 71q-29 -25 -64.5 -39t-76.5 -14z" />
    <glyph glyph-name="yen" unicode="&#xa5;" horiz-adv-x="514" 
d="M97 315h131l-208 385h34l203 -375l203 375h34l-208 -385h121v-30h-133v-49h133v-30h-133v-206h-30v206h-147v30h147v49h-147v30z" />
    <glyph glyph-name="brokenbar" unicode="&#xa6;" horiz-adv-x="191" 
d="M81 760h30v-381h-30v381zM81 140h30v-381h-30v381z" />
    <glyph glyph-name="section" unicode="&#xa7;" horiz-adv-x="540" 
d="M61 90l25 19q15 -26 36.5 -43.5t46 -28t52.5 -14.5t56 -4q37 0 68.5 8.5t54.5 24.5t36 39t13 52q0 20 -12.5 33t-33.5 22t-49 15t-58 11q-40 7 -82 15.5t-75.5 23.5t-55.5 39.5t-22 64.5q0 27 15 52t42 45q-26 16 -41 38.5t-16 55.5q0 27 15.5 53t43.5 45.5t66.5 31.5
t84.5 12q70 0 123.5 -25.5t85.5 -75.5l-25 -19q-15 26 -36 43t-46 27.5t-52.5 15t-56.5 4.5q-37 0 -69 -9.5t-54.5 -25.5t-35.5 -36t-13 -41q0 -31 18 -50t46.5 -30.5t65.5 -18.5t74 -13q35 -6 68 -13.5t58.5 -19.5t41 -31t15.5 -48q0 -36 -15 -64t-41 -48q25 -12 40 -31
t16 -48q0 -36 -15.5 -65t-43 -48.5t-66.5 -30t-85 -10.5q-70 0 -123 25.5t-85 75.5zM148 449q-26 -16 -41 -37.5t-15 -44.5q0 -30 18 -49t46.5 -31t65.5 -19t74 -13q24 -4 47.5 -8.5t44.5 -11.5q29 16 45 41t16 58q0 20 -12.5 33t-33.5 22t-49 15t-58 11q-38 7 -76.5 14
t-71.5 20z" />
    <glyph glyph-name="dieresis" unicode="&#xa8;" horiz-adv-x="307" 
d="M45 663h40v-40h-40v40zM205 663h40v-40h-40v40z" />
    <glyph glyph-name="copyright" unicode="&#xa9;" horiz-adv-x="600" 
d="M80 350q0 -45 17.5 -85t47.5 -70t70 -47.5t85 -17.5t85 17.5t70 47.5t47.5 70t17.5 85t-17.5 85t-47.5 70t-70 47.5t-85 17.5t-85 -17.5t-70 -47.5t-47.5 -70t-17.5 -85zM149 348q0 32 12 59.5t32.5 48t48.5 32.5t59 12q39 0 72.5 -19.5t53.5 -48.5l-25 -17
q-17 21 -42.5 36.5t-56.5 15.5q-24 0 -46 -9.5t-38.5 -25.5t-26.5 -38t-10 -46q0 -25 9.5 -46.5t26 -38t38 -26t45.5 -9.5q30 0 54 15t42 34l23 -23q-20 -27 -51 -43t-68 -16q-31 0 -59 12t-48.5 32.5t-32.5 48.5t-12 60zM50 350q0 52 19.5 97.5t53.5 79.5t79.5 53.5
t97.5 19.5t97.5 -19.5t79.5 -53.5t53.5 -79.5t19.5 -97.5t-19.5 -97.5t-53.5 -79.5t-79.5 -53.5t-97.5 -19.5t-97.5 19.5t-79.5 53.5t-53.5 79.5t-19.5 97.5z" />
    <glyph glyph-name="ordfeminine" unicode="&#xaa;" horiz-adv-x="489" 
d="M245 352q35 0 64.5 13t52 35t35 52.5t12.5 64.5q0 35 -12.5 65t-35 52.5t-52 35t-64.5 12.5q-34 0 -64 -12.5t-52.5 -35t-35 -52.5t-12.5 -65q0 -34 12.5 -64.5t35 -52.5t52.5 -35t64 -13zM409 419q-54 -95 -167 -95q-39 0 -74 15t-61 41t-41 61t-15 76t15 76t40.5 61
t60.5 41t75 15q60 0 102 -26.5t65 -75.5v94h30v-370h-30v87z" />
    <glyph glyph-name="guillemotleft" unicode="&#xab;" horiz-adv-x="409" 
d="M110 309l117 -153h-30l-117 153l117 153h30zM211 309l117 -153h-30l-117 153l117 153h30z" />
    <glyph glyph-name="logicalnot" unicode="&#xac;" horiz-adv-x="572" 
d="M40 347h500v-220h-30v190h-470v30z" />
    <glyph glyph-name="registered" unicode="&#xae;" horiz-adv-x="572" 
d="M80 350q0 -45 17.5 -85t47.5 -70t70 -47.5t85 -17.5t85 17.5t70 47.5t47.5 70t17.5 85t-17.5 85t-47.5 70t-70 47.5t-85 17.5t-85 -17.5t-70 -47.5t-47.5 -70t-17.5 -85zM306 346q45 0 61 11t16 43t-16.5 44t-60.5 12h-66v-110h66zM50 350q0 52 19.5 97.5t53.5 79.5
t79.5 53.5t97.5 19.5t97.5 -19.5t79.5 -53.5t53.5 -79.5t19.5 -97.5t-19.5 -97.5t-53.5 -79.5t-79.5 -53.5t-97.5 -19.5t-97.5 19.5t-79.5 53.5t-53.5 79.5t-19.5 97.5zM210 205v281h105q98 0 98 -86q0 -63 -54 -80l52 -115h-35l-50 111h-86v-111h-30z" />
    <glyph glyph-name="macron" unicode="&#xaf;" horiz-adv-x="311" 
d="M30 530h250v-30h-250v30z" />
    <glyph glyph-name="degree" unicode="&#xb0;" horiz-adv-x="434" 
d="M58 571q0 32 12 60t33 48.5t49 32.5t60 12t60 -12t49 -32.5t33 -48.5t12 -60t-12 -60t-33 -49t-49 -33t-60 -12t-60 12t-49 33t-33 49t-12 60zM88 571q0 -26 10 -48.5t26.5 -39.5t39.5 -26.5t48 -9.5q26 0 48.5 9.5t39.5 26.5t26.5 39.5t9.5 48.5t-9.5 48.5t-26.5 39
t-39.5 26.5t-48.5 10q-25 0 -48 -10t-39.5 -26.5t-26.5 -39t-10 -48.5z" />
    <glyph glyph-name="plusminus" unicode="&#xb1;" horiz-adv-x="491" 
d="M411 333h-150v-150h-30v150h-150v30h150v150h30v-150h150v-30zM411 103v-30h-330v30h330z" />
    <glyph glyph-name="twosuperior" unicode="&#xb2;" horiz-adv-x="334" 
d="M40 356q10 10 30.5 27t45 38.5t51 46t48 49t35 47.5t13.5 41q0 37 -26.5 55.5t-71.5 18.5q-35 0 -62 -15t-35 -39l-28 12q10 32 45 52t80 20q57 0 92.5 -27t35.5 -76q0 -35 -26.5 -73t-61.5 -72.5t-69.5 -62t-49.5 -42.5h215v-30h-260z" />
    <glyph glyph-name="threesuperior" unicode="&#xb3;" horiz-adv-x="324" 
d="M254 447q0 20 -10 37t-26.5 30t-38.5 20.5t-45 7.5h-12.5t-12.5 -2v14q8 7 25.5 23.5t37.5 34.5t38.5 34.5t26.5 23.5h-179v30h219v-35l-114 -102q53 -4 86.5 -37t33.5 -80q0 -54 -34 -87t-91 -33q-54 0 -86 31t-32 85h30q0 -41 23 -63.5t65 -22.5q45 0 70.5 24.5
t25.5 66.5z" />
    <glyph glyph-name="acute" unicode="&#xb4;" horiz-adv-x="161" 
d="M120 712l-44 -88h-36l41 88h39z" />
    <glyph glyph-name="paragraph" unicode="&#xb6;" horiz-adv-x="506" 
d="M436 -200h-30v870h-106v-870h-30v460q-46 0 -86 17.5t-70 47.5t-47 70t-17 85q0 46 17 86t47 70t70 47t86 17h166v-900z" />
    <glyph glyph-name="periodcentered" unicode="&#xb7;" horiz-adv-x="268" 
d="M100 352q0 10 7 16.5t17 6.5t16.5 -6.5t6.5 -16.5t-6.5 -17t-16.5 -7t-17 7t-7 17z" />
    <glyph glyph-name="cedilla" unicode="&#xb8;" horiz-adv-x="184" 
d="M40 -132v27h43q13 0 23 6t10 17t-11 17t-28 6h-25v21l25 38h28l-19 -34q31 -2 44 -17t13 -31q0 -18 -13.5 -34t-46.5 -16h-43z" />
    <glyph glyph-name="onesuperior" unicode="&#xb9;" horiz-adv-x="135" 
d="M75 670l-59 -34l-14 26l63 38h40v-374h-30v344z" />
    <glyph glyph-name="ordmasculine" unicode="&#xba;" horiz-adv-x="477" 
d="M71 514q0 39 11.5 73.5t33.5 60t53 40t70 14.5q37 0 67.5 -14t53 -39t35 -59.5t12.5 -75.5q0 -39 -11.5 -73t-33.5 -59.5t-53 -40.5t-70 -15t-70 15t-53 40.5t-33.5 59.5t-11.5 73zM101 514q0 -71 38 -114.5t100 -43.5q30 0 55.5 11.5t44 32.5t28.5 50t10 64t-10 64
t-28.5 50t-44 32.5t-55.5 11.5q-31 0 -56.5 -11.5t-43.5 -32.5t-28 -50t-10 -64z" />
    <glyph glyph-name="guillemotright" unicode="&#xbb;" horiz-adv-x="409" 
d="M211 462l117 -153l-117 -153h-30l117 153l-117 153h30zM110 462l117 -153l-117 -153h-30l117 153l-117 153h30z" />
    <glyph glyph-name="onequarter" unicode="&#xbc;" horiz-adv-x="625" 
d="M523 21v225l-158 -225h158zM585 -9h-32v-79h-30v79h-195v30l194 275h31v-275h32v-30zM31 -100l533 900h35l-533 -900h-35zM182 426v342l-20 -23l-23 19l34 36h39v-374h-30z" />
    <glyph glyph-name="onehalf" unicode="&#xbd;" horiz-adv-x="639" 
d="M102 768l-20 -23l-23 19l34 36h39v-374h-30v342zM564 800h35l-533 -900h-35zM336 -58q10 10 30.5 27t45 38.5t51 46t48 49t35 47.5t13.5 41q0 37 -26.5 55.5t-71.5 18.5q-35 0 -62.5 -15t-34.5 -38l-28 11q10 32 45 52t80 20q57 0 92.5 -27t35.5 -76q0 -23 -12.5 -48
t-32.5 -49.5t-43.5 -47.5t-46.5 -43.5t-42.5 -36t-29.5 -25.5h206v-30h-252v30z" />
    <glyph glyph-name="threequarters" unicode="&#xbe;" horiz-adv-x="625" 
d="M523 21v225l-158 -225h158zM585 -9h-32v-79h-30v79h-195v30l194 275h31v-275h32v-30zM31 -100l533 900h35l-533 -900h-35zM254 547q0 21 -11.5 38t-29.5 30t-40 20t-43 7q-5 0 -10.5 -0.5t-10.5 -1.5v15l128 116h-179v29h219v-34l-114 -103q26 -2 47.5 -11.5t38 -25
t25.5 -36t9 -44.5q0 -54 -34 -87t-91 -33q-54 0 -86 31t-32 85h29q0 -40 23.5 -63t65.5 -23q45 0 70.5 24.5t25.5 66.5z" />
    <glyph glyph-name="questiondown" unicode="&#xbf;" horiz-adv-x="434" 
d="M277 441q0 -35 -9.5 -62t-22.5 -47t-26.5 -33.5t-22.5 -21.5q-27 -26 -52 -47.5t-43.5 -43t-30 -45.5t-11.5 -55q0 -70 49 -112t131 -42q25 0 50.5 6t48 17t40.5 28t28 38l27 -14q-13 -24 -34 -43.5t-47 -33t-55 -21t-58 -7.5q-43 0 -81.5 12.5t-67 36t-45 57.5t-16.5 78
q0 38 13 66t33.5 52.5t47 47t53.5 48.5l21.5 21.5t23.5 29.5t18.5 39.5t7.5 50.5v27h30v-27zM241 602h43v-43h-43v43z" />
    <glyph glyph-name="Agrave" unicode="&#xc0;" horiz-adv-x="615" 
d="M132 208h351l-175 457zM16 0l274 710h35l275 -710h-35l-70 178h-375l-69 -178h-35zM282 779l-45 88h40l40 -88h-35z" />
    <glyph glyph-name="Aacute" unicode="&#xc1;" horiz-adv-x="615" 
d="M132 208h351l-175 457zM16 0l274 710h35l275 -710h-35l-70 178h-375l-69 -178h-35zM336 867h39l-44 -88h-36z" />
    <glyph glyph-name="Acircumflex" unicode="&#xc2;" horiz-adv-x="615" 
d="M132 208h351l-175 457zM16 0l274 710h35l275 -710h-35l-70 178h-375l-69 -178h-35zM332 867l55 -88h-38l-41 68l-42 -68h-38l55 88h49z" />
    <glyph glyph-name="Atilde" unicode="&#xc3;" horiz-adv-x="615" 
d="M132 208h351l-175 457zM16 0l274 710h35l275 -710h-35l-70 178h-375l-69 -178h-35zM182 792q2 32 21.5 54t48.5 22q24 0 38 -9t24.5 -20.5t21 -20.5t27.5 -9q39 0 41 47h29q-3 -77 -70 -77q-22 0 -36 9t-25 20.5t-22 20.5t-27 9q-18 0 -29 -13t-12 -33h-30z" />
    <glyph glyph-name="Adieresis" unicode="&#xc4;" horiz-adv-x="615" 
d="M132 208h351l-175 457zM16 0l274 710h35l275 -710h-35l-70 178h-375l-69 -178h-35zM231 779v40h40v-40h-40zM345 779v40h40v-40h-40z" />
    <glyph glyph-name="Aring" unicode="&#xc5;" horiz-adv-x="615" 
d="M132 208h351l-175 457zM308 805q22 0 34 14t12 33t-12 33.5t-34 14.5q-23 0 -34.5 -14.5t-11.5 -33.5t11.5 -33t34.5 -14zM16 0l274 710h35l275 -710h-35l-70 178h-375l-69 -178h-35zM308 779q-30 0 -51.5 20.5t-21.5 52.5q0 34 21.5 54t51.5 20t51 -20t21 -54
q0 -32 -21 -52.5t-51 -20.5z" />
    <glyph glyph-name="AE" unicode="&#xc6;" horiz-adv-x="1193" 
d="M453 237h263v406zM716 0v207h-283l-134 -207h-36l453 700h417v-30h-387v-305h371v-30h-371v-305h387v-30h-417z" />
    <glyph glyph-name="Ccedilla" unicode="&#xc7;" horiz-adv-x="770" 
d="M729 212q-21 -54 -55 -95.5t-77.5 -70t-95.5 -43.5t-109 -15l-13 -22q31 -2 44 -17t13 -31q0 -18 -13.5 -34t-46.5 -16h-43v27h43q13 0 23 6t10 17t-11 17t-28 6h-25v21l19 28q-70 6 -129.5 36t-102.5 78t-67.5 111.5t-24.5 136.5q0 77 27.5 142.5t75.5 114t113.5 76
t141.5 27.5q106 0 188 -51t127 -136l-25 -15q-19 39 -48 71t-66 55t-81.5 36t-94.5 13q-74 0 -134.5 -26.5t-103 -72t-66 -106t-23.5 -127.5q0 -69 23.5 -130.5t66 -107.5t103 -73t134.5 -27q55 0 102.5 15.5t86.5 42.5t68 65t46 83z" />
    <glyph glyph-name="Egrave" unicode="&#xc8;" horiz-adv-x="603" 
d="M268 867h40l40 -88h-35zM91 700h447v-30h-417v-305h401v-30h-401v-305h417v-30h-447v700z" />
    <glyph glyph-name="Eacute" unicode="&#xc9;" horiz-adv-x="603" 
d="M357 867l-44 -88h-36l41 88h39zM91 700h447v-30h-417v-305h401v-30h-401v-305h417v-30h-447v700z" />
    <glyph glyph-name="Ecircumflex" unicode="&#xca;" horiz-adv-x="603" 
d="M381 778h-38l-41 68l-42 -68h-38l55 88h49zM91 700h447v-30h-417v-305h401v-30h-401v-305h417v-30h-447v700z" />
    <glyph glyph-name="Edieresis" unicode="&#xcb;" horiz-adv-x="603" 
d="M216 819h40v-40h-40v40zM363 819h40v-40h-40v40zM91 700h447v-30h-417v-305h401v-30h-401v-305h417v-30h-447v700z" />
    <glyph glyph-name="Igrave" unicode="&#xcc;" horiz-adv-x="211" 
d="M43 867h40l40 -88h-35zM91 700h30v-700h-30v700z" />
    <glyph glyph-name="Iacute" unicode="&#xcd;" horiz-adv-x="211" 
d="M91 700h30v-700h-30v700zM165 867l-44 -88h-36l41 88h39z" />
    <glyph glyph-name="Icircumflex" unicode="&#xce;" horiz-adv-x="211" 
d="M185 779h-38l-41 68l-42 -68h-38l55 88h49zM91 700h30v-700h-30v700z" />
    <glyph glyph-name="Idieresis" unicode="&#xcf;" horiz-adv-x="211" 
d="M44 819h40v-40h-40v40zM129 819h40v-40h-40v40zM91 700h30v-700h-30v700z" />
    <glyph glyph-name="Eth" unicode="&#xd0;" horiz-adv-x="716" 
d="M319 700q78 0 141.5 -27t109.5 -74.5t71 -111t25 -137.5q0 -73 -25 -137t-71 -111.5t-109.5 -74.5t-141.5 -27h-228v323h-50v30h50v347h228zM316 670h-195v-317h220v-30h-220v-292h195q82 0 142.5 28.5t100 74.5t58.5 103.5t19 115.5t-21.5 114.5t-62 101.5t-100 73
t-136.5 28z" />
    <glyph glyph-name="Ntilde" unicode="&#xd1;" horiz-adv-x="694" 
d="M222 806q2 33 21.5 54.5t48.5 21.5q24 0 37.5 -9t24 -20.5t21 -20.5t28.5 -9q38 0 40 47h29q-3 -77 -70 -77q-22 0 -36 9t-25 20.5t-21.5 20.5t-26.5 9q-18 0 -29 -12.5t-12 -33.5h-30zM90 701h24l459 -634v634h30v-702h-18l-465 642v-642h-30v702z" />
    <glyph glyph-name="Ograve" unicode="&#xd2;" horiz-adv-x="815" 
d="M340 867h40l40 -88h-35zM408 -12q-76 0 -141.5 28t-113.5 76.5t-75.5 115t-27.5 144.5q0 77 27.5 142.5t75.5 114t113.5 76t141.5 27.5t141.5 -27.5t113.5 -76t75 -114t27 -142.5q0 -78 -27 -144.5t-75 -115t-113.5 -76.5t-141.5 -28zM408 15q74 0 134 27t102.5 73
t66 107.5t23.5 130.5q0 67 -23.5 127.5t-66 106t-102.5 72t-134 26.5t-134.5 -26.5t-103 -72t-66 -106t-23.5 -127.5q0 -69 23.5 -130.5t66 -107.5t103 -73t134.5 -27z" />
    <glyph glyph-name="Oacute" unicode="&#xd3;" horiz-adv-x="815" 
d="M473 867l-44 -88h-36l41 88h39zM408 -12q-76 0 -141.5 28t-113.5 76.5t-75.5 115t-27.5 144.5q0 77 27.5 142.5t75.5 114t113.5 76t141.5 27.5t141.5 -27.5t113.5 -76t75 -114t27 -142.5q0 -78 -27 -144.5t-75 -115t-113.5 -76.5t-141.5 -28zM408 15q74 0 134 27
t102.5 73t66 107.5t23.5 130.5q0 67 -23.5 127.5t-66 106t-102.5 72t-134 26.5t-134.5 -26.5t-103 -72t-66 -106t-23.5 -127.5q0 -69 23.5 -130.5t66 -107.5t103 -73t134.5 -27z" />
    <glyph glyph-name="Ocircumflex" unicode="&#xd4;" horiz-adv-x="815" 
d="M408 15q74 0 134 27t102.5 73t66 107.5t23.5 130.5q0 67 -23.5 127.5t-66 106t-102.5 72t-134 26.5t-134.5 -26.5t-103 -72t-66 -106t-23.5 -127.5q0 -69 23.5 -130.5t66 -107.5t103 -73t134.5 -27zM408 -12q-76 0 -141.5 28t-113.5 76.5t-75.5 115t-27.5 144.5
q0 77 27.5 142.5t75.5 114t113.5 76t141.5 27.5t141.5 -27.5t113.5 -76t75 -114t27 -142.5q0 -78 -27 -144.5t-75 -115t-113.5 -76.5t-141.5 -28zM437 867l55 -88h-38l-41 68l-42 -68h-38l55 88h49z" />
    <glyph glyph-name="Otilde" unicode="&#xd5;" horiz-adv-x="815" 
d="M408 15q74 0 134 27t102.5 73t66 107.5t23.5 130.5q0 67 -23.5 127.5t-66 106t-102.5 72t-134 26.5t-134.5 -26.5t-103 -72t-66 -106t-23.5 -127.5q0 -69 23.5 -130.5t66 -107.5t103 -73t134.5 -27zM408 -12q-76 0 -141.5 28t-113.5 76.5t-75.5 115t-27.5 144.5
q0 77 27.5 142.5t75.5 114t113.5 76t141.5 27.5t141.5 -27.5t113.5 -76t75 -114t27 -142.5q0 -78 -27 -144.5t-75 -115t-113.5 -76.5t-141.5 -28zM282 792q2 33 21.5 54.5t48.5 21.5q24 0 38 -9t24.5 -20.5t21 -20.5t27.5 -9q39 0 41 47h29q-3 -77 -70 -77q-22 0 -36 9
t-25 20.5t-22 20.5t-27 9q-18 0 -29 -12.5t-12 -33.5h-30z" />
    <glyph glyph-name="Odieresis" unicode="&#xd6;" horiz-adv-x="815" 
d="M308 819h40v-40h-40v40zM468 819h40v-40h-40v40zM408 -12q-76 0 -141.5 28t-113.5 76.5t-75.5 115t-27.5 144.5q0 77 27.5 142.5t75.5 114t113.5 76t141.5 27.5t141.5 -27.5t113.5 -76t75 -114t27 -142.5q0 -78 -27 -144.5t-75 -115t-113.5 -76.5t-141.5 -28zM408 15
q74 0 134 27t102.5 73t66 107.5t23.5 130.5q0 67 -23.5 127.5t-66 106t-102.5 72t-134 26.5t-134.5 -26.5t-103 -72t-66 -106t-23.5 -127.5q0 -69 23.5 -130.5t66 -107.5t103 -73t134.5 -27z" />
    <glyph glyph-name="multiply" unicode="&#xd7;" horiz-adv-x="396" 
d="M223 322l113 -114l-22 -21l-113 114l-119 -119l-21 21l119 119l-120 119l22 21l120 -119l113 114l21 -21z" />
    <glyph glyph-name="Oslash" unicode="&#xd8;" horiz-adv-x="795" 
d="M560 644q-35 20 -75.5 30.5t-86.5 10.5q-74 0 -134.5 -26.5t-103 -72t-66 -106t-23.5 -127.5q0 -48 11.5 -92.5t32.5 -83t52 -70t70 -52.5zM398 15q74 0 134 27t102.5 73t66 107.5t23.5 130.5q0 85 -36.5 157.5t-102.5 117.5l-321 -586q30 -13 63.5 -20t70.5 -7zM398 -12
q-40 0 -77 8t-70 22l-73 -133l-27 13l73 133q-42 23 -76 56t-58 74t-37 89.5t-13 101.5q0 77 27.5 142.5t75.5 114t113.5 76t141.5 27.5q48 0 92.5 -11.5t82.5 -32.5l72 132l27 -14l-73 -133q72 -48 114 -126t42 -175q0 -78 -27 -144.5t-75 -115t-113.5 -76.5t-141.5 -28z
" />
    <glyph glyph-name="Ugrave" unicode="&#xd9;" horiz-adv-x="692" 
d="M330 779l-45 88h40l40 -88h-35zM622 700v-405q0 -141 -72 -218t-204 -77t-204 77t-72 218v405h30v-405q0 -129 63.5 -197t182.5 -68t182.5 68t63.5 197v405h30z" />
    <glyph glyph-name="Uacute" unicode="&#xda;" horiz-adv-x="692" 
d="M368 867h39l-44 -88h-36zM622 700v-405q0 -141 -72 -218t-204 -77t-204 77t-72 218v405h30v-405q0 -129 63.5 -197t182.5 -68t182.5 68t63.5 197v405h30z" />
    <glyph glyph-name="Ucircumflex" unicode="&#xdb;" horiz-adv-x="692" 
d="M371 867l55 -88h-38l-41 68l-42 -68h-38l55 88h49zM622 700v-405q0 -141 -72 -218t-204 -77t-204 77t-72 218v405h30v-405q0 -129 63.5 -197t182.5 -68t182.5 68t63.5 197v405h30z" />
    <glyph glyph-name="Udieresis" unicode="&#xdc;" horiz-adv-x="692" 
d="M246 779v40h40v-40h-40zM406 779v40h40v-40h-40zM622 700v-405q0 -141 -72 -218t-204 -77t-204 77t-72 218v405h30v-405q0 -129 63.5 -197t182.5 -68t182.5 68t63.5 197v405h30z" />
    <glyph glyph-name="Yacute" unicode="&#xdd;" horiz-adv-x="504" 
d="M313 867l-44 -88h-36l41 88h39zM239 285l-224 415h34l203 -375l203 375h34l-220 -407v-293h-30v285z" />
    <glyph glyph-name="Thorn" unicode="&#xde;" horiz-adv-x="574" 
d="M309 62q91 0 142.5 54.5t51.5 149.5q0 94 -51.5 148.5t-142.5 54.5h-199v-407h199zM80 -201v901h30v-201h189q116 0 175 -63t59 -170q0 -56 -16 -99.5t-47 -73.5t-74 -45.5t-97 -15.5h-189v-233h-30z" />
    <glyph glyph-name="germandbls" unicode="&#xdf;" horiz-adv-x="517" 
d="M237 19q48 0 86.5 12.5t65.5 35t42 54t15 70.5q0 77 -56.5 121t-153.5 44v30q87 0 135.5 39.5t48.5 108.5q0 33 -13.5 60.5t-37.5 47t-58 30.5t-75 11q-165 0 -165 -186v-497h-30v497q0 103 48 159t147 56q48 0 87.5 -13t68 -36.5t44 -56t15.5 -72.5q0 -57 -30 -99.5
t-84 -62.5q66 -20 103 -68.5t37 -117.5q0 -43 -17.5 -79.5t-49.5 -63t-76.5 -41t-97.5 -14.5z" />
    <glyph glyph-name="agrave" unicode="&#xe0;" 
d="M303 19q49 0 91.5 18t73.5 49t49 73t18 91t-18 91.5t-49.5 73.5t-73.5 48.5t-91 17.5t-91.5 -17.5t-74 -48.5t-49.5 -73.5t-18 -91.5t18 -91.5t49.5 -73.5t74 -48.5t91.5 -17.5zM535 123q-36 -64 -95.5 -99t-140.5 -35q-53 0 -100 20t-82.5 55t-56 83t-20.5 103t20 102.5
t55.5 83t82.5 55.5t101 20q81 0 142.5 -35.5t93.5 -101.5v126h30v-500h-30v123zM286 575l-45 88h40l40 -88h-35z" />
    <glyph glyph-name="aacute" unicode="&#xe1;" 
d="M303 19q49 0 91.5 18t73.5 49t49 73t18 91t-18 91.5t-49.5 73.5t-73.5 48.5t-91 17.5t-91.5 -17.5t-74 -48.5t-49.5 -73.5t-18 -91.5t18 -91.5t49.5 -73.5t74 -48.5t91.5 -17.5zM535 123q-36 -64 -95.5 -99t-140.5 -35q-53 0 -100 20t-82.5 55t-56 83t-20.5 103t20 102.5
t55.5 83t82.5 55.5t101 20q81 0 142.5 -35.5t93.5 -101.5v126h30v-500h-30v123zM319 663h39l-44 -88h-36z" />
    <glyph glyph-name="acircumflex" unicode="&#xe2;" 
d="M303 19q49 0 91.5 18t73.5 49t49 73t18 91t-18 91.5t-49.5 73.5t-73.5 48.5t-91 17.5t-91.5 -17.5t-74 -48.5t-49.5 -73.5t-18 -91.5t18 -91.5t49.5 -73.5t74 -48.5t91.5 -17.5zM535 123q-36 -64 -95.5 -99t-140.5 -35q-53 0 -100 20t-82.5 55t-56 83t-20.5 103t20 102.5
t55.5 83t82.5 55.5t101 20q81 0 142.5 -35.5t93.5 -101.5v126h30v-500h-30v123zM326 663l55 -88h-38l-41 68l-42 -68h-38l55 88h49z" />
    <glyph glyph-name="atilde" unicode="&#xe3;" 
d="M303 19q49 0 91.5 18t73.5 49t49 73t18 91t-18 91.5t-49.5 73.5t-73.5 48.5t-91 17.5t-91.5 -17.5t-74 -48.5t-49.5 -73.5t-18 -91.5t18 -91.5t49.5 -73.5t74 -48.5t91.5 -17.5zM535 123q-36 -64 -95.5 -99t-140.5 -35q-53 0 -100 20t-82.5 55t-56 83t-20.5 103t20 102.5
t55.5 83t82.5 55.5t101 20q81 0 142.5 -35.5t93.5 -101.5v126h30v-500h-30v123zM192 587q2 33 21.5 54.5t48.5 21.5q24 0 38 -9t24.5 -20.5t21 -20.5t27.5 -9q39 0 41 47h29q-2 -37 -20 -57t-50 -20q-22 0 -36 9t-25 20.5t-22 20.5t-27 9q-18 0 -29 -12.5t-12 -33.5h-30z
" />
    <glyph glyph-name="adieresis" unicode="&#xe4;" 
d="M303 19q50 0 92.5 17.5t73.5 48t48.5 73t17.5 92.5t-17.5 92.5t-48.5 73t-73.5 48t-92.5 17.5q-49 0 -91.5 -17.5t-74 -48.5t-49.5 -73.5t-18 -91.5t18 -91.5t49.5 -73.5t74 -48.5t91.5 -17.5zM535 123q-36 -64 -95.5 -99t-140.5 -35q-53 0 -100 20t-82.5 55t-56 83
t-20.5 103t20 102.5t55.5 83t82.5 55.5t101 20q81 0 142.5 -35.5t93.5 -101.5v126h30v-500h-30v123zM250 575v40h40v-40h-40zM345 575v40h40v-40h-40z" />
    <glyph glyph-name="aring" unicode="&#xe5;" 
d="M303 16q49 0 91 18t73.5 49.5t49.5 74.5t18 92t-18 92t-49.5 74.5t-73.5 49.5t-91 18t-91.5 -18t-74 -49.5t-49.5 -74.5t-18 -92t18 -92t49.5 -74.5t74 -49.5t91.5 -18zM318 600q22 0 34 14t12 33t-12 33.5t-34 14.5q-23 0 -34.5 -14.5t-11.5 -33.5t11.5 -33t34.5 -14z
M535 123q-36 -64 -95.5 -99t-140.5 -35q-53 0 -100 20t-82.5 55t-56 83t-20.5 103t20 102.5t55.5 83t82.5 55.5t101 20q81 0 142.5 -35.5t93.5 -101.5v126h30v-500h-30v123zM318 574q-30 0 -51.5 20.5t-21.5 52.5q0 34 21.5 54t51.5 20t51 -20t21 -54q0 -32 -21 -52.5
t-51 -20.5z" />
    <glyph glyph-name="ae" unicode="&#xe6;" horiz-adv-x="1190" 
d="M303 16q49 0 91 18t73.5 49.5t49.5 74.5t18 92t-18 92t-49.5 74.5t-73.5 49.5t-91 18t-91.5 -18t-74 -49.5t-49.5 -74.5t-18 -92t18 -92t49.5 -74.5t74 -49.5t91.5 -18zM986 263q-3 49 -19 89t-42.5 68.5t-62.5 44t-79 15.5q-46 0 -83.5 -15t-64.5 -43t-43 -68.5
t-19 -90.5h413zM1010 312q4 -19 6 -39t1 -40h-445q2 -46 18.5 -85t45 -67t67.5 -43.5t86 -15.5q60 0 106 24.5t74 67.5l26 -16q-32 -49 -85 -77.5t-120 -28.5q-80 0 -138.5 38.5t-86.5 103.5v-134h-30v123q-36 -64 -95.5 -99t-140.5 -35q-53 0 -100 20t-82.5 55t-56 83
t-20.5 103t20 102.5t55.5 83t82.5 55.5t101 20q81 0 142.5 -35.5t93.5 -101.5v126h30v-131q27 66 83.5 103.5t134.5 37.5q87 0 146.5 -52t80.5 -146z" />
    <glyph glyph-name="ccedilla" unicode="&#xe7;" horiz-adv-x="579" 
d="M539 144q-31 -71 -94.5 -112t-143.5 -41q-56 0 -103.5 20t-82.5 54.5t-55 82.5t-20 103q0 56 20 103t55 82t82.5 54.5t103.5 19.5q74 0 132 -33.5t92 -90.5l-26 -16q-30 53 -83 81.5t-120 28.5q-48 0 -89 -17.5t-71.5 -48.5t-48 -73t-17.5 -91t17.5 -90.5t48 -72t73 -48
t92.5 -18.5q35 0 67.5 9.5t60 27t49 42.5t33.5 55zM238 -132v27h43q13 0 23 6t10 17t-11 17t-28 6h-25v21l25 38h28l-19 -34q31 -2 44 -17t13 -31q0 -18 -13.5 -34t-46.5 -16h-43z" />
    <glyph glyph-name="egrave" unicode="&#xe8;" horiz-adv-x="555" 
d="M484 263q-3 49 -19 89t-43 68.5t-63 44t-78 15.5q-92 0 -148.5 -58t-62.5 -159h414zM281 510q59 0 103 -23.5t73 -62t43.5 -88.5t14.5 -103h-445q2 -46 18.5 -85t45 -67t67.5 -43.5t86 -15.5q60 0 106 24.5t74 67.5l25 -16q-32 -49 -84.5 -77.5t-120.5 -28.5
q-55 0 -100.5 19t-78 53t-50.5 81t-18 102q0 60 17 108.5t48.5 83t76 53t99.5 18.5zM263 575l-45 88h40l40 -88h-35z" />
    <glyph glyph-name="eacute" unicode="&#xe9;" horiz-adv-x="555" 
d="M484 263q-3 49 -19 89t-43 68.5t-63 44t-78 15.5q-92 0 -148.5 -58t-62.5 -159h414zM281 510q59 0 103 -23.5t73 -62t43.5 -88.5t14.5 -103h-445q2 -46 18.5 -85t45 -67t67.5 -43.5t86 -15.5q60 0 106 24.5t74 67.5l25 -16q-32 -49 -84.5 -77.5t-120.5 -28.5
q-55 0 -100.5 19t-78 53t-50.5 81t-18 102q0 60 17 108.5t48.5 83t76 53t99.5 18.5zM315 663h39l-44 -88h-36z" />
    <glyph glyph-name="ecircumflex" unicode="&#xea;" horiz-adv-x="555" 
d="M484 263q-3 49 -19 89t-43 68.5t-63 44t-78 15.5q-92 0 -148.5 -58t-62.5 -159h414zM281 510q59 0 103 -23.5t73 -62t43.5 -88.5t14.5 -103h-445q2 -46 18.5 -85t45 -67t67.5 -43.5t86 -15.5q60 0 106 24.5t74 67.5l25 -16q-32 -49 -84.5 -77.5t-120.5 -28.5
q-55 0 -100.5 19t-78 53t-50.5 81t-18 102q0 60 17 108.5t48.5 83t76 53t99.5 18.5zM302 663l55 -88h-38l-41 68l-42 -68h-38l55 88h49z" />
    <glyph glyph-name="edieresis" unicode="&#xeb;" horiz-adv-x="555" 
d="M484 263q-3 49 -19 89t-43 68.5t-63 44t-78 15.5q-92 0 -148.5 -58t-62.5 -159h414zM281 510q59 0 103 -23.5t73 -62t43.5 -88.5t14.5 -103h-445q2 -46 18.5 -85t45 -67t67.5 -43.5t86 -15.5q60 0 106 24.5t74 67.5l25 -16q-32 -49 -84.5 -77.5t-120.5 -28.5
q-55 0 -100.5 19t-78 53t-50.5 81t-18 102q0 60 17 108.5t48.5 83t76 53t99.5 18.5zM213 575v40h40v-40h-40zM319 575v40h40v-40h-40z" />
    <glyph glyph-name="igrave" unicode="&#xec;" horiz-adv-x="141" 
d="M73 -1v501h30v-501h-30zM68 575l-45 88h40l40 -88h-35z" />
    <glyph glyph-name="iacute" unicode="&#xed;" horiz-adv-x="141" 
d="M78 663h39l-44 -88h-36zM36 -1v501h30v-501h-30z" />
    <glyph glyph-name="icircumflex" unicode="&#xee;" horiz-adv-x="219" 
d="M134 663l55 -88h-38l-41 68l-42 -68h-38l55 88h49zM94 -1v501h30v-501h-30z" />
    <glyph glyph-name="idieresis" unicode="&#xef;" horiz-adv-x="171" 
d="M30 575v40h40v-40h-40zM100 575v40h40v-40h-40zM70 -1v501h30v-501h-30z" />
    <glyph glyph-name="eth" unicode="&#xf0;" horiz-adv-x="571" 
d="M284 447q-42 0 -79.5 -16.5t-65 -45.5t-43.5 -68t-16 -83q0 -48 15.5 -87t42.5 -66.5t64.5 -43t80.5 -15.5q44 0 82 15.5t66 43t43.5 66.5t15.5 87q0 47 -15.5 86t-42.5 67.5t-65 44t-83 15.5zM208 700h37q14 -20 27 -39.5t26 -38.5l121 60l13 -26l-117 -59
q24 -35 47.5 -68t48.5 -63q27 -33 47.5 -61.5t34 -55.5t20.5 -55t7 -60q0 -53 -18 -97.5t-49.5 -76.5t-75 -50t-93.5 -18t-92.5 18t-74 50t-49.5 76.5t-18 97.5t19.5 98t52 77.5t75 51t89.5 18.5q44 0 85 -16l-83 121l-126 -64l-14 27l123 62z" />
    <glyph glyph-name="ntilde" unicode="&#xf1;" horiz-adv-x="559" 
d="M154 588q2 32 21.5 54t48.5 22q24 0 38 -9t24.5 -20.5t21 -20.5t27.5 -9q39 0 41 47h29q-3 -77 -70 -77q-22 0 -36 9t-25 20t-22 20t-27 9q-18 0 -29 -12.5t-12 -32.5h-30zM285 507q102 0 153 -57.5t51 -157.5v-292h-30v287q0 88 -40.5 138t-129.5 52q-39 0 -73 -12.5
t-59.5 -34.5t-40.5 -52t-15 -65v-313h-30v500h30v-91q26 46 74.5 72t109.5 26z" />
    <glyph glyph-name="ograve" unicode="&#xf2;" horiz-adv-x="600" 
d="M239 662h40l40 -88h-35zM301 -9q-56 0 -103.5 20t-82.5 54.5t-55 82.5t-20 103q0 56 20 103t55 82t82.5 54.5t103.5 19.5t103 -19.5t82 -54.5t54.5 -82t19.5 -103q0 -55 -19.5 -103t-54.5 -82.5t-82 -54.5t-103 -20zM301 18q49 0 91 18t72.5 49t48 73.5t17.5 91.5
q0 50 -17.5 92.5t-48.5 73.5t-73 49t-90 18q-49 0 -91.5 -18t-73.5 -49t-48.5 -73.5t-17.5 -92.5q0 -49 17.5 -91.5t48.5 -74t73.5 -49t91.5 -17.5z" />
    <glyph glyph-name="oacute" unicode="&#xf3;" horiz-adv-x="600" 
d="M362 663l-44 -88h-36l41 88h39zM301 -9q-56 0 -103.5 20t-82.5 54.5t-55 82.5t-20 103q0 56 20 103t55 82t82.5 54.5t103.5 19.5t103 -19.5t82 -54.5t54.5 -82t19.5 -103q0 -55 -19.5 -103t-54.5 -82.5t-82 -54.5t-103 -20zM301 18q49 0 91 18t72.5 49t48 73.5t17.5 91.5
q0 50 -17.5 92.5t-48.5 73.5t-73 49t-90 18q-49 0 -91.5 -18t-73.5 -49t-48.5 -73.5t-17.5 -92.5q0 -49 17.5 -91.5t48.5 -74t73.5 -49t91.5 -17.5z" />
    <glyph glyph-name="ocircumflex" unicode="&#xf4;" horiz-adv-x="600" 
d="M301 18q49 0 91 18t72.5 49t48 73.5t17.5 91.5q0 50 -17.5 92.5t-48.5 73.5t-73 49t-90 18q-49 0 -91.5 -18t-73.5 -49t-48.5 -73.5t-17.5 -92.5q0 -49 17.5 -91.5t48.5 -74t73.5 -49t91.5 -17.5zM301 -9q-56 0 -103.5 20t-82.5 54.5t-55 82.5t-20 103q0 56 20 103t55 82
t82.5 54.5t103.5 19.5t103 -19.5t82 -54.5t54.5 -82t19.5 -103q0 -55 -19.5 -103t-54.5 -82.5t-82 -54.5t-103 -20zM325 663l55 -88h-38l-41 68l-42 -68h-38l55 88h49z" />
    <glyph glyph-name="otilde" unicode="&#xf5;" horiz-adv-x="600" 
d="M301 18q49 0 91 18t72.5 49t48 73.5t17.5 91.5q0 50 -17.5 92.5t-48.5 73.5t-73 49t-90 18q-49 0 -91.5 -18t-73.5 -49t-48.5 -73.5t-17.5 -92.5q0 -49 17.5 -91.5t48.5 -74t73.5 -49t91.5 -17.5zM301 -9q-56 0 -103.5 20t-82.5 54.5t-55 82.5t-20 103q0 56 20 103t55 82
t82.5 54.5t103.5 19.5t103 -19.5t82 -54.5t54.5 -82t19.5 -103q0 -55 -19.5 -103t-54.5 -82.5t-82 -54.5t-103 -20zM175 587q2 33 21.5 54.5t48.5 21.5q24 0 37.5 -9t24 -20.5t21 -20.5t28.5 -9q38 0 40 47h30q-2 -37 -20 -57t-50 -20q-23 0 -37 9t-25 20.5t-21.5 20.5
t-26.5 9q-18 0 -29 -12.5t-12 -33.5h-30z" />
    <glyph glyph-name="odieresis" unicode="&#xf6;" horiz-adv-x="600" 
d="M236 615h40v-40h-40v40zM336 615h40v-40h-40v40zM301 -9q-56 0 -103.5 20t-82.5 54.5t-55 82.5t-20 103q0 56 20 103t55 82t82.5 54.5t103.5 19.5t103 -19.5t82 -54.5t54.5 -82t19.5 -103q0 -55 -19.5 -103t-54.5 -82.5t-82 -54.5t-103 -20zM301 18q49 0 91 18t72.5 49
t48 73.5t17.5 91.5q0 50 -17.5 92.5t-48.5 73.5t-73 49t-90 18q-49 0 -91.5 -18t-73.5 -49t-48.5 -73.5t-17.5 -92.5q0 -49 17.5 -91.5t48.5 -74t73.5 -49t91.5 -17.5z" />
    <glyph glyph-name="divide" unicode="&#xf7;" horiz-adv-x="491" 
d="M228 425q0 10 6.5 16.5t16.5 6.5q9 0 15.5 -6.5t6.5 -16.5q0 -9 -6.5 -15.5t-15.5 -6.5q-10 0 -16.5 6.5t-6.5 15.5zM391 363v-30h-290v30h290zM228 270q0 10 6.5 16.5t16.5 6.5q9 0 15.5 -6.5t6.5 -16.5q0 -9 -6.5 -15.5t-15.5 -6.5q-10 0 -16.5 6.5t-6.5 15.5z" />
    <glyph glyph-name="oslash" unicode="&#xf8;" horiz-adv-x="600" 
d="M428 446q-55 37 -127 37q-49 0 -91.5 -18t-73.5 -49t-48.5 -73.5t-17.5 -92.5q0 -63 28 -114t76 -82zM301 18q49 0 91 18t72.5 49t48 73.5t17.5 91.5q0 54 -21 100t-57 78l-252 -389q47 -21 101 -21zM111 -42l47 73q-54 34 -86 91t-32 129q0 56 20 103t55 82t82.5 54.5
t103.5 19.5q41 0 76.5 -10.5t66.5 -29.5l39 60l27 -13l-42 -65q43 -35 67.5 -86.5t24.5 -114.5q0 -55 -19.5 -103t-54.5 -82.5t-82 -54.5t-103 -20q-61 0 -116 25l-48 -75z" />
    <glyph glyph-name="ugrave" unicode="&#xf9;" horiz-adv-x="539" 
d="M206 663h40l40 -88h-35zM265 -7q-51 0 -88 15.5t-60.5 43.5t-34.5 68t-11 88v292h30v-287q0 -97 39 -142.5t121 -47.5q38 0 70.5 12t56.5 34t37.5 52t13.5 66v313h30v-500h-30v91q-25 -45 -69.5 -71.5t-104.5 -26.5z" />
    <glyph glyph-name="uacute" unicode="&#xfa;" horiz-adv-x="539" 
d="M327 663l-44 -88h-36l41 88h39zM265 -7q-51 0 -88 15.5t-60.5 43.5t-34.5 68t-11 88v292h30v-287q0 -97 39 -142.5t121 -47.5q38 0 70.5 12t56.5 34t37.5 52t13.5 66v313h30v-500h-30v91q-25 -45 -69.5 -71.5t-104.5 -26.5z" />
    <glyph glyph-name="ucircumflex" unicode="&#xfb;" horiz-adv-x="539" 
d="M349 575h-38l-41 68l-42 -68h-38l55 88h49zM265 -7q-51 0 -88 15.5t-60.5 43.5t-34.5 68t-11 88v292h30v-287q0 -97 39 -142.5t121 -47.5q38 0 70.5 12t56.5 34t37.5 52t13.5 66v313h30v-500h-30v91q-25 -45 -69.5 -71.5t-104.5 -26.5z" />
    <glyph glyph-name="udieresis" unicode="&#xfc;" horiz-adv-x="539" 
d="M205 615h40v-40h-40v40zM307 615h40v-40h-40v40zM265 -7q-51 0 -88 15.5t-60.5 43.5t-34.5 68t-11 88v292h30v-287q0 -97 39 -142.5t121 -47.5q38 0 70.5 12t56.5 34t37.5 52t13.5 66v313h30v-500h-30v91q-25 -45 -69.5 -71.5t-104.5 -26.5z" />
    <glyph glyph-name="yacute" unicode="&#xfd;" horiz-adv-x="513" 
d="M325 663l-44 -88h-36l41 88h39zM185 -200l75 200l-230 500h33l213 -462l175 462h32l-265 -700h-33z" />
    <glyph glyph-name="thorn" unicode="&#xfe;" horiz-adv-x="645" 
d="M342 16q49 0 91.5 18t74 49.5t49.5 74.5t18 92t-18 92t-49.5 74.5t-74 49.5t-91.5 18t-91.5 -18t-73.5 -49.5t-49 -74.5t-18 -92t18 -92t49.5 -74.5t73.5 -49.5t91 -18zM110 -200h-30v900h30v-326q32 66 93.5 101.5t142.5 35.5q54 0 101 -20t82.5 -55.5t55.5 -83
t20 -102.5t-20.5 -103t-55.5 -83t-82.5 -55t-100.5 -20q-81 0 -140.5 35t-95.5 99v-323z" />
    <glyph glyph-name="ydieresis" unicode="&#xff;" horiz-adv-x="513" 
d="M194 615h40v-40h-40v40zM315 615h40v-40h-40v40zM185 -200l75 200l-230 500h33l213 -462l175 462h32l-265 -700h-33z" />
    <glyph glyph-name="Amacron" unicode="&#x100;" horiz-adv-x="615" 
d="M132 208h351l-175 457zM16 0l274 710h35l275 -710h-35l-70 178h-375l-69 -178h-35zM193 779v30h250v-30h-250z" />
    <glyph glyph-name="amacron" unicode="&#x101;" 
d="M303 16q49 0 91 18t73.5 49.5t49.5 74.5t18 92t-18 92t-49.5 74.5t-73.5 49.5t-91 18t-91.5 -18t-74 -49.5t-49.5 -74.5t-18 -92t18 -92t49.5 -74.5t74 -49.5t91.5 -18zM535 123q-36 -64 -95.5 -99t-140.5 -35q-53 0 -100 20t-82.5 55t-56 83t-20.5 103t20 102.5t55.5 83
t82.5 55.5t101 20q81 0 142.5 -35.5t93.5 -101.5v126h30v-500h-30v123zM193 575v30h250v-30h-250z" />
    <glyph glyph-name="Abreve" unicode="&#x102;" horiz-adv-x="615" 
d="M132 208h351l-175 457zM16 0l274 710h35l275 -710h-35l-70 178h-375l-69 -178h-35zM383 858v-3q0 -35 -22 -55.5t-52 -20.5q-31 0 -53.5 20.5t-22.5 55.5v3h29v-3q0 -20 12 -34t35 -14q21 0 33 14t12 34v3h29z" />
    <glyph glyph-name="abreve" unicode="&#x103;" 
d="M303 16q49 0 91 18t73.5 49.5t49.5 74.5t18 92t-18 92t-49.5 74.5t-73.5 49.5t-91 18t-91.5 -18t-74 -49.5t-49.5 -74.5t-18 -92t18 -92t49.5 -74.5t74 -49.5t91.5 -18zM535 123q-36 -64 -95.5 -99t-140.5 -35q-53 0 -100 20t-82.5 55t-56 83t-20.5 103t20 102.5t55.5 83
t82.5 55.5t101 20q81 0 142.5 -35.5t93.5 -101.5v126h30v-500h-30v123zM393 654v-3q0 -35 -22 -55.5t-52 -20.5q-31 0 -53.5 20.5t-22.5 55.5v3h29v-3q0 -20 12 -34t35 -14q21 0 33 14t12 34v3h29z" />
    <glyph glyph-name="Aogonek" unicode="&#x104;" horiz-adv-x="615" 
d="M132 208h351l-175 457zM16 0l274 710h35l275 -710q-3 -2 -10.5 -7.5t-15 -13.5t-13.5 -18t-6 -22q0 -8 4.5 -14t15.5 -6q10 0 25 6v-29q-15 -4 -28 -4q-26 0 -36.5 14t-10.5 29q0 23 15.5 40t29.5 25h-5l-70 178h-375l-69 -178h-35z" />
    <glyph glyph-name="aogonek" unicode="&#x105;" horiz-adv-x="605" 
d="M303 16q49 0 91 18t73.5 49.5t49.5 74.5t18 92t-18 92t-49.5 74.5t-73.5 49.5t-91 18t-91.5 -18t-74 -49.5t-49.5 -74.5t-18 -92t18 -92t49.5 -74.5t74 -49.5t91.5 -18zM565 -104q-15 -4 -28 -4q-26 0 -36.5 14t-10.5 29q0 20 12 36t26 25q2 1 3.5 2t3.5 2v123
q-36 -64 -95.5 -99t-140.5 -35q-53 0 -100 20t-82.5 55t-56 83t-20.5 103t20 102.5t55.5 83t82.5 55.5t101 20q81 0 142.5 -35.5t93.5 -101.5v126h30v-500q-3 -2 -10.5 -7.5t-15 -13.5t-13.5 -18t-6 -22q0 -8 4.5 -14t15.5 -6q10 0 25 6v-29z" />
    <glyph glyph-name="Cacute" unicode="&#x106;" horiz-adv-x="780" 
d="M428 867h39l-44 -88h-36zM739 212q-19 -50 -51.5 -91.5t-75.5 -71t-94.5 -45.5t-109.5 -16q-76 0 -141.5 28t-113.5 76.5t-75.5 115t-27.5 144.5q0 77 27.5 142.5t75.5 114t113.5 76t141.5 27.5q106 0 188 -51t127 -136l-25 -15q-19 39 -48 71t-66 55t-81.5 36t-94.5 13
q-74 0 -134.5 -26.5t-103 -72t-66 -106t-23.5 -127.5q0 -69 23.5 -130.5t66 -107.5t103 -73t134.5 -27q55 0 102.5 15.5t86.5 43t68 65.5t46 83z" />
    <glyph glyph-name="cacute" unicode="&#x107;" horiz-adv-x="579" 
d="M357 663l-44 -88h-36l41 88h39zM539 144q-31 -71 -94.5 -112t-143.5 -41q-56 0 -103.5 20t-82.5 54.5t-55 82.5t-20 103q0 56 20 103t55 82t82.5 54.5t103.5 19.5q74 0 132.5 -33.5t91.5 -90.5l-26 -16q-14 25 -36 45.5t-48.5 34.5t-56.5 22t-62 8q-48 0 -89.5 -18
t-71.5 -49t-47.5 -73t-17.5 -90t18 -89.5t49.5 -72.5t73.5 -48.5t90 -18.5q35 0 67.5 9.5t60.5 27.5t49 42.5t33 54.5z" />
    <glyph glyph-name="Ccircumflex" unicode="&#x108;" horiz-adv-x="780" 
d="M415 867l55 -88h-38l-41 68l-42 -68h-38l55 88h49zM739 212q-19 -50 -51.5 -91.5t-75.5 -71t-94.5 -45.5t-109.5 -16q-76 0 -141.5 28t-113.5 76.5t-75.5 115t-27.5 144.5q0 77 27.5 142.5t75.5 114t113.5 76t141.5 27.5q106 0 188 -51t127 -136l-25 -15q-20 39 -51 71
t-69 55.5t-81.5 36t-88.5 12.5q-69 0 -128.5 -25.5t-103.5 -70.5t-69.5 -105.5t-25.5 -130.5q0 -71 25 -133t69.5 -107.5t104 -71.5t128.5 -26q50 0 97 15t87 42.5t70.5 65.5t48.5 84z" />
    <glyph glyph-name="ccircumflex" unicode="&#x109;" horiz-adv-x="579" 
d="M369 575h-38l-41 68l-42 -68h-38l55 88h49zM539 144q-31 -71 -94.5 -112t-143.5 -41q-56 0 -103.5 20t-82.5 54.5t-55 82.5t-20 103q0 56 20 103t55 82t82.5 54.5t103.5 19.5q74 0 132.5 -33.5t91.5 -90.5l-26 -16q-14 25 -36 45.5t-48.5 34.5t-56.5 22t-62 8
q-48 0 -89.5 -18t-71.5 -49t-47.5 -73t-17.5 -90t18 -89.5t49.5 -72.5t73.5 -48.5t90 -18.5q35 0 67.5 9.5t60.5 27.5t49 42.5t33 54.5z" />
    <glyph glyph-name="Cdotaccent" unicode="&#x10a;" horiz-adv-x="780" 
d="M390 779q-10 0 -18 7.5t-8 19.5q0 11 8 18t18 7q11 0 19 -7t8 -18q0 -12 -8 -19.5t-19 -7.5zM739 212q-19 -50 -51.5 -91.5t-75.5 -71t-94.5 -45.5t-109.5 -16q-76 0 -141.5 28t-113.5 76.5t-75.5 115t-27.5 144.5q0 77 27.5 142.5t75.5 114t113.5 76t141.5 27.5
q106 0 188 -51t127 -136l-25 -15q-19 39 -48 71t-66 55t-81.5 36t-94.5 13q-74 0 -134.5 -26.5t-103 -72t-66 -106t-23.5 -127.5q0 -69 23.5 -130.5t66 -107.5t103 -73t134.5 -27q55 0 102.5 15.5t86.5 42.5t68 65t46 83z" />
    <glyph glyph-name="cdotaccent" unicode="&#x10b;" horiz-adv-x="579" 
d="M289 575q-10 0 -18 7.5t-8 19.5q0 11 8 18t18 7q11 0 19 -7t8 -18q0 -12 -8 -19.5t-19 -7.5zM539 144q-31 -71 -94.5 -112t-143.5 -41q-56 0 -103.5 20t-82.5 54.5t-55 82.5t-20 103q0 56 20 103t55 82t82.5 54.5t103.5 19.5q74 0 132.5 -33.5t91.5 -90.5l-26 -16
q-14 25 -36 45.5t-48.5 34.5t-56.5 22t-62 8q-48 0 -89.5 -18t-71.5 -49t-47.5 -73t-17.5 -90t18 -89.5t49.5 -72.5t73.5 -48.5t90 -18.5q35 0 67.5 9.5t60.5 27.5t49 42.5t33 54.5z" />
    <glyph glyph-name="Ccaron" unicode="&#x10c;" horiz-adv-x="780" 
d="M432 867h38l-55 -88h-49l-55 88h38l42 -68zM739 212q-19 -50 -51.5 -91.5t-75.5 -71t-94.5 -45.5t-109.5 -16q-76 0 -141.5 28t-113.5 76.5t-75.5 115t-27.5 144.5q0 77 27.5 142.5t75.5 114t113.5 76t141.5 27.5q106 0 188 -51t127 -136l-25 -15q-19 39 -48 71t-66 55
t-81.5 36t-94.5 13q-74 0 -134.5 -26.5t-103 -72t-66 -106t-23.5 -127.5q0 -69 23.5 -130.5t66 -107.5t103 -73t134.5 -27q55 0 102.5 15.5t86.5 42.5t68 65t46 83z" />
    <glyph glyph-name="ccaron" unicode="&#x10d;" horiz-adv-x="579" 
d="M369 663l-55 -88h-49l-55 88h38l42 -68l41 68h38zM539 144q-31 -71 -94.5 -112t-143.5 -41q-56 0 -103.5 20t-82.5 54.5t-55 82.5t-20 103q0 56 20 103t55 82t82.5 54.5t103.5 19.5q74 0 132.5 -33.5t91.5 -90.5l-26 -16q-14 25 -36 45.5t-48.5 34.5t-56.5 22t-62 8
q-48 0 -89.5 -18t-71.5 -49t-47.5 -73t-17.5 -90t18 -89.5t49.5 -72.5t73.5 -48.5t90 -18.5q35 0 67.5 9.5t60.5 27.5t49 42.5t33 54.5z" />
    <glyph glyph-name="Dcaron" unicode="&#x10e;" horiz-adv-x="716" 
d="M359 867h38l-55 -88h-49l-55 88h38l42 -68zM319 700q78 0 141.5 -27t109.5 -74.5t71 -111t25 -137.5q0 -73 -25 -137t-71 -111.5t-109.5 -74.5t-141.5 -27h-228v700h228zM316 670h-195v-639h195q82 0 142.5 28.5t100 74.5t58.5 103.5t19 115.5t-21.5 114.5t-62 101.5
t-100 73t-136.5 28z" />
    <glyph glyph-name="Dcroat" unicode="&#x110;" horiz-adv-x="716" 
d="M319 700q78 0 141.5 -27t109.5 -74.5t71 -111t25 -137.5q0 -73 -25 -137t-71 -111.5t-109.5 -74.5t-141.5 -27h-228v323h-50v30h50v347h228zM316 670h-195v-317h220v-30h-220v-292h195q82 0 142.5 28.5t100 74.5t58.5 103.5t19 115.5t-21.5 114.5t-62 101.5t-100 73
t-136.5 28z" />
    <glyph glyph-name="dcroat" unicode="&#x111;" horiz-adv-x="655" 
d="M303 16q49 0 91 18t73.5 49.5t49.5 74.5t18 92t-18 92t-49 74.5t-73.5 49.5t-91.5 18t-91.5 -18t-74 -49.5t-49.5 -74.5t-18 -92t18 -92t49.5 -74.5t74 -49.5t91.5 -18zM535 123q-36 -64 -95.5 -99t-140.5 -35q-53 0 -100 20t-82.5 55t-56 83t-20.5 103t20 102.5t55.5 83
t82.5 55.5t101 20q81 0 142.5 -35.5t93.5 -101.5v201h-170v30h170v95h30v-95h50v-30h-50v-575h-30v123z" />
    <glyph glyph-name="Emacron" unicode="&#x112;" horiz-adv-x="603" 
d="M91 700h446v-30h-416v-305h401v-30h-401v-305h416v-30h-446v700zM186 809h250v-30h-250v30z" />
    <glyph glyph-name="emacron" unicode="&#x113;" horiz-adv-x="555" 
d="M484 263q-3 49 -19 89t-43 68.5t-63 44t-78 15.5q-92 0 -148.5 -58t-62.5 -159h414zM281 510q59 0 103 -23.5t73 -62t43.5 -88.5t14.5 -103h-445q2 -46 18.5 -85t45 -67t67.5 -43.5t86 -15.5q60 0 106 24.5t74 67.5l25 -16q-32 -49 -84.5 -77.5t-120.5 -28.5
q-55 0 -100.5 19t-78 53t-50.5 81t-18 102q0 60 17 108.5t48.5 83t76 53t99.5 18.5zM153 575v30h250v-30h-250z" />
    <glyph glyph-name="Ebreve" unicode="&#x114;" horiz-adv-x="603" 
d="M377 855q0 -35 -22 -55.5t-52 -20.5q-31 0 -53.5 20.5t-22.5 55.5v3h29v-3q0 -20 12 -34t35 -14q21 0 33 14t12 34v3h29v-3zM91 700h447v-30h-417v-305h401v-30h-401v-305h417v-30h-447v700z" />
    <glyph glyph-name="ebreve" unicode="&#x115;" horiz-adv-x="555" 
d="M484 263q-3 49 -19 89t-43 68.5t-63 44t-78 15.5q-92 0 -148.5 -58t-62.5 -159h414zM281 510q59 0 103 -23.5t73 -62t43.5 -88.5t14.5 -103h-445q2 -46 18.5 -85t45 -67t67.5 -43.5t86 -15.5q60 0 106 24.5t74 67.5l25 -16q-32 -49 -84.5 -77.5t-120.5 -28.5
q-55 0 -100.5 19t-78 53t-50.5 81t-18 102q0 60 17 108.5t48.5 83t76 53t99.5 18.5zM353 654v-3q0 -35 -22 -55.5t-52 -20.5q-31 0 -53.5 20.5t-22.5 55.5v3h29v-3q0 -20 12 -34t35 -14q21 0 33 14t12 34v3h29z" />
    <glyph glyph-name="Edotaccent" unicode="&#x116;" horiz-adv-x="603" 
d="M307 779q-10 0 -18 7.5t-8 19.5q0 11 8 18t18 7q11 0 19 -7t8 -18q0 -12 -8 -19.5t-19 -7.5zM91 700h447v-30h-417v-305h401v-30h-401v-305h417v-30h-447v700z" />
    <glyph glyph-name="edotaccent" unicode="&#x117;" horiz-adv-x="555" 
d="M484 263q-3 49 -19 89t-43 68.5t-63 44t-78 15.5q-92 0 -148.5 -58t-62.5 -159h414zM281 510q59 0 103 -23.5t73 -62t43.5 -88.5t14.5 -103h-445q2 -46 18.5 -85t45 -67t67.5 -43.5t86 -15.5q60 0 106 24.5t74 67.5l25 -16q-32 -49 -84.5 -77.5t-120.5 -28.5
q-55 0 -100.5 19t-78 53t-50.5 81t-18 102q0 60 17 108.5t48.5 83t76 53t99.5 18.5zM277 575q-10 0 -18 7.5t-8 19.5q0 11 8 18t18 7q11 0 19 -7t8 -18q0 -12 -8 -19.5t-19 -7.5z" />
    <glyph glyph-name="Eogonek" unicode="&#x118;" horiz-adv-x="603" 
d="M540 -104q-15 -4 -28 -4q-26 0 -36.5 14t-10.5 29q0 23 15.5 40t29.5 25h-419v700h447v-30h-417v-305h401v-30h-401v-305h417v-30q-3 -2 -10 -7.5t-14.5 -13.5t-13 -18t-5.5 -22q0 -8 4.5 -14t15.5 -6q10 0 25 6v-29z" />
    <glyph glyph-name="eogonek" unicode="&#x119;" horiz-adv-x="555" 
d="M484 263q-3 49 -19 89t-43 68.5t-63 44t-78 15.5q-92 0 -148.5 -58t-62.5 -159h414zM281 510q59 0 103 -23.5t73 -62t43.5 -88.5t14.5 -103h-445q2 -46 18.5 -85t45 -67t67.5 -43.5t86 -15.5q60 0 106 24.5t74 67.5l25 -16q-29 -44 -74 -71.5t-103 -33.5
q-10 -8 -22 -21.5t-12 -32.5q0 -8 4.5 -14t15.5 -6q10 0 25 6v-29q-15 -4 -28 -4q-26 0 -36.5 14t-10.5 29q0 19 10.5 33.5t22.5 23.5q-54 1 -99 20.5t-77.5 53t-50 80t-17.5 101.5q0 60 17 108.5t48.5 83t76 53t99.5 18.5z" />
    <glyph glyph-name="Ecaron" unicode="&#x11a;" horiz-adv-x="603" 
d="M407 867l-55 -88h-49l-55 88h38l42 -68l41 68h38zM91 700h447v-30h-417v-305h401v-30h-401v-305h417v-30h-447v700z" />
    <glyph glyph-name="ecaron" unicode="&#x11b;" horiz-adv-x="555" 
d="M484 263q-3 49 -19 89t-43 68.5t-63 44t-78 15.5q-92 0 -148.5 -58t-62.5 -159h414zM281 510q59 0 103 -23.5t73 -62t43.5 -88.5t14.5 -103h-445q2 -46 18.5 -85t45 -67t67.5 -43.5t86 -15.5q60 0 106 24.5t74 67.5l25 -16q-32 -49 -84.5 -77.5t-120.5 -28.5
q-55 0 -100.5 19t-78 53t-50.5 81t-18 102q0 60 17 108.5t48.5 83t76 53t99.5 18.5zM320 663h38l-55 -88h-49l-55 88h38l42 -68z" />
    <glyph glyph-name="Gcircumflex" unicode="&#x11c;" horiz-adv-x="815" 
d="M690 524q-41 72 -113 116.5t-169 44.5q-74 0 -134.5 -26.5t-103 -72t-66 -106t-23.5 -127.5q0 -69 23.5 -130.5t66 -107.5t103 -73t134.5 -27q65 0 123 24t102 66.5t71 101t30 128.5h-430v30h460v-30q-3 -75 -31.5 -138.5t-76 -110t-111 -72.5t-137.5 -26
q-76 0 -141.5 28t-113.5 76.5t-75.5 115t-27.5 144.5q0 77 27.5 142.5t75.5 114t113.5 76t141.5 27.5q101 0 181 -47t126 -125zM486 779h-38l-41 68l-42 -68h-38l55 88h49z" />
    <glyph glyph-name="gcircumflex" unicode="&#x11d;" horiz-adv-x="645" 
d="M575 20q0 -51 -19 -93.5t-54 -73t-83.5 -47t-107.5 -16.5q-141 0 -216 102l23 19q32 -45 81.5 -68.5t110.5 -23.5q53 0 96 14.5t74 41t48 63.5t17 82v103q-37 -66 -97 -100t-139 -34q-53 0 -100 20.5t-82.5 56t-56 83t-20.5 101.5q0 55 20 102.5t55.5 83t82.5 55.5
t101 20q81 0 142.5 -35.5t93.5 -101.5v126h30v-480zM313 19q49 0 91 17.5t73.5 48.5t49.5 73.5t18 91.5t-18 91.5t-49 73.5t-73.5 48.5t-91.5 17.5t-91.5 -18t-74 -49t-49.5 -73t-18 -91q0 -48 18 -90.5t49.5 -73.5t74 -49t91.5 -18zM402 575h-38l-41 68l-42 -68h-38l55 88
h49z" />
    <glyph glyph-name="Gbreve" unicode="&#x11e;" horiz-adv-x="815" 
d="M690 524q-41 72 -113 116.5t-169 44.5q-74 0 -134.5 -26.5t-103 -72t-66 -106t-23.5 -127.5q0 -69 23.5 -130.5t66 -107.5t103 -73t134.5 -27q65 0 123 24t102 66.5t71 101t30 128.5h-430v30h460v-30q-3 -75 -31.5 -138.5t-76 -110t-111 -72.5t-137.5 -26
q-76 0 -141.5 28t-113.5 76.5t-75.5 115t-27.5 144.5q0 77 27.5 142.5t75.5 114t113.5 76t141.5 27.5q101 0 181 -47t126 -125zM482 855q0 -35 -22 -55.5t-52 -20.5q-31 0 -53.5 20.5t-22.5 55.5v3h29v-3q0 -20 12 -34t35 -14q21 0 33 14t12 34v3h29v-3z" />
    <glyph glyph-name="gbreve" unicode="&#x11f;" horiz-adv-x="645" 
d="M575 20q0 -51 -19 -93.5t-54 -73t-83.5 -47t-107.5 -16.5q-141 0 -216 102l23 19q32 -45 81.5 -68.5t110.5 -23.5q53 0 96 14.5t74 41t48 63.5t17 82v103q-37 -66 -97 -100t-139 -34q-53 0 -100 20.5t-82.5 56t-56 83t-20.5 101.5q0 55 20 102.5t55.5 83t82.5 55.5
t101 20q81 0 142.5 -35.5t93.5 -101.5v126h30v-480zM313 19q49 0 91 17.5t73.5 48.5t49.5 73.5t18 91.5t-18 91.5t-49 73.5t-73.5 48.5t-91.5 17.5t-91.5 -18t-74 -49t-49.5 -73t-18 -91q0 -48 18 -90.5t49.5 -73.5t74 -49t91.5 -18zM397 651q0 -35 -22 -55.5t-52 -20.5
q-31 0 -53.5 20.5t-22.5 55.5v3h29v-3q0 -20 12 -34t35 -14q21 0 33 14t12 34v3h29v-3z" />
    <glyph glyph-name="Gdotaccent" unicode="&#x120;" horiz-adv-x="815" 
d="M690 524q-41 72 -113 116.5t-169 44.5q-74 0 -134.5 -26.5t-103 -72t-66 -106t-23.5 -127.5q0 -69 23.5 -130.5t66 -107.5t103 -73t134.5 -27q65 0 123 24t102 66.5t71 101t30 128.5h-430v30h460v-30q-3 -75 -31.5 -138.5t-76 -110t-111 -72.5t-137.5 -26
q-76 0 -141.5 28t-113.5 76.5t-75.5 115t-27.5 144.5q0 77 27.5 142.5t75.5 114t113.5 76t141.5 27.5q101 0 181 -47t126 -125zM407 781q-10 0 -18 7.5t-8 19.5q0 11 8 18t18 7q11 0 19 -7t8 -18q0 -12 -8 -19.5t-19 -7.5z" />
    <glyph glyph-name="gdotaccent" unicode="&#x121;" horiz-adv-x="645" 
d="M575 20q0 -51 -19 -93.5t-54 -73t-83.5 -47t-107.5 -16.5q-141 0 -216 102l23 19q32 -45 81.5 -68.5t110.5 -23.5q53 0 96 14.5t74 41t48 63.5t17 82v103q-37 -66 -97 -100t-139 -34q-53 0 -100 20.5t-82.5 56t-56 83t-20.5 101.5q0 55 20 102.5t55.5 83t82.5 55.5
t101 20q81 0 142.5 -35.5t93.5 -101.5v126h30v-480zM313 19q49 0 91 17.5t73.5 48.5t49.5 73.5t18 91.5t-18 91.5t-49 73.5t-73.5 48.5t-91.5 17.5t-91.5 -18t-74 -49t-49.5 -73t-18 -91q0 -48 18 -90.5t49.5 -73.5t74 -49t91.5 -18zM322 575q-10 0 -18 7.5t-8 19.5
q0 11 8 18t18 7q11 0 19 -7t8 -18q0 -12 -8 -19.5t-19 -7.5z" />
    <glyph glyph-name="Hcircumflex" unicode="&#x124;" horiz-adv-x="688" 
d="M567 700h30v-700h-30v335h-446v-335h-30v700h30v-335h446v335zM423 779h-38l-41 68l-42 -68h-38l55 88h49z" />
    <glyph glyph-name="hcircumflex" unicode="&#x125;" horiz-adv-x="559" 
d="M285 507q102 0 153 -57.5t51 -157.5v-292h-30v287q0 88 -40.5 138t-129.5 52q-39 0 -73.5 -12.5t-60 -34.5t-40 -52t-14.5 -65v-313h-30v700h30v-291q26 46 74.5 72t109.5 26zM166 779h-38l-41 68l-42 -68h-38l55 88h49z" />
    <glyph glyph-name="itilde" unicode="&#x129;" horiz-adv-x="331" 
d="M40 606q2 33 21.5 54.5t48.5 21.5h5q23 -1 36 -10.5t23 -20t20 -19.5t27 -9q39 0 41 47h29q-3 -77 -70 -77q-22 0 -36 9t-25 20.5t-22 20.5t-27 9q-18 0 -29 -12.5t-12 -33.5h-30zM150 -1v501h30v-501h-30z" />
    <glyph glyph-name="dotlessi" unicode="&#x131;" horiz-adv-x="151" 
d="M60 -1v501h30v-501h-30z" />
    <glyph glyph-name="Ldot" unicode="&#x13f;" horiz-adv-x="572" 
d="M91 700h30v-670h370v-30h-400v700zM263 245q0 10 6.5 17t16.5 7t17 -7t7 -17t-7 -16.5t-17 -6.5t-16.5 6.5t-6.5 16.5z" />
    <glyph glyph-name="Lslash" unicode="&#x141;" horiz-adv-x="656" 
d="M175 280l-81 -43l-14 27l95 50v386h30v-370l160 85l14 -27l-174 -92v-266h370v-30h-400v280z" />
    <glyph glyph-name="lslash" unicode="&#x142;" horiz-adv-x="171" 
d="M-40 274v30h111v396h30v-396h109v-30h-109v-274h-30v274h-111z" />
    <glyph glyph-name="nacute" unicode="&#x144;" horiz-adv-x="619" 
d="M315 507q102 0 153 -57.5t51 -157.5v-292h-30v287q0 88 -40.5 138t-129.5 52q-39 0 -73.5 -12.5t-60 -34.5t-40 -52t-14.5 -65v-313h-30v500h30v-91q26 46 74.5 72t109.5 26zM349 712l-44 -88h-36l41 88h39z" />
    <glyph glyph-name="Ncaron" unicode="&#x147;" horiz-adv-x="694" 
d="M427 867l-55 -88h-49l-55 88h38l42 -68l41 68h38zM90 701h24l459 -634v634h30v-702h-18l-465 642v-642h-30v702z" />
    <glyph glyph-name="ncaron" unicode="&#x148;" horiz-adv-x="559" 
d="M359 663l-55 -88h-49l-55 88h38l42 -68l41 68h38zM285 507q102 0 153 -57.5t51 -157.5v-292h-30v287q0 88 -40.5 138t-129.5 52q-39 0 -73 -12.5t-59.5 -34.5t-40.5 -52t-15 -65v-313h-30v500h30v-91q26 46 74.5 72t109.5 26z" />
    <glyph glyph-name="Omacron" unicode="&#x14c;" horiz-adv-x="815" 
d="M258 809h250v-30h-250v30zM408 -12q-76 0 -141.5 28t-113.5 76.5t-75.5 115t-27.5 144.5q0 77 27.5 142.5t75.5 114t113.5 76t141.5 27.5t141.5 -27.5t113.5 -76t75 -114t27 -142.5q0 -78 -27 -144.5t-75 -115t-113.5 -76.5t-141.5 -28zM408 15q74 0 134 27t102.5 73
t66 107.5t23.5 130.5q0 67 -23.5 127.5t-66 106t-102.5 72t-134 26.5t-134.5 -26.5t-103 -72t-66 -106t-23.5 -127.5q0 -69 23.5 -130.5t66 -107.5t103 -73t134.5 -27z" />
    <glyph glyph-name="omacron" unicode="&#x14d;" horiz-adv-x="600" 
d="M175 605h250v-30h-250v30zM301 -9q-56 0 -103.5 20t-82.5 54.5t-55 82.5t-20 103q0 56 20 103t55 82t82.5 54.5t103.5 19.5t103 -19.5t82 -54.5t54.5 -82t19.5 -103q0 -55 -19.5 -103t-54.5 -82.5t-82 -54.5t-103 -20zM301 18q49 0 91 18t72.5 49t48 73.5t17.5 91.5
q0 50 -17.5 92.5t-48.5 73.5t-73 49t-90 18q-49 0 -91.5 -18t-73.5 -49t-48.5 -73.5t-17.5 -92.5q0 -49 17.5 -91.5t48.5 -74t73.5 -49t91.5 -17.5z" />
    <glyph glyph-name="Obreve" unicode="&#x14e;" horiz-adv-x="815" 
d="M408 15q74 0 134 27t102.5 73t66 107.5t23.5 130.5q0 67 -23.5 127.5t-66 106t-102.5 72t-134 26.5t-134.5 -26.5t-103 -72t-66 -106t-23.5 -127.5q0 -69 23.5 -130.5t66 -107.5t103 -73t134.5 -27zM408 -12q-76 0 -141.5 28t-113.5 76.5t-75.5 115t-27.5 144.5
q0 77 27.5 142.5t75.5 114t113.5 76t141.5 27.5t141.5 -27.5t113.5 -76t75 -114t27 -142.5q0 -78 -27 -144.5t-75 -115t-113.5 -76.5t-141.5 -28zM483 857v-3q0 -35 -22 -55.5t-52 -20.5q-31 0 -53.5 20.5t-22.5 55.5v3h29v-3q0 -20 12 -34t35 -14q21 0 33 14t12 34v3h29z
" />
    <glyph glyph-name="obreve" unicode="&#x14f;" horiz-adv-x="600" 
d="M301 18q49 0 91 18t72.5 49t48 73.5t17.5 91.5q0 50 -17.5 92.5t-48.5 73.5t-73 49t-90 18q-49 0 -91.5 -18t-73.5 -49t-48.5 -73.5t-17.5 -92.5q0 -49 17.5 -91.5t48.5 -74t73.5 -49t91.5 -17.5zM301 -9q-56 0 -103.5 20t-82.5 54.5t-55 82.5t-20 103q0 56 20 103t55 82
t82.5 54.5t103.5 19.5t103 -19.5t82 -54.5t54.5 -82t19.5 -103q0 -55 -19.5 -103t-54.5 -82.5t-82 -54.5t-103 -20zM375 654v-3q0 -35 -22 -55.5t-52 -20.5q-31 0 -53.5 20.5t-22.5 55.5v3h29v-3q0 -20 12 -34t35 -14q21 0 33 14t12 34v3h29z" />
    <glyph glyph-name="Ohungarumlaut" unicode="&#x150;" horiz-adv-x="815" 
d="M387 867l-47 -88h-33l41 88h39zM508 867l-48 -88h-33l41 88h40zM408 -12q-76 0 -141.5 28t-113.5 76.5t-75.5 115t-27.5 144.5q0 77 27.5 142.5t75.5 114t113.5 76t141.5 27.5t141.5 -27.5t113.5 -76t75 -114t27 -142.5q0 -78 -27 -144.5t-75 -115t-113.5 -76.5
t-141.5 -28zM408 15q74 0 134 27t102.5 73t66 107.5t23.5 130.5q0 67 -23.5 127.5t-66 106t-102.5 72t-134 26.5t-134.5 -26.5t-103 -72t-66 -106t-23.5 -127.5q0 -69 23.5 -130.5t66 -107.5t103 -73t134.5 -27z" />
    <glyph glyph-name="ohungarumlaut" unicode="&#x151;" horiz-adv-x="600" 
d="M280 663l-47 -88h-33l41 88h39zM401 663l-48 -88h-33l41 88h40zM301 -9q-56 0 -103.5 20t-82.5 54.5t-55 82.5t-20 103q0 56 20 103t55 82t82.5 54.5t103.5 19.5t103 -19.5t82 -54.5t54.5 -82t19.5 -103q0 -55 -19.5 -103t-54.5 -82.5t-82 -54.5t-103 -20zM301 18
q49 0 91 18t72.5 49t48 73.5t17.5 91.5q0 50 -17.5 92.5t-48.5 73.5t-73 49t-90 18q-49 0 -91.5 -18t-73.5 -49t-48.5 -73.5t-17.5 -92.5q0 -49 17.5 -91.5t48.5 -74t73.5 -49t91.5 -17.5z" />
    <glyph glyph-name="OE" unicode="&#x152;" horiz-adv-x="885" 
d="M398 673q-73 0 -133.5 -25t-103.5 -68.5t-66.5 -101.5t-23.5 -125q0 -69 23.5 -129t66 -103.5t103 -68.5t134.5 -25v646zM398 0q-76 0 -141.5 26t-113.5 72.5t-75.5 111t-27.5 142.5q0 76 27.5 140t75.5 110t113.5 72t141.5 26h447v-30h-417v-305h401v-30h-401v-305h417
v-30h-447z" />
    <glyph glyph-name="oe" unicode="&#x153;" horiz-adv-x="1195" 
d="M311 18q49 0 91 18t72.5 49t48 73.5t17.5 91.5q0 50 -17.5 92.5t-48.5 73.5t-73 49t-90 18q-49 0 -91.5 -18t-73.5 -49t-48.5 -73.5t-17.5 -92.5q0 -49 17.5 -91.5t48.5 -74t73.5 -49t91.5 -17.5zM986 263q-3 49 -19 89t-42.5 68.5t-62.5 44t-79 15.5q-92 0 -148.5 -58
t-62.5 -159h414zM1010 312q4 -19 6 -39t1 -40h-445q2 -46 18.5 -85t45 -67t67.5 -43.5t86 -15.5q60 0 106 24.5t74 67.5l26 -16q-32 -49 -85 -77.5t-121 -28.5q-43 0 -80.5 12t-68 34.5t-52 53.5t-33.5 68q-13 -37 -36.5 -68.5t-55 -53.5t-70 -34.5t-82.5 -12.5
q-56 0 -103.5 20t-82.5 54.5t-55 82.5t-20 103q0 56 20 103t55 82t82.5 54.5t103.5 19.5q44 0 82.5 -12t70 -34.5t55 -53.5t36.5 -69q23 79 82.5 124t145.5 45q87 0 146.5 -52t80.5 -146z" />
    <glyph glyph-name="Racute" unicode="&#x154;" 
d="M351 307q113 0 163.5 42.5t50.5 136.5q0 88 -56 136t-158 48h-231v-363h231zM90 0v700h261q244 0 244 -214q0 -159 -133 -199l129 -287h-33l-124 277h-314v-277h-30zM319 867h39l-44 -88h-36z" />
    <glyph glyph-name="racute" unicode="&#x155;" horiz-adv-x="347" 
d="M187 663l-44 -88h-36l41 88h39zM317 475q-9 2 -18 2h-17q-41 0 -74.5 -13t-57 -36.5t-36.5 -55.5t-13 -71v-301h-30v500h30v-93q25 50 73.5 75.5t106.5 25.5h17.5t17.5 -2z" />
    <glyph glyph-name="Rcaron" unicode="&#x158;" 
d="M351 307q113 0 163.5 42.5t50.5 136.5q0 88 -56 136t-158 48h-231v-363h231zM90 0v700h261q244 0 244 -214q0 -159 -133 -199l129 -287h-33l-124 277h-314v-277h-30zM359 867h38l-55 -88h-49l-55 88h38l42 -68z" />
    <glyph glyph-name="rcaron" unicode="&#x159;" horiz-adv-x="347" 
d="M241 663l-55 -88h-49l-55 88h38l42 -68l41 68h38zM317 475q-9 2 -18 2h-17q-41 0 -74.5 -13t-57 -36.5t-36.5 -55.5t-13 -71v-301h-30v500h30v-93q25 50 73.5 75.5t106.5 25.5h17.5t17.5 -2z" />
    <glyph glyph-name="Sacute" unicode="&#x15a;" horiz-adv-x="626" 
d="M339 867h39l-44 -88h-36zM552 587q-22 26 -50 44t-59 29t-64.5 15.5t-66.5 4.5q-44 0 -82.5 -11.5t-68.5 -31.5t-48.5 -48.5t-23.5 -62.5q-4 -29 4.5 -51t34.5 -40t72 -34.5t116 -34.5q68 -17 115.5 -35.5t78.5 -38.5t46 -43.5t19 -51.5q4 -25 1 -50.5t-12 -48t-23.5 -41
t-32.5 -30.5q-68 -46 -201 -46q-43 0 -86.5 10.5t-81 28.5t-67.5 42.5t-47 51.5l27 18q15 -27 42.5 -49t62 -38t75.5 -25t83 -9q121 0 177 40.5t53 126.5q-1 54 -54.5 90.5t-175.5 67.5q-46 12 -91 24.5t-81 30t-59 43t-26 62.5q-4 45 14.5 84t54 68t85 45.5t107.5 16.5
q31 0 68 -6t72.5 -18.5t66 -32t48.5 -47.5z" />
    <glyph glyph-name="sacute" unicode="&#x15b;" horiz-adv-x="472" 
d="M292 663l-44 -88h-36l41 88h39zM243 -11q-78 0 -130.5 30t-72.5 84l27 12q17 -46 64.5 -72.5t112.5 -26.5q76 0 117 31t41 89q0 30 -19 49.5t-46 31.5t-55.5 19t-48.5 12q-19 5 -48 11.5t-55 20.5t-45 37t-19 61q0 65 44.5 99.5t128.5 34.5q66 0 111.5 -25t62.5 -70
l-27 -14q-18 41 -53.5 60t-94.5 19q-75 0 -108.5 -26t-33.5 -77q0 -27 16 -44.5t39 -29t48.5 -18t45.5 -11.5q19 -5 50.5 -12t62 -22t52.5 -39.5t22 -64.5q0 -73 -48 -111t-141 -38z" />
    <glyph glyph-name="Scircumflex" unicode="&#x15c;" horiz-adv-x="626" 
d="M552 587q-22 26 -49.5 43.5t-59 28.5t-65 16t-66.5 5q-44 0 -82.5 -11.5t-68.5 -31.5t-48.5 -48.5t-23.5 -62.5q-4 -29 4.5 -51t34.5 -40t72 -34.5t116 -34.5q68 -17 115.5 -35.5t78.5 -38.5t46 -43.5t19 -51.5q4 -25 1 -50.5t-12 -48t-23.5 -41t-32.5 -30.5
q-68 -46 -201 -46q-43 0 -86.5 10.5t-81 28.5t-67.5 42.5t-47 51.5l27 18q15 -27 42.5 -49t62 -38t75 -25t82.5 -9q122 0 178 40.5t53 126.5q-1 54 -54.5 90.5t-175.5 67.5q-46 12 -91 24.5t-81 30t-59 43t-26 62.5q-4 45 14.5 84t54 68t85 45.5t107.5 16.5q31 0 68 -6
t72.5 -18.5t66 -32t48.5 -47.5zM392 792h-38l-41 68l-42 -68h-38l55 88h49z" />
    <glyph glyph-name="scircumflex" unicode="&#x15d;" horiz-adv-x="472" 
d="M316 575h-38l-41 68l-42 -68h-38l55 88h49zM243 -11q-78 0 -130.5 30t-72.5 84l27 12q17 -46 64.5 -72.5t112.5 -26.5q76 0 117 31t41 89q0 30 -19 49.5t-46 31.5t-55.5 19t-48.5 12q-19 5 -48 11.5t-55 20.5t-45 37t-19 61q0 65 44.5 99.5t128.5 34.5q27 0 54 -4.5
t51.5 -13.5t45 -22t35.5 -29l-22 -22q-26 31 -70 46t-95 15q-75 0 -108.5 -26t-33.5 -77q0 -27 16 -44.5t39 -29t48.5 -18t45.5 -11.5q19 -5 50.5 -12t62 -22t52.5 -39.5t22 -64.5q0 -73 -48 -111t-141 -38z" />
    <glyph glyph-name="Scaron" unicode="&#x160;" horiz-adv-x="626" 
d="M355 867h38l-55 -88h-49l-55 88h38l42 -68zM552 587q-22 26 -50 44t-59 29t-64.5 15.5t-66.5 4.5q-44 0 -82.5 -11.5t-68.5 -31.5t-48.5 -48.5t-23.5 -62.5q-4 -29 4.5 -51t34.5 -40t72 -34.5t116 -34.5q68 -17 115.5 -35.5t78.5 -38.5t46 -43.5t19 -51.5q4 -25 1 -50.5
t-12 -48t-23.5 -41t-32.5 -30.5q-68 -46 -201 -46q-43 0 -86.5 10.5t-81 28.5t-67.5 42.5t-47 51.5l27 18q15 -27 42.5 -49t62 -38t75.5 -25t83 -9q121 0 177 40.5t53 126.5q-1 54 -54.5 90.5t-175.5 67.5q-46 12 -91 24.5t-81 30t-59 43t-26 62.5q-4 45 14.5 84t54 68
t85 45.5t107.5 16.5q31 0 68 -6t72.5 -18.5t66 -32t48.5 -47.5z" />
    <glyph glyph-name="scaron" unicode="&#x161;" horiz-adv-x="472" 
d="M316 663l-55 -88h-49l-55 88h38l42 -68l41 68h38zM243 -11q-78 0 -130.5 30t-72.5 84l27 12q17 -46 64.5 -72.5t112.5 -26.5q76 0 117 31t41 89q0 30 -19 49.5t-46 31.5t-55.5 19t-48.5 12q-19 5 -48 11.5t-55 20.5t-45 37t-19 61q0 65 44.5 99.5t128.5 34.5
q66 0 111.5 -25t62.5 -70l-27 -14q-18 41 -53.5 60t-94.5 19q-75 0 -108.5 -26t-33.5 -77q0 -27 16 -44.5t39 -29t48.5 -18t45.5 -11.5q19 -5 50.5 -12t62 -22t52.5 -39.5t22 -64.5q0 -73 -48 -111t-141 -38z" />
    <glyph glyph-name="Tcaron" unicode="&#x164;" horiz-adv-x="521" 
d="M340 867l-55 -88h-49l-55 88h38l42 -68l41 68h38zM245 670h-235v30h500v-30h-235v-670h-30v670z" />
    <glyph glyph-name="Tbar" unicode="&#x166;" horiz-adv-x="521" 
d="M245 282h-209v30h209v358h-235v30h500v-30h-235v-358h211v-30h-211v-282h-30v282z" />
    <glyph glyph-name="Wcircumflex" unicode="&#x174;" horiz-adv-x="836" 
d="M424 700l240 -648l126 648h31l-136 -700h-33l-234 628l-234 -628h-33l-136 700h31l126 -648l241 648h11zM497 779h-38l-41 68l-42 -68h-38l55 88h49z" />
    <glyph glyph-name="wcircumflex" unicode="&#x175;" horiz-adv-x="736" 
d="M706 495l-168 -495h-31l-137 415l-138 -415h-32l-170 495h30l156 -447l150 447h10l147 -445l152 445h31zM447 575h-38l-41 68l-42 -68h-38l55 88h49z" />
    <glyph glyph-name="Ydieresis" unicode="&#x178;" horiz-adv-x="504" 
d="M181 819h40v-40h-40v40zM289 819h40v-40h-40v40zM239 285l-224 415h34l203 -375l203 375h34l-220 -407v-293h-30v285z" />
    <glyph glyph-name="Zacute" unicode="&#x179;" horiz-adv-x="551" 
d="M353 866l-44 -88h-36l41 88h39zM510 701v-24l-429 -647h422l-1 -30h-461v24l429 647h-411v30h451z" />
    <glyph glyph-name="zacute" unicode="&#x17a;" horiz-adv-x="560" 
d="M335 663l-44 -88h-36l41 88h39zM470 500v-29l-358 -441h378v-30h-417v30l357 440h-360v30h400z" />
    <glyph glyph-name="Zdotaccent" unicode="&#x17b;" horiz-adv-x="551" 
d="M275 779q-10 0 -18 7.5t-8 19.5q0 11 8 18t18 7q11 0 19 -7t8 -18q0 -12 -8 -19.5t-19 -7.5zM510 701v-24l-429 -647h422l-1 -30h-461v24l429 647h-411v30h451z" />
    <glyph glyph-name="zdotaccent" unicode="&#x17c;" horiz-adv-x="560" 
d="M280 595q-10 0 -18 7.5t-8 19.5q0 11 8 18t18 7q11 0 19 -7t8 -18q0 -12 -8 -19.5t-19 -7.5zM470 500v-29l-358 -441h378v-30h-417v30l357 440h-360v30h400z" />
    <glyph glyph-name="Zcaron" unicode="&#x17d;" horiz-adv-x="551" 
d="M355 868l-55 -88h-49l-55 88h38l42 -68l41 68h38zM510 701v-24l-429 -647h422l-1 -30h-461v24l429 647h-411v30h451z" />
    <glyph glyph-name="zcaron" unicode="&#x17e;" horiz-adv-x="560" 
d="M360 663l-55 -88h-49l-55 88h38l42 -68l41 68h38zM470 500v-29l-358 -441h378v-30h-417v30l357 440h-360v30h400z" />
    <glyph glyph-name="florin" unicode="&#x192;" horiz-adv-x="344" 
d="M185 68q-8 -140 -166 -146l1 30q62 0 97 29t38 87l22 402h-80l1 30h81q5 106 58 161t147 53l-2 -30q-79 4 -123.5 -43t-49.5 -141h153l-2 -30h-153z" />
    <glyph glyph-name="circumflex" unicode="&#x2c6;" horiz-adv-x="240" 
d="M199 592h-38l-41 68l-42 -68h-38l55 88h49z" />
    <glyph glyph-name="caron" unicode="&#x2c7;" horiz-adv-x="240" 
d="M199 683l-55 -88h-49l-55 88h38l42 -68l41 68h38z" />
    <glyph glyph-name="uni02C9" unicode="&#x2c9;" horiz-adv-x="377" 
d="M19 622h313v-30h-313v30z" />
    <glyph glyph-name="breve" unicode="&#x2d8;" horiz-adv-x="231" 
d="M190 670q0 -35 -22 -55.5t-52 -20.5q-31 0 -53.5 20.5t-22.5 55.5v3h29v-3q0 -20 12 -34t35 -14q21 0 33 14t12 34v3h29v-3z" />
    <glyph glyph-name="dotaccent" unicode="&#x2d9;" horiz-adv-x="134" 
d="M66 595q-10 0 -18 7.5t-8 19.5q0 11 8 18t18 7q11 0 19 -7t8 -18q0 -12 -8 -19.5t-19 -7.5z" />
    <glyph glyph-name="ring" unicode="&#x2da;" horiz-adv-x="226" 
d="M113 595q-30 0 -51.5 20.5t-21.5 52.5q0 34 21.5 54t51.5 20t51 -20t21 -54q0 -32 -21 -52.5t-51 -20.5zM113 621q22 0 34 14t12 33t-12 33.5t-34 14.5q-23 0 -34.5 -14.5t-11.5 -33.5t11.5 -33t34.5 -14z" />
    <glyph glyph-name="ogonek" unicode="&#x2db;" horiz-adv-x="156" 
d="M115 -104q-15 -4 -28 -4q-26 0 -36.5 14t-10.5 29q0 23 15.5 40t29.5 25h28q-3 -2 -10 -7.5t-14.5 -13.5t-13 -18t-5.5 -22q0 -8 4.5 -14t15.5 -6q10 0 25 6v-29z" />
    <glyph glyph-name="tilde" unicode="&#x2dc;" horiz-adv-x="292" 
d="M20 606q2 33 21.5 54.5t48.5 21.5q24 0 38 -9t24.5 -20.5t21 -20.5t27.5 -9q39 0 41 47h29q-3 -77 -70 -77q-22 0 -36 9t-25 20.5t-22 20.5t-27 9q-17 0 -28.5 -12.5t-12.5 -33.5h-30z" />
    <glyph glyph-name="hungarumlaut" unicode="&#x2dd;" horiz-adv-x="281" 
d="M120 684l-47 -88h-33l41 88h39zM241 684l-48 -88h-33l41 88h40z" />
    <glyph glyph-name="uni0326" unicode="&#x326;" horiz-adv-x="260" 
d="M119 222h46l-42 -117h-28z" />
    <glyph glyph-name="uni0394" unicode="&#x394;" horiz-adv-x="623" 
d="M550 30l-238 646l-239 -646h477zM41 0v30l252 680h38l252 -680v-30h-542z" />
    <glyph glyph-name="uni03BC" unicode="&#x3bc;" horiz-adv-x="579" 
d="M285 -7q-53 0 -99.5 19.5t-74.5 67.5v-280h-30v700h30v-287q0 -187 170 -190q40 0 74 12t59.5 34t40 52.5t14.5 65.5v313h30v-500h-30v91q-26 -46 -74.5 -72t-109.5 -26z" />
    <glyph glyph-name="Wgrave" unicode="&#x1e80;" horiz-adv-x="836" 
d="M352 867h40l40 -88h-35zM424 700l240 -648l126 648h31l-136 -700h-33l-234 628l-234 -628h-33l-136 700h31l126 -648l241 648h11z" />
    <glyph glyph-name="wgrave" unicode="&#x1e81;" horiz-adv-x="736" 
d="M308 663h40l40 -88h-35zM706 495l-168 -495h-31l-137 415l-138 -415h-32l-170 495h30l156 -447l150 447h10l147 -445l152 445h31z" />
    <glyph glyph-name="Wacute" unicode="&#x1e82;" horiz-adv-x="836" 
d="M474 865l-44 -88h-36l41 88h39zM424 700l240 -648l126 648h31l-136 -700h-33l-234 628l-234 -628h-33l-136 700h31l126 -648l241 648h11z" />
    <glyph glyph-name="wacute" unicode="&#x1e83;" horiz-adv-x="736" 
d="M431 663l-44 -88h-36l41 88h39zM706 495l-168 -495h-31l-137 415l-138 -415h-32l-170 495h30l156 -447l150 447h10l147 -445l152 445h31z" />
    <glyph glyph-name="Wdieresis" unicode="&#x1e84;" horiz-adv-x="836" 
d="M357 819h40v-40h-40v40zM442 819h40v-40h-40v40zM424 700l240 -648l126 648h31l-136 -700h-33l-234 628l-234 -628h-33l-136 700h31l126 -648l241 648h11z" />
    <glyph glyph-name="wdieresis" unicode="&#x1e85;" horiz-adv-x="736" 
d="M299 615h40v-40h-40v40zM398 615h40v-40h-40v40zM706 495l-168 -495h-31l-137 415l-138 -415h-32l-170 495h30l156 -447l150 447h10l147 -445l152 445h31z" />
    <glyph glyph-name="endash" unicode="&#x2013;" horiz-adv-x="350" 
d="M40 304h250v-30h-250v30z" />
    <glyph glyph-name="emdash" unicode="&#x2014;" horiz-adv-x="580" 
d="M40 304h500v-30h-500v30z" />
    <glyph glyph-name="quoteleft" unicode="&#x2018;" horiz-adv-x="175" 
d="M73 700h24l4 -120h-51z" />
    <glyph glyph-name="quoteright" unicode="&#x2019;" horiz-adv-x="175" 
d="M78 580h-24l-4 120h51z" />
    <glyph glyph-name="quotesinglbase" unicode="&#x201a;" horiz-adv-x="151" 
d="M73 0h24l4 -121h-51z" />
    <glyph glyph-name="quotedblleft" unicode="&#x201c;" horiz-adv-x="227" 
d="M102 700h24l-25 -120h-51zM173 700h24l-4 -120h-51z" />
    <glyph glyph-name="quotedblright" unicode="&#x201d;" horiz-adv-x="227" 
d="M145 580h-24l25 120h51zM74 580h-24l4 120h51z" />
    <glyph glyph-name="quotedblbase" unicode="&#x201e;" horiz-adv-x="249" 
d="M78 -76h-24l-4 121h51zM175 -76h-24l-4 121h51z" />
    <glyph glyph-name="dagger" unicode="&#x2020;" horiz-adv-x="440" 
d="M205 470h-135v30h135v200h30v-200h135v-30h-135v-470h-30v470z" />
    <glyph glyph-name="daggerdbl" unicode="&#x2021;" horiz-adv-x="440" 
d="M205 287h-135v30h135v153h-135v30h135v200h30v-200h135v-30h-135v-153h135v-30h-135v-287h-30v287z" />
    <glyph glyph-name="bullet" unicode="&#x2022;" horiz-adv-x="376" 
d="M135 351q0 20 13.5 34t33.5 14t34 -14t14 -34t-14 -33.5t-34 -13.5t-33.5 13.5t-13.5 33.5z" />
    <glyph glyph-name="ellipsis" unicode="&#x2026;" horiz-adv-x="371" 
d="M50 25q0 11 7 18t18 7t18 -7t7 -18t-7 -18t-18 -7t-18 7t-7 18zM160 25q0 11 7 18t18 7t18 -7t7 -18t-7 -18t-18 -7t-18 7t-7 18zM270 25q0 11 7 18t18 7t18 -7t7 -18t-7 -18t-18 -7t-18 7t-7 18z" />
    <glyph glyph-name="perthousand" unicode="&#x2030;" horiz-adv-x="1177" 
d="M220 326q-36 0 -66.5 14.5t-52.5 40t-34 61t-12 77.5t12 77.5t34 61t52.5 40t66.5 14.5q37 0 67.5 -14.5t53 -40t35 -61t12.5 -77.5t-12.5 -77.5t-35 -61t-53 -40t-67.5 -14.5zM599 710h35l-391 -710h-35zM219 356q63 0 100.5 44.5t37.5 119.5q0 36 -10 66t-28 51
t-43.5 33t-56.5 12q-60 0 -96.5 -44.5t-36.5 -117.5q0 -75 36 -119.5t97 -44.5zM634 0q-36 0 -66.5 14.5t-52.5 40t-34 61t-12 77.5t12 77.5t34 61t52.5 40t66.5 14.5q37 0 67.5 -14.5t53 -40t35 -61t12.5 -77.5t-12.5 -77.5t-35 -61t-53 -40t-67.5 -14.5zM1009 0
q-36 0 -66.5 14.5t-52.5 40t-34 61t-12 77.5t12 77.5t34 61t52.5 40t66.5 14.5q37 0 67.5 -14.5t53 -40t35 -61t12.5 -77.5t-12.5 -77.5t-35 -61t-53 -40t-67.5 -14.5zM633 30q63 0 100.5 44.5t37.5 119.5q0 36 -10 66t-28 51t-43.5 33t-56.5 12q-60 0 -96.5 -44.5
t-36.5 -117.5q0 -75 36 -119.5t97 -44.5zM1009 30q62 0 99.5 44.5t37.5 119.5q0 36 -10 66t-28 51t-43.5 33t-55.5 12q-60 0 -97 -44.5t-37 -117.5q0 -75 36 -119.5t98 -44.5z" />
    <glyph glyph-name="guilsinglleft" unicode="&#x2039;" horiz-adv-x="307" 
d="M110 309l117 -153h-30l-117 153l117 153h30z" />
    <glyph glyph-name="guilsinglright" unicode="&#x203a;" horiz-adv-x="307" 
d="M110 462l117 -153l-117 -153h-30l117 153l-117 153h30z" />
    <glyph glyph-name="fraction" unicode="&#x2044;" horiz-adv-x="625" 
d="M564 800h35l-533 -900h-35z" />
    <glyph glyph-name="franc" unicode="&#x20a3;" horiz-adv-x="540" 
d="M66 183h-86v30h86v487h423v-30h-393v-285h378v-30h-378v-142h184v-30h-184v-183h-30v183z" />
    <glyph glyph-name="lira" unicode="&#x20a4;" horiz-adv-x="439" 
d="M0 291h81v101h-81v30h81v83q0 99 45.5 152t131.5 53q106 0 151 -84l-26 -16q-18 35 -48.5 52.5t-77.5 17.5q-72 0 -109 -44.5t-37 -130.5v-83h187v-30h-187v-101h191v-30h-191v-135q0 -35 -7 -61t-21 -35h326v-30h-378v30q9 0 14 4q36 17 36 92v135h-81v30z" />
    <glyph glyph-name="peseta" unicode="&#x20a7;" horiz-adv-x="1419" 
d="M319 263q91 0 142.5 54.5t51.5 149.5q0 94 -51.5 148.5t-142.5 54.5h-199v-407h199zM994 -11q-78 0 -131 30t-72 84l27 12q17 -46 64.5 -72.5t112.5 -26.5q76 0 117 31t41 89q0 30 -19 49.5t-46 31.5t-55.5 19t-48.5 12t-48.5 11.5t-55 20.5t-45 37t-18.5 61q0 59 36 92
h-203v-332q0 -57 33.5 -86.5t94.5 -29.5v-30q-78 3 -118 39t-40 104v335h-77q0 -112 -61 -174.5t-173 -62.5h-189v-233h-30v700h219q107 0 165 -53.5t68 -146.5h78l2 159h28v-159h256q35 12 83 12q69 0 118.5 -25.5t65.5 -69.5l-28 -13q-34 78 -157 78q-75 0 -108.5 -26
t-33.5 -77q0 -27 16 -44.5t39 -29t49 -18t45 -11.5t50.5 -12t62 -22t52.5 -40t22 -65q0 -72 -47.5 -110t-140.5 -38z" />
    <glyph glyph-name="Euro" unicode="&#x20ac;" horiz-adv-x="630" 
d="M548 615q-31 32 -71 49t-91 17t-92.5 -18.5t-72.5 -52t-50 -81t-27 -104.5h239v-30h-242q-1 -11 -1.5 -21.5t-0.5 -21.5q0 -29 3 -58h241v-30h-237q9 -54 29.5 -98.5t51 -76.5t70.5 -49.5t89 -17.5q51 0 91 17t71 49l22 -20q-35 -36 -81 -56t-103 -20q-55 0 -100.5 20
t-80 56t-57.5 86t-32 110h-85v30h81q-3 29 -3 57q0 11 0.5 22t0.5 22h-79v30h82q8 63 30 116t56.5 90.5t81.5 58.5t105 21q57 0 103 -20t81 -56z" />
    <glyph glyph-name="uni2113" unicode="&#x2113;" horiz-adv-x="520" 
 />
    <glyph glyph-name="uni2116" unicode="&#x2116;" horiz-adv-x="1294" 
d="M995 208q49 0 91 18t72.5 49t48 73.5t17.5 91.5q0 50 -17.5 92.5t-48.5 74t-73 49.5t-90 18q-49 0 -91.5 -18t-73.5 -49.5t-48.5 -74t-17.5 -92.5q0 -49 17.5 -91.5t48.5 -74t73.5 -49t91.5 -17.5zM749 0v30h498v-30h-498zM90 -1v702h24l459 -634v634h30v-702h-18
l-465 642v-642h-30zM995 181q-56 0 -103.5 20t-82.5 54.5t-55 82.5t-20 103q0 56 20 103t55 82t82.5 54.5t103.5 19.5t103 -19.5t82 -54.5t54.5 -82t19.5 -103q0 -55 -19.5 -103t-54.5 -82.5t-82 -54.5t-103 -20z" />
    <glyph glyph-name="trademark" unicode="&#x2122;" horiz-adv-x="410" 
d="M86 671h-56v30h144v-30h-58v-171h-30v171zM272 530l-44 104v-134h-30v201h34l57 -132l57 132h33v-201h-30v134l-43 -104h-34z" />
    <glyph glyph-name="estimated" unicode="&#x212e;" horiz-adv-x="555" 
d="M137 263h298v142q-28 35 -67 55t-87 20q-45 0 -81 -14t-63 -40v-163zM281 510q59 0 103 -23.5t73 -62t43.5 -88.5t14.5 -103h-378v-155q28 -26 66 -41t84 -15q60 0 106 24.5t74 67.5l25 -16q-32 -49 -84.5 -77.5t-120.5 -28.5q-55 0 -100.5 19t-78 53t-50.5 81t-18 102
q0 60 17 108.5t48.5 83t76 53t99.5 18.5z" />
    <glyph glyph-name="arrowleft" unicode="&#x2190;" horiz-adv-x="543" 
d="M513 362v-30h-423l122 -121l-22 -21l-160 159l153 148l22 -20l-117 -115h425z" />
    <glyph glyph-name="arrowup" unicode="&#x2191;" horiz-adv-x="558" 
d="M272 0v425l-121 -124l-21 23l155 159l159 -160l-22 -22l-120 122v-423h-30z" />
    <glyph glyph-name="arrowright" unicode="&#x2192;" horiz-adv-x="543" 
d="M30 362h425l-117 115l22 20l153 -148l-160 -159l-22 21l122 121h-423v30z" />
    <glyph glyph-name="arrowdown" unicode="&#x2193;" horiz-adv-x="558" 
d="M272 483h30v-423l120 122l22 -22l-159 -160l-155 159l21 23l121 -124v425z" />
    <glyph glyph-name="partialdiff" unicode="&#x2202;" horiz-adv-x="571" 
d="M284 447q-42 0 -79.5 -16.5t-65 -45.5t-43.5 -68t-16 -83q0 -48 15.5 -87t42.5 -66.5t64.5 -43t80.5 -15.5q44 0 82 15.5t66 43t43.5 66.5t15.5 87q0 47 -15.5 86t-42.5 67.5t-65 44t-83 15.5zM208 700h37q45 -66 84.5 -124.5t81.5 -109.5q27 -33 47.5 -61.5t34 -55.5
t20.5 -55t7 -60q0 -53 -18 -97.5t-49.5 -76.5t-75 -50t-93.5 -18t-92.5 18t-74 50t-49.5 76.5t-18 97.5t19.5 98t52 77.5t75 51t89.5 18.5q44 0 85 -16z" />
    <glyph glyph-name="product" unicode="&#x220f;" horiz-adv-x="649" 
d="M101 711h432v-911h-30v881h-372v-881h-30v911z" />
    <glyph glyph-name="summation" unicode="&#x2211;" horiz-adv-x="677" 
d="M87 -170l233 510l-224 329v31h421v-30h-385l222 -328l-234 -512h412v-30h-445v30z" />
    <glyph glyph-name="minus" unicode="&#x2212;" horiz-adv-x="572" 
d="M391 363v-30h-290v30h290z" />
    <glyph glyph-name="uni2215" unicode="&#x2215;" horiz-adv-x="405" 
d="M354 800h30l-333 -900h-30z" />
    <glyph glyph-name="uni2219" unicode="&#x2219;" horiz-adv-x="112" 
d="M21 392q0 15 10.5 25t24.5 10q15 0 25 -10t10 -25q0 -14 -10 -24.5t-25 -10.5q-14 0 -24.5 10.5t-10.5 24.5z" />
    <glyph glyph-name="radical" unicode="&#x221a;" horiz-adv-x="583" 
d="M20 402h66l123 -362l333 760h33l-351 -800h-33l-126 372h-45v30z" />
    <glyph glyph-name="infinity" unicode="&#x221e;" horiz-adv-x="842" 
d="M421 246q-44 -70 -89.5 -101.5t-102.5 -31.5q-37 0 -68 12.5t-53.5 34.5t-35 52.5t-12.5 66.5t12.5 66.5t35 52.5t53.5 34.5t68 12.5q57 0 102.5 -32t89.5 -101q44 69 89.5 101t102.5 32q37 0 68 -12.5t53.5 -34.5t35 -52.5t12.5 -66.5t-12.5 -66.5t-35 -52.5
t-53.5 -34.5t-68 -12.5q-57 0 -102 31.5t-90 101.5zM436 279q43 -72 83.5 -104t88.5 -32q66 0 105 37t39 99t-39 99t-105 37q-48 0 -89 -32t-83 -104zM406 279q-42 72 -83 104t-89 32q-66 0 -105 -37t-39 -99t39.5 -99t104.5 -37q48 0 88.5 32t83.5 104z" />
    <glyph glyph-name="integral" unicode="&#x222b;" horiz-adv-x="387" 
d="M147 612q-1 70 39 106.5t118 39.5v-30q-61 0 -94.5 -29.5t-33.5 -86.5l1 -711q0 -137 -158 -143v30q62 0 95 29.5t33 86.5v708z" />
    <glyph glyph-name="approxequal" unicode="&#x2248;" horiz-adv-x="292" 
d="M201 373q-22 0 -36 9t-25 20t-22 20t-27 9q-17 0 -28.5 -12.5t-12.5 -32.5h-30q2 32 21.5 54t48.5 22q24 0 38 -9t24.5 -20.5t21 -20.5t27.5 -9q39 0 41 47h29q-3 -77 -70 -77zM201 277q-22 0 -36 9t-25 20t-22 20t-27 9q-17 0 -28.5 -12.5t-12.5 -32.5h-30q2 32 21.5 54
t48.5 22q24 0 38 -9t24.5 -20.5t21 -20.5t27.5 -9q39 0 41 47h29q-3 -77 -70 -77z" />
    <glyph glyph-name="notequal" unicode="&#x2260;" horiz-adv-x="572" 
d="M238 260h-160v30h171l49 133h-220v30h231l31 84h30l-31 -84h139v-30h-150l-49 -133h199v-30h-210l-28 -75h-30z" />
    <glyph glyph-name="lessequal" unicode="&#x2264;" horiz-adv-x="620" 
d="M60 470l500 200v-32l-440 -176l440 -176v-33l-500 200v17zM560 150v-30h-500v30h500z" />
    <glyph glyph-name="greaterequal" unicode="&#x2265;" horiz-adv-x="620" 
d="M60 253v33l440 176l-440 176v32l500 -200v-17zM560 120h-500v30h500v-30z" />
    <glyph glyph-name="lozenge" unicode="&#x25ca;" horiz-adv-x="444" 
d="M222 49l177 301l-177 300l-177 -300zM216 0l-206 350l206 350h12l206 -350l-206 -350h-12z" />
    <glyph glyph-name="uniF8FF" unicode="&#xf8ff;" horiz-adv-x="0" 
 />
    <glyph glyph-name="f_f" unicode="&#xfb00;" horiz-adv-x="618" 
d="M384 0v470h-203v-470h-30v470h-81v30h81q-2 203 193 200v-31q-83 4 -123 -37t-40 -132h203q-1 106 49 161t144 53v-30q-79 4 -121 -43t-42 -141h153v-30h-153v-470h-30z" />
    <glyph glyph-name="fi" unicode="&#xfb01;" horiz-adv-x="481" 
d="M151 0v470h-81v30h81q-2 203 193 200v-31q-83 4 -123 -37t-40 -132l259 -1v-500h-30v471h-229v-470h-30zM410 700h30v-30h-30v30z" />
    <glyph glyph-name="fl" unicode="&#xfb02;" horiz-adv-x="481" 
d="M151 0v470h-81v30h81q-2 203 193 200v-31q-83 4 -123 -37t-40 -132l229 -1v201h30v-701h-30v471h-229v-470h-30z" />
    <glyph glyph-name="f_f_i" unicode="&#xfb03;" horiz-adv-x="743" 
d="M151 0v470h-81v30h81q-1 106 49 161t144 53v-30q-80 4 -121.5 -43t-41.5 -141h202q-2 203 193 200v-31q-83 4 -123 -37t-40 -132l259 -1v-500h-30v471h-229v-470h-30v470h-202v-470h-30zM642 700h30v-30h-30v30z" />
    <glyph glyph-name="f_f_l" unicode="&#xfb04;" horiz-adv-x="743" 
d="M151 0v470h-81v30h81q-1 106 49 161t144 53v-30q-80 4 -121.5 -43t-41.5 -141h202q-2 203 193 200v-31q-83 4 -123 -37t-40 -132l229 -1v201h30v-701h-30v471h-229v-470h-30v470h-202v-470h-30z" />
    <glyph glyph-name="Bitcoin" horiz-adv-x="658" 
d="M48 699h141v100h30v-100h112v100h30v-100h50q47 0 82 -14.5t58 -39.5t34.5 -59t11.5 -72q0 -52 -27 -96t-69 -69q52 -20 84.5 -64.5t32.5 -102.5q0 -39 -11.5 -72.5t-34.5 -59t-57.5 -40t-81.5 -14.5h-72v-100h-30v100h-112v-100h-30v100h-141v30h55v643h-55v30zM408 361
q37 0 66.5 13t50 34.5t31.5 49t11 56.5t-8 56.5t-26.5 49.5t-49 35.5t-75.5 13.5h-275v-308h275zM429 26q45 0 75.5 14t49 36.5t26 50t7.5 55.5q0 29 -11 55.5t-31.5 47.5t-49.5 33.5t-66 12.5h-296v-305h296z" />
    <glyph glyph-name="grave.case" horiz-adv-x="260" 
d="M90 909h40l40 -88h-35z" />
    <glyph glyph-name="dieresis.case" horiz-adv-x="260" 
d="M21 863h40v-40h-40v40zM181 863h40v-40h-40v40z" />
    <glyph glyph-name="macron.case" horiz-adv-x="260" 
 />
    <glyph glyph-name="acute.case" horiz-adv-x="260" 
d="M170 912l-44 -88h-36l41 88h39z" />
    <glyph glyph-name="circumflex.case" horiz-adv-x="260" 
d="M209 792h-38l-41 68l-42 -68h-38l55 88h49z" />
    <glyph glyph-name="caron.case" horiz-adv-x="260" 
d="M209 883l-55 -88h-49l-55 88h38l42 -68l41 68h38z" />
    <glyph glyph-name="breve.case" horiz-adv-x="260" 
d="M205 870q0 -35 -22 -55.5t-52 -20.5q-31 0 -53.5 20.5t-22.5 55.5v3h29v-3q0 -20 12 -34t35 -14q21 0 33 14t12 34v3h29v-3z" />
    <glyph glyph-name="dotaccent.case" horiz-adv-x="260" 
d="M129 795q-10 0 -18 7.5t-8 19.5q0 11 8 18t18 7q11 0 19 -7t8 -18q0 -12 -8 -19.5t-19 -7.5z" />
    <glyph glyph-name="tilde.case" horiz-adv-x="260" 
d="M4 806q2 33 21.5 54.5t48.5 21.5q24 0 38 -9t24.5 -20.5t21 -20.5t27.5 -9q39 0 41 47h29q-3 -77 -70 -77q-22 0 -36 9t-25 20.5t-22 20.5t-27 9q-17 0 -28.5 -12.5t-12.5 -33.5h-30z" />
    <glyph glyph-name="ring.case" horiz-adv-x="260" 
d="M130 795q-30 0 -51.5 20.5t-21.5 52.5q0 34 21.5 54t51.5 20t51 -20t21 -54q0 -32 -21 -52.5t-51 -20.5zM130 821q22 0 34 14t12 33t-12 33.5t-34 14.5q-23 0 -34.5 -14.5t-11.5 -33.5t11.5 -33t34.5 -14z" />
    <glyph glyph-name="hungarumlaut.case" horiz-adv-x="260" 
d="M109 884l-47 -88h-33l41 88h39zM230 884l-48 -88h-33l41 88h40z" />
    <glyph glyph-name="caron.salt" horiz-adv-x="240" 
d="M243 914l-55 -88h-49l-55 88h38l42 -68l41 68h38z" />
    <glyph glyph-name="uni0326.salt" horiz-adv-x="260" 
d="M119 222h46l-42 -117h-28z" />
    <glyph glyph-name="Q.alt" horiz-adv-x="795" 
d="M398 -12q-76 0 -141.5 28t-113.5 76.5t-75.5 115t-27.5 144.5q0 77 27.5 142.5t75.5 114t113.5 76t141.5 27.5t141.5 -27.5t113.5 -76t75 -114t27 -142.5q0 -78 -27 -144.5t-75 -115t-113.5 -76.5t-141.5 -28zM398 15q74 0 134 27t102.5 73t66 107.5t23.5 130.5
q0 67 -23.5 127.5t-66 106t-102.5 72t-134 26.5t-134.5 -26.5t-103 -72t-66 -106t-23.5 -127.5q0 -69 23.5 -130.5t66 -107.5t103 -73t134.5 -27zM644 -30q0 8 6 14t14 6q9 0 15 -6t6 -14q0 -9 -6 -15t-15 -6q-8 0 -14 6t-6 15z" />
    <glyph glyph-name="quotesinglbase1" horiz-adv-x="175" 
d="M78 -76h-24l-4 121h51z" />
    </font>
</defs>
</svg>
