<?xml version="1.0" standalone="no"?>
<!DOCTYPE svg PUBLIC "-//W3C//DTD SVG 1.1//EN" "http://www.w3.org/Graphics/SVG/1.1/DTD/svg11.dtd" >
<svg xmlns="http://www.w3.org/2000/svg" xmlns:xlink="http://www.w3.org/1999/xlink" version="1.1">
<metadata>
Created by FontForge 20201107 at Fri May 16 08:29:07 2025
 By www-data
Bilmond (c) Luminatype Studio  2025. All Rights Reserved
</metadata>
<defs>
<font id="Bilmond-Regular" horiz-adv-x="637" >
  <font-face 
    font-family="Bilmond"
    font-weight="400"
    font-stretch="normal"
    units-per-em="1000"
    panose-1="0 0 0 0 0 0 0 0 0 0"
    ascent="800"
    descent="-200"
    x-height="497"
    cap-height="701"
    bbox="-40 -241 1265 961"
    underline-thickness="50"
    underline-position="-100"
    unicode-range="U+000D-FB04"
  />
<missing-glyph horiz-adv-x="500" 
 />
    <glyph glyph-name=".notdef" horiz-adv-x="500" 
 />
    <glyph glyph-name=".null" horiz-adv-x="0" 
 />
    <glyph glyph-name=".null" horiz-adv-x="0" 
 />
    <glyph glyph-name="uni000D" unicode="&#xd;" horiz-adv-x="250" 
 />
    <glyph glyph-name="space" unicode=" " horiz-adv-x="269" 
 />
    <glyph glyph-name="exclam" unicode="!" horiz-adv-x="269" 
d="M124 200h-64l-9 510h82zM132 0h-80v74h80v-74z" />
    <glyph glyph-name="quotedbl" unicode="&#x22;" horiz-adv-x="265" 
d="M41 700h78l-13 -160h-53zM146 700h78l-12 -160h-54z" />
    <glyph glyph-name="numbersign" unicode="#" horiz-adv-x="723" 
d="M439 242l47 213h-225l-46 -213h224zM659 455h-117l-46 -213h132l-7 -56h-137l-42 -189h-56l41 189h-225l-41 -189h-56l41 189h-115l7 56h121l46 213h-136l7 56h141l42 189h56l-41 -189h224l41 189h57l-41 -189h111z" />
    <glyph glyph-name="dollar" unicode="$" horiz-adv-x="652" 
d="M306 -109v90q-41 2 -81 12.5t-74.5 28.5t-63 41.5t-47.5 50.5l53 50q14 -24 38 -44.5t55.5 -36.5t68 -25t74.5 -9q97 0 148.5 35.5t49.5 100.5q-1 30 -21 51t-52 37.5t-73 29t-83 25.5t-82.5 28t-72 35t-51 48t-19.5 67q0 42 17 78t48 62.5t73.5 43t94.5 19.5v91h52v-91
q75 -5 137.5 -34t109.5 -87l-51 -52q-16 26 -43 45.5t-59 33t-65.5 20.5t-62.5 7q-36 0 -68 -9t-55.5 -26t-37.5 -41t-14 -54q0 -23 17.5 -41t45.5 -32.5t64.5 -27t75.5 -25.5q41 -13 83 -28.5t77 -36t59.5 -49t29.5 -67.5q7 -57 -12.5 -97.5t-55 -67t-82 -40.5t-93.5 -17
v-92h-52z" />
    <glyph glyph-name="percent" unicode="%" horiz-adv-x="828" 
d="M211 326q-37 0 -67.5 14.5t-52.5 40t-34 61t-12 77.5t12 77.5t34 61t52.5 40t67.5 14.5t67.5 -14.5t53 -40t35 -61t12.5 -77.5t-12.5 -77.5t-35 -61t-53 -40t-67.5 -14.5zM587 710h48l-387 -710h-48zM210 372q54 0 86.5 41t32.5 107q0 65 -33 105t-86 40
q-52 0 -83.5 -39.5t-31.5 -105.5q0 -67 31.5 -107.5t83.5 -40.5zM631 0q-36 0 -66.5 14.5t-52.5 40t-34 61t-12 77.5t12 77.5t34 61t52.5 40t66.5 14.5q37 0 67.5 -14.5t53 -40t35 -61t12.5 -77.5t-12.5 -77.5t-35 -61t-53 -40t-67.5 -14.5zM631 46q54 0 86.5 41t32.5 107
q0 65 -33 105t-86 40q-55 0 -85 -39.5t-30 -105.5q0 -67 31.5 -107.5t83.5 -40.5z" />
    <glyph glyph-name="ampersand" unicode="&#x26;" horiz-adv-x="678" 
d="M124 173q6 -55 52.5 -88t120.5 -33q52 0 95 17t72 48l-201 231q-42 -24 -70.5 -45.5t-45 -42t-22 -42t-1.5 -45.5zM197 565q0 -30 24.5 -63.5t59.5 -76.5q51 30 80.5 67.5t29.5 75.5q0 39 -26 63.5t-69 24.5q-44 0 -71 -25t-28 -66zM568 0l-60 68q-42 -40 -97 -60.5
t-121 -20.5q-48 0 -88.5 11.5t-71.5 32.5t-50.5 51t-25.5 67q-15 66 25.5 128.5t142.5 116.5q-50 57 -72 95.5t-22 75.5q0 33 12.5 60.5t35 48t53.5 32t68 11.5q35 0 65 -11t51.5 -30.5t33.5 -46t12 -58.5q0 -52 -34 -97t-105 -92l187 -217q43 77 41 160h63q0 -123 -58 -210
l66 -74z" />
    <glyph glyph-name="quotesingle" unicode="'" horiz-adv-x="164" 
d="M43 700h78l-12 -160h-54z" />
    <glyph glyph-name="parenleft" unicode="(" horiz-adv-x="241" 
d="M145 -100q-37 45 -61.5 116.5t-37 156.5t-12.5 176.5t12.5 177t37 157.5t61.5 117h61q-39 -42 -64.5 -114t-38.5 -158t-13 -179t13 -179t39 -157.5t65 -113.5h-62z" />
    <glyph glyph-name="parenright" unicode=")" horiz-adv-x="241" 
d="M34 -100q39 42 65 113.5t39 157.5t13 179t-13 179t-38.5 158t-64.5 114h61q37 -45 61.5 -117t37 -157.5t12.5 -177t-12.5 -176.5t-37 -156.5t-61.5 -116.5h-62z" />
    <glyph glyph-name="asterisk" unicode="*" horiz-adv-x="512" 
d="M283 702l-24 -132l107 81l40 -66l-125 -52l126 -49l-40 -66l-107 80l23 -132h-86l24 132l-106 -83l-40 70l123 50l-123 52l39 67l106 -84l-24 132h87z" />
    <glyph glyph-name="plus" unicode="+" horiz-adv-x="545" 
d="M449 317h-150v-150h-64v150h-150v63h150v150h64v-150h150v-63z" />
    <glyph glyph-name="comma" unicode="," horiz-adv-x="175" 
d="M63 59h85l-57 -152h-60z" />
    <glyph glyph-name="hyphen" unicode="-" horiz-adv-x="380" 
d="M40 323h300v-64h-300v64z" />
    <glyph glyph-name="period" unicode="." horiz-adv-x="142" 
d="M31 50h80v-81h-80v81z" />
    <glyph glyph-name="slash" unicode="/" horiz-adv-x="431" 
d="M362 800h42l-334 -900h-41z" />
    <glyph glyph-name="zero" unicode="0" horiz-adv-x="665" 
d="M331 -8q-66 0 -119.5 27t-91 75t-57.5 114t-20 144t20 144t57 113.5t90.5 74.5t120.5 27q68 0 121.5 -27t91.5 -74.5t58 -113.5t20 -144t-20.5 -144t-58.5 -114t-91.5 -75t-120.5 -27zM331 60q51 0 91 22t67.5 61t42.5 92.5t15 116.5t-14.5 116.5t-42.5 91.5t-68 59.5
t-91 21.5q-50 0 -89.5 -21t-67 -59.5t-42 -91.5t-14.5 -117q0 -63 15 -116.5t42.5 -92.5t67 -61t88.5 -22z" />
    <glyph glyph-name="one" unicode="1" horiz-adv-x="312" 
d="M191 622l-103 -70l-40 55l143 93h75v-700h-75v622z" />
    <glyph glyph-name="two" unicode="2" horiz-adv-x="574" 
d="M48 68q32 30 74 66t86.5 75t88 79.5t77 79.5t54.5 74.5t21 65.5q0 60 -43 93.5t-122 33.5q-30 0 -58.5 -8t-52 -22t-40 -32.5t-23.5 -40.5l-63 41q12 30 35.5 55t55 43.5t69 28.5t77.5 10q55 0 99.5 -14.5t76.5 -40.5t49 -63.5t17 -82.5q0 -38 -21 -80t-54.5 -84
t-74.5 -82.5t-80.5 -76t-74 -64t-53.5 -47.5h358l-1 -75h-477v68z" />
    <glyph glyph-name="three" unicode="3" horiz-adv-x="575" 
d="M453 221q0 75 -52.5 115t-146.5 40h-23t-24 -2v49q16 16 44.5 44t60 58.5t60.5 59t46 44.5h-338v71h431l1 -71l-198 -194q47 -4 86.5 -20.5t68 -44t44 -66t15.5 -85.5q0 -52 -18.5 -95t-51.5 -73t-78.5 -46.5t-98.5 -16.5q-51 0 -94.5 15.5t-74.5 44.5t-48.5 71.5
t-17.5 96.5h75q0 -75 43 -116.5t118 -41.5q39 0 70.5 11.5t54 32.5t34.5 51.5t12 67.5z" />
    <glyph glyph-name="four" unicode="4" horiz-adv-x="606" 
d="M131 222h269v385zM559 153h-84v-153h-75v153h-353l-1 69l335 478h94v-478h84v-69z" />
    <glyph glyph-name="five" unicode="5" horiz-adv-x="579" 
d="M281 -12q-54 0 -97 16t-74 46t-47.5 72.5t-16.5 94.5h76q0 -75 42.5 -117t117.5 -42t122 43t51 115q3 38 -8.5 70.5t-34.5 56.5t-56 37.5t-73 13.5h-3q-43 0 -82.5 -17.5t-68.5 -49.5l-69 18l80 355h352l-1 -75h-295l-47 -213q32 22 71.5 33.5t77.5 11.5h9
q51 -2 93 -21.5t72 -51.5t46 -75.5t13 -93.5t-22 -92t-52 -72t-77.5 -46.5t-98.5 -16.5z" />
    <glyph glyph-name="six" unicode="6" horiz-adv-x="579" 
d="M290 417q-37 0 -68 -13t-53.5 -36t-35 -55t-12.5 -70q0 -39 13 -70.5t35.5 -54.5t53.5 -35.5t68 -12.5q36 0 66 12.5t52.5 35.5t35 54.5t12.5 70.5q0 36 -13 68t-35.5 55.5t-53 37t-65.5 13.5zM393 700l-145 -219q12 2 24 3.5t23 1.5q47 0 90 -18.5t75.5 -51t52 -77
t19.5 -96.5q0 -53 -18.5 -98.5t-50.5 -78.5t-76.5 -52t-96.5 -19t-96.5 19t-77.5 52t-51.5 78.5t-18.5 98.5q0 28 5.5 53t17 49t27.5 48.5t37 51.5q17 22 39 54.5t45 67.5l46 70t41 63h89z" />
    <glyph glyph-name="seven" unicode="7" horiz-adv-x="511" 
d="M378 629h-345v71h431v-55l-293 -645h-76z" />
    <glyph glyph-name="eight" unicode="8" horiz-adv-x="581" 
d="M118 196q1 -65 48 -101.5t125 -36.5t125 37.5t47 103.5q0 64 -47.5 100.5t-125.5 36.5q-39 0 -71 -10t-54.5 -28t-35 -44t-11.5 -58zM138 524q0 -57 42 -89.5t110 -32.5q72 0 111.5 32t39.5 89q0 56 -42 88.5t-109 32.5t-109.5 -32.5t-42.5 -87.5zM46 193q0 65 33 112.5
t93 68.5q-51 22 -78 61.5t-27 93.5q0 42 16 75.5t45 57.5t70.5 37t92.5 13q50 0 90 -13t68.5 -37t44 -58t15.5 -76q0 -53 -27 -94.5t-74 -60.5q58 -18 92 -67.5t34 -113.5q0 -45 -17.5 -82.5t-50 -64.5t-77 -42t-98.5 -15q-56 0 -101 14.5t-77 41t-49.5 64.5t-17.5 85z" />
    <glyph glyph-name="nine" unicode="9" horiz-adv-x="566" 
d="M282 283q37 0 68 13t53.5 36t35 55t12.5 70t-12.5 69.5t-35 54.5t-53.5 36t-68 13q-36 0 -67 -13t-53 -36t-34.5 -54.5t-12.5 -69.5q0 -37 12.5 -69t35 -55t53 -36.5t66.5 -13.5zM179 0l145 219q-11 -3 -22.5 -4t-22.5 -1q-51 0 -94.5 19t-75.5 52t-50.5 77t-18.5 95
q0 53 18.5 98.5t51 78.5t76.5 52t96 19q53 0 97.5 -19t77 -52.5t51 -78.5t18.5 -98q0 -35 -6.5 -61.5t-18.5 -49.5t-28 -44.5t-34 -46.5q-16 -22 -37.5 -54.5t-45 -67.5l-47 -70t-41.5 -63h-89z" />
    <glyph glyph-name="colon" unicode=":" horiz-adv-x="170" 
d="M44 65h81v-83h-81v83zM45 461h81v-82h-81v82z" />
    <glyph glyph-name="semicolon" unicode=";" horiz-adv-x="278" 
d="M90 461h80v-82h-80v82zM84 59h85l-56 -152h-60z" />
    <glyph glyph-name="less" unicode="&#x3c;" horiz-adv-x="568" 
d="M34 439l500 200v-69l-402 -161l402 -160v-69l-500 200v59z" />
    <glyph glyph-name="equal" unicode="=" horiz-adv-x="538" 
d="M64 492h400v-63h-400v63zM64 336h400v-64h-400v64z" />
    <glyph glyph-name="greater" unicode="&#x3e;" horiz-adv-x="568" 
d="M534 439v-59l-500 -200v69l401 160l-401 161v69z" />
    <glyph glyph-name="question" unicode="?" horiz-adv-x="475" 
d="M182 149q0 36 6 63t18.5 50t31 44t43.5 46q22 21 42.5 39.5t36 37t25 38.5t9.5 45q0 60 -41 99t-111 39q-22 0 -45.5 -7t-44.5 -19.5t-37 -30t-25 -38.5l-61 30q14 29 36.5 52.5t50.5 39.5t60.5 24.5t65.5 8.5q48 0 88.5 -13.5t69.5 -38.5t45.5 -61t16.5 -80
q0 -34 -10.5 -61t-27.5 -49t-37.5 -41.5t-41.5 -39.5q-22 -22 -39.5 -40.5t-30.5 -38t-20 -43t-7 -55.5h-66zM255 0h-79v74h79v-74z" />
    <glyph glyph-name="at" unicode="@" horiz-adv-x="859" 
d="M394 209q26 0 48 9.5t38.5 26t25.5 39.5t9 49q0 25 -9.5 47.5t-26 39t-38.5 26.5t-47 10q-27 0 -49 -9.5t-37.5 -26.5t-23.5 -39t-8 -48q0 -27 8.5 -49.5t24.5 -39t37.5 -26t47.5 -9.5zM391 161q-37 0 -67 13t-52 36.5t-34 55t-12 67.5t11.5 67t33 54t51.5 36.5t66 13.5
q44 0 76 -18t51 -48v57h51v-230q0 -37 17.5 -61t43.5 -24q29 0 47.5 16.5t29 42t14 56.5t3.5 60q0 68 -24.5 124.5t-67 97.5t-100 63.5t-124.5 22.5q-69 0 -127 -24.5t-100.5 -68t-66.5 -102.5t-25 -128q-1 -70 23 -130.5t66.5 -105.5t102 -71t130.5 -26q35 0 72 8l3 -38
q-40 -8 -78 -8q-76 0 -141 28t-112.5 77t-75 115.5t-27.5 143.5q-1 77 25.5 143.5t73.5 116t111.5 78.5t139.5 30q77 1 143 -25t114.5 -73t75.5 -112t27 -142q-1 -100 -35 -154t-97 -54q-36 0 -64 25.5t-35 63.5q-21 -32 -58 -50.5t-79 -18.5z" />
    <glyph glyph-name="A" unicode="A" horiz-adv-x="660" 
d="M185 244h290l-145 374zM14 0l274 710h84l274 -710h-75l-68 172h-346l-68 -172h-75z" />
    <glyph glyph-name="B" unicode="B" horiz-adv-x="646" 
d="M405 69q33 0 56.5 11t38.5 29t21.5 40.5t6.5 45.5t-8.5 45t-24.5 38.5t-38.5 26.5t-51.5 10h-255v-246h255zM384 384q28 0 50.5 10t38.5 27t24.5 38.5t8.5 44.5t-6.5 45t-21 39.5t-37.5 28.5t-57 11h-234v-244h234zM79 -3v702h303q47 0 83.5 -14.5t62.5 -40t39.5 -60
t13.5 -75.5q0 -49 -23 -89.5t-59 -65.5q47 -22 76 -64.5t29 -98.5q0 -42 -14 -77.5t-39.5 -61.5t-62.5 -40.5t-84 -14.5h-325z" />
    <glyph glyph-name="C" unicode="C" horiz-adv-x="761" 
d="M731 211q-19 -50 -51.5 -91t-75.5 -70.5t-94.5 -45.5t-109.5 -16q-76 0 -141.5 28t-113.5 76.5t-75.5 115t-27.5 144.5q0 77 27.5 142.5t75.5 114t113.5 76t141.5 27.5q52 0 99.5 -13t88 -37.5t73 -58.5t54.5 -76l-65 -38q-17 33 -42 61t-56.5 49t-69.5 32.5t-82 11.5
q-63 0 -116 -23.5t-90.5 -63.5t-58.5 -92.5t-21 -110.5q0 -60 21 -113.5t58.5 -94t90.5 -64.5t116 -24q47 0 87.5 13.5t74 37.5t58.5 56.5t40 70.5z" />
    <glyph glyph-name="D" unicode="D" horiz-adv-x="716" 
d="M326 700q78 0 142 -26.5t109.5 -73.5t70.5 -111t25 -139q0 -74 -25 -138t-71 -111t-109.5 -74t-141.5 -27h-247v700h247zM323 630h-168v-560h168q70 0 122 24.5t86 64t50.5 90.5t16.5 104t-18 103t-53.5 88.5t-86.5 62t-117 23.5z" />
    <glyph glyph-name="E" unicode="E" horiz-adv-x="582" 
d="M80 700h454v-71h-379v-245h360v-71h-360v-242h379v-71h-454v700z" />
    <glyph glyph-name="F" unicode="F" horiz-adv-x="544" 
d="M79 700h422v-71h-347v-234h328v-71h-328v-324h-75v700z" />
    <glyph glyph-name="G" unicode="G" horiz-adv-x="796" 
d="M642 507q-35 60 -98 98t-144 38q-63 0 -115 -23.5t-89 -63.5t-57.5 -92.5t-20.5 -110.5q0 -61 20.5 -115t58 -94t89.5 -63.5t114 -23.5q53 0 101 18.5t84.5 51.5t60 79t28.5 100h-371v69h450v-69q-7 -69 -37 -127.5t-76.5 -100.5t-107.5 -66t-131 -24q-76 0 -141.5 28
t-113.5 76.5t-75.5 115t-27.5 144.5q0 77 27.5 142.5t75.5 114t113.5 76t141.5 27.5q98 0 177 -45t126 -121z" />
    <glyph glyph-name="H" unicode="H" horiz-adv-x="690" 
d="M535 700h75v-700h-75v313h-380l-1 -313h-74v700h74l1 -316h380v316z" />
    <glyph glyph-name="I" unicode="I" horiz-adv-x="234" 
d="M79 701h75v-701h-75v701z" />
    <glyph glyph-name="J" unicode="J" horiz-adv-x="495" 
d="M27 231h75v-32q0 -63 34 -100.5t99 -37.5q62 0 92.5 36t30.5 104v505h75v-505q0 -98 -51 -154.5t-147 -56.5q-50 0 -89 15.5t-65.5 43.5t-40 67t-13.5 87v28z" />
    <glyph glyph-name="K" unicode="K" horiz-adv-x="557" 
d="M154 701v-324l252 322h93l-273 -349l305 -350h-95l-282 325v-326h-75v702h75z" />
    <glyph glyph-name="L" unicode="L" horiz-adv-x="560" 
d="M80 700h74l1 -629h343v-71h-418v700z" />
    <glyph glyph-name="M" unicode="M" horiz-adv-x="788" 
d="M368 103l-214 466v-570h-75v702h87l228 -492l228 492h87v-702h-75v570l-214 -466h-52z" />
    <glyph glyph-name="N" unicode="N" horiz-adv-x="709" 
d="M79 701h66l409 -559v559h75v-702h-62l-413 563v-563h-75v702z" />
    <glyph glyph-name="O" unicode="O" horiz-adv-x="800" 
d="M400 -12q-76 0 -141.5 28t-113.5 76.5t-75.5 115t-27.5 144.5q0 77 27.5 142.5t75.5 114t113.5 76t141.5 27.5t141.5 -27.5t113.5 -76t75 -114t27 -142.5q0 -78 -27 -144.5t-75 -115t-113.5 -76.5t-141.5 -28zM400 61q63 0 115 23t89 63t57.5 93t20.5 113q0 58 -20.5 110
t-57.5 91t-89 62t-115 23t-115 -23t-89 -62t-57.5 -91t-20.5 -110q0 -60 20.5 -113t57.5 -93t89 -63t115 -23z" />
    <glyph glyph-name="P" unicode="P" horiz-adv-x="593" 
d="M332 297q35 0 63 12t48 34t31 52.5t11 67.5t-11 67.5t-31 52.5t-48 34t-63 12h-182v-332h182zM79 0v700h243q117 0 175.5 -63t58.5 -174q1 -114 -60.5 -175.5t-173.5 -61.5h-172v-226h-71z" />
    <glyph glyph-name="Q" unicode="Q" horiz-adv-x="805" 
d="M578 122q50 41 77 101t27 130q0 58 -20.5 110t-57.5 91t-89 62t-115 23t-115 -23t-89 -62t-57.5 -91t-20.5 -110q0 -60 20.5 -113t57.5 -93t89 -63t115 -23q61 0 110 21l-104 156l66 43zM636 -107l-85 127q-69 -32 -150 -32q-76 0 -141.5 28t-113.5 76.5t-75.5 115
t-27.5 144.5q0 77 27.5 142.5t75.5 114t113.5 76t141.5 27.5t141.5 -27.5t113.5 -76t75 -114t27 -142.5q0 -92 -37.5 -167t-101.5 -124l82 -122z" />
    <glyph glyph-name="R" unicode="R" horiz-adv-x="640" 
d="M364 328q88 0 126.5 36.5t38.5 110.5t-40 114t-125 40h-210v-301h210zM79 0v700h284q121 0 181 -56.5t60 -168.5q0 -84 -34 -134.5t-102 -72.5l128 -268h-85l-122 257h-235v-257h-75z" />
    <glyph glyph-name="S" unicode="S" horiz-adv-x="626" 
d="M530 550q-19 26 -44.5 43.5t-54 28t-59.5 15.5t-62 5q-33 0 -63 -8.5t-53.5 -24t-38.5 -37.5t-18 -49q-2 -25 9 -44.5t36.5 -35t66 -30t97.5 -30.5q53 -15 92 -31t65.5 -34t42.5 -38.5t23 -44.5q12 -29 12 -60t-10 -60t-30 -53t-49 -40q-66 -41 -183 -41q-43 0 -85.5 10
t-79.5 27.5t-67 42t-50 53.5l55 48q15 -25 39.5 -46t55.5 -36t66.5 -23t72.5 -8q50 0 88.5 10t62.5 29t32 47.5t-3 64.5q-14 45 -72 76.5t-146 54.5q-41 13 -79.5 26t-68.5 32t-49 45t-21 64q-3 45 16 84t54 67.5t83.5 44.5t106.5 16q35 0 72 -6.5t72.5 -20t66 -34.5
t51.5 -50z" />
    <glyph glyph-name="T" unicode="T" horiz-adv-x="519" 
d="M222 631h-212v69h498v-69h-211v-631h-75v631z" />
    <glyph glyph-name="U" unicode="U" horiz-adv-x="682" 
d="M619 700v-409q0 -142 -71.5 -218.5t-204.5 -76.5q-134 0 -207.5 77t-73.5 218v409h76l-1 -415q0 -106 56 -162t150 -56q93 0 147 56t54 162v415h75z" />
    <glyph glyph-name="V" unicode="V" horiz-adv-x="604" 
d="M3 701h75l226 -592l209 592h75l-247 -701h-75z" />
    <glyph glyph-name="W" unicode="W" horiz-adv-x="882" 
d="M473 701l206 -572l115 572h73l-145 -701h-73l-208 579l-208 -579h-73l-145 701h72l116 -569l206 569h64z" />
    <glyph glyph-name="X" unicode="X" horiz-adv-x="660" 
d="M279 361l-259 339h94l210 -275l201 275h92l-247 -339l275 -361h-94l-226 297l-217 -297h-93z" />
    <glyph glyph-name="Y" unicode="Y" horiz-adv-x="576" 
d="M253 269l-238 430h81l195 -351l189 351h81l-229 -425v-274h-79v269z" />
    <glyph glyph-name="Z" unicode="Z" horiz-adv-x="560" 
d="M517 700v-65l-377 -560h377l-1 -75h-477v66l375 559h-362v75h465z" />
    <glyph glyph-name="bracketleft" unicode="[" horiz-adv-x="318" 
d="M122 744v-788h143v-56h-199v900h199v-56h-143z" />
    <glyph glyph-name="backslash" unicode="\" horiz-adv-x="431" 
d="M70 800l333 -900h-41l-334 900h42z" />
    <glyph glyph-name="bracketright" unicode="]" horiz-adv-x="318" 
d="M66 800h199v-900h-199v56h143v788h-143v56z" />
    <glyph glyph-name="asciicircum" unicode="^" horiz-adv-x="447" 
d="M258 689l154 -341h-70l-119 258l-119 -258h-70l154 341h70z" />
    <glyph glyph-name="underscore" unicode="_" horiz-adv-x="580" 
d="M40 -30h500v-56h-500v56z" />
    <glyph glyph-name="grave" unicode="`" horiz-adv-x="188" 
d="M33 722h75l48 -102h-71z" />
    <glyph glyph-name="a" unicode="a" 
d="M305 49q42 0 78 15t62.5 41.5t42 63t15.5 79.5q0 42 -15.5 78.5t-42 63.5t-62.5 42.5t-78 15.5t-78 -15.5t-62.5 -42.5t-41.5 -63.5t-15 -78.5q0 -43 15 -79.5t41.5 -63t62.5 -41.5t78 -15zM503 95q-29 -50 -83.5 -78.5t-125.5 -28.5q-55 0 -102 20t-81.5 54.5t-54 82
t-19.5 102.5t19.5 103.5t53.5 84.5t81.5 56.5t102.5 20.5q72 0 126 -28.5t83 -82.5v99h72v-500h-72v95z" />
    <glyph glyph-name="b" unicode="b" 
d="M332 49q42 0 78 15t62.5 41.5t41.5 63t15 79.5q0 42 -15 78.5t-41.5 63.5t-62.5 42.5t-78 15.5t-78 -15.5t-63 -42.5t-42 -63.5t-15 -78.5t15 -78.5t42 -63.5t63 -42t78 -15zM134 0h-71v700h71v-299q29 54 83 82.5t126 28.5q56 0 103 -20.5t81.5 -56.5t54 -84.5
t19.5 -103.5t-20 -102.5t-54.5 -82t-81.5 -54.5t-102 -20q-71 0 -125.5 28.5t-83.5 78.5v-95z" />
    <glyph glyph-name="c" unicode="c" horiz-adv-x="571" 
d="M534 142q-31 -71 -94.5 -111t-142.5 -40q-56 0 -103.5 20t-82.5 54.5t-55 82.5t-20 103q0 56 20 103t55 82t82.5 54.5t103.5 19.5q73 0 131 -33t92 -90l-58 -36q-25 44 -69 68t-99 24q-40 0 -75 -15t-60.5 -41t-40 -61t-14.5 -76q0 -42 15 -77t41.5 -60.5t62 -40
t76.5 -14.5q29 0 56 8.5t50 23.5t40.5 36t27.5 47z" />
    <glyph glyph-name="d" unicode="d" 
d="M305 49q42 0 78 15t62.5 41.5t41.5 63t15 79.5q0 42 -15 78.5t-41.5 63.5t-62.5 42.5t-78 15.5t-78 -15.5t-62.5 -42.5t-41.5 -63.5t-15 -78.5q0 -43 15 -79.5t41.5 -63t62.5 -41.5t78 -15zM503 95q-29 -50 -84 -78.5t-126 -28.5q-54 0 -101 20t-81.5 54.5t-54.5 82
t-20 102.5t19.5 103.5t54 84.5t81.5 56.5t102 20.5q73 0 127 -28.5t83 -82.5v299h71v-700h-71v95z" />
    <glyph glyph-name="e" unicode="e" horiz-adv-x="554" 
d="M447 274q-9 76 -53.5 123t-115.5 47q-39 0 -70 -12.5t-53 -35t-35 -54t-16 -68.5h343zM512 293q3 -19 4.5 -37t0.5 -36h-415q3 -36 17.5 -66.5t38.5 -52.5t55.5 -34.5t69.5 -12.5q51 0 92.5 19.5t66.5 53.5l47 -41q-33 -45 -86.5 -70.5t-116.5 -25.5q-55 0 -101 19
t-79 53.5t-51.5 81.5t-18.5 103q0 59 17.5 107t49.5 82.5t77 53.5t99 19q47 0 86.5 -15.5t69.5 -44t50 -68t27 -88.5z" />
    <glyph glyph-name="f" unicode="f" horiz-adv-x="333" 
d="M100 500v30q2 80 47 126t124 45h26.5t28.5 -1v-68h-53q-46 0 -71.5 -27t-26.5 -75v-30h150v-67h-150v-433h-75v433h-83v67h83z" />
    <glyph glyph-name="g" unicode="g" horiz-adv-x="633" 
d="M574 26q0 -54 -20 -99t-55.5 -77.5t-84.5 -50.5t-108 -18q-75 0 -134 26.5t-99 77.5l48 51q68 -85 186 -85q43 0 79 12.5t61.5 36t40 55.5t15.5 71v74q-32 -54 -81.5 -82t-121.5 -28q-54 0 -101 20.5t-81.5 55.5t-54.5 82.5t-20 102.5q0 56 19.5 103.5t54 82.5t81.5 55
t102 20q66 0 120.5 -29.5t82.5 -81.5v99h71v-474zM311 55q42 0 77 15t60.5 41t39.5 61.5t14 76.5q0 42 -14 78t-39.5 62.5t-60.5 41.5t-77 15t-78.5 -15t-62.5 -41.5t-41 -62.5t-15 -78q0 -41 15 -76.5t41.5 -61.5t62.5 -41t78 -15z" />
    <glyph glyph-name="h" unicode="h" horiz-adv-x="564" 
d="M302 508q50 0 86.5 -15.5t60.5 -43.5t36 -67t12 -87v-295h-71v285q0 77 -33.5 117.5t-105.5 41.5q-33 0 -61.5 -10t-48.5 -29t-31.5 -45.5t-11.5 -58.5v-301h-71v700h71v-274q24 39 67.5 60.5t100.5 21.5z" />
    <glyph glyph-name="i" unicode="i" horiz-adv-x="197" 
d="M63 499h71v-500h-71v500zM63 700h71v-66h-71v66z" />
    <glyph glyph-name="j" unicode="j" horiz-adv-x="245" 
d="M0 -86q107 1 107 90v496h71v-500q0 -158 -178 -157v71zM107 700h71v-66h-71v66z" />
    <glyph glyph-name="k" unicode="k" horiz-adv-x="467" 
d="M63 700h71v-426l202 226h89l-216 -245l222 -255h-89l-208 233v-234h-71v701z" />
    <glyph glyph-name="l" unicode="l" horiz-adv-x="197" 
d="M63 701h71v-701h-71v701z" />
    <glyph glyph-name="m" unicode="m" horiz-adv-x="922" 
d="M302 508q60 0 104 -25t65 -84q22 54 70.5 81.5t118.5 27.5q99 0 149 -58t50 -155v-295h-71v285q0 77 -33.5 118.5t-105.5 40.5q-75 0 -114 -40.5t-39 -118.5v-285h-71v285q0 161 -139 159q-72 0 -112 -41.5t-40 -117.5v-285h-71v500h71v-74q23 39 67 60.5t101 21.5z" />
    <glyph glyph-name="n" unicode="n" horiz-adv-x="560" 
d="M302 508q50 0 86.5 -15.5t60.5 -43.5t35.5 -67t11.5 -87v-295h-71v285q0 77 -33 117.5t-106 41.5q-33 0 -61 -10t-48.5 -29t-31.5 -45.5t-11 -58.5v-301h-71v500h71v-74q23 39 67 60.5t101 21.5z" />
    <glyph glyph-name="o" unicode="o" horiz-adv-x="593" 
d="M297 -9q-56 0 -103.5 20t-82.5 54.5t-55 82.5t-20 103q0 56 20 103t55 82t82.5 54.5t103.5 19.5t103 -19.5t82 -54.5t54.5 -82t19.5 -103q0 -55 -19.5 -103t-54.5 -82.5t-82 -54.5t-103 -20zM297 56q41 0 75.5 15t60.5 41t40.5 61.5t14.5 76.5t-15 77t-40.5 62t-60.5 41
t-75 15q-41 0 -76.5 -15t-61.5 -41t-41 -62t-15 -77t15 -76.5t41 -61.5t61.5 -41t76.5 -15z" />
    <glyph glyph-name="p" unicode="p" 
d="M332 49q42 0 78 15t62.5 42t41.5 63.5t15 78.5t-15 78.5t-41.5 63.5t-62.5 42.5t-78 15.5t-78 -15.5t-63 -42.5t-42 -63.5t-15 -78.5t15 -78.5t42 -63.5t63 -42t78 -15zM134 -200h-71v700h71v-99q29 54 83 82.5t126 28.5q54 0 101.5 -20.5t82 -56t54.5 -84t20 -104.5
t-20 -103.5t-54.5 -82t-82 -54t-101.5 -19.5q-71 0 -125.5 28.5t-83.5 78.5v-295z" />
    <glyph glyph-name="q" unicode="q" 
d="M305 49q42 0 78 15t62.5 41.5t41.5 63t15 79.5q0 42 -15 78.5t-41.5 63.5t-62.5 42.5t-78 15.5t-78 -15.5t-62.5 -42.5t-41.5 -63.5t-15 -78.5q0 -43 15 -79.5t41.5 -63t62.5 -41.5t78 -15zM503 95q-29 -50 -84 -78.5t-126 -28.5q-54 0 -101 20t-81.5 54.5t-54.5 82
t-20 102.5t19.5 103.5t54 84.5t81.5 56.5t102 20.5q73 0 127 -28.5t83 -82.5v99h71v-702h-71v297z" />
    <glyph glyph-name="r" unicode="r" horiz-adv-x="373" 
d="M343 435q-21 3 -39 3q-38 0 -69 -11t-53.5 -30.5t-35 -46.5t-12.5 -59v-291h-71v500h71v-81q23 47 71 68.5t102 21.5h17.5t17.5 -2z" />
    <glyph glyph-name="s" unicode="s" horiz-adv-x="478" 
d="M245 -12q-76 0 -131.5 30t-77.5 82l50 35q19 -39 63 -63.5t98 -24.5q122 0 124 89q0 22 -13.5 37t-34 25.5t-44 17.5t-43.5 13q-24 8 -55.5 16.5t-59 24.5t-45.5 41.5t-16 66.5q2 64 49.5 99t132.5 35q69 0 118.5 -26.5t67.5 -72.5l-49 -30q-17 34 -53.5 51.5t-85.5 17.5
q-59 0 -85 -19t-26 -59q0 -20 11 -33.5t28 -22.5t36.5 -14.5t37.5 -10.5q34 -9 70 -21t65 -30t47.5 -43.5t17.5 -62.5q-2 -73 -53 -110.5t-144 -37.5z" />
    <glyph glyph-name="t" unicode="t" horiz-adv-x="369" 
d="M317 -9q-94 3 -139.5 42.5t-45.5 133.5v266h-84v67h84l1 159h71v-159h102v-67h-102v-271q0 -57 28.5 -79.5t84.5 -23.5v-68z" />
    <glyph glyph-name="u" unicode="u" horiz-adv-x="555" 
d="M255 -8q-50 0 -85.5 15.5t-58.5 44t-33.5 67.5t-10.5 86v295h71v-285q0 -82 32 -120t101 -39q66 -1 106 38t40 105v301h71v-500h-71v74q-23 -38 -65 -60t-97 -22z" />
    <glyph glyph-name="v" unicode="v" horiz-adv-x="552" 
d="M99 500l176 -425l177 425h75l-207 -500h-89l-207 500h75z" />
    <glyph glyph-name="w" unicode="w" horiz-adv-x="781" 
d="M752 497l-160 -497h-70l-130 366l-131 -366h-71l-162 497h72l131 -393l134 393h55l132 -392l128 392h72z" />
    <glyph glyph-name="x" unicode="x" horiz-adv-x="495" 
d="M204 250l-180 250h87l136 -190l136 190h87l-179 -250l179 -250h-87l-136 190l-136 -190h-87z" />
    <glyph glyph-name="y" unicode="y" horiz-adv-x="515" 
d="M170 -200l71 200l-220 500h77l179 -411l161 411h71l-267 -700h-72z" />
    <glyph glyph-name="z" unicode="z" horiz-adv-x="523" 
d="M457 500v-56l-301 -373h313v-71h-414v56l297 373h-295v71h400z" />
    <glyph glyph-name="braceleft" unicode="{" horiz-adv-x="361" 
d="M77 322v58q36 2 49.5 25t13.5 81v176q0 81 42 119t119 29v-48q-56 5 -80.5 -18.5t-24.5 -81.5v-187q0 -32 -2.5 -53.5t-9.5 -36t-18.5 -22.5t-28.5 -12q17 -4 28.5 -12t18.5 -22t9.5 -36t2.5 -54v-187q0 -59 24 -82t81 -18v-48q-78 -9 -119.5 29t-41.5 119v176
q0 57 -14 80.5t-49 25.5z" />
    <glyph glyph-name="bar" unicode="|" horiz-adv-x="255" 
d="M99 761h57v-1002h-57v1002z" />
    <glyph glyph-name="braceright" unicode="}" horiz-adv-x="323" 
d="M270 322q-18 -1 -30 -7t-19.5 -18t-10.5 -32t-3 -49v-176q0 -81 -41 -119t-119 -29v48q56 -5 80 18t24 82v187q0 32 3 54t9.5 36t18 22t28.5 12q-17 4 -28.5 12t-18 22.5t-9.5 36t-3 53.5v187q0 58 -25 81.5t-79 18.5v48q78 9 119 -29t41 -119v-176q0 -59 13.5 -81.5
t49.5 -24.5v-58z" />
    <glyph glyph-name="asciitilde" unicode="~" horiz-adv-x="332" 
d="M109 328q-10 10 -13 22.5t-1.5 23t6 17.5t8.5 7q10 0 16.5 -6t11 -14.5t9.5 -17t12 -13.5q2 3 4 5.5t4 5.5q-2 3 -3.5 6.5t-3.5 8.5q1 6 3 11l4 10l-4.5 10.5t3.5 3.5l4 -2l4 -2q18 20 48 20q10 -12 13 -24t1.5 -22.5t-5.5 -17t-8 -6.5q-9 0 -15 5.5t-11 13.5t-10 16.5
t-13 14.5q-2 -2 -3.5 -4.5t-3.5 -5.5q4 -5 7 -15q-2 -13 -7 -21q4 -8 5 -11t-4 -3q-2 0 -4.5 1t-4.5 2q-8 -8 -20.5 -13.5t-28.5 -5.5z" />
    <glyph glyph-name="exclamdown" unicode="&#xa1;" horiz-adv-x="269" 
d="M51 -88l9 510h64l9 -510h-82zM52 548v74h80v-74h-80z" />
    <glyph glyph-name="cent" unicode="&#xa2;" horiz-adv-x="576" 
d="M537 142q-29 -67 -88 -106.5t-133 -43.5v-101h-56v103q-48 7 -89 29t-70 56t-45.5 78t-16.5 94t16.5 94t45.5 77.5t70 55.5t89 29v103h56v-101q68 -4 121.5 -36t84.5 -86l-57 -36q-25 42 -70 67t-98 25q-40 0 -75 -15t-61 -41t-40.5 -61t-14.5 -76t15.5 -76.5t42 -61
t62.5 -40t76 -14.5q59 0 106.5 32t67.5 83z" />
    <glyph glyph-name="sterling" unicode="&#xa3;" horiz-adv-x="483" 
d="M394 569q-11 44 -38 63.5t-75 19.5q-125 0 -125 -149v-133h169v-60h-169v-154q0 -35 -7 -61t-21 -35h311v-60h-408v60q17 0 28.5 9.5t18.5 23.5t10.5 31t3.5 32v154h-61v60h61v135q0 97 49.5 151t140.5 54q146 0 173 -131z" />
    <glyph glyph-name="currency" unicode="&#xa4;" horiz-adv-x="603" 
d="M301 512q-33 0 -63 -13t-52.5 -35t-35.5 -51.5t-13 -62.5t13 -62.5t35.5 -51.5t52 -35t63.5 -13t63.5 13t52 35t35.5 51.5t13 62.5t-13 62.5t-35.5 51.5t-52 35t-63.5 13zM301 139q-38 0 -71.5 12.5t-60.5 34.5l-75 -75l-31 31l74 74q-23 27 -36 61.5t-13 72.5t13 72
t36 61l-69 70l31 30l69 -69q28 22 62 34.5t71 12.5q38 0 72 -12.5t62 -35.5l69 70l31 -31l-69 -69q23 -27 35.5 -61t12.5 -72t-12.5 -72t-35.5 -61l74 -75l-30 -31l-76 75q-27 -22 -61 -34.5t-72 -12.5z" />
    <glyph glyph-name="yen" unicode="&#xa5;" horiz-adv-x="571" 
d="M111 310h116l-214 389h81l194 -351l190 351h81l-210 -389h105v-56h-125v-48h125v-56h-125v-150h-79v150h-139v56h139v48h-139v56z" />
    <glyph glyph-name="brokenbar" unicode="&#xa6;" horiz-adv-x="187" 
d="M62 760l56 -1v-380h-56v381zM62 140h56v-381h-56v381z" />
    <glyph glyph-name="section" unicode="&#xa7;" horiz-adv-x="519" 
d="M60 104l54 37q12 -22 31.5 -38t43 -26t49 -14.5t49.5 -4.5q52 0 87 22.5t37 63.5q2 17 -8.5 29t-30.5 21t-47.5 16t-59.5 14q-35 7 -71 16.5t-65 25.5t-48 40t-19 60q0 28 13 53t36 45q-22 15 -35.5 36.5t-13.5 52.5t15.5 58.5t43.5 48t66.5 32.5t84.5 12q69 0 122 -25.5
t85 -73.5l-51 -42q-13 22 -32 37t-41.5 24t-46.5 12.5t-48 3.5q-28 0 -51.5 -7t-41 -19t-27 -27t-9.5 -32q0 -21 12.5 -35t33.5 -23t49.5 -15.5t60.5 -12.5q44 -10 80 -23t61 -30.5t38.5 -39t12.5 -49.5q0 -29 -12.5 -53t-34.5 -42q21 -14 33 -32t13 -44q1 -39 -14.5 -68.5
t-43 -50t-65 -31t-80.5 -10.5q-33 0 -65.5 8t-61 22.5t-51.5 34t-37 43.5zM176 432q-21 -12 -33 -28.5t-12 -35.5q0 -21 12.5 -35t33.5 -23t49.5 -15.5t60.5 -12.5q21 -5 41.5 -9t37.5 -10q42 23 45 68q1 15 -7.5 26t-24.5 19t-38 14t-48 12q-29 7 -59.5 13.5t-57.5 16.5z
" />
    <glyph glyph-name="dieresis" unicode="&#xa8;" horiz-adv-x="333" 
d="M38 693h70v-70h-70v70zM203 693h70v-70h-70v70z" />
    <glyph glyph-name="copyright" unicode="&#xa9;" horiz-adv-x="600" 
d="M84 350q0 -45 17 -84t46.5 -68.5t68.5 -46.5t84 -17t84 17t68.5 46.5t46.5 68.5t17 84t-17 84t-46.5 68.5t-68.5 46.5t-84 17t-84 -17t-68.5 -46.5t-46.5 -68.5t-17 -84zM152 348q0 30 11.5 57t31.5 47.5t47 32t58 11.5q39 0 72 -19.5t52 -50.5l-42 -29q-13 19 -34 32.5
t-47 13.5q-19 0 -36.5 -7.5t-31 -20.5t-21 -30t-7.5 -37t7.5 -37.5t20.5 -30.5t30.5 -20.5t36.5 -7.5q24 0 43.5 12t33.5 28l43 -29q-19 -29 -50.5 -46.5t-69.5 -17.5q-31 0 -58 12t-47 32t-31.5 47t-11.5 58zM50 350q0 52 19.5 97.5t53.5 79.5t79.5 53.5t97.5 19.5
t97.5 -19.5t79.5 -53.5t53.5 -79.5t19.5 -97.5t-19.5 -97.5t-53.5 -79.5t-79.5 -53.5t-97.5 -19.5t-97.5 19.5t-79.5 53.5t-53.5 79.5t-19.5 97.5z" />
    <glyph glyph-name="ordfeminine" unicode="&#xaa;" horiz-adv-x="496" 
d="M207 412q18 -7 40 -7q33 0 61 18.5t42 52.5q8 22 7 43.5t-9.5 41t-24.5 34.5t-37 24q-24 11 -44 11q-32 0 -57.5 -19.5t-39.5 -51.5q-10 -22 -9.5 -43.5t9 -41t24.5 -35.5t38 -27zM389 407q-20 -39 -59.5 -60.5t-90.5 -21.5q-40 0 -74 15t-58.5 40.5t-38 60t-13.5 74.5
q0 42 14 77.5t39 61.5t58.5 41t73.5 15q54 0 90.5 -21t58.5 -61v73h49v-367h-49v73z" />
    <glyph glyph-name="guillemotleft" unicode="&#xab;" horiz-adv-x="420" 
d="M118 309l117 -153h-53l-117 153l117 153h53zM238 309l117 -153h-53l-117 153l117 153h53z" />
    <glyph glyph-name="logicalnot" unicode="&#xac;" horiz-adv-x="572" 
d="M40 347h500v-220h-56v163h-444v57z" />
    <glyph glyph-name="registered" unicode="&#xae;" horiz-adv-x="572" 
d="M84 350q0 -45 17 -84t46.5 -68.5t68.5 -46.5t84 -17t84 17t68.5 46.5t46.5 68.5t17 84t-17 84t-46.5 68.5t-68.5 46.5t-84 17t-84 -17t-68.5 -46.5t-46.5 -68.5t-17 -84zM312 350q33 0 46 10.5t13 36.5t-13.5 37t-45.5 11h-64v-95h64zM50 350q0 52 19.5 97.5t53.5 79.5
t79.5 53.5t97.5 19.5t97.5 -19.5t79.5 -53.5t53.5 -79.5t19.5 -97.5t-19.5 -97.5t-53.5 -79.5t-79.5 -53.5t-97.5 -19.5t-97.5 19.5t-79.5 53.5t-53.5 79.5t-19.5 97.5zM205 205v283h112q97 0 97 -91q0 -65 -51 -83l49 -109h-47l-46 102h-71v-102h-43z" />
    <glyph glyph-name="macron" unicode="&#xaf;" horiz-adv-x="311" 
d="M30 556h250v-56h-250v56z" />
    <glyph glyph-name="degree" unicode="&#xb0;" horiz-adv-x="432" 
d="M58 571q0 32 12 60t33 48.5t49 32.5t60 12t60 -12t49 -32.5t33 -48.5t12 -60t-12 -60t-33 -49t-49 -33t-60 -12t-60 12t-49 33t-33 49t-12 60zM107 571q0 -22 8.5 -41t22.5 -33t33 -22.5t41 -8.5t41 8.5t33.5 22.5t22.5 33t8 41t-8 41t-22.5 33.5t-33.5 22.5t-41 8
t-41 -8t-33 -22.5t-22.5 -33.5t-8.5 -41z" />
    <glyph glyph-name="plusminus" unicode="&#xb1;" horiz-adv-x="517" 
d="M440 317h-150v-150h-63v150h-150v63h150v150h63v-150h150v-63zM440 103v-64h-363v64h363z" />
    <glyph glyph-name="twosuperior" unicode="&#xb2;" horiz-adv-x="334" 
d="M37 372q26 24 62 54.5t68.5 62t55.5 61t23 51.5q0 29 -21.5 44.5t-59.5 15.5q-30 0 -54.5 -14.5t-31.5 -36.5l-42 26q13 32 49 53t79 21q59 0 95 -29t36 -80q0 -31 -22 -64.5t-52 -64t-60.5 -56t-46.5 -40.5h187v-50h-265v46z" />
    <glyph glyph-name="threesuperior" unicode="&#xb3;" horiz-adv-x="326" 
d="M241 448q0 36 -31.5 60t-76.5 24q-13 0 -27 -3v26q9 8 24 21.5t31.5 28t31.5 28t24 21.5h-163v46h226l1 -46l-101 -89q47 -7 78 -38.5t31 -78.5q0 -56 -36.5 -89t-93.5 -33q-54 0 -88.5 31.5t-34.5 88.5h49q0 -36 20 -55.5t55 -19.5q36 0 58.5 21t22.5 56z" />
    <glyph glyph-name="acute" unicode="&#xb4;" horiz-adv-x="188" 
d="M155 725l-51 -101h-71l47 101h75z" />
    <glyph glyph-name="paragraph" unicode="&#xb6;" horiz-adv-x="567" 
d="M474 -200h-56v844h-92v-844h-56v460q-46 0 -86 17.5t-70 47.5t-47 70t-17 85q0 46 17 86t47 70t70 47t86 17h204v-900z" />
    <glyph glyph-name="periodcentered" unicode="&#xb7;" horiz-adv-x="268" 
d="M81 352q0 17 12.5 29.5t30.5 12.5q17 0 30 -12.5t13 -29.5q0 -18 -13 -30.5t-30 -12.5q-18 0 -30.5 12.5t-12.5 30.5z" />
    <glyph glyph-name="cedilla" unicode="&#xb8;" horiz-adv-x="195" 
d="M33 -157v42h51q14 0 24 5t10 16q0 10 -10.5 15t-28.5 5h-32v31l27 43h47l-21 -37q31 -5 46.5 -20.5t15.5 -36.5q0 -29 -20.5 -46t-57.5 -17h-51z" />
    <glyph glyph-name="onesuperior" unicode="&#xb9;" horiz-adv-x="168" 
d="M89 651l-58 -38l-26 42l70 45h63v-374h-49v325z" />
    <glyph glyph-name="ordmasculine" unicode="&#xba;" horiz-adv-x="477" 
d="M63 514q0 39 13 73.5t36 60t55.5 40t71.5 14.5q38 0 70 -14.5t55 -39.5t36.5 -59.5t13.5 -74.5q0 -39 -12.5 -73t-36 -59.5t-55.5 -40.5t-71 -15t-71.5 15t-55.5 40.5t-36 59.5t-13 73zM112 514q0 -30 9.5 -55.5t26.5 -44t40 -29t51 -10.5q27 0 50.5 10.5t40 29t26 44
t9.5 55.5t-9.5 55.5t-26 44t-40 29t-50.5 10.5q-28 0 -51 -10.5t-40 -29t-26.5 -44t-9.5 -55.5z" />
    <glyph glyph-name="guillemotright" unicode="&#xbb;" horiz-adv-x="420" 
d="M238 462l117 -153l-117 -153h-53l117 153l-117 153h53zM118 462l117 -153l-117 -153h-53l117 153l-117 153h53z" />
    <glyph glyph-name="onequarter" unicode="&#xbc;" horiz-adv-x="681" 
d="M535 40v180l-127 -180h127zM615 -9h-31v-79h-49v79h-187v49l181 256h55v-256h31v-49zM39 -100l533 900h52l-533 -900h-52zM163 426v332l-25 -29l-32 28l39 43h67v-374h-49z" />
    <glyph glyph-name="onehalf" unicode="&#xbd;" horiz-adv-x="690" 
d="M113 758l-25 -29l-32 28l39 43h67v-374h-49v332zM572 800h45l-534 -900h-44zM380 -42q26 24 62 54.5t68.5 62t55.5 61t23 51.5q0 29 -21.5 44.5t-59.5 15.5q-30 0 -54.5 -14.5t-31.5 -36.5l-42 26q13 32 49 53t79 21q59 0 95.5 -29t35.5 -80q0 -31 -22 -64.5t-52 -64
t-60 -56t-46 -40.5h180v-50h-259v46z" />
    <glyph glyph-name="threequarters" unicode="&#xbe;" horiz-adv-x="681" 
d="M535 40v180l-127 -180h127zM615 -9h-31v-79h-49v79h-187v49l181 256h55v-256h31v-49zM39 -100l533 900h45l-534 -900h-44zM241 549q0 21 -12 38t-31 28t-43.5 15t-48.5 0v26q9 8 24 21t31.5 27.5t31.5 28t24 21.5h-163v46h226l1 -46l-101 -89q46 -7 77.5 -38t31.5 -79
q0 -56 -36.5 -89t-93.5 -33q-54 0 -88.5 31.5t-34.5 88.5h48q0 -35 20.5 -54.5t55.5 -19.5q37 0 59 21t22 56z" />
    <glyph glyph-name="questiondown" unicode="&#xbf;" horiz-adv-x="434" 
d="M302 429q0 -32 -11.5 -59.5t-27.5 -49.5t-32.5 -38.5l-27.5 -27.5q-22 -21 -42.5 -39.5t-36 -37t-25 -38.5t-9.5 -45q0 -61 41 -96.5t111 -35.5q23 0 46 7t44 19.5t37 30t25 38.5l61 -30q-14 -29 -36.5 -52.5t-50.5 -39.5t-60.5 -24.5t-65.5 -8.5q-48 0 -88.5 12.5
t-69.5 36.5t-45.5 59t-16.5 79q0 35 10.5 61t27.5 48t37.5 41.5t41.5 40.5q13 14 30 30.5t32 35t25 40t10 43.5v28h66v-28zM229 606h79v-75h-79v75z" />
    <glyph glyph-name="Agrave" unicode="&#xc0;" horiz-adv-x="660" 
d="M187 244h286l-143 374zM14 0l274 710h84l274 -710h-78l-67 172h-341l-68 -172h-78zM289 779l-52 101h76l47 -101h-71z" />
    <glyph glyph-name="Aacute" unicode="&#xc1;" horiz-adv-x="660" 
d="M187 244h286l-143 374zM14 0l274 710h84l274 -710h-78l-67 172h-341l-68 -172h-78zM347 880h75l-52 -101h-71z" />
    <glyph glyph-name="Acircumflex" unicode="&#xc2;" horiz-adv-x="660" 
d="M187 244h286l-143 374zM14 0l274 710h84l274 -710h-78l-67 172h-341l-68 -172h-78zM379 880l64 -101h-73l-40 68l-41 -68h-72l64 101h98z" />
    <glyph glyph-name="Atilde" unicode="&#xc3;" horiz-adv-x="660" 
d="M187 244h286l-143 374zM14 0l274 710h84l274 -710h-78l-67 172h-341l-68 -172h-78zM185 792q1 42 23.5 70t63.5 28q26 0 40.5 -9t25.5 -20.5t21.5 -20.5t26.5 -9q20 0 28.5 12.5t8.5 34.5h52q-1 -45 -22.5 -72t-66.5 -27q-25 0 -40 9t-26 20.5t-21 20.5t-25 9
q-19 0 -27.5 -14.5t-9.5 -31.5h-52z" />
    <glyph glyph-name="Adieresis" unicode="&#xc4;" horiz-adv-x="660" 
d="M187 244h286l-143 374zM14 0l274 710h84l274 -710h-78l-67 172h-341l-68 -172h-78zM227 779v70h70v-70h-70zM364 779v70h70v-70h-70z" />
    <glyph glyph-name="Aring" unicode="&#xc5;" horiz-adv-x="660" 
d="M187 244h286l-143 374zM331 820q19 0 30 12.5t11 29.5t-11 30t-30 13q-20 0 -31 -13t-11 -30t11 -29.5t31 -12.5zM14 0l274 710h84l274 -710h-78l-67 172h-341l-68 -172h-78zM331 779q-38 0 -62.5 24t-24.5 59q0 38 24.5 61t62.5 23q37 0 61 -23t24 -61q0 -35 -24 -59
t-61 -24z" />
    <glyph glyph-name="AE" unicode="&#xc6;" horiz-adv-x="1201" 
d="M503 235h232v387zM735 0v169h-268l-103 -169h-79l420 700h446v-71h-341v-245h323v-71h-323v-242h341v-71h-416z" />
    <glyph glyph-name="Ccedilla" unicode="&#xc7;" horiz-adv-x="755" 
d="M725 211q-20 -52 -53.5 -93t-76.5 -70t-94 -44.5t-106 -15.5l-15 -25q32 -5 47 -20.5t15 -36.5q0 -29 -20.5 -46t-57.5 -17h-51v42h51q14 0 24.5 5t10.5 16q0 10 -11 15t-29 5h-32v31l21 34q-67 8 -124.5 38.5t-99 78.5t-65 110t-23.5 134q0 77 27.5 142.5t75.5 114
t113.5 76t141.5 27.5q52 0 99.5 -13t88 -37.5t73 -58.5t54.5 -76l-65 -38q-17 33 -42 61t-56.5 49t-69.5 32.5t-82 11.5q-63 0 -116 -23.5t-90.5 -63.5t-58.5 -92.5t-21 -110.5q0 -60 21 -113.5t58.5 -94t90.5 -64.5t116 -24q47 0 87.5 13.5t74 37.5t58.5 56.5t40 70.5z" />
    <glyph glyph-name="Egrave" unicode="&#xc8;" horiz-adv-x="582" 
d="M232 880h76l47 -101h-71zM80 700h454v-71h-379v-245h360v-71h-360v-242h379v-71h-454v700z" />
    <glyph glyph-name="Eacute" unicode="&#xc9;" horiz-adv-x="582" 
d="M380 880l-52 -101h-71l48 101h75zM80 700h454v-71h-379v-245h360v-71h-360v-242h379v-71h-454v700z" />
    <glyph glyph-name="Ecircumflex" unicode="&#xca;" horiz-adv-x="582" 
d="M413 779h-73l-40 68l-41 -68h-72l64 101h97zM80 700h454v-71h-379v-245h360v-71h-360v-242h379v-71h-454v700z" />
    <glyph glyph-name="Edieresis" unicode="&#xcb;" horiz-adv-x="582" 
d="M183 849h70v-70h-70v70zM340 849h70v-70h-70v70zM80 700h454v-71h-379v-245h360v-71h-360v-242h379v-71h-454v700z" />
    <glyph glyph-name="Igrave" unicode="&#xcc;" horiz-adv-x="234" 
d="M27 880h75l47 -101h-71zM79 701h75v-701h-75v701z" />
    <glyph glyph-name="Iacute" unicode="&#xcd;" horiz-adv-x="234" 
d="M79 701h75v-701h-75v701zM197 880l-51 -101h-71l48 101h74z" />
    <glyph glyph-name="Icircumflex" unicode="&#xce;" horiz-adv-x="282" 
d="M254 779h-73l-40 68l-41 -68h-73l65 101h97zM103 701h75v-701h-75v701z" />
    <glyph glyph-name="Idieresis" unicode="&#xcf;" horiz-adv-x="265" 
d="M38 849h70v-70h-70v70zM157 849h70v-70h-70v70zM95 701h75v-701h-75v701z" />
    <glyph glyph-name="Eth" unicode="&#xd0;" horiz-adv-x="716" 
d="M326 700q78 0 142 -26.5t109.5 -73.5t70.5 -111t25 -139q0 -74 -25 -138t-71 -111t-109.5 -74t-141.5 -27h-247v309h-50v64h50v327h247zM323 630h-168v-257h174v-64h-174v-239h168q70 0 122 24.5t86 64t50.5 90.5t16.5 104t-18 103t-53.5 88.5t-86.5 62t-117 23.5z" />
    <glyph glyph-name="Ntilde" unicode="&#xd1;" horiz-adv-x="709" 
d="M209 801q1 42 23.5 70t63.5 28q26 0 41 -9t25.5 -20.5t21 -20.5t27.5 -9q19 0 27.5 12.5t9.5 34.5h52q-2 -45 -23.5 -72t-65.5 -27q-25 0 -40 9t-26.5 20.5t-21.5 20.5t-25 9q-18 0 -27 -14.5t-9 -31.5h-53zM79 701h66l409 -559v559h75v-702h-62l-413 563v-563h-75v702z
" />
    <glyph glyph-name="Ograve" unicode="&#xd2;" horiz-adv-x="800" 
d="M312 880h75l47 -101h-70zM400 -12q-76 0 -141.5 28t-113.5 76.5t-75.5 115t-27.5 144.5q0 77 27.5 142.5t75.5 114t113.5 76t141.5 27.5t141.5 -27.5t113.5 -76t75 -114t27 -142.5q0 -78 -27 -144.5t-75 -115t-113.5 -76.5t-141.5 -28zM400 61q63 0 115 23t89 63t57.5 93
t20.5 113q0 58 -20.5 110t-57.5 91t-89 62t-115 23t-115 -23t-89 -62t-57.5 -91t-20.5 -110q0 -60 20.5 -113t57.5 -93t89 -63t115 -23z" />
    <glyph glyph-name="Oacute" unicode="&#xd3;" horiz-adv-x="800" 
d="M488 880l-51 -101h-71l48 101h74zM400 -12q-76 0 -141.5 28t-113.5 76.5t-75.5 115t-27.5 144.5q0 77 27.5 142.5t75.5 114t113.5 76t141.5 27.5t141.5 -27.5t113.5 -76t75 -114t27 -142.5q0 -78 -27 -144.5t-75 -115t-113.5 -76.5t-141.5 -28zM400 61q63 0 115 23t89 63
t57.5 93t20.5 113q0 58 -20.5 110t-57.5 91t-89 62t-115 23t-115 -23t-89 -62t-57.5 -91t-20.5 -110q0 -60 20.5 -113t57.5 -93t89 -63t115 -23z" />
    <glyph glyph-name="Ocircumflex" unicode="&#xd4;" horiz-adv-x="800" 
d="M400 61q63 0 115 23t89 63t57.5 93t20.5 113q0 58 -20.5 110t-57.5 91t-89 62t-115 23t-115 -23t-89 -62t-57.5 -91t-20.5 -110q0 -60 20.5 -113t57.5 -93t89 -63t115 -23zM400 -12q-76 0 -141.5 28t-113.5 76.5t-75.5 115t-27.5 144.5q0 77 27.5 142.5t75.5 114
t113.5 76t141.5 27.5t141.5 -27.5t113.5 -76t75 -114t27 -142.5q0 -78 -27 -144.5t-75 -115t-113.5 -76.5t-141.5 -28zM452 880l64 -101h-73l-40 68l-41 -68h-72l64 101h98z" />
    <glyph glyph-name="Otilde" unicode="&#xd5;" horiz-adv-x="800" 
d="M400 61q63 0 115 23t89 63t57.5 93t20.5 113q0 58 -20.5 110t-57.5 91t-89 62t-115 23t-115 -23t-89 -62t-57.5 -91t-20.5 -110q0 -60 20.5 -113t57.5 -93t89 -63t115 -23zM400 -12q-76 0 -141.5 28t-113.5 76.5t-75.5 115t-27.5 144.5q0 77 27.5 142.5t75.5 114
t113.5 76t141.5 27.5t141.5 -27.5t113.5 -76t75 -114t27 -142.5q0 -78 -27 -144.5t-75 -115t-113.5 -76.5t-141.5 -28zM254 792q2 42 24.5 70t62.5 28q26 0 41 -9t26 -20.5t21.5 -20.5t26.5 -9q20 0 28 13t9 34h52q-1 -45 -22.5 -72t-66.5 -27q-25 0 -40 9t-26.5 20.5
t-21.5 20.5t-25 9q-18 0 -26.5 -14.5t-9.5 -31.5h-53z" />
    <glyph glyph-name="Odieresis" unicode="&#xd6;" horiz-adv-x="800" 
d="M282 849h70v-70h-70v70zM448 849h70v-70h-70v70zM400 -12q-76 0 -141.5 28t-113.5 76.5t-75.5 115t-27.5 144.5q0 77 27.5 142.5t75.5 114t113.5 76t141.5 27.5t141.5 -27.5t113.5 -76t75 -114t27 -142.5q0 -78 -27 -144.5t-75 -115t-113.5 -76.5t-141.5 -28zM400 61
q63 0 115 23t89 63t57.5 93t20.5 113q0 58 -20.5 110t-57.5 91t-89 62t-115 23t-115 -23t-89 -62t-57.5 -91t-20.5 -110q0 -60 20.5 -113t57.5 -93t89 -63t115 -23z" />
    <glyph glyph-name="multiply" unicode="&#xd7;" horiz-adv-x="472" 
d="M281 303l127 -127l-46 -44l-126 126l-130 -129l-45 43l130 131l-131 130l46 43l130 -129l127 126l45 -44z" />
    <glyph glyph-name="Oslash" unicode="&#xd8;" horiz-adv-x="788" 
d="M527 607q-29 15 -62 23.5t-71 8.5q-63 0 -115 -23t-89 -62t-57.5 -91t-20.5 -110q0 -80 35 -146t98 -104zM394 61q63 0 115 23t89 63t57.5 93t20.5 113q0 72 -30.5 133.5t-85.5 100.5l-282 -503q54 -23 116 -23zM394 -12q-42 0 -80 8.5t-73 24.5l-73 -130l-34 17l74 131
q-79 47 -125.5 128.5t-46.5 184.5q0 77 27.5 142.5t75.5 114t113.5 76t141.5 27.5q48 0 90 -10.5t80 -30.5l73 129l34 -18l-74 -131q71 -48 112.5 -125.5t41.5 -173.5q0 -78 -27 -144.5t-75 -115t-113.5 -76.5t-141.5 -28z" />
    <glyph glyph-name="Ugrave" unicode="&#xd9;" horiz-adv-x="682" 
d="M303 779l-52 101h75l47 -101h-70zM619 700v-409q0 -142 -71.5 -218.5t-204.5 -76.5q-134 0 -207.5 77t-73.5 218v409h76l-1 -415q0 -106 56 -162t150 -56q93 0 147 56t54 162v415h75z" />
    <glyph glyph-name="Uacute" unicode="&#xda;" horiz-adv-x="682" 
d="M355 880h75l-51 -101h-72zM619 700v-409q0 -142 -71.5 -218.5t-204.5 -76.5q-134 0 -207.5 77t-73.5 218v409h76l-1 -415q0 -106 56 -162t150 -56q93 0 147 56t54 162v415h75z" />
    <glyph glyph-name="Ucircumflex" unicode="&#xdb;" horiz-adv-x="682" 
d="M389 880l65 -101h-73l-40 68l-41 -68h-72l64 101h97zM619 700v-409q0 -142 -71.5 -218.5t-204.5 -76.5q-134 0 -207.5 77t-73.5 218v409h76l-1 -415q0 -106 56 -162t150 -56q93 0 147 56t54 162v415h75z" />
    <glyph glyph-name="Udieresis" unicode="&#xdc;" horiz-adv-x="682" 
d="M223 779v70h70v-70h-70zM389 779v70h70v-70h-70zM619 700v-409q0 -142 -71.5 -218.5t-204.5 -76.5q-134 0 -207.5 77t-73.5 218v409h76l-1 -415q0 -106 56 -162t150 -56q93 0 147 56t54 162v415h75z" />
    <glyph glyph-name="Yacute" unicode="&#xdd;" horiz-adv-x="576" 
d="M373 880l-51 -101h-72l48 101h75zM253 269l-238 430h81l195 -351l189 351h81l-229 -425v-274h-79v269z" />
    <glyph glyph-name="Thorn" unicode="&#xde;" horiz-adv-x="591" 
d="M330 105q71 0 110 45t39 119q0 73 -39 117.5t-110 44.5h-182v-326h182zM73 -201v901h75v-195h172q117 0 175 -62.5t59 -173.5q0 -115 -61 -177t-173 -61h-172v-232h-75z" />
    <glyph glyph-name="germandbls" unicode="&#xdf;" horiz-adv-x="560" 
d="M243 58q38 0 72 9t59 26.5t39.5 44t14.5 61.5t-14.5 60.5t-39.5 42t-59 24.5t-73 7v69q36 0 66 7.5t51.5 23t34 38t12.5 52.5q0 58 -42.5 90t-108.5 32q-71 0 -112.5 -43.5t-40.5 -128.5v-472h-75v466q0 118 58 181.5t172 63.5q49 0 89 -13t68.5 -37t44 -58t15.5 -76
q0 -53 -27 -94.5t-74 -60.5q58 -18 92.5 -67.5t34.5 -113.5q0 -45 -19 -82.5t-53 -64.5t-81.5 -42t-103.5 -15v70z" />
    <glyph glyph-name="agrave" unicode="&#xe0;" 
d="M305 51q42 0 78 15t63 41.5t42 62.5t15 78t-15.5 78.5t-42 63t-62.5 41.5t-78 15t-78 -15t-62.5 -41.5t-41.5 -63t-15 -78.5t15 -78.5t41.5 -62.5t62.5 -41t78 -15zM503 95q-29 -51 -83.5 -79t-125.5 -28q-55 0 -102 19t-81.5 53.5t-54 82t-19.5 104.5q0 55 19.5 103.5
t53.5 84.5t81.5 56.5t102.5 20.5q72 0 126 -28.5t83 -82.5v99h72v-500h-72v95zM272 575l-52 101h75l41 -101h-64z" />
    <glyph glyph-name="aacute" unicode="&#xe1;" 
d="M305 51q42 0 78 15t63 41t42 62.5t15 78.5t-15.5 78.5t-42 63t-62.5 41.5t-78 15t-78 -15t-62.5 -41.5t-41.5 -63t-15 -78.5q0 -43 15 -79t41.5 -62t62.5 -41t78 -15zM503 95q-29 -51 -83.5 -79t-125.5 -28q-55 0 -102 20t-81.5 54.5t-54 82t-19.5 102.5t19.5 103.5
t53.5 84.5t81.5 56.5t102.5 20.5q72 0 126 -28.5t83 -82.5v99h72v-500h-72v95zM305 676h75l-51 -101h-71z" />
    <glyph glyph-name="acircumflex" unicode="&#xe2;" 
d="M305 51q42 0 78 15t63 41t42 62.5t15 78.5t-15.5 78.5t-42 63t-62.5 41.5t-78 15t-78 -15t-62.5 -41.5t-41.5 -63t-15 -78.5q0 -43 15 -79t41.5 -62t62.5 -41t78 -15zM503 95q-29 -51 -83.5 -79t-125.5 -28q-55 0 -102 20t-81.5 54.5t-54 82t-19.5 102.5t19.5 103.5
t53.5 84.5t81.5 56.5t102.5 20.5q72 0 126 -28.5t83 -82.5v99h72v-500h-72v95zM357 676l65 -101h-73l-40 68l-41 -68h-72l64 101h97z" />
    <glyph glyph-name="atilde" unicode="&#xe3;" 
d="M305 51q42 0 78 15t63 41t42 62.5t15 78.5t-15.5 78.5t-42 63t-62.5 41.5t-78 15t-78 -15t-62.5 -41.5t-41.5 -63t-15 -78.5q0 -43 15 -79t41.5 -62t62.5 -41t78 -15zM503 95q-29 -51 -83.5 -79t-125.5 -28q-55 0 -102 20t-81.5 54.5t-54 82t-19.5 102.5t19.5 103.5
t53.5 84.5t81.5 56.5t102.5 20.5q72 0 126 -28.5t83 -82.5v99h72v-500h-72v95zM173 587q2 42 24.5 70.5t62.5 28.5q26 0 41 -9t26 -20.5t21.5 -20.5t26.5 -9q20 0 28 12.5t9 34.5h52q-1 -45 -22.5 -72.5t-66.5 -27.5q-25 0 -40 9t-26.5 20.5t-21.5 20.5t-25 9
q-18 0 -26.5 -14.5t-9.5 -31.5h-53z" />
    <glyph glyph-name="adieresis" unicode="&#xe4;" 
d="M305 51q42 0 78.5 14.5t63 41t41.5 62.5t15 79t-15 79t-41.5 62.5t-63 41.5t-78.5 15t-78 -15t-62.5 -41.5t-41.5 -63t-15 -78.5q0 -43 15 -79t41.5 -62t62.5 -41t78 -15zM503 95q-29 -51 -83.5 -79t-125.5 -28q-55 0 -102 20t-81.5 54.5t-54 82t-19.5 102.5t19.5 103.5
t53.5 84.5t81.5 56.5t102.5 20.5q72 0 126 -28.5t83 -82.5v99h72v-500h-72v95zM221 575v70h70v-70h-70zM346 575v70h70v-70h-70z" />
    <glyph glyph-name="aring" unicode="&#xe5;" 
d="M305 49q42 0 78 15t62.5 41.5t42 63t15.5 79.5q0 42 -15.5 78.5t-42 63.5t-62.5 42.5t-78 15.5t-78 -15.5t-62.5 -42.5t-41.5 -63.5t-15 -78.5q0 -43 15 -79.5t41.5 -63t62.5 -41.5t78 -15zM319 616q20 0 31 12.5t11 29.5t-11 29.5t-31 12.5t-30.5 -12.5t-10.5 -29.5
t10.5 -29.5t30.5 -12.5zM503 95q-29 -51 -83.5 -79t-125.5 -28q-55 0 -102 20t-81.5 54.5t-54 82t-19.5 102.5t19.5 103.5t53.5 84.5t81.5 56.5t102.5 20.5q72 0 126 -28.5t83 -82.5v99h72v-500h-72v95zM319 575q-37 0 -61.5 23.5t-24.5 59.5q0 38 24.5 61t61.5 23
q38 0 61.5 -23t23.5 -61q0 -36 -23.5 -59.5t-61.5 -23.5z" />
    <glyph glyph-name="ae" unicode="&#xe6;" horiz-adv-x="1191" 
d="M305 49q42 0 78 15t62.5 41.5t42 63t15.5 79.5q0 42 -15.5 78.5t-42 63.5t-62.5 42.5t-78 15.5t-78 -15.5t-62.5 -42.5t-41.5 -63.5t-15 -78.5q0 -43 15 -79.5t41.5 -63t62.5 -41.5t78 -15zM922 274q-8 76 -53 123t-115 47q-39 0 -70 -12.5t-53 -35t-35 -54t-17 -68.5
h343zM988 293q6 -35 4 -73h-415q3 -36 17.5 -66.5t38.5 -52.5t56 -34.5t70 -12.5q51 0 92.5 19.5t65.5 53.5l47 -41q-33 -45 -86.5 -70.5t-116.5 -25.5t-113.5 24.5t-83.5 67.5v-82h-61v95q-29 -50 -83.5 -78.5t-125.5 -28.5q-55 0 -102 20t-81.5 54.5t-54 82t-19.5 102.5
t19.5 103.5t53.5 84.5t81.5 56.5t102.5 20.5q72 0 126 -28.5t83 -82.5v99h61v-81q32 43 80.5 66.5t110.5 23.5q47 0 86.5 -15.5t69.5 -44t50 -68t27 -88.5z" />
    <glyph glyph-name="ccedilla" unicode="&#xe7;" horiz-adv-x="571" 
d="M534 142q-31 -71 -94.5 -111t-142.5 -40q-56 0 -103.5 20t-82.5 54.5t-55 82.5t-20 103q0 56 20 103t55 82t82.5 54.5t103.5 19.5q73 0 131 -33t92 -90l-58 -36q-25 44 -69 68t-99 24q-40 0 -75 -15t-60.5 -41t-40 -61t-14.5 -76q0 -42 15 -77t41.5 -60.5t62 -40
t76.5 -14.5q29 0 56 8.5t50 23.5t40.5 36t27.5 47zM221 -157v42h51q14 0 24 5t10 16q0 10 -10.5 15t-28.5 5h-32v31l27 43h47l-21 -37q31 -5 46.5 -20.5t15.5 -36.5q0 -29 -20.5 -46t-57.5 -17h-51z" />
    <glyph glyph-name="egrave" unicode="&#xe8;" horiz-adv-x="554" 
d="M447 274q-9 76 -53.5 123t-115.5 47q-39 0 -70 -12.5t-53 -35t-35 -54t-16 -68.5h343zM512 293q3 -19 4.5 -37t0.5 -36h-415q3 -36 17.5 -66.5t38.5 -52.5t55.5 -34.5t69.5 -12.5q51 0 92.5 19.5t66.5 53.5l47 -41q-33 -45 -86.5 -70.5t-116.5 -25.5q-55 0 -101 19
t-79 53.5t-51.5 81.5t-18.5 103q0 59 17.5 107t49.5 82.5t77 53.5t99 19q47 0 86.5 -15.5t69.5 -44t50 -68t27 -88.5zM249 575l-51 101h75l47 -101h-71z" />
    <glyph glyph-name="eacute" unicode="&#xe9;" horiz-adv-x="554" 
d="M447 274q-9 76 -53.5 123t-115.5 47q-39 0 -70 -12.5t-53 -35t-35 -54t-16 -68.5h343zM512 293q3 -19 4.5 -37t0.5 -36h-415q3 -36 17.5 -66.5t38.5 -52.5t55.5 -34.5t69.5 -12.5q51 0 92.5 19.5t66.5 53.5l47 -41q-33 -45 -86.5 -70.5t-116.5 -25.5q-55 0 -101 19
t-79 53.5t-51.5 81.5t-18.5 103q0 59 17.5 107t49.5 82.5t77 53.5t99 19q47 0 86.5 -15.5t69.5 -44t50 -68t27 -88.5zM295 676h75l-51 -101h-72z" />
    <glyph glyph-name="ecircumflex" unicode="&#xea;" horiz-adv-x="554" 
d="M447 274q-9 76 -53.5 123t-115.5 47q-39 0 -70 -12.5t-53 -35t-35 -54t-16 -68.5h343zM512 293q3 -19 4.5 -37t0.5 -36h-415q3 -36 17.5 -66.5t38.5 -52.5t55.5 -34.5t69.5 -12.5q51 0 92.5 19.5t66.5 53.5l47 -41q-33 -45 -86.5 -70.5t-116.5 -25.5q-55 0 -101 19
t-79 53.5t-51.5 81.5t-18.5 103q0 59 17.5 107t49.5 82.5t77 53.5t99 19q47 0 86.5 -15.5t69.5 -44t50 -68t27 -88.5zM325 676l65 -101h-73l-40 68l-41 -68h-72l64 101h97z" />
    <glyph glyph-name="edieresis" unicode="&#xeb;" horiz-adv-x="554" 
d="M447 274q-9 76 -53.5 123t-115.5 47q-39 0 -70 -12.5t-53 -35t-35 -54t-16 -68.5h343zM512 293q3 -19 4.5 -37t0.5 -36h-415q3 -36 17.5 -66.5t38.5 -52.5t55.5 -34.5t69.5 -12.5q51 0 92.5 19.5t66.5 53.5l47 -41q-33 -45 -86.5 -70.5t-116.5 -25.5q-55 0 -101 19
t-79 53.5t-51.5 81.5t-18.5 103q0 59 17.5 107t49.5 82.5t77 53.5t99 19q47 0 86.5 -15.5t69.5 -44t50 -68t27 -88.5zM181 575v70h70v-70h-70zM313 575v70h70v-70h-70z" />
    <glyph glyph-name="igrave" unicode="&#xec;" horiz-adv-x="183" 
d="M67 -1v500h71v-500h-71zM67 575l-51 101h75l47 -101h-71z" />
    <glyph glyph-name="iacute" unicode="&#xed;" horiz-adv-x="183" 
d="M92 676h75l-52 -101h-71zM44 -1v501h71v-501h-71z" />
    <glyph glyph-name="icircumflex" unicode="&#xee;" horiz-adv-x="287" 
d="M192 676l64 -101h-72l-40 68l-41 -68h-73l65 101h97zM107 -1v501h71v-501h-71z" />
    <glyph glyph-name="idieresis" unicode="&#xef;" horiz-adv-x="240" 
d="M30 575v70h70v-70h-70zM139 575v70h70v-70h-70zM84 -1v501h71v-501h-71z" />
    <glyph glyph-name="eth" unicode="&#xf0;" horiz-adv-x="579" 
d="M288 417q-35 0 -65.5 -13.5t-53 -37t-35.5 -55.5t-13 -68q0 -39 12.5 -70.5t35 -54.5t53 -35.5t66.5 -12.5q37 0 68 12.5t53.5 35.5t35 54.5t12.5 70.5q0 38 -12.5 70t-34.5 55t-53 36t-69 13zM203 700h61q11 -16 24 -36.5t22 -35.5l109 54l19 -39l-105 -52q9 -14 20 -31
l22 -34t22 -33t20 -28q23 -31 41.5 -58.5t31 -54t19 -53.5t6.5 -56q0 -49 -17.5 -91.5t-48 -73.5t-72 -48.5t-89.5 -17.5t-89 17.5t-71 48.5t-47 73.5t-17 91.5t18 91t48 73t70 48.5t85 17.5q34 0 65 -10l-66 103l-116 -58l-20 39l114 57z" />
    <glyph glyph-name="ntilde" unicode="&#xf1;" horiz-adv-x="560" 
d="M135 588q1 42 23.5 70t63.5 28q26 0 40.5 -9t25.5 -20.5t21.5 -20.5t26.5 -9q20 0 28.5 12.5t9.5 34.5h52q-2 -45 -23.5 -72t-66.5 -27q-25 0 -40 9t-26 20.5t-21 20.5t-25 9q-18 0 -27 -14.5t-10 -31.5h-52zM303 508q50 0 86.5 -15.5t60.5 -43.5t35.5 -67t11.5 -87v-295
h-71v285q0 77 -33 117.5t-106 41.5q-33 0 -61 -10t-48.5 -29t-31.5 -45.5t-11 -58.5v-301h-72v500h72v-74q23 39 67 60.5t101 21.5z" />
    <glyph glyph-name="ograve" unicode="&#xf2;" horiz-adv-x="593" 
d="M213 676h75l48 -101h-71zM297 -9q-56 0 -103.5 20t-82.5 54.5t-55 82.5t-20 103q0 56 20 103t55 82t82.5 54.5t103.5 19.5t103 -19.5t82 -54.5t54.5 -82t19.5 -103q0 -55 -19.5 -103t-54.5 -82.5t-82 -54.5t-103 -20zM297 56q41 0 75.5 15t60.5 41t40.5 61.5t14.5 76.5
t-15 77t-40.5 62t-60.5 41t-75 15q-41 0 -76.5 -15t-61.5 -41t-41 -62t-15 -77t15 -76.5t41 -61.5t61.5 -41t76.5 -15z" />
    <glyph glyph-name="oacute" unicode="&#xf3;" horiz-adv-x="593" 
d="M383 676l-52 -101h-71l48 101h75zM297 -9q-56 0 -103.5 20t-82.5 54.5t-55 82.5t-20 103q0 56 20 103t55 82t82.5 54.5t103.5 19.5t103 -19.5t82 -54.5t54.5 -82t19.5 -103q0 -55 -19.5 -103t-54.5 -82.5t-82 -54.5t-103 -20zM297 56q41 0 75.5 15t60.5 41t40.5 61.5
t14.5 76.5t-15 77t-40.5 62t-60.5 41t-75 15q-41 0 -76.5 -15t-61.5 -41t-41 -62t-15 -77t15 -76.5t41 -61.5t61.5 -41t76.5 -15z" />
    <glyph glyph-name="ocircumflex" unicode="&#xf4;" horiz-adv-x="593" 
d="M297 56q41 0 75.5 15t60.5 41t40.5 61.5t14.5 76.5t-15 77t-40.5 62t-60.5 41t-75 15q-41 0 -76.5 -15t-61.5 -41t-41 -62t-15 -77t15 -76.5t41 -61.5t61.5 -41t76.5 -15zM297 -9q-56 0 -103.5 20t-82.5 54.5t-55 82.5t-20 103q0 56 20 103t55 82t82.5 54.5t103.5 19.5
t103 -19.5t82 -54.5t54.5 -82t19.5 -103q0 -55 -19.5 -103t-54.5 -82.5t-82 -54.5t-103 -20zM345 676l64 -101h-73l-40 68l-41 -68h-72l64 101h98z" />
    <glyph glyph-name="otilde" unicode="&#xf5;" horiz-adv-x="593" 
d="M297 56q41 0 75.5 15t60.5 41t40.5 61.5t14.5 76.5t-15 77t-40.5 62t-60.5 41t-75 15q-41 0 -76.5 -15t-61.5 -41t-41 -62t-15 -77t15 -76.5t41 -61.5t61.5 -41t76.5 -15zM297 -9q-56 0 -103.5 20t-82.5 54.5t-55 82.5t-20 103q0 56 20 103t55 82t82.5 54.5t103.5 19.5
t103 -19.5t82 -54.5t54.5 -82t19.5 -103q0 -55 -19.5 -103t-54.5 -82.5t-82 -54.5t-103 -20zM151 588q1 42 23.5 70t62.5 28q26 0 41 -9t26 -20.5t21.5 -20.5t26.5 -9q20 0 28 12.5t9 34.5h52q-1 -45 -22.5 -72t-66.5 -27q-25 0 -40 9t-26 20t-21 20t-25 9q-19 0 -27.5 -14
t-9.5 -31h-52z" />
    <glyph glyph-name="odieresis" unicode="&#xf6;" horiz-adv-x="593" 
d="M201 645h70v-70h-70v70zM329 645h70v-70h-70v70zM298 -9q-56 0 -103.5 20t-82.5 54.5t-55 82.5t-20 103q0 56 20 103t55 82t82.5 54.5t103.5 19.5t103 -19.5t82 -54.5t54.5 -82t19.5 -103q0 -55 -19.5 -103t-54.5 -82.5t-82 -54.5t-103 -20zM298 56q41 0 75.5 15t60.5 41
t40.5 61.5t14.5 76.5t-15 77t-40.5 62t-60.5 41t-75 15q-41 0 -76.5 -15t-61.5 -41t-41 -62t-15 -77t15 -76.5t41 -61.5t61.5 -41t76.5 -15z" />
    <glyph glyph-name="divide" unicode="&#xf7;" horiz-adv-x="521" 
d="M221 462q0 17 12 29t29 12t29.5 -12t12.5 -29t-12.5 -29.5t-29.5 -12.5t-29 12.5t-12 29.5zM428 380v-63h-339v63h339zM221 235q0 17 12 29.5t29 12.5t29.5 -12.5t12.5 -29.5t-12.5 -29t-29.5 -12t-29 12t-12 29z" />
    <glyph glyph-name="oslash" unicode="&#xf8;" horiz-adv-x="593" 
d="M399 416q-44 29 -102 29q-41 0 -76 -15t-61 -41t-41 -62t-15 -77q0 -51 22 -93t60 -68zM297 56q41 0 76 15t61 41t40.5 61.5t14.5 76.5q0 44 -16 80.5t-44 62.5l-209 -322q35 -15 77 -15zM104 -38l46 72q-53 34 -83.5 90.5t-30.5 126.5q0 56 20 103t55 82t82.5 54.5
t103.5 19.5q39 0 74 -10t65 -28l41 62l33 -18l-44 -65q42 -35 66 -86.5t24 -113.5q0 -55 -19.5 -103t-54.5 -82.5t-82 -54.5t-103 -20q-31 0 -59.5 6.5t-54.5 17.5l-47 -73z" />
    <glyph glyph-name="ugrave" unicode="&#xf9;" horiz-adv-x="555" 
d="M190 676h75l47 -101h-70zM255 -8q-50 0 -85.5 15.5t-58.5 44t-33.5 67.5t-10.5 86v295h71v-285q0 -82 32 -120t101 -39q66 -1 106 38t40 105v301h71v-500h-71v74q-23 -38 -65 -60t-97 -22z" />
    <glyph glyph-name="uacute" unicode="&#xfa;" horiz-adv-x="555" 
d="M359 676l-51 -101h-72l48 101h75zM255 -8q-50 0 -85.5 15.5t-58.5 44t-33.5 67.5t-10.5 86v295h71v-285q0 -82 32 -120t101 -39q66 -1 106 38t40 105v301h71v-500h-71v74q-23 -38 -65 -60t-97 -22z" />
    <glyph glyph-name="ucircumflex" unicode="&#xfb;" horiz-adv-x="555" 
d="M390 575h-72l-40 68l-41 -68h-73l65 101h97zM255 -8q-50 0 -85.5 15.5t-58.5 44t-33.5 67.5t-10.5 86v295h71v-285q0 -82 32 -120t101 -39q66 -1 106 38t40 105v301h71v-500h-71v74q-23 -38 -65 -60t-97 -22z" />
    <glyph glyph-name="udieresis" unicode="&#xfc;" horiz-adv-x="555" 
d="M182 645h70v-70h-70v70zM311 645h70v-70h-70v70zM255 -8q-50 0 -85.5 15.5t-58.5 44t-33.5 67.5t-10.5 86v295h71v-285q0 -82 32 -120t101 -39q66 -1 106 38t40 105v301h71v-500h-71v74q-23 -38 -65 -60t-97 -22z" />
    <glyph glyph-name="yacute" unicode="&#xfd;" horiz-adv-x="527" 
d="M354 676l-51 -101h-71l47 101h75zM168 -200l71 200l-220 500h77l179 -411l161 411h71l-267 -700h-72z" />
    <glyph glyph-name="thorn" unicode="&#xfe;" horiz-adv-x="647" 
d="M342 49q42 0 78 15t62.5 41.5t41.5 63t15 79.5q0 44 -15.5 80.5t-42.5 63t-62.5 41.5t-76.5 15q-40 0 -76 -15t-63 -41.5t-43 -63t-16 -80.5q0 -43 15.5 -79.5t42 -63t62.5 -41.5t78 -15zM144 -200h-71v900h71v-299q29 54 83 82.5t126 28.5q56 0 103 -20.5t81.5 -56.5
t54 -84.5t19.5 -103.5t-20 -102.5t-54.5 -82t-81.5 -54.5t-102 -20q-71 0 -125.5 28.5t-83.5 78.5v-295z" />
    <glyph glyph-name="ydieresis" unicode="&#xff;" horiz-adv-x="527" 
d="M169 645h70v-70h-70v70zM310 645h70v-70h-70v70zM168 -200l71 200l-220 500h77l179 -411l161 411h71l-267 -700h-72z" />
    <glyph glyph-name="Amacron" unicode="&#x100;" horiz-adv-x="660" 
d="M187 244h286l-143 374zM14 0l274 710h84l274 -710h-78l-67 172h-341l-68 -172h-78zM209 779v56h250v-56h-250z" />
    <glyph glyph-name="amacron" unicode="&#x101;" 
d="M305 49q42 0 78 15t62.5 41.5t42 63t15.5 79.5q0 42 -15.5 78.5t-42 63.5t-62.5 42.5t-78 15.5t-78 -15.5t-62.5 -42.5t-41.5 -63.5t-15 -78.5q0 -43 15 -79.5t41.5 -63t62.5 -41.5t78 -15zM503 95q-29 -51 -83.5 -79t-125.5 -28q-55 0 -102 20t-81.5 54.5t-54 82
t-19.5 102.5t19.5 103.5t53.5 84.5t81.5 56.5t102.5 20.5q72 0 126 -28.5t83 -82.5v99h72v-500h-72v95zM194 575v56h250v-56h-250z" />
    <glyph glyph-name="Abreve" unicode="&#x102;" horiz-adv-x="660" 
d="M187 244h286l-143 374zM14 0l274 710h84l274 -710h-78l-67 172h-341l-68 -172h-78zM425 875v-3q0 -45 -27.5 -69t-66.5 -24q-40 0 -68 24t-28 69v3h52v-3q0 -20 11.5 -33t32.5 -13q20 0 31 13t11 33v3h52z" />
    <glyph glyph-name="abreve" unicode="&#x103;" 
d="M305 49q42 0 78 15t62.5 41.5t42 63t15.5 79.5q0 42 -15.5 78.5t-42 63.5t-62.5 42.5t-78 15.5t-78 -15.5t-62.5 -42.5t-41.5 -63.5t-15 -78.5q0 -43 15 -79.5t41.5 -63t62.5 -41.5t78 -15zM503 95q-29 -51 -83.5 -79t-125.5 -28q-55 0 -102 20t-81.5 54.5t-54 82
t-19.5 102.5t19.5 103.5t53.5 84.5t81.5 56.5t102.5 20.5q72 0 126 -28.5t83 -82.5v99h72v-500h-72v95zM414 671v-3q0 -45 -27.5 -69t-66.5 -24q-41 0 -68.5 24t-27.5 69v3h52v-3q0 -20 11.5 -33t32.5 -13q20 0 31 13t11 33v3h52z" />
    <glyph glyph-name="Aogonek" unicode="&#x104;" horiz-adv-x="660" 
d="M187 244h286l-143 374zM14 0l274 710h84l274 -710q-3 -2 -11 -8t-16 -14t-14.5 -19t-6.5 -24q0 -8 5.5 -14.5t19.5 -6.5t32 7v-52q-22 -5 -36 -5q-33 0 -52.5 16t-19.5 43q0 29 18 49t33 28h-30l-67 172h-341l-68 -172h-78z" />
    <glyph glyph-name="aogonek" unicode="&#x105;" horiz-adv-x="619" 
d="M305 49q42 0 78 15t62.5 41.5t42 63t15.5 79.5q0 42 -15.5 78.5t-42 63.5t-62.5 42.5t-78 15.5t-78 -15.5t-62.5 -42.5t-41.5 -63.5t-15 -78.5q0 -43 15 -79.5t41.5 -63t62.5 -41.5t78 -15zM583 -131q-22 -5 -36 -5q-32 0 -51.5 16t-19.5 43t15.5 46.5t30.5 27.5
q-2 1 -9.5 1.5t-9.5 1.5v95q-29 -51 -83.5 -79t-125.5 -28q-55 0 -102 20t-81.5 54.5t-54 82t-19.5 102.5t19.5 103.5t53.5 84.5t81.5 56.5t102.5 20.5q72 0 126 -28.5t83 -82.5v99h72v-500q-3 -2 -11 -8t-16.5 -14t-14.5 -19t-6 -24q0 -8 5 -14.5t19 -6.5t32 7v-52z" />
    <glyph glyph-name="Cacute" unicode="&#x106;" horiz-adv-x="761" 
d="M402 880h75l-51 -101h-72zM731 211q-19 -50 -51.5 -91t-75.5 -70.5t-94.5 -45.5t-109.5 -16q-76 0 -141.5 28t-113.5 76.5t-75.5 115t-27.5 144.5q0 77 27.5 142.5t75.5 114t113.5 76t141.5 27.5q52 0 99.5 -13t88 -37.5t73 -58.5t54.5 -76l-65 -38q-17 33 -42 61
t-56.5 49t-69.5 32.5t-82 11.5q-63 0 -116 -23.5t-90.5 -63.5t-58.5 -92.5t-21 -110.5q0 -60 21 -113.5t58.5 -94t90.5 -64.5t116 -24q47 0 87.5 13.5t74 37.5t58.5 56.5t40 70.5z" />
    <glyph glyph-name="cacute" unicode="&#x107;" horiz-adv-x="571" 
d="M378 676l-51 -101h-71l47 101h75zM534 142q-31 -71 -94.5 -111t-142.5 -40q-56 0 -103.5 20t-82.5 54.5t-55 82.5t-20 103q0 56 20 103t55 82t82.5 54.5t103.5 19.5q73 0 131 -33t92 -90l-58 -36q-25 42 -70 67t-98 25q-40 0 -75 -15t-60.5 -41t-40 -61t-14.5 -76
t15 -76.5t41.5 -61t62 -40t76.5 -14.5q59 0 106.5 32t67.5 83z" />
    <glyph glyph-name="Ccircumflex" unicode="&#x108;" horiz-adv-x="761" 
d="M429 880l64 -101h-72l-40 68l-41 -68h-73l65 101h97zM731 211q-19 -50 -51.5 -91t-75.5 -70.5t-94.5 -45.5t-109.5 -16q-76 0 -141.5 28t-113.5 76.5t-75.5 115t-27.5 144.5q0 77 27.5 142.5t75.5 114t113.5 76t141.5 27.5q52 0 99.5 -13t88 -37.5t73 -58.5t54.5 -76
l-65 -38q-17 33 -43.5 61.5t-59 49t-70 32t-77.5 11.5q-60 0 -112.5 -23t-91 -62.5t-60.5 -92.5t-22 -112q0 -61 22 -115t60.5 -94t90.5 -63.5t113 -23.5q44 0 84.5 13.5t74 37t60 56t41.5 71.5z" />
    <glyph glyph-name="ccircumflex" unicode="&#x109;" horiz-adv-x="571" 
d="M398 575h-72l-41 68l-41 -68h-72l64 101h98zM534 142q-31 -71 -94.5 -111t-142.5 -40q-56 0 -103.5 20t-82.5 54.5t-55 82.5t-20 103q0 56 20 103t55 82t82.5 54.5t103.5 19.5q73 0 131 -33t92 -90l-58 -36q-25 42 -70 67t-98 25q-40 0 -75 -15t-60.5 -41t-40 -61
t-14.5 -76t15 -76.5t41.5 -61t62 -40t76.5 -14.5q59 0 106.5 32t67.5 83z" />
    <glyph glyph-name="Cdotaccent" unicode="&#x10a;" horiz-adv-x="761" 
d="M380 779q-16 0 -29.5 12t-13.5 32q0 19 13.5 29.5t29.5 10.5t29.5 -10.5t13.5 -29.5q0 -20 -13.5 -32t-29.5 -12zM731 211q-19 -50 -51.5 -91t-75.5 -70.5t-94.5 -45.5t-109.5 -16q-76 0 -141.5 28t-113.5 76.5t-75.5 115t-27.5 144.5q0 77 27.5 142.5t75.5 114t113.5 76
t141.5 27.5q52 0 99.5 -13t88 -37.5t73 -58.5t54.5 -76l-65 -38q-17 33 -42 61t-56.5 49t-69.5 32.5t-82 11.5q-63 0 -116 -23.5t-90.5 -63.5t-58.5 -92.5t-21 -110.5q0 -60 21 -113.5t58.5 -94t90.5 -64.5t116 -24q47 0 87.5 13.5t74 37.5t58.5 56.5t40 70.5z" />
    <glyph glyph-name="cdotaccent" unicode="&#x10b;" horiz-adv-x="571" 
d="M289 575q-15 0 -28.5 11.5t-13.5 31.5t13.5 30.5t28.5 10.5q17 0 30.5 -10.5t13.5 -30.5t-13.5 -31.5t-30.5 -11.5zM534 142q-31 -71 -94.5 -111t-142.5 -40q-56 0 -103.5 20t-82.5 54.5t-55 82.5t-20 103q0 56 20 103t55 82t82.5 54.5t103.5 19.5q73 0 131 -33t92 -90
l-58 -36q-25 42 -70 67t-98 25q-40 0 -75 -15t-60.5 -41t-40 -61t-14.5 -76t15 -76.5t41.5 -61t62 -40t76.5 -14.5q59 0 106.5 32t67.5 83z" />
    <glyph glyph-name="Ccaron" unicode="&#x10c;" horiz-adv-x="761" 
d="M421 880h72l-64 -101h-97l-65 101h73l41 -66zM731 211q-19 -50 -51.5 -91t-75.5 -70.5t-94.5 -45.5t-109.5 -16q-76 0 -141.5 28t-113.5 76.5t-75.5 115t-27.5 144.5q0 77 27.5 142.5t75.5 114t113.5 76t141.5 27.5q52 0 99.5 -13t88 -37.5t73 -58.5t54.5 -76l-65 -38
q-17 33 -42 61t-56.5 49t-69.5 32.5t-82 11.5q-63 0 -116 -23.5t-90.5 -63.5t-58.5 -92.5t-21 -110.5q0 -60 21 -113.5t58.5 -94t90.5 -64.5t116 -24q47 0 87.5 13.5t74 37.5t58.5 56.5t40 70.5z" />
    <glyph glyph-name="ccaron" unicode="&#x10d;" horiz-adv-x="571" 
d="M398 676l-64 -101h-98l-64 101h72l41 -66l41 66h72zM534 142q-31 -71 -94.5 -111t-142.5 -40q-56 0 -103.5 20t-82.5 54.5t-55 82.5t-20 103q0 56 20 103t55 82t82.5 54.5t103.5 19.5q73 0 131 -33t92 -90l-58 -36q-25 42 -70 67t-98 25q-40 0 -75 -15t-60.5 -41t-40 -61
t-14.5 -76t15 -76.5t41.5 -61t62 -40t76.5 -14.5q59 0 106.5 32t67.5 83z" />
    <glyph glyph-name="Dcaron" unicode="&#x10e;" horiz-adv-x="716" 
d="M353 880h73l-65 -101h-97l-64 101h72l41 -67zM326 700q78 0 142 -26.5t109.5 -73.5t70.5 -111t25 -139q0 -74 -25 -138t-71 -111t-109.5 -74t-141.5 -27h-247v700h247zM323 630h-168v-560h168q70 0 122 24.5t86 64t50.5 90.5t16.5 104t-18 103t-53.5 88.5t-86.5 62
t-117 23.5z" />
    <glyph glyph-name="Dcroat" unicode="&#x110;" horiz-adv-x="716" 
d="M326 700q78 0 142 -26.5t109.5 -73.5t70.5 -111t25 -139q0 -74 -25 -138t-71 -111t-109.5 -74t-141.5 -27h-247v309h-50v64h50v327h247zM323 630h-168v-257h174v-64h-174v-239h168q70 0 122 24.5t86 64t50.5 90.5t16.5 104t-18 103t-53.5 88.5t-86.5 62t-117 23.5z" />
    <glyph glyph-name="dcroat" unicode="&#x111;" horiz-adv-x="668" 
d="M309 49q42 0 78 15t62.5 41.5t41.5 63t15 79.5q0 42 -15 78.5t-41.5 63.5t-62.5 42.5t-78 15.5t-78 -15.5t-63 -42.5t-42 -63.5t-15 -78.5q0 -43 15 -79.5t42 -63t63 -41.5t78 -15zM507 95q-29 -51 -84 -79t-126 -28q-55 0 -102 20t-81.5 54.5t-54 82t-19.5 102.5
t19.5 103.5t54 84.5t81.5 56.5t102 20.5q72 0 126 -28.5t84 -82.5v168h-160v49h160v82h71v-82h50v-49h-50v-569h-71v95z" />
    <glyph glyph-name="Emacron" unicode="&#x112;" horiz-adv-x="582" 
d="M80 700h454v-71h-379v-245h360v-71h-360v-242h379v-71h-454v700zM186 835h250v-56h-250v56z" />
    <glyph glyph-name="emacron" unicode="&#x113;" horiz-adv-x="554" 
d="M447 274q-8 76 -52.5 123t-115.5 47q-39 0 -70 -12.5t-53 -35t-35 -54t-16 -68.5h342zM513 293q6 -35 4 -73h-414q3 -36 17.5 -66.5t38.5 -52.5t55.5 -34.5t69.5 -12.5q51 0 92.5 19.5t65.5 53.5l47 -41q-33 -45 -86.5 -70.5t-116.5 -25.5q-55 0 -101 19t-79 53.5
t-51 81.5t-18 103q0 59 17.5 107t49.5 82.5t76.5 53.5t99.5 19q47 0 86.5 -15.5t69.5 -44t50 -68t27 -88.5zM153 575v56h250v-56h-250z" />
    <glyph glyph-name="Ebreve" unicode="&#x114;" horiz-adv-x="582" 
d="M386 872q0 -45 -27 -69t-67 -24t-68 24t-28 69v3h52v-3q0 -20 11.5 -32.5t32.5 -12.5t31.5 12.5t10.5 32.5v3h52v-3zM80 700h454v-71h-379v-245h360v-71h-360v-242h379v-71h-454v700z" />
    <glyph glyph-name="ebreve" unicode="&#x115;" horiz-adv-x="554" 
d="M447 274q-9 76 -53.5 123t-115.5 47q-39 0 -70 -12.5t-53 -35t-35 -54t-16 -68.5h343zM512 293q3 -19 4.5 -37t0.5 -36h-415q3 -36 17.5 -66.5t38.5 -52.5t55.5 -34.5t69.5 -12.5q51 0 92.5 19.5t66.5 53.5l47 -41q-33 -45 -86.5 -70.5t-116.5 -25.5q-55 0 -101 19
t-79 53.5t-51.5 81.5t-18.5 103q0 59 17.5 107t49.5 82.5t77 53.5t99 19q47 0 86.5 -15.5t69.5 -44t50 -68t27 -88.5zM372 671v-3q0 -45 -27.5 -69t-66.5 -24q-41 0 -68.5 24t-27.5 69v3h52v-3q0 -20 11.5 -33t32.5 -13q20 0 31 13t11 33v3h52z" />
    <glyph glyph-name="Edotaccent" unicode="&#x116;" horiz-adv-x="582" 
d="M304 779q-15 0 -28.5 11.5t-13.5 31.5t13.5 30.5t28.5 10.5q17 0 30.5 -10.5t13.5 -30.5t-13.5 -31.5t-30.5 -11.5zM80 700h454v-71h-379v-245h360v-71h-360v-242h379v-71h-454v700z" />
    <glyph glyph-name="edotaccent" unicode="&#x117;" horiz-adv-x="554" 
d="M447 274q-9 76 -53.5 123t-115.5 47q-39 0 -70 -12.5t-53 -35t-35 -54t-16 -68.5h343zM512 293q3 -19 4.5 -37t0.5 -36h-415q3 -36 17.5 -66.5t38.5 -52.5t55.5 -34.5t69.5 -12.5q51 0 92.5 19.5t66.5 53.5l47 -41q-33 -45 -86.5 -70.5t-116.5 -25.5q-55 0 -101 19
t-79 53.5t-51.5 81.5t-18.5 103q0 59 17.5 107t49.5 82.5t77 53.5t99 19q47 0 86.5 -15.5t69.5 -44t50 -68t27 -88.5zM276 575q-15 0 -28.5 11.5t-13.5 31.5t13.5 30.5t28.5 10.5q17 0 30.5 -10.5t13.5 -30.5t-13.5 -31.5t-30.5 -11.5z" />
    <glyph glyph-name="Eogonek" unicode="&#x118;" horiz-adv-x="582" 
d="M360 -65q-10 19 -18 50q-34 2 -57.5 3.5t-31.5 3.5q0 19 2.5 53t6 69t7 62.5t4.5 32.5l40 8v5l-58 -12l-30 107l-70 15l45 79l-64 237l279 -54l110 -19l-261 -52l-64 -112l25 -94l180 -37l119 -18l-211 -45q0 -16 2 -43.5t5.5 -60t9 -66t12.5 -62.5q20 -1 41 -1.5
t44 -0.5q29 0 58.5 1t56.5 3v-53q-17 -5 -37.5 -9t-34.5 -4q-15 0 -15 5q0 7 14 12t36 15z" />
    <glyph glyph-name="eogonek" unicode="&#x119;" horiz-adv-x="554" 
d="M447 274q-9 76 -53.5 123t-115.5 47q-39 0 -70 -12.5t-53 -35t-35 -54t-16 -68.5h343zM512 293q3 -19 4.5 -37t0.5 -36h-415q3 -36 17.5 -66.5t38.5 -52.5t55.5 -34.5t69.5 -12.5q51 0 92.5 19.5t66.5 53.5l47 -41q-26 -35 -65 -58.5t-88 -31.5q-4 -3 -11 -9t-13.5 -14
t-11.5 -17.5t-5 -20.5q0 -8 5.5 -14.5t19.5 -6.5t32 7v-52q-22 -5 -37 -5q-32 0 -51.5 16t-19.5 43q0 22 11 39t24 28q-54 1 -98.5 20.5t-77 54t-50 81t-17.5 101.5q0 59 17.5 107t49.5 82.5t77 53.5t99 19q47 0 86.5 -15.5t69.5 -44t50 -68t27 -88.5z" />
    <glyph glyph-name="Ecaron" unicode="&#x11a;" horiz-adv-x="582" 
d="M431 880l-64 -101h-98l-64 101h72l41 -67l40 67h73zM80 700h454v-71h-379v-245h360v-71h-360v-242h379v-71h-454v700z" />
    <glyph glyph-name="ecaron" unicode="&#x11b;" horiz-adv-x="554" 
d="M447 274q-9 76 -53.5 123t-115.5 47q-39 0 -70 -12.5t-53 -35t-35 -54t-16 -68.5h343zM512 293q3 -19 4.5 -37t0.5 -36h-415q3 -36 17.5 -66.5t38.5 -52.5t55.5 -34.5t69.5 -12.5q51 0 92.5 19.5t66.5 53.5l47 -41q-33 -45 -86.5 -70.5t-116.5 -25.5q-55 0 -101 19
t-79 53.5t-51.5 81.5t-18.5 103q0 59 17.5 107t49.5 82.5t77 53.5t99 19q47 0 86.5 -15.5t69.5 -44t50 -68t27 -88.5zM318 676h73l-65 -101h-97l-65 101h73l41 -66z" />
    <glyph glyph-name="Gcircumflex" unicode="&#x11c;" horiz-adv-x="796" 
d="M642 507q-35 60 -98 98t-144 38q-63 0 -115 -23.5t-89 -63.5t-57.5 -92.5t-20.5 -110.5q0 -61 20.5 -115t58 -94t89.5 -63.5t114 -23.5q53 0 101 18.5t84.5 51.5t60 79t28.5 100h-371v69h450v-69q-7 -69 -37 -127.5t-76.5 -100.5t-107.5 -66t-131 -24q-76 0 -141.5 28
t-113.5 76.5t-75.5 115t-27.5 144.5q0 77 27.5 142.5t75.5 114t113.5 76t141.5 27.5q98 0 177 -45t126 -121zM511 779h-73l-40 68l-41 -68h-72l64 101h98z" />
    <glyph glyph-name="gcircumflex" unicode="&#x11d;" horiz-adv-x="633" 
d="M574 26q0 -54 -20 -99t-55.5 -77.5t-84.5 -50.5t-108 -18q-75 0 -134 26.5t-99 77.5l48 51q68 -85 186 -85q43 0 79 12.5t61.5 36t40 55.5t15.5 71v74q-32 -54 -81.5 -82t-121.5 -28q-54 0 -101 20.5t-81.5 55.5t-54.5 82.5t-20 102.5q0 56 19.5 103.5t54 82.5t81.5 55
t102 20q66 0 120.5 -29.5t82.5 -81.5v99h71v-474zM311 55q42 0 77 15t60.5 41t39.5 61.5t14 76.5q0 42 -14 78t-39.5 62.5t-60.5 41.5t-77 15t-78.5 -15t-62.5 -41.5t-41 -62.5t-15 -78q0 -41 15 -76.5t41.5 -61.5t62.5 -41t78 -15zM430 581h-73l-40 68l-41 -68h-72l64 101
h98z" />
    <glyph glyph-name="Gbreve" unicode="&#x11e;" horiz-adv-x="796" 
d="M642 507q-35 60 -98 98t-144 38q-63 0 -115 -23.5t-89 -63.5t-57.5 -92.5t-20.5 -110.5q0 -61 20.5 -115t58 -94t89.5 -63.5t114 -23.5q53 0 101 18.5t84.5 51.5t60 79t28.5 100h-371v69h450v-69q-7 -69 -37 -127.5t-76.5 -100.5t-107.5 -66t-131 -24q-76 0 -141.5 28
t-113.5 76.5t-75.5 115t-27.5 144.5q0 77 27.5 142.5t75.5 114t113.5 76t141.5 27.5q98 0 177 -45t126 -121zM493 872q0 -45 -27 -69t-67 -24t-67.5 24t-27.5 69v3h51v-3q0 -20 11.5 -32.5t32.5 -12.5t31.5 12.5t10.5 32.5v3h52v-3z" />
    <glyph glyph-name="gbreve" unicode="&#x11f;" horiz-adv-x="633" 
d="M574 26q0 -54 -20 -99t-55.5 -77.5t-84.5 -50.5t-108 -18q-75 0 -134 26.5t-99 77.5l48 51q68 -85 186 -85q43 0 79 12.5t61.5 36t40 55.5t15.5 71v74q-32 -54 -81.5 -82t-121.5 -28q-54 0 -101 20.5t-81.5 55.5t-54.5 82.5t-20 102.5q0 56 19.5 103.5t54 82.5t81.5 55
t102 20q66 0 120.5 -29.5t82.5 -81.5v99h71v-474zM311 55q42 0 77 15t60.5 41t39.5 61.5t14 76.5q0 42 -14 78t-39.5 62.5t-60.5 41.5t-77 15t-78.5 -15t-62.5 -41.5t-41 -62.5t-15 -78q0 -41 15 -76.5t41.5 -61.5t62.5 -41t78 -15zM411 668q0 -45 -27 -69t-67 -24t-67.5 24
t-27.5 69v3h51v-3q0 -20 11.5 -32.5t32.5 -12.5t31.5 12.5t10.5 32.5v3h52v-3z" />
    <glyph glyph-name="Gdotaccent" unicode="&#x120;" horiz-adv-x="796" 
d="M642 507q-35 60 -98 98t-144 38q-63 0 -115 -23.5t-89 -63.5t-57.5 -92.5t-20.5 -110.5q0 -61 20.5 -115t58 -94t89.5 -63.5t114 -23.5q53 0 101 18.5t84.5 51.5t60 79t28.5 100h-371v69h450v-69q-7 -69 -37 -127.5t-76.5 -100.5t-107.5 -66t-131 -24q-76 0 -141.5 28
t-113.5 76.5t-75.5 115t-27.5 144.5q0 77 27.5 142.5t75.5 114t113.5 76t141.5 27.5q98 0 177 -45t126 -121zM397 780q-15 0 -28.5 11.5t-13.5 31.5t13.5 30.5t28.5 10.5q16 0 29.5 -10.5t13.5 -30.5t-13.5 -31.5t-29.5 -11.5z" />
    <glyph glyph-name="gdotaccent" unicode="&#x121;" horiz-adv-x="633" 
d="M574 26q0 -54 -20 -99t-55.5 -77.5t-84.5 -50.5t-108 -18q-75 0 -134 26.5t-99 77.5l48 51q68 -85 186 -85q43 0 79 12.5t61.5 36t40 55.5t15.5 71v74q-32 -54 -81.5 -82t-121.5 -28q-54 0 -101 20.5t-81.5 55.5t-54.5 82.5t-20 102.5q0 56 19.5 103.5t54 82.5t81.5 55
t102 20q66 0 120.5 -29.5t82.5 -81.5v99h71v-474zM311 55q42 0 77 15t60.5 41t39.5 61.5t14 76.5q0 42 -14 78t-39.5 62.5t-60.5 41.5t-77 15t-78.5 -15t-62.5 -41.5t-41 -62.5t-15 -78q0 -41 15 -76.5t41.5 -61.5t62.5 -41t78 -15zM316 575q-15 0 -28.5 11.5t-13.5 31.5
t13.5 30.5t28.5 10.5q16 0 29.5 -10.5t13.5 -30.5t-13.5 -31.5t-29.5 -11.5z" />
    <glyph glyph-name="Hcircumflex" unicode="&#x124;" horiz-adv-x="690" 
d="M535 700h75v-700h-75v313h-380l-1 -313h-74v700h74l1 -316h380v316zM458 779h-73l-40 68l-41 -68h-72l64 101h98z" />
    <glyph glyph-name="hcircumflex" unicode="&#x125;" horiz-adv-x="564" 
d="M302 508q50 0 86.5 -15.5t60.5 -43.5t36 -67t12 -87v-295h-71v285q0 77 -33.5 117.5t-105.5 41.5q-33 0 -61.5 -10t-48.5 -29t-31.5 -45.5t-11.5 -58.5v-301h-71v700h71v-274q24 39 67.5 60.5t100.5 21.5zM212 779h-73l-40 68l-41 -68h-72l64 101h98z" />
    <glyph glyph-name="itilde" unicode="&#x129;" horiz-adv-x="331" 
d="M40 606q2 33 21.5 54.5t48.5 21.5h5q23 -1 36 -10.5t23 -20t20 -19.5t27 -9q39 0 41 47h29q-3 -77 -70 -77q-22 0 -36 9t-25 20.5t-22 20.5t-27 9q-18 0 -29 -12.5t-12 -33.5h-30zM150 -1v501h30v-501h-30z" />
    <glyph glyph-name="dotlessi" unicode="&#x131;" horiz-adv-x="162" 
d="M45 -1v576h71v-576h-71z" />
    <glyph glyph-name="Ldot" unicode="&#x13f;" horiz-adv-x="560" 
d="M80 700h74l1 -629h343v-71h-418v700zM278 291q0 18 12.5 30.5t29.5 12.5q18 0 30.5 -12.5t12.5 -30.5q0 -17 -12.5 -29.5t-30.5 -12.5q-17 0 -29.5 12.5t-12.5 29.5z" />
    <glyph glyph-name="Lslash" unicode="&#x141;" horiz-adv-x="634" 
d="M153 263l-64 -35l-27 49l91 50v373h75v-331l144 79l28 -49l-172 -94v-234h344v-71h-419v263z" />
    <glyph glyph-name="lslash" unicode="&#x142;" horiz-adv-x="171" 
d="M-40 274v30h111v396h30v-396h109v-30h-109v-274h-30v274h-111z" />
    <glyph glyph-name="nacute" unicode="&#x144;" horiz-adv-x="605" 
d="M325 508q50 0 86.5 -15.5t60.5 -43.5t35.5 -67t11.5 -87v-295h-71v285q0 77 -33 117.5t-106 41.5q-33 0 -61 -10t-48.5 -29t-31.5 -45.5t-11 -58.5v-301h-71v500h71v-74q23 39 67 60.5t101 21.5zM363 725l-51 -101h-71l47 101h75z" />
    <glyph glyph-name="Ncaron" unicode="&#x147;" horiz-adv-x="709" 
d="M468 880l-65 -101h-97l-65 101h73l41 -66l40 66h73zM79 701h66l409 -559v559h75v-702h-62l-413 563v-563h-75v702z" />
    <glyph glyph-name="ncaron" unicode="&#x148;" horiz-adv-x="560" 
d="M392 676l-64 -101h-97l-65 101h73l41 -66l40 66h72zM302 508q50 0 86.5 -15.5t60.5 -43.5t35.5 -67t11.5 -87v-295h-71v285q0 77 -33 117.5t-106 41.5q-33 0 -61 -10t-48.5 -29t-31.5 -45.5t-11 -58.5v-301h-71v500h71v-74q23 39 67 60.5t101 21.5z" />
    <glyph glyph-name="Omacron" unicode="&#x14c;" horiz-adv-x="800" 
d="M259 835h250v-56h-250v56zM401 -12q-76 0 -141.5 28t-113.5 76.5t-75.5 115t-27.5 144.5q0 77 27.5 142.5t75.5 114t113.5 76t141.5 27.5t141.5 -27.5t113.5 -76t75 -114t27 -142.5q0 -78 -27 -144.5t-75 -115t-113.5 -76.5t-141.5 -28zM400 61q63 0 115 23t89 63
t57.5 93t20.5 113q0 58 -20.5 110t-57.5 91t-89 62t-115 23t-115 -23t-89 -62t-57.5 -91t-20.5 -110q0 -60 20.5 -113t57.5 -93t89 -63t115 -23z" />
    <glyph glyph-name="omacron" unicode="&#x14d;" horiz-adv-x="593" 
d="M172 631h250v-56h-250v56zM298 -9q-56 0 -103.5 20t-82.5 54.5t-55 82.5t-20 103q0 56 20 103t55 82t82.5 54.5t103.5 19.5t103 -19.5t82 -54.5t54.5 -82t19.5 -103q0 -55 -19.5 -103t-54.5 -82.5t-82 -54.5t-103 -20zM297 56q41 0 76 15t61 41t40.5 61.5t14.5 76.5
t-15 77t-40.5 62t-60.5 41t-76 15t-76 -15t-61 -41t-41 -62t-15 -77t15 -76.5t41 -61.5t61 -41t76 -15z" />
    <glyph glyph-name="Obreve" unicode="&#x14e;" horiz-adv-x="800" 
d="M400 61q63 0 115 23t89 63t57.5 93t20.5 113q0 58 -20.5 110t-57.5 91t-89 62t-115 23t-115 -23t-89 -62t-57.5 -91t-20.5 -110q0 -60 20.5 -113t57.5 -93t89 -63t115 -23zM400 -12q-76 0 -141.5 28t-113.5 76.5t-75.5 115t-27.5 144.5q0 77 27.5 142.5t75.5 114
t113.5 76t141.5 27.5t141.5 -27.5t113.5 -76t75 -114t27 -142.5q0 -78 -27 -144.5t-75 -115t-113.5 -76.5t-141.5 -28zM495 874v-3q0 -45 -27.5 -69t-66.5 -24q-41 0 -68.5 24t-27.5 69v3h52v-3q0 -20 11.5 -32.5t32.5 -12.5q20 0 31 12.5t11 32.5v3h52z" />
    <glyph glyph-name="obreve" unicode="&#x14f;" horiz-adv-x="593" 
d="M297 56q41 0 75.5 15t60.5 41t40.5 61.5t14.5 76.5t-15 77t-40.5 62t-60.5 41t-75 15q-41 0 -76.5 -15t-61.5 -41t-41 -62t-15 -77t15 -76.5t41 -61.5t61.5 -41t76.5 -15zM297 -9q-56 0 -103.5 20t-82.5 54.5t-55 82.5t-20 103q0 56 20 103t55 82t82.5 54.5t103.5 19.5
t103 -19.5t82 -54.5t54.5 -82t19.5 -103q0 -55 -19.5 -103t-54.5 -82.5t-82 -54.5t-103 -20zM391 671v-3q0 -45 -27.5 -69t-66.5 -24q-40 0 -68 24t-28 69v3h52v-3q0 -20 11.5 -33t32.5 -13q20 0 31 13t11 33v3h52z" />
    <glyph glyph-name="Ohungarumlaut" unicode="&#x150;" horiz-adv-x="800" 
d="M384 880l-56 -101h-62l49 101h69zM533 880l-62 -101h-62l49 101h75zM400 -12q-76 0 -141.5 28t-113.5 76.5t-75.5 115t-27.5 144.5q0 77 27.5 142.5t75.5 114t113.5 76t141.5 27.5t141.5 -27.5t113.5 -76t75 -114t27 -142.5q0 -78 -27 -144.5t-75 -115t-113.5 -76.5
t-141.5 -28zM400 61q63 0 115 23t89 63t57.5 93t20.5 113q0 58 -20.5 110t-57.5 91t-89 62t-115 23t-115 -23t-89 -62t-57.5 -91t-20.5 -110q0 -60 20.5 -113t57.5 -93t89 -63t115 -23z" />
    <glyph glyph-name="ohungarumlaut" unicode="&#x151;" horiz-adv-x="593" 
d="M281 676l-57 -101h-62l49 101h70zM429 676l-62 -101h-61l48 101h75zM297 -9q-56 0 -103.5 20t-82.5 54.5t-55 82.5t-20 103q0 56 20 103t55 82t82.5 54.5t103.5 19.5t103 -19.5t82 -54.5t54.5 -82t19.5 -103q0 -55 -19.5 -103t-54.5 -82.5t-82 -54.5t-103 -20zM297 56
q41 0 75.5 15t60.5 41t40.5 61.5t14.5 76.5t-15 77t-40.5 62t-60.5 41t-75 15q-41 0 -76.5 -15t-61.5 -41t-41 -62t-15 -77t15 -76.5t41 -61.5t61.5 -41t76.5 -15z" />
    <glyph glyph-name="OE" unicode="&#x152;" horiz-adv-x="880" 
d="M389 629q-63 0 -114 -22t-88 -59.5t-57 -87.5t-20 -107q0 -59 20 -110.5t57 -89.5t88 -60t114 -22v558zM389 0q-75 0 -139.5 26.5t-112 73.5t-74 111.5t-26.5 140.5q0 75 27 139t74 110t111.5 72.5t139.5 26.5h454v-71h-379v-245h361v-71h-361v-242h379v-71h-454z" />
    <glyph glyph-name="oe" unicode="&#x153;" horiz-adv-x="1149" 
d="M298 56q41 0 75.5 15t60.5 41t40.5 61.5t14.5 76.5t-15 77t-40.5 62t-60.5 41t-75 15q-41 0 -76.5 -15t-61.5 -41t-41 -62t-15 -77t15 -76.5t41 -61.5t61.5 -41t76.5 -15zM902 272q-4 38 -18.5 70t-37 54.5t-51.5 35t-62 12.5q-80 0 -124 -48.5t-51 -123.5h344zM967 293
q6 -43 3 -80h-411q4 -35 18.5 -64t38 -50t54.5 -33t68 -12q51 0 89.5 18.5t62.5 52.5l50 -39q-33 -45 -84.5 -70.5t-115.5 -25.5q-75 0 -131 34t-87 92q-33 -57 -91.5 -91t-132.5 -34q-56 0 -103.5 20t-82.5 54.5t-55 82.5t-20 103q0 56 20 103t55 82t82.5 54.5t103.5 19.5
q74 0 132.5 -34t91.5 -91q30 58 84.5 91t127.5 33q47 0 86.5 -15.5t69.5 -44t50 -68t27 -88.5z" />
    <glyph glyph-name="Racute" unicode="&#x154;" horiz-adv-x="640" 
d="M364 328q87 0 126 36.5t39 110.5q0 69 -42.5 111.5t-122.5 42.5h-210v-301h210zM79 0v700h284q121 0 181 -56.5t60 -168.5q0 -84 -34 -134.5t-102 -72.5l128 -268h-85l-122 257h-235v-257h-75zM303 880h75l-51 -101h-71z" />
    <glyph glyph-name="racute" unicode="&#x155;" horiz-adv-x="373" 
d="M227 676l-51 -101h-72l48 101h75zM343 435q-21 3 -39 3q-38 0 -69 -11t-53.5 -30.5t-35 -46.5t-12.5 -59v-291h-71v500h71v-81q23 47 71 68.5t102 21.5h17.5t17.5 -2z" />
    <glyph glyph-name="Rcaron" unicode="&#x158;" horiz-adv-x="640" 
d="M364 328q87 0 126 36.5t39 110.5q0 69 -42.5 111.5t-122.5 42.5h-210v-301h210zM79 0v700h284q121 0 181 -56.5t60 -168.5q0 -84 -34 -134.5t-102 -72.5l128 -268h-85l-122 257h-235v-257h-75zM350 880h72l-64 -101h-98l-64 101h73l40 -66z" />
    <glyph glyph-name="rcaron" unicode="&#x159;" horiz-adv-x="373" 
d="M285 682l-64 -101h-98l-64 101h72l41 -66l41 66h72zM343 435q-21 3 -39 3q-38 0 -69 -11t-53.5 -30.5t-35 -46.5t-12.5 -59v-291h-71v500h71v-81q23 47 71 68.5t102 21.5h17.5t17.5 -2z" />
    <glyph glyph-name="Sacute" unicode="&#x15a;" horiz-adv-x="626" 
d="M328 880h75l-51 -101h-72zM530 550q-19 26 -44.5 43.5t-54 28t-59.5 15.5t-62 5q-33 0 -63 -8.5t-53.5 -24t-38.5 -37.5t-18 -49q-2 -25 9 -44.5t36.5 -35t66 -30t97.5 -30.5q53 -15 92 -31t65.5 -34t42.5 -38.5t23 -44.5q12 -29 12 -60t-10 -60t-30 -53t-49 -40
q-66 -41 -183 -41q-43 0 -85.5 10t-79.5 27.5t-67 42t-50 53.5l55 48q15 -25 39.5 -46t55.5 -36t66.5 -23t72.5 -8q50 0 88.5 10t62.5 29t32 47.5t-3 64.5q-14 45 -72 76.5t-146 54.5q-41 13 -79.5 26t-68.5 32t-49 45t-21 64q-3 45 16 84t54 67.5t83.5 44.5t106.5 16
q35 0 72 -6.5t72.5 -20t66 -34.5t51.5 -50z" />
    <glyph glyph-name="sacute" unicode="&#x15b;" horiz-adv-x="478" 
d="M323 676l-51 -101h-71l47 101h75zM245 -12q-76 0 -131.5 30t-77.5 82l50 35q19 -39 63 -63.5t98 -24.5q122 0 124 89q0 22 -13.5 37t-34 25.5t-44 17.5t-43.5 13q-24 8 -55.5 16.5t-59 24.5t-45.5 41.5t-16 66.5q2 64 49.5 99t132.5 35q69 0 118.5 -26.5t67.5 -72.5
l-49 -30q-17 34 -53.5 51.5t-85.5 17.5q-59 0 -85 -19t-26 -59q0 -20 11 -33.5t28 -22.5t36.5 -14.5t37.5 -10.5q34 -9 70 -21t65 -30t47.5 -43.5t17.5 -62.5q-2 -73 -53 -110.5t-144 -37.5z" />
    <glyph glyph-name="Scircumflex" unicode="&#x15c;" horiz-adv-x="626" 
d="M530 550q-19 26 -44.5 43.5t-54 28t-59.5 15.5t-62 5q-33 0 -63 -8.5t-53.5 -24t-38.5 -37.5t-18 -49q-2 -25 9 -44.5t36.5 -35t66 -30t97.5 -30.5q53 -15 92 -31t65.5 -34t42.5 -38.5t23 -44.5q12 -29 12 -60t-10 -60t-30 -53t-49 -40q-66 -41 -183 -41q-43 0 -85.5 10
t-79.5 27.5t-67 42t-50 53.5l55 48q15 -25 39.5 -46t55.5 -36t66.5 -23t72.5 -8q50 0 88.5 10t62.5 29t32 47.5t-3 64.5q-14 45 -72 76.5t-146 54.5q-41 13 -79.5 26t-68.5 32t-49 45t-21 64q-3 45 16 84t54 67.5t83.5 44.5t106.5 16q35 0 72 -6.5t72.5 -20t66 -34.5
t51.5 -50zM426 792h-73l-40 68l-41 -68h-72l64 101h98z" />
    <glyph glyph-name="scircumflex" unicode="&#x15d;" horiz-adv-x="478" 
d="M352 575h-72l-40 68l-41 -68h-73l65 101h97zM245 -12q-76 0 -131.5 30t-77.5 82l50 35q19 -39 63 -63.5t98 -24.5q122 0 124 89q0 22 -13.5 37t-34 25.5t-44 17.5t-43.5 13q-24 8 -55.5 16.5t-59 24.5t-45.5 41.5t-16 66.5q2 64 49.5 99t132.5 35q31 0 60 -6t54.5 -16.5
t46 -26t33.5 -34.5l-47 -35q-21 28 -62.5 43t-86.5 15q-59 0 -85 -19t-26 -59q0 -20 11 -33.5t28 -22.5t36.5 -14.5t37.5 -10.5q34 -9 70 -21t65 -30t47.5 -43.5t17.5 -62.5q-2 -73 -53 -110.5t-144 -37.5z" />
    <glyph glyph-name="Scaron" unicode="&#x160;" horiz-adv-x="626" 
d="M354 880h72l-64 -101h-98l-64 101h72l41 -66zM530 550q-19 26 -44.5 43.5t-54 28t-59.5 15.5t-62 5q-33 0 -63 -8.5t-53.5 -24t-38.5 -37.5t-18 -49q-2 -25 9 -44.5t36.5 -35t66 -30t97.5 -30.5q53 -15 92 -31t65.5 -34t42.5 -38.5t23 -44.5q12 -29 12 -60t-10 -60
t-30 -53t-49 -40q-66 -41 -183 -41q-43 0 -85.5 10t-79.5 27.5t-67 42t-50 53.5l55 48q15 -25 39.5 -46t55.5 -36t66.5 -23t72.5 -8q50 0 88.5 10t62.5 29t32 47.5t-3 64.5q-14 45 -72 76.5t-146 54.5q-41 13 -79.5 26t-68.5 32t-49 45t-21 64q-3 45 16 84t54 67.5
t83.5 44.5t106.5 16q35 0 72 -6.5t72.5 -20t66 -34.5t51.5 -50z" />
    <glyph glyph-name="scaron" unicode="&#x161;" horiz-adv-x="478" 
d="M352 676l-64 -101h-97l-65 101h73l41 -66l40 66h72zM245 -12q-76 0 -131.5 30t-77.5 82l50 35q19 -39 63 -63.5t98 -24.5q122 0 124 89q0 22 -13.5 37t-34 25.5t-44 17.5t-43.5 13q-24 8 -55.5 16.5t-59 24.5t-45.5 41.5t-16 66.5q2 64 49.5 99t132.5 35
q69 0 118.5 -26.5t67.5 -72.5l-49 -30q-17 34 -53.5 51.5t-85.5 17.5q-59 0 -85 -19t-26 -59q0 -20 11 -33.5t28 -22.5t36.5 -14.5t37.5 -10.5q34 -9 70 -21t65 -30t47.5 -43.5t17.5 -62.5q-2 -73 -53 -110.5t-144 -37.5z" />
    <glyph glyph-name="Tcaron" unicode="&#x164;" horiz-adv-x="519" 
d="M373 880l-65 -101h-97l-64 101h72l41 -66l40 66h73zM222 631h-212v69h498v-69h-211v-631h-75v631z" />
    <glyph glyph-name="Tbar" unicode="&#x166;" horiz-adv-x="521" 
d="M222 265h-188v63h188v303h-212v69h500v-69h-213v-303h189v-63h-189v-265h-75v265z" />
    <glyph glyph-name="Wcircumflex" unicode="&#x174;" horiz-adv-x="882" 
d="M473 701l206 -572l115 572h73l-145 -701h-73l-208 579l-208 -579h-73l-145 701h72l116 -569l206 569h64zM554 779h-73l-40 68l-41 -68h-72l64 101h98z" />
    <glyph glyph-name="wcircumflex" unicode="&#x175;" horiz-adv-x="781" 
d="M752 497l-160 -497h-70l-130 366l-131 -366h-71l-162 497h72l131 -393l134 393h55l132 -392l128 392h72zM503 575h-73l-40 68l-41 -68h-72l64 101h98z" />
    <glyph glyph-name="Ydieresis" unicode="&#x178;" horiz-adv-x="576" 
d="M188 849h70v-70h-70v70zM322 849h70v-70h-70v70zM253 269l-238 430h81l195 -351l189 351h81l-229 -425v-274h-79v269z" />
    <glyph glyph-name="Zacute" unicode="&#x179;" horiz-adv-x="560" 
d="M373 880l-51 -101h-71l48 101h74zM517 700v-65l-377 -560h377l-1 -75h-477v66l375 559h-362v75h465z" />
    <glyph glyph-name="zacute" unicode="&#x17a;" horiz-adv-x="523" 
d="M344 676l-51 -101h-71l48 101h74zM457 500v-56l-301 -373h313v-71h-414v56l297 373h-295v71h400z" />
    <glyph glyph-name="Zdotaccent" unicode="&#x17b;" horiz-adv-x="560" 
d="M282 779q-16 0 -29.5 12t-13.5 32q0 19 13.5 29.5t29.5 10.5t29.5 -10.5t13.5 -29.5q0 -20 -13.5 -32t-29.5 -12zM517 700v-65l-377 -560h377l-1 -75h-477v66l375 559h-362v75h465z" />
    <glyph glyph-name="zdotaccent" unicode="&#x17c;" horiz-adv-x="523" 
d="M266 587q-16 0 -29.5 12t-13.5 32q0 19 13.5 30t29.5 11t29.5 -11t13.5 -30q0 -20 -13.5 -32t-29.5 -12zM457 500v-56l-301 -373h313v-71h-414v56l297 373h-295v71h400z" />
    <glyph glyph-name="Zcaron" unicode="&#x17d;" horiz-adv-x="560" 
d="M393 881l-64 -101h-97l-65 101h73l41 -67l40 67h72zM517 700v-65l-377 -560h377l-1 -75h-477v66l375 559h-362v75h465z" />
    <glyph glyph-name="zcaron" unicode="&#x17e;" horiz-adv-x="523" 
d="M374 676l-64 -101h-97l-65 101h73l41 -66l40 66h72zM457 500v-56l-301 -373h313v-71h-414v56l297 373h-295v71h400z" />
    <glyph glyph-name="florin" unicode="&#x192;" horiz-adv-x="395" 
d="M218 77q-5 -93 -53 -132.5t-142 -41.5l4 67q56 1 86 23.5t33 79.5l20 358h-72l4 69h72q5 111 65.5 164.5t172.5 51.5l-4 -72q-154 7 -163 -144h132l-4 -69h-132z" />
    <glyph glyph-name="circumflex" unicode="&#x2c6;" horiz-adv-x="292" 
d="M259 592h-73l-40 68l-41 -68h-72l64 101h98z" />
    <glyph glyph-name="caron" unicode="&#x2c7;" horiz-adv-x="292" 
d="M259 695l-65 -101h-97l-64 101h72l41 -66l40 66h73z" />
    <glyph glyph-name="uni02C9" unicode="&#x2c9;" horiz-adv-x="377" 
d="M19 641h313v-49h-313v49z" />
    <glyph glyph-name="breve" unicode="&#x2d8;" horiz-adv-x="255" 
d="M222 686q0 -45 -27 -69t-67 -24t-67.5 24t-27.5 69v3h51v-3q0 -20 11.5 -32.5t32.5 -12.5t31.5 12.5t10.5 32.5v3h52v-3z" />
    <glyph glyph-name="dotaccent" unicode="&#x2d9;" horiz-adv-x="152" 
d="M75 594q-15 0 -28.5 11.5t-13.5 31.5t13.5 30.5t28.5 10.5q16 0 29.5 -10.5t13.5 -30.5t-13.5 -31.5t-29.5 -11.5z" />
    <glyph glyph-name="ring" unicode="&#x2da;" horiz-adv-x="237" 
d="M119 594q-37 0 -61.5 24t-24.5 59q0 38 24.5 61t61.5 23q38 0 61.5 -23t23.5 -61q0 -35 -23.5 -59t-61.5 -24zM119 635q20 0 31 12.5t11 29.5t-11 30t-31 13t-31 -12.5t-11 -30.5q0 -17 11 -29.5t31 -12.5z" />
    <glyph glyph-name="ogonek" unicode="&#x2db;" horiz-adv-x="173" 
d="M140 -131q-22 -5 -36 -5q-32 0 -51.5 16t-19.5 43q0 29 17.5 49t32.5 28h47q-3 -2 -10.5 -8t-15.5 -14t-14 -19t-6 -24q0 -8 5 -14.5t19 -6.5t32 7v-52z" />
    <glyph glyph-name="tilde" unicode="&#x2dc;" horiz-adv-x="347" 
d="M28 601q1 42 23.5 70t62.5 28q26 0 41 -9t26 -20.5t21.5 -20.5t26.5 -9q20 0 28 12.5t9 34.5h52q-1 -45 -22.5 -72t-66.5 -27q-25 0 -40 9t-26 20.5t-21 20.5t-25 9q-19 0 -27.5 -14.5t-9.5 -31.5h-52z" />
    <glyph glyph-name="hungarumlaut" unicode="&#x2dd;" horiz-adv-x="341" 
d="M151 696l-56 -101h-62l48 101h70zM300 696l-62 -101h-62l48 101h76z" />
    <glyph glyph-name="uni0326" unicode="&#x326;" horiz-adv-x="260" 
d="M104 259h85l-57 -152h-60z" />
    <glyph glyph-name="uni0394" unicode="&#x394;" horiz-adv-x="620" 
d="M526 56l-216 572l-216 -572h432zM33 0v56l249 654h57l248 -654v-56h-554z" />
    <glyph glyph-name="uni03BC" unicode="&#x3bc;" horiz-adv-x="580" 
d="M267 -8q-36 0 -68.5 11.5t-54.5 43.5v-247h-71v700h71v-285q0 -158 139 -159q34 0 62 10t48.5 29t31.5 45.5t11 58.5v301h71v-500h-71v74q-24 -39 -68 -60.5t-101 -21.5z" />
    <glyph glyph-name="Wgrave" unicode="&#x1e80;" horiz-adv-x="882" 
d="M353 880h75l47 -101h-71zM473 701l206 -572l115 572h73l-145 -701h-73l-208 579l-208 -579h-73l-145 701h72l116 -569l206 569h64z" />
    <glyph glyph-name="wgrave" unicode="&#x1e81;" horiz-adv-x="781" 
d="M305 676h75l47 -101h-70zM752 497l-160 -497h-70l-130 366l-131 -366h-71l-162 497h72l131 -393l134 393h55l132 -392l128 392h72z" />
    <glyph glyph-name="Wacute" unicode="&#x1e82;" horiz-adv-x="882" 
d="M523 879l-51 -101h-71l48 101h74zM473 701l206 -572l115 572h73l-145 -701h-73l-208 579l-208 -579h-73l-145 701h72l116 -569l206 569h64z" />
    <glyph glyph-name="wacute" unicode="&#x1e83;" horiz-adv-x="781" 
d="M478 676l-51 -101h-72l48 101h75zM752 497l-160 -497h-70l-130 366l-131 -366h-71l-162 497h72l131 -393l134 393h55l132 -392l128 392h72z" />
    <glyph glyph-name="Wdieresis" unicode="&#x1e84;" horiz-adv-x="882" 
d="M348 849h70v-70h-70v70zM466 849h70v-70h-70v70zM473 701l206 -572l115 572h73l-145 -701h-73l-208 579l-208 -579h-73l-145 701h72l116 -569l206 569h64z" />
    <glyph glyph-name="wdieresis" unicode="&#x1e85;" horiz-adv-x="781" 
d="M292 645h70v-70h-70v70zM419 645h70v-70h-70v70zM752 497l-160 -497h-70l-130 366l-131 -366h-71l-162 497h72l131 -393l134 393h55l132 -392l128 392h72z" />
    <glyph glyph-name="endash" unicode="&#x2013;" horiz-adv-x="346" 
d="M40 305h250v-56h-250v56z" />
    <glyph glyph-name="emdash" unicode="&#x2014;" horiz-adv-x="580" 
d="M40 305h500v-56h-500v56z" />
    <glyph glyph-name="quoteleft" unicode="&#x2018;" horiz-adv-x="175" 
d="M84 700h43l-2 -160h-82z" />
    <glyph glyph-name="quoteright" unicode="&#x2019;" horiz-adv-x="175" 
d="M89 540h-43l2 160h81z" />
    <glyph glyph-name="quotesinglbase" unicode="&#x201a;" horiz-adv-x="160" 
d="M84 44h43l-2 -160h-82z" />
    <glyph glyph-name="quotedblleft" unicode="&#x201c;" horiz-adv-x="281" 
d="M117 700h43l-35 -160h-82zM208 700h43l-7 -160h-82z" />
    <glyph glyph-name="quotedblright" unicode="&#x201d;" horiz-adv-x="281" 
d="M177 540h-43l35 160h82zM86 540h-43l7 160h82z" />
    <glyph glyph-name="quotedblbase" unicode="&#x201e;" horiz-adv-x="300" 
d="M92 -87h-40l-4 160h81zM207 -87h-47l11 160h82z" />
    <glyph glyph-name="dagger" unicode="&#x2020;" horiz-adv-x="418" 
d="M177 436h-118v64h118v200h64v-200h118v-64h-118v-436h-64v436z" />
    <glyph glyph-name="daggerdbl" unicode="&#x2021;" horiz-adv-x="418" 
d="M177 242h-118v63h118v131h-118v64h118v200h64v-200h118v-64h-118v-131h118v-63h-118v-242h-64v242z" />
    <glyph glyph-name="bullet" unicode="&#x2022;" horiz-adv-x="376" 
d="M111 351q0 30 21 51t50 21q30 0 51 -21t21 -51q0 -29 -21 -50t-51 -21q-29 0 -50 21t-21 50z" />
    <glyph glyph-name="ellipsis" unicode="&#x2026;" horiz-adv-x="487" 
d="M47 46q0 19 13 32t32 13t32.5 -13t13.5 -32q0 -20 -13.5 -33t-32.5 -13t-32 13t-13 33zM198 46q0 19 13 32t32 13q20 0 33 -13t13 -32q0 -20 -13 -33t-33 -13q-19 0 -32 13t-13 33zM349 46q0 19 13.5 32t32.5 13t32 -13t13 -32q0 -20 -13 -33t-32 -13t-32.5 13t-13.5 33z
" />
    <glyph glyph-name="perthousand" unicode="&#x2030;" horiz-adv-x="1177" 
d="M214 326q-37 0 -67.5 14.5t-52.5 40t-34 61t-12 77.5t12 77.5t34 61t52.5 40t67.5 14.5t67.5 -14.5t53 -40t35 -61t12.5 -77.5t-12.5 -77.5t-35 -61t-53 -40t-67.5 -14.5zM590 710h48l-387 -710h-48zM213 372q54 0 86.5 41t32.5 107q0 65 -33 105t-86 40
q-52 0 -83.5 -39.5t-31.5 -105.5q0 -67 31.5 -107.5t83.5 -40.5zM634 0q-36 0 -66.5 14.5t-52.5 40t-34 61t-12 77.5t12 77.5t34 61t52.5 40t66.5 14.5q37 0 67.5 -14.5t53 -40t35 -61t12.5 -77.5t-12.5 -77.5t-35 -61t-53 -40t-67.5 -14.5zM1009 0q-37 0 -67 14.5t-52 40
t-34 61t-12 77.5t12 77.5t34 61t52 40t67 14.5t67.5 -14.5t53 -40t35 -61t12.5 -77.5t-12.5 -77.5t-35 -61t-53 -40t-67.5 -14.5zM634 46q54 0 86.5 41t32.5 107q0 65 -33 105t-86 40q-55 0 -85 -39.5t-30 -105.5q0 -67 31.5 -107.5t83.5 -40.5zM1009 46q54 0 86 41t32 107
q0 65 -32.5 105t-85.5 40q-55 0 -85.5 -39.5t-30.5 -105.5q0 -67 31.5 -107.5t84.5 -40.5z" />
    <glyph glyph-name="guilsinglleft" unicode="&#x2039;" horiz-adv-x="300" 
d="M118 309l117 -153h-53l-117 153l117 153h53z" />
    <glyph glyph-name="guilsinglright" unicode="&#x203a;" horiz-adv-x="300" 
d="M118 462l117 -153l-117 -153h-53l117 153l-117 153h53z" />
    <glyph glyph-name="fraction" unicode="&#x2044;" horiz-adv-x="681" 
d="M572 800h45l-534 -900h-44z" />
    <glyph glyph-name="franc" unicode="&#x20a3;" horiz-adv-x="528" 
d="M64 150h-77v63h77v487h421v-71h-346v-234h327v-71h-327v-111h148v-63h-148v-150h-75v150z" />
    <glyph glyph-name="lira" unicode="&#x20a4;" horiz-adv-x="483" 
d="M-8 297h81v78h-81v56h81v70q0 96 47.5 149t133.5 53q61 0 106 -31t58 -87l-53 -10q-12 37 -40.5 54t-71.5 17q-61 0 -92.5 -36.5t-31.5 -106.5v-72h167v-56h-167v-78h171v-56h-171v-92q0 -35 -7 -59t-21 -34h315v-56h-393v56q9 0 14 4q36 18 36 89v92h-81v56z" />
    <glyph glyph-name="peseta" unicode="&#x20a7;" horiz-adv-x="1440" 
d="M332 297q35 0 63 12t48 34t31 52.5t11 67.5t-11 67.5t-31 52.5t-48 34t-63 12h-182v-332h182zM1048 -12q-77 0 -132.5 30t-77.5 82l50 35q19 -39 63 -63.5t98 -24.5q122 0 124 89q0 22 -13.5 37t-34 25.5t-44 17.5t-43.5 13q-24 8 -55.5 16.5t-59 24.5t-45.5 41.5
t-16 66.5q2 31 13 55h-172v-271q0 -57 28.5 -79.5t84.5 -23.5v-68q-94 3 -139.5 42.5t-45.5 133.5v266h-76q-8 -100 -68.5 -153.5t-164.5 -53.5h-172v-226h-71v700h243q107 0 165 -53t67 -147h77l1 159h71v-159h256q38 12 85 12q70 0 122 -27t70 -72l-50 -29
q-16 32 -54.5 50t-89.5 18q-56 0 -83 -18v-1h-2q-26 -21 -26 -59q0 -20 11 -33.5t28 -22.5t36.5 -14.5t37.5 -10.5q34 -9 70 -21t65 -30t47.5 -43.5t17.5 -62.5q-2 -73 -53 -110.5t-143 -37.5z" />
    <glyph glyph-name="Euro" unicode="&#x20ac;" horiz-adv-x="653" 
d="M547 576q-28 32 -67 50.5t-85 18.5q-41 0 -75 -14.5t-60.5 -41t-44 -63.5t-26.5 -82h214v-57h-225q-1 -8 -1 -17v-18q0 -28 3 -54h223v-56h-207q20 -82 71 -132t128 -50q46 0 85 18.5t67 50.5l53 -41q-38 -45 -90 -70.5t-115 -25.5q-54 0 -99.5 18t-80.5 51t-59.5 79
t-36.5 102h-92v56h81q-1 13 -1.5 26.5t-0.5 27.5v18t1 17h-80v57h87q11 60 34.5 109t59.5 84t83 54.5t104 19.5q63 0 115 -24.5t90 -69.5z" />
    <glyph glyph-name="uni2113" unicode="&#x2113;" horiz-adv-x="520" 
 />
    <glyph glyph-name="uni2116" unicode="&#x2116;" horiz-adv-x="1302" 
d="M1006 246q41 0 76 15t61 41t40.5 61.5t14.5 76.5t-15 77t-40.5 62t-60.5 41t-76 15t-76 -15t-61 -41t-41 -62t-15 -77t15 -76.5t41 -61.5t61 -41t76 -15zM755 0v67h506v-67h-506zM79 -1v702h66l409 -559v559h75v-702h-62l-413 563v-563h-75zM1006 181q-56 0 -103.5 20
t-82.5 54.5t-55 82.5t-20 103q0 56 20 103t55 82t82.5 54.5t103.5 19.5t103 -19.5t82 -54.5t54.5 -82t19.5 -103q0 -55 -19.5 -103t-54.5 -82.5t-82 -54.5t-103 -20z" />
    <glyph glyph-name="trademark" unicode="&#x2122;" horiz-adv-x="420" 
d="M84 668h-54v33h144v-33h-55v-168h-35v168zM278 530l-46 100v-130h-35v201h38l58 -123l58 123h38v-201h-35v130l-46 -100h-30z" />
    <glyph glyph-name="estimated" unicode="&#x212e;" horiz-adv-x="555" 
d="M137 263h298v142q-28 35 -67 55t-87 20q-45 0 -81 -14t-63 -40v-163zM281 510q59 0 103 -23.5t73 -62t43.5 -88.5t14.5 -103h-378v-155q28 -26 66 -41t84 -15q60 0 106 24.5t74 67.5l25 -16q-32 -49 -84.5 -77.5t-120.5 -28.5q-55 0 -100.5 19t-78 53t-50.5 81t-18 102
q0 60 17 108.5t48.5 83t76 53t99.5 18.5z" />
    <glyph glyph-name="arrowleft" unicode="&#x2190;" horiz-adv-x="592" 
d="M562 376v-57h-423l122 -120l-40 -40l-191 190l186 183l41 -39l-120 -117h425z" />
    <glyph glyph-name="arrowup" unicode="&#x2191;" horiz-adv-x="553" 
d="M253 0v425l-121 -124l-39 41l187 190l190 -191l-40 -40l-120 122v-423h-57z" />
    <glyph glyph-name="arrowright" unicode="&#x2192;" horiz-adv-x="592" 
d="M30 376h425l-119 117l40 39l186 -183l-191 -190l-40 40l122 120h-423v57z" />
    <glyph glyph-name="arrowdown" unicode="&#x2193;" horiz-adv-x="553" 
d="M253 532h57v-423l120 122l40 -40l-190 -191l-187 190l39 40l121 -123v425z" />
    <glyph glyph-name="partialdiff" unicode="&#x2202;" horiz-adv-x="579" 
d="M288 417q-35 0 -65.5 -13.5t-53 -37t-35.5 -55.5t-13 -68q0 -39 12.5 -70.5t35 -54.5t53 -35.5t66.5 -12.5q37 0 68 12.5t53.5 35.5t35 54.5t12.5 70.5q0 38 -12.5 70t-34.5 55t-53 36t-69 13zM185 700h89q19 -28 41.5 -63t46 -70t45 -67.5t38.5 -54.5q43 -54 65 -100
t22 -102q0 -53 -18.5 -98.5t-51.5 -78.5t-77.5 -52t-96.5 -19t-96 19t-76.5 52t-51 78.5t-18.5 98.5q0 52 19.5 96.5t52 77t75.5 51t90 18.5q11 0 23 -1.5t24 -3.5z" />
    <glyph glyph-name="product" unicode="&#x220f;" horiz-adv-x="649" 
d="M101 711h458v-911h-56v854h-346v-854h-56v911z" />
    <glyph glyph-name="summation" unicode="&#x2211;" horiz-adv-x="677" 
d="M81 -144l221 478l-206 309v57h447v-56h-381l204 -308l-222 -480h416v-56h-478z" />
    <glyph glyph-name="minus" unicode="&#x2212;" horiz-adv-x="572" 
d="M428 380v-56h-339v56h339z" />
    <glyph glyph-name="uni2215" unicode="&#x2215;" horiz-adv-x="416" 
d="M354 800h42l-334 -900h-41z" />
    <glyph glyph-name="uni2219" unicode="&#x2219;" horiz-adv-x="139" 
d="M21 392q0 20 14 34.5t34 14.5t34.5 -14.5t14.5 -34.5t-14.5 -34.5t-34.5 -14.5t-34 14.5t-14 34.5z" />
    <glyph glyph-name="radical" unicode="&#x221a;" horiz-adv-x="625" 
d="M28 405h97l105 -308l312 703h62l-355 -800h-45l-119 349h-57v56z" />
    <glyph glyph-name="infinity" unicode="&#x221e;" horiz-adv-x="842" 
d="M421 246q-44 -70 -89.5 -101.5t-102.5 -31.5q-37 0 -68 12.5t-53.5 34.5t-35 52.5t-12.5 66.5t12.5 66.5t35 52.5t53.5 34.5t68 12.5q57 0 102.5 -32t89.5 -101q44 69 89.5 101t102.5 32q37 0 68 -12.5t53.5 -34.5t35 -52.5t12.5 -66.5t-12.5 -66.5t-35 -52.5
t-53.5 -34.5t-68 -12.5q-57 0 -102 31.5t-90 101.5zM436 279q43 -72 83.5 -104t88.5 -32q66 0 105 37t39 99t-39 99t-105 37q-48 0 -89 -32t-83 -104zM406 279q-42 72 -83 104t-89 32q-66 0 -105 -37t-39 -99t39.5 -99t104.5 -37q48 0 88.5 32t83.5 104z" />
    <glyph glyph-name="integral" unicode="&#x222b;" horiz-adv-x="387" 
d="M150 596q-1 84 48.5 130t137.5 48v-57q-60 -1 -95.5 -30.5t-35.5 -83.5l1 -675q0 -77 -49.5 -122t-137.5 -47v56q60 1 95.5 31t35.5 84v666z" />
    <glyph glyph-name="approxequal" unicode="&#x2248;" horiz-adv-x="332" 
d="M222 356q-25 0 -40 9t-26 20.5t-21 20.5t-25 9q-19 0 -27.5 -14.5t-9.5 -31.5h-52q1 42 23.5 70t62.5 28q26 0 41 -9t26 -20.5t21.5 -20.5t26.5 -9q20 0 28 12.5t9 34.5h52q-1 -45 -22.5 -72t-66.5 -27zM222 234q-25 0 -40 9t-26 20.5t-21 20.5t-25 9q-19 0 -27.5 -14.5
t-9.5 -31.5h-52q1 42 23.5 70.5t62.5 28.5q26 0 41 -9t26 -20.5t21.5 -20.5t26.5 -9q20 0 28 12.5t9 33.5h52q-1 -45 -22.5 -72t-66.5 -27z" />
    <glyph glyph-name="notequal" unicode="&#x2260;" horiz-adv-x="572" 
d="M221 232h-143v64h167l42 113h-209v63h232l40 107h42l-40 -107h126v-63h-150l-42 -113h192v-64h-216l-36 -98h-41z" />
    <glyph glyph-name="lessequal" unicode="&#x2264;" horiz-adv-x="620" 
d="M60 485l500 185v-69l-401 -145l401 -146v-69l-500 185v59zM560 154v-64h-500v64h500z" />
    <glyph glyph-name="greaterequal" unicode="&#x2265;" horiz-adv-x="620" 
d="M60 241v69l402 146l-402 145v69l500 -185v-59zM560 90h-500v64h500v-64z" />
    <glyph glyph-name="lozenge" unicode="&#x25ca;" horiz-adv-x="512" 
d="M256 49l177 301l-177 300l-177 -300zM224 0l-206 350l206 350h64l206 -350l-206 -350h-64z" />
    <glyph glyph-name="uniF8FF" unicode="&#xf8ff;" horiz-adv-x="125" 
 />
    <glyph glyph-name="f_f" unicode="&#xfb00;" horiz-adv-x="629" 
d="M378 0v431h-179v-431h-72v431h-71v69h71q-1 106 50 154t164 46v-72q-77 3 -109.5 -27.5t-32.5 -100.5h179q-1 108 50.5 159.5t163.5 49.5v-71q-75 2 -109 -32t-34 -106h132v-69h-132v-431h-71z" />
    <glyph glyph-name="fi" unicode="&#xfb01;" horiz-adv-x="511" 
d="M127 0v431h-71v69h71q-1 106 50 154t164 46v-72q-77 3 -109.5 -27.5t-32.5 -100.5l276 -1v-500h-71v432h-205v-431h-72zM404 700h71v-71h-71v71z" />
    <glyph glyph-name="fl" unicode="&#xfb02;" horiz-adv-x="511" 
d="M127 0v431h-71v69h71q-1 106 50 154t164 46v-72q-77 3 -109.5 -27.5t-32.5 -100.5l205 -1v201h71v-701h-71v432h-205v-431h-72z" />
    <glyph glyph-name="f_f_i" unicode="&#xfb03;" horiz-adv-x="787" 
d="M127 0v431h-71v69h71q-1 108 51 159.5t163 49.5v-71q-75 2 -108.5 -32t-33.5 -106h185q-1 106 50 154t164 46v-72q-77 3 -109.5 -27.5t-32.5 -100.5l276 -1v-500h-71v432h-205v-431h-72v431h-185v-431h-72zM661 700h71v-71h-71v71z" />
    <glyph glyph-name="f_f_l" unicode="&#xfb04;" horiz-adv-x="787" 
d="M127 0v431h-71v69h71q-1 108 51 159.5t163 49.5v-71q-75 2 -108.5 -32t-33.5 -106h185q-1 106 50 154t164 46v-72q-77 3 -109.5 -27.5t-32.5 -100.5l205 -1v201h71v-701h-71v432h-205v-431h-72v431h-185v-431h-72z" />
    <glyph glyph-name="Bitcoin" horiz-adv-x="645" 
d="M48 699h115v100h56v-100h108v100h56v-100h28q45 0 80 -14t58.5 -38.5t35.5 -58.5t12 -74q0 -62 -21.5 -101t-63.5 -64q51 -20 78.5 -62t27.5 -105q0 -40 -12 -74t-35.5 -59t-58 -39t-79.5 -14h-50v-100h-56v100h-108v-100h-56v100h-115v56h55v591h-55v56zM406 374
q64 0 99.5 38.5t35.5 101.5q0 26 -7.5 49t-24 41t-42 28.5t-61.5 10.5h-247v-269h247zM426 52q37 0 63 11t42 29t23 41.5t7 48.5q0 28 -9.5 52.5t-26.5 43t-42 29.5t-57 11h-267v-266h267z" />
    <glyph glyph-name="grave.case" horiz-adv-x="260" 
d="M69 922h75l48 -102h-71z" />
    <glyph glyph-name="dieresis.case" horiz-adv-x="260" 
d="M7 893h70v-70h-70v70zM172 893h70v-70h-70v70z" />
    <glyph glyph-name="macron.case" horiz-adv-x="260" 
 />
    <glyph glyph-name="acute.case" horiz-adv-x="260" 
d="M191 925l-51 -101h-71l47 101h75z" />
    <glyph glyph-name="circumflex.case" horiz-adv-x="260" 
d="M243 792h-73l-40 68l-41 -68h-72l64 101h98z" />
    <glyph glyph-name="caron.case" horiz-adv-x="260" 
d="M243 895l-65 -101h-97l-64 101h72l41 -66l40 66h73z" />
    <glyph glyph-name="breve.case" horiz-adv-x="260" 
d="M225 886q0 -45 -27 -69t-67 -24t-67.5 24t-27.5 69v3h51v-3q0 -20 11.5 -32.5t32.5 -12.5t31.5 12.5t10.5 32.5v3h52v-3z" />
    <glyph glyph-name="dotaccent.case" horiz-adv-x="260" 
d="M129 794q-15 0 -28.5 11.5t-13.5 31.5t13.5 30.5t28.5 10.5q16 0 29.5 -10.5t13.5 -30.5t-13.5 -31.5t-29.5 -11.5z" />
    <glyph glyph-name="tilde.case" horiz-adv-x="260" 
d="M-15 801q1 42 23.5 70t62.5 28q26 0 41 -9t26 -20.5t21.5 -20.5t26.5 -9q20 0 28 12.5t9 34.5h52q-1 -45 -22.5 -72t-66.5 -27q-25 0 -40 9t-26 20.5t-21 20.5t-25 9q-19 0 -27.5 -14.5t-9.5 -31.5h-52z" />
    <glyph glyph-name="ring.case" horiz-adv-x="260" 
d="M131 794q-37 0 -61.5 24t-24.5 59q0 38 24.5 61t61.5 23q38 0 61.5 -23t23.5 -61q0 -35 -23.5 -59t-61.5 -24zM131 835q20 0 31 12.5t11 29.5t-11 30t-31 13t-31 -12.5t-11 -30.5q0 -17 11 -29.5t31 -12.5z" />
    <glyph glyph-name="hungarumlaut.case" horiz-adv-x="260" 
d="M115 896l-56 -101h-62l48 101h70zM264 896l-62 -101h-62l48 101h76z" />
    <glyph glyph-name="caron.salt" horiz-adv-x="292" 
d="M292 927l-65 -101h-97l-64 101h72l41 -67l40 67h73z" />
    <glyph glyph-name="uni0326.salt" horiz-adv-x="260" 
d="M104 259h85l-57 -152h-60z" />
    <glyph glyph-name="Q.alt" horiz-adv-x="788" 
d="M394 -12q-76 0 -141.5 28t-113.5 76.5t-75.5 115t-27.5 144.5q0 77 27.5 142.5t75.5 114t113.5 76t141.5 27.5t141.5 -27.5t113.5 -76t75 -114t27 -142.5q0 -78 -27 -144.5t-75 -115t-113.5 -76.5t-141.5 -28zM394 61q63 0 115 23t89 63t57.5 93t20.5 113q0 58 -20.5 110
t-57.5 91t-89 62t-115 23t-115 -23t-89 -62t-57.5 -91t-20.5 -110q0 -60 20.5 -113t57.5 -93t89 -63t115 -23zM621 -30q0 18 12.5 30.5t30.5 12.5q19 0 31.5 -12.5t12.5 -30.5q0 -19 -12.5 -31.5t-31.5 -12.5q-18 0 -30.5 12.5t-12.5 31.5z" />
    <glyph glyph-name="quotesinglbase1" horiz-adv-x="175" 
d="M89 -87h-43l2 160h81z" />
    </font>
</defs>
</svg>
